<svg height="496pt" viewBox="0 -14 496.896 496" width="496pt" xmlns="http://www.w3.org/2000/svg"><g fill="#607d8b"><path d="m157.589844 335.3125c-33.234375 19.46875-64.675782 41.851562-93.945313 66.890625l-21.667969-16.929687c15.691407-15.113282 41.207032-38.730469 69.121094-61.855469zm0 0"/><path d="m339.265625 335.3125c33.242187 19.46875 64.691406 41.855469 93.976563 66.890625l21.636718-16.929687c-15.691406-15.113282-41.207031-38.730469-69.121094-61.855469zm0 0"/><path d="m487.910156 12.835938c-.742187 42.03125-18.910156 157.890624-186.546875 249.804687l-52.9375 26.671875c-33.527343 16.601562-61.4375 31.382812-84.644531 44.429688l-9.414062-8.257813-9.660157-8.421875-12.222656-10.652344c13.789063-10.65625 27.664063-20.566406 40.878906-28.90625 6.933594-4.375 14.367188-9.332031 22.128907-14.863281l52.933593-41.867187c53.347657-46.082032 108.015625-104.21875 130.644531-148.152344.476563-.988282 1.34375-1.738282 2.394532-2.0625 18.257812-5.460938 35.933594-12.707032 52.769531-21.636719 9.96875-5.28125 19.378906-11.5625 28.078125-18.746094 6.941406-5.558593 13.007812-12.128906 18-19.488281.984375-1.523438 2.847656-2.226562 4.59375-1.734375s2.964844 2.066406 3.003906 3.882813zm0 0"/></g><path d="m462.3125 30.175781c-5.78125 51.035157-37.078125 151.121094-185.394531 232.464844l-52.933594 26.671875c-26.59375 13.132812-49.632813 25.1875-69.617187 36.171875l-9.660157-8.421875-12.222656-10.652344c13.789063-10.65625 27.664063-20.566406 40.878906-28.90625 6.933594-4.375 14.367188-9.332031 22.128907-14.863281l52.933593-41.867187c53.347657-46.082032 108.015625-104.21875 130.644531-148.152344.476563-.988282 1.34375-1.738282 2.394532-2.0625 18.257812-5.460938 35.933594-12.707032 52.769531-21.636719 9.96875-5.28125 19.378906-11.5625 28.078125-18.746094zm0 0" fill="#cfd8dc"/><path d="m434.234375 48.921875c-11.148437 54.339844-50.539063 141.460937-182.421875 213.71875l-52.933594 26.671875c-19.984375 9.910156-58.136718 29.152344-74.324218 37.742188l7.929687-20.644532c13.789063-10.65625 27.664063-20.566406 40.878906-28.90625 6.933594-4.375 14.367188-9.332031 22.128907-14.863281l52.933593-41.867187c53.347657-46.082032 108.015625-104.21875 130.644531-148.152344.476563-.988282 1.34375-1.738282 2.394532-2.0625 18.257812-5.460938 35.933594-12.707032 52.769531-21.636719zm0 0" fill="#607d8b"/><path d="m364.371094 306.410156-12.222656 10.652344-19.074219 16.679688c-28.574219-16.101563-64.25-34.765626-108.679688-56.238282-194.394531-93.894531-214.707031-220.324218-215.449219-264.667968.039063-1.816407 1.257813-3.390626 3.003907-3.882813 1.746093-.492187 3.609375.210937 4.589843 1.734375 12.144532 16.167969 27.933594 29.238281 46.082032 38.152344 16.839844 9 34.546875 16.277344 52.851562 21.71875 1.015625.351562 1.847656 1.097656 2.3125 2.0625 33.941406 65.984375 140.140625 163.925781 205.707032 204.882812 13.214843 8.339844 27.085937 18.25 40.878906 28.90625zm0 0" fill="#cfd8dc"/><path d="m364.371094 306.410156 7.925781 20.644532c-22.460937-11.976563-68.539063-35.097657-98.351563-49.550782-155.167968-74.898437-199.433593-170.527344-211.324218-228.664062 16.839844 9 34.546875 16.277344 52.851562 21.71875 1.015625.351562 1.847656 1.097656 2.3125 2.0625 33.941406 65.984375 140.140625 163.925781 205.707032 204.882812 13.214843 8.339844 27.085937 18.25 40.878906 28.90625zm0 0" fill="#607d8b"/><path d="m436.050781 430.195312c-32.035156 9.042969-65.859375-6.726562-79.523437-37.078124-10.160156-20.230469-6.9375-33.773438 1.648437-44.921876 8.320313-9.183593 17.5625-17.488281 27.582031-24.777343 12.304688-10.253907 37.742188-32.527344 21.695313-50.015625-3.613281-3.800782-9.28125-4.804688-13.980469-2.480469-6.886718 3.402344-7.796875 11.289063-11.058594 17.34375-4.882812 7.078125-10.992187 13.222656-18.042968 18.144531-6.277344 5.53125-14.285156 12.21875-24.363282 20.644532-2.46875 2.058593-4.785156 4.292968-6.933593 6.6875-39.144531 42.941406-6.195313 117.59375 56.484375 125.441406 33.195312 4.128906 51.777344-6.277344 62.015625-17.757813" fill="#ffeb3a"/><path d="m45.277344 441.425781c10.242187 11.480469 28.824218 21.886719 62.019531 17.757813 62.679687-7.847656 95.628906-82.5 56.484375-125.441406-2.148438-2.394532-4.464844-4.628907-6.9375-6.6875-10.074219-8.425782-18.082031-15.113282-24.359375-20.644532-7.046875-4.914062-13.15625-11.046875-18.042969-18.113281-3.253906-6.050781-4.171875-13.9375-11.058594-17.339844-4.695312-2.328125-10.363281-1.324219-13.972656 2.476563-16.054687 17.492187 9.382813 39.761718 21.695313 50.019531 10.015625 7.289063 19.257812 15.589844 27.570312 24.773437 8.589844 11.148438 11.8125 24.691407 1.652344 44.925782-13.664063 30.347656-47.492187 46.121094-79.523437 37.078125" fill="#ffeb3a"/><path d="m488.65625 413.761719c0 7.667969-3.046875 15.019531-8.46875 20.4375-5.417969 5.421875-12.769531 8.46875-20.4375 8.46875-4.4375.011719-8.820312-1.003907-12.796875-2.972657-9.878906-4.867187-16.136719-14.921874-16.136719-25.933593s6.257813-21.066407 16.136719-25.929688c3.976563-1.96875 8.359375-2.988281 12.796875-2.972656 7.667969 0 15.019531 3.046875 20.4375 8.464844 5.421875 5.421875 8.46875 12.773437 8.46875 20.4375zm0 0" fill="#ff9801"/><path d="m463.136719 413.761719c-.007813 11.023437-6.289063 21.082031-16.183594 25.933593-9.878906-4.867187-16.136719-14.921874-16.136719-25.933593s6.257813-21.066407 16.136719-25.929688c9.894531 4.851563 16.175781 14.910157 16.183594 25.929688zm0 0" fill="#fec108"/><path d="m66.054688 413.761719c0 15.964843-12.9375 28.90625-28.902344 28.90625-15.960938 0-28.902344-12.941407-28.902344-28.90625 0-15.960938 12.941406-28.902344 28.902344-28.902344 15.964844 0 28.902344 12.941406 28.902344 28.902344zm0 0" fill="#fec108"/><path d="m333.0625 342c-1.417969.003906-2.8125-.363281-4.042969-1.066406-30.554687-17.214844-66.957031-36.054688-108.183593-55.996094-196.144532-94.671875-219.273438-221.722656-220.152344-271.953125-.121094-5.484375 3.425781-10.375 8.671875-11.96875 5.3125-1.664063 11.082031.417969 14.105469 5.089844 23.058593 34.832031 87.058593 54.445312 94.300781 56.566406 3.21875.925781 5.910156 3.148437 7.429687 6.136719 31.925782 62.191406 135.183594 159.496094 202.710938 201.695312 12.800781 8.074219 26.773437 17.953125 41.546875 29.363282 2.335937 1.804687 3.535156 4.714843 3.140625 7.640624-.390625 2.925782-2.316406 5.417969-5.046875 6.539063-2.726563 1.125-5.847657.703125-8.183594-1.097656-14.371094-11.097657-27.90625-20.644531-40.242187-28.457031-62.078126-38.8125-170.539063-135.714844-207.773438-206.511719-14.566406-4.449219-65.429688-21.550781-93.398438-52.238281 4.832032 53.570312 37.625 161.089843 210.035157 244.332031 41.578125 20.082031 78.304687 39.082031 109.148437 56.476562 3.269532 1.84375 4.882813 5.660157 3.929688 9.292969-.957032 3.628906-4.238282 6.160156-7.996094 6.15625zm0 0"/><path d="m177.234375 221.679688c-1.597656.003906-3.164063-.460938-4.5-1.335938-58.78125-38.300781-99.765625-83.070312-121.796875-133.078125-1.257812-2.710937-.953125-5.890625.796875-8.3125 1.753906-2.421875 4.675781-3.707031 7.640625-3.363281 2.96875.339844 5.519531 2.261718 6.671875 5.019531 20.71875 47.019531 59.648437 89.375 115.703125 125.875 3.066406 1.996094 4.453125 5.769531 3.410156 9.277344-1.042968 3.503906-4.269531 5.90625-7.925781 5.902343zm0 0"/><path d="m319.621094 221.679688c-3.660156.003906-6.882813-2.394532-7.925782-5.902344-1.042968-3.503906.34375-7.28125 3.40625-9.273438 56.058594-36.519531 94.96875-78.875 115.707032-125.894531 1.890625-4.082031 6.703125-5.898437 10.820312-4.085937 4.117188 1.8125 6.023438 6.589843 4.289063 10.742187-22.039063 50.007813-63.015625 94.777344-121.796875 133.078125-1.339844.875-2.902344 1.339844-4.5 1.335938zm0 0"/><path d="m454.878906 393.53125c-2.136718.003906-4.1875-.824219-5.722656-2.3125-10.214844-9.828125-37.34375-35.511719-68.664062-61.441406-2.300782-1.875-3.414063-4.835938-2.925782-7.761719.488282-2.921875 2.507813-5.359375 5.292969-6.382813 2.78125-1.027343 5.898437-.480468 8.167969 1.429688 30.613281 25.351562 56.734375 49.894531 69.574218 62.265625 2.425782 2.335937 3.1875 5.910156 1.929688 9.03125s-4.285156 5.167969-7.652344 5.171875zm0 0"/><path d="m433.242188 410.460938c-2.1875 0-4.289063-.871094-5.835938-2.421876-22.441406-20.289062-47.09375-37.988281-73.5-52.757812-3.917969-2.34375-5.195312-7.417969-2.851562-11.335938 2.339843-3.917968 7.417968-5.195312 11.332031-2.851562 27.566406 15.453125 53.285156 33.988281 76.660156 55.253906 2.371094 2.355469 3.085937 5.90625 1.816406 8.996094-1.273437 3.089844-4.28125 5.109375-7.621093 5.117188zm0 0"/><path d="m459.734375 450.925781c-20.523437 0-37.160156-16.640625-37.160156-37.164062 0-20.523438 16.636719-37.160157 37.160156-37.160157s37.160156 16.636719 37.160156 37.160157c0 20.523437-16.636719 37.164062-37.160156 37.164062zm0-57.808593c-11.402344 0-20.644531 9.242187-20.644531 20.644531 0 11.402343 9.242187 20.648437 20.644531 20.648437s20.644531-9.246094 20.644531-20.648437c0-5.472657-2.175781-10.726563-6.046875-14.597657-3.871093-3.871093-9.121093-6.046874-14.597656-6.046874zm0 0"/><path d="m403.679688 468.355469c-5.066407-.007813-10.128907-.335938-15.152344-.980469-34.359375-4.316406-63.414063-27.496094-75.25-60.035156-10.859375-26.84375-5.558594-57.523438 13.683594-79.164063 2.398437-2.660156 4.984374-5.140625 7.738281-7.429687 10.265625-8.589844 18.070312-15.105469 24.203125-20.507813 1.472656-1.277343 2.957031-2.476562 4.460937-3.722656 4.644531-3.265625 8.640625-7.371094 11.777344-12.105469.746094-1.484375 1.410156-3.007812 1.980469-4.566406 1.933594-6.871094 6.484375-12.710938 12.675781-16.261719 7.980469-3.980469 17.625-2.25 23.726563 4.253907 5.101562 5.308593 7.742187 12.519531 7.273437 19.867187-1.089844 16.226563-16.515625 31.019531-29.726563 42.117187-2.394531 1.996094-4.832031 3.945313-7.253906 5.878907-7.003906 5.121093-13.40625 11.027343-19.074218 17.597656-5.679688 7.367187-10.214844 17.433594-.824219 36.171875 12.039062 26.808594 41.90625 40.753906 70.191406 32.773438 4.390625-1.007813 8.78125 1.691406 9.867187 6.0625 1.082032 4.375-1.539062 8.808593-5.894531 9.96875-35.804687 9.964843-73.53125-7.628907-88.90625-41.464844-10.304687-20.539063-9.488281-38.085938 2.476563-53.675782 6.457031-7.636718 13.789062-14.488281 21.84375-20.414062 2.335937-1.867188 4.683594-3.742188 6.996094-5.664062 5.710937-4.765626 23.121093-19.25 23.847656-30.5.164062-2.839844-.914063-5.613282-2.957032-7.597657-1.140624-1.074219-2.832031-1.324219-4.234374-.625-1.976563.980469-2.992188 3.375-4.632813 7.523438-.8125 2.164062-1.75 4.277343-2.808594 6.332031-4.101562 6.6875-9.496093 12.488281-15.863281 17.070312-1.378906 1.121094-2.742188 2.238282-4.046875 3.359376-6.167969 5.441406-14.039063 12.050781-23.992187 20.339843-2.335938 1.921875-4.527344 4.015625-6.554688 6.261719-15.0625 17.109375-19.117188 41.285156-10.457031 62.371094 9.710937 26.746094 33.574219 45.8125 61.804687 49.375 24.726563 3.074218 43.183594-1.980469 54.835938-15.054688 1.9375-2.285156 4.964844-3.339844 7.90625-2.753906s5.332031 2.722656 6.25 5.578125c.914062 2.851563.210937 5.980469-1.835938 8.167969-13.96875 14.792968-33.765625 22.648437-54.074218 21.453125zm0 0"/><path d="m301.371094 270.898438c-3.777344.003906-7.074219-2.546876-8.011719-6.203126s.71875-7.484374 4.03125-9.296874c147.742187-81.003907 176.929687-179.835938 181.527344-229.574219-28.078125 30.941406-78.714844 47.765625-93.316407 52.125-21.46875 40.652343-70.546874 96.179687-131.773437 149.074219-2.234375 1.929687-5.328125 2.519531-8.113281 1.550781-2.789063-.96875-4.847656-3.351563-5.402344-6.25-.554688-2.898438.480469-5.875 2.714844-7.804688 59.640625-51.511719 108.957031-107.355469 128.703125-145.679687 1.480469-2.972656 4.121093-5.203125 7.296875-6.175782 7.351562-2.113281 71.113281-21.289062 94.398437-56.527343 3.011719-4.679688 8.773438-6.777344 14.089844-5.128907 5.257813 1.589844 8.800781 6.5 8.652344 11.992188-.824219 46.246094-21.046875 163.789062-190.835938 256.882812-1.210937.667969-2.578125 1.019532-3.960937 1.015626zm85.058594-194.585938v.082031zm0 0"/><path d="m163.789062 342c-3.757812.007812-7.046874-2.527344-8-6.164062-.953124-3.632813.667969-7.453126 3.945313-9.292969 25.046875-14.082031 53.679687-29.09375 85.058594-44.59375 2.648437-1.335938 5.804687-1.148438 8.277343.488281 2.472657 1.632812 3.875 4.46875 3.679688 7.425781-.191406 2.960938-1.957031 5.585938-4.621094 6.882813-31.117187 15.402344-59.460937 30.28125-84.234375 44.230468-1.253906.691407-2.671875 1.042969-4.105469 1.023438zm0 0"/><path d="m132.484375 314.667969c-3.535156 0-6.679687-2.25-7.820313-5.59375-1.140624-3.347657-.027343-7.046875 2.773438-9.207031 14.773438-11.410157 28.746094-21.289063 41.515625-29.347657 7.234375-4.558593 14.550781-9.472656 21.742187-14.601562 2.402344-1.710938 5.539063-2.011719 8.222657-.789063 2.683593 1.226563 4.511719 3.789063 4.792969 6.726563s-1.023438 5.800781-3.429688 7.515625c-7.429688 5.300781-15.019531 10.386718-22.511719 15.121094-12.335937 7.785156-25.871093 17.339843-40.238281 28.457031-1.445312 1.113281-3.222656 1.71875-5.046875 1.71875zm0 0"/><path d="m41.976562 393.53125c-3.367187-.003906-6.394531-2.050781-7.652343-5.171875-1.257813-3.121094-.496094-6.695313 1.929687-9.03125 10.320313-9.910156 37.769532-35.921875 69.582032-62.265625 2.261718-1.976562 5.414062-2.566406 8.238281-1.546875s4.871093 3.492187 5.347656 6.457031-.695313 5.953125-3.058594 7.804688c-31.378906 25.996094-58.464843 51.628906-68.65625 61.441406-1.539062 1.484375-3.59375 2.3125-5.730469 2.3125zm0 0"/><path d="m63.652344 410.460938c-3.339844 0-6.355469-2.007813-7.632813-5.09375-1.28125-3.085938-.574219-6.640626 1.785157-9.003907 23.378906-21.269531 49.097656-39.8125 76.660156-55.269531 3.914062-2.347656 8.988281-1.078125 11.335937 2.835938 2.347657 3.914062 1.074219 8.988281-2.835937 11.332031-26.40625 14.769531-51.0625 32.46875-73.496094 52.761719-1.542969 1.550781-3.632812 2.425781-5.816406 2.4375zm0 0"/><path d="m37.160156 450.925781c-20.523437 0-37.160156-16.640625-37.160156-37.164062 0-20.523438 16.636719-37.160157 37.160156-37.160157 20.523438 0 37.164063 16.636719 37.164063 37.160157 0 20.523437-16.640625 37.164062-37.164063 37.164062zm0-57.808593c-11.402344 0-20.644531 9.242187-20.644531 20.644531 0 11.402343 9.242187 20.648437 20.644531 20.648437s20.644532-9.246094 20.644532-20.648437c0-11.402344-9.242188-20.644531-20.644532-20.644531zm0 0"/><path d="m93.21875 468.355469c-20.304688 1.191406-40.09375-6.652344-54.066406-21.429688-2.050782-2.1875-2.753906-5.3125-1.835938-8.167969.914063-2.855468 3.308594-4.988281 6.246094-5.574218 2.941406-.585938 5.96875.46875 7.910156 2.753906 11.660156 13.0625 30.09375 18.117188 54.839844 15.054688 28.230469-3.566407 52.089844-22.628907 61.796875-49.375 8.65625-21.058594 4.628906-45.199219-10.386719-62.308594-1.902344-2.121094-3.957031-4.097656-6.144531-5.921875-10.390625-8.695313-18.292969-15.300781-24.519531-20.785157-1.246094-1.082031-2.609375-2.195312-3.988282-3.304687-6.371093-4.582031-11.761718-10.390625-15.855468-17.085937-1.054688-2.050782-1.988282-4.164063-2.800782-6.324219-1.652343-4.128907-2.65625-6.546875-4.648437-7.53125-1.398437-.703125-3.085937-.449219-4.21875.628906-2.046875 1.980469-3.125 4.753906-2.964844 7.597656.757813 11.246094 18.167969 25.730469 23.855469 30.496094 2.304688 1.921875 4.660156 3.796875 6.988281 5.664063 8.054688 5.921874 15.386719 12.773437 21.84375 20.40625 11.988281 15.574218 12.804688 33.121093 2.476563 53.675781-15.402344 33.796875-53.105469 51.351562-88.882813 41.390625-2.9375-.636719-5.292969-2.820313-6.15625-5.699219-.859375-2.878906-.089843-6 2.011719-8.148437 2.101562-2.144532 5.203125-2.980469 8.101562-2.179688 28.28125 7.992188 58.152344-5.949219 70.191407-32.761719 9.414062-18.753906 4.875-28.820312-.824219-36.195312-5.671875-6.570313-12.070312-12.46875-19.078125-17.589844-2.417969-1.929687-4.855469-3.878906-7.25-5.878906-13.285156-11.066407-28.671875-25.855469-29.726563-42.117188-.46875-7.347656 2.167969-14.554687 7.265626-19.867187 6.097656-6.503906 15.738281-8.234375 23.71875-4.261719 6.195312 3.554687 10.75 9.398437 12.683593 16.277344.574219 1.558593 1.238281 3.082031 1.988281 4.566406 3.117188 4.742187 7.09375 8.859375 11.726563 12.140625 1.503906 1.230469 2.988281 2.476562 4.417969 3.683594 6.179687 5.441406 13.980468 11.957031 23.757812 20.140625 25.613282 21.050781 34.5 56.34375 21.910156 87.015625-11.832031 32.539062-40.882812 55.722656-75.238281 60.035156-5.023437.636719-10.082031.964844-15.144531.980469zm0 0"/></svg>