<svg height="512pt" viewBox="0 0 512.04505 512" width="512pt" xmlns="http://www.w3.org/2000/svg"><path d="m486.316406 144.320312 17.148438 15.703126v69.800781l-29.863282 14.335937c-2.691406 1.316406-4.5 3.933594-4.777343 6.914063-.28125 2.980469 1.011719 5.890625 3.410156 7.679687l31.230469 22.867188v9.644531l-7.25 4.351563c-2.339844 1.371093-3.886719 3.765624-4.171875 6.460937-.285157 2.691406.722656 5.363281 2.71875 7.191406l8.703125 7.9375v40.960938l-4.691406 2.386719c-2.667969 1.359374-4.429688 4.019531-4.640626 7.007812-.207031 2.988281 1.164063 5.867188 3.617188 7.585938 1.792969 1.28125 3.753906 2.558593 5.714844 3.925781v13.652343c-.023438 5.25-2.460938 10.195313-6.609375 13.410157-4.148438 3.21875-9.546875 4.34375-14.636719 3.058593-3.925781-.9375-7.851562-1.792968-11.777344-2.472656-23.347656-4.296875-47.109375-5.925781-70.824218-4.867187-90.027344 2.988281-180.140626 35.839843-270.25 32.597656-26.558594-.679687-52.882813-5.164063-78.167969-13.3125v-341.332031c25.257812 8.148437 51.550781 12.628906 78.082031 13.3125 89.941406 3.15625 179.882812-29.441406 269.738281-32.597656 30.824219-1.503907 61.699219 1.6875 91.5625 9.472656 7.527344 1.992187 12.800781 8.765625 12.882813 16.554687v34.644531l-15.785156 9.472657c-2.324219 1.382812-3.855469 3.789062-4.125 6.480469-.269532 2.695312.753906 5.355468 2.761718 7.171874zm0 0" fill="#37474f"/><path d="m460.714844 144.320312 17.152344 15.703126v69.800781l-29.867188 14.335937c-2.6875 1.316406-4.5 3.933594-4.777344 6.914063s1.015625 5.890625 3.410156 7.679687l31.234376 22.867188v9.644531l-7.253907 4.351563c-2.335937 1.371093-3.882812 3.765624-4.171875 6.460937-.285156 2.691406.722656 5.363281 2.722656 7.191406l8.703126 7.9375v40.960938l-4.695313 2.386719c-2.667969 1.359374-4.429687 4.019531-4.636719 7.007812-.210937 2.988281 1.160156 5.867188 3.613282 7.585938 1.792968 1.28125 3.753906 2.558593 5.71875 3.925781v13.652343c.03125 5.617188-2.757813 10.871094-7.425782 13.996094-4.0625 2.710938-9.070312 3.609375-13.824218 2.472656-18.710938-4.328124-37.804688-6.785156-57-7.339843-90.113282-3.242188-180.226563 29.613281-270.25 32.597656-26.558594-.679687-52.882813-5.164063-78.167969-13.3125v-334.417969c25.652343 5.429688 51.886719 7.578125 78.082031 6.398438 89.941406-2.988282 179.882812-35.667969 269.738281-32.597656 22.28125.554687 44.421875 3.734374 65.960938 9.472656 7.53125 1.992187 12.804687 8.765625 12.886719 16.554687v34.644531l-15.789063 9.472657c-2.324219 1.382812-3.851563 3.789062-4.121094 6.480469-.269531 2.695312.753907 5.355468 2.757813 7.171874zm0 0" fill="#607d8b"/><path d="m170.503906 331.277344c-4.261718 4.472656-8.527344 8.878906-12.800781 13.21875-4.28125 3.621094-9.753906 5.519531-15.359375 5.332031-5.796875-.292969-11.261719 2.722656-14.105469 7.785156-2.355469 4.222657-2.355469 9.367188 0 13.59375 1.929688 3.859375 5.425781 6.703125 9.597657 7.800781 4.171874 1.097657 8.617187.347657 12.195312-2.058593.851562-.550781 1.644531-1.183594 2.367188-1.894531-.699219.722656-1.347657 1.492187-1.9375 2.304687-3.8125 5.644531-3.179688 13.183594 1.515624 18.117187 4.699219 4.933594 12.199219 5.933594 18.023438 2.402344 5.546875-3.101562 8.734375-9.195312 8.117188-15.519531-.4375-5.371094 1.484374-10.667969 5.265624-14.507813 4.75-5.121093 9.5-10.296874 14.257813-15.53125.820313-.902343 1.21875-2.113281 1.097656-3.328124-.117187-1.214844-.746093-2.320313-1.730469-3.046876l-20.964843-15.214843c-1.726563-1.210938-4.082031-.980469-5.539063.546875zm0 0" fill="#cfd8dc"/><path d="m380.917969 296.402344c.746093-.898438 1.828125-1.449219 2.992187-1.527344 1.164063-.078125 2.308594.320312 3.171875 1.109375 5.625 5.160156 11.25 10.433594 16.867188 15.820313 3.816406 3.660156 9.023437 5.492187 14.285156 5.035156 6.332031-.527344 12.347656 2.851562 15.191406 8.53125 2.363281 4.222656 2.363281 9.371094 0 13.59375-2.144531 3.648437-5.699219 6.246094-9.820312 7.1875-4.125.941406-8.453125.140625-11.964844-2.210938-.851563-.523437-1.644531-1.132812-2.363281-1.824218.695312.699218 1.34375 1.449218 1.933594 2.242187 2.347656 3.542969 3.070312 7.917969 1.984374 12.023437-1.085937 4.105469-3.875 7.554688-7.664062 9.472657-4.289062 2.335937-9.421875 2.523437-13.867188.503906-5.59375-2.472656-8.894531-8.332031-8.109374-14.398437.558593-5.121094-1.40625-10.195313-5.261719-13.609376-5.207031-4.675781-10.410157-9.273437-15.609375-13.796874-1.757813-1.535157-1.960938-4.195313-.453125-5.972657zm0 0" fill="#cfd8dc"/><path d="m51.199219 53.183594v433.238281c0 9.386719-14.914063 17.066406-33.132813 17.066406h-1v-450.304687zm0 0" fill="#795548"/><path d="m64 34.15625c0 14.136719-11.460938 25.597656-25.601562 25.597656-14.136719 0-25.597657-11.460937-25.597657-25.597656 0-14.140625 11.460938-25.601562 25.597657-25.601562 14.140624 0 25.601562 11.460937 25.601562 25.601562zm0 0" fill="#fec108"/><g fill="#cfd8dc"><path d="m374.699219 204.054688c-6.058594-47.191407-42.410157-78.933594-96.855469-68.4375-54.441406 10.496093-90.792969 50.089843-96.851562 97.878906-6.058594 48.210937 24.234374 44.96875 18.175781 69.289062-6.058594 24.492188 6.058593 23.210938 24.148437 20.394532 18.089844-2.816407 18.175782 14.847656 12.117188 27.734374-6.058594 13.054688 42.410156 4.523438 42.410156 4.351563s48.386719-8.617187 42.328125-19.371094c-6.058594-10.753906-6.058594-28.757812 12.117187-31.574219 18.175782-2.816406 30.292969-4.011718 24.234376-27.136718-6.058594-23.125 24.234374-26.367188 18.175781-73.128906zm-127.574219 67.070312c-12.203125 5.890625-24.320312 3.5-27.136719-5.03125-2.816406-8.535156 4.695313-19.800781 16.8125-25.515625 12.117188-5.71875 24.320313-3.753906 27.136719 4.691406 2.816406 8.449219-4.695312 20.054688-16.8125 25.855469zm30.71875 53.078125c-3.847656.96875-7.925781.078125-11.023438-2.398437-3.097656-2.480469-4.859374-6.265626-4.761718-10.230469 0-8.53125 7.082031-24.492188 15.785156-26.113281 8.707031-1.621094 15.789062 11.777343 15.789062 20.394531-.417968 9.019531-6.933593 16.589843-15.789062 18.347656zm56.832031-77.824219c-4.773437 10.320313-15.96875 16.058594-27.132812 13.910156-12.117188-1.621093-19.628907-10.496093-16.8125-19.96875 4.660156-10.445312 15.898437-16.3125 27.136719-14.164062 12.117187 1.707031 19.710937 10.835938 16.808593 20.222656zm0 0"/><path d="m369.492188 134.765625c-1.339844-1.792969-1.039063-4.320313.683593-5.746094 5.03125-3.914062 7.769531-10.085937 7.296875-16.441406-.597656-6.320313 2.582032-12.394531 8.113282-15.507813 5.820312-3.5 13.289062-2.5 17.976562 2.414063 4.691406 4.910156 5.34375 12.417969 1.574219 18.066406-.542969.851563-1.175781 1.640625-1.886719 2.355469.726562-.695312 1.496094-1.347656 2.304688-1.945312 3.609374-2.371094 8.054687-3.09375 12.226562-1.984376 4.171875 1.109376 7.675781 3.945313 9.628906 7.796876 2.292969 4.238281 2.292969 9.351562 0 13.59375-2.820312 5.054687-8.277344 8.058593-14.054687 7.738281-5.605469-.179688-11.074219 1.71875-15.359375 5.335937-2.015625 2.046875-4.027344 4.109375-6.035156 6.195313-.867188.902343-2.089844 1.375-3.339844 1.296875s-2.40625-.703125-3.152344-1.707032zm0 0"/><path d="m189.371094 168.898438c1.34375-1.789063 1.046875-4.316407-.671875-5.746094-5.035157-3.910156-7.777344-10.082032-7.304688-16.441406.597657-6.316407-2.582031-12.390626-8.109375-15.503907-5.816406-3.503906-13.285156-2.503906-17.976562 2.410157-4.6875 4.910156-5.339844 12.417968-1.570313 18.066406.535157.855468 1.164063 1.644531 1.875 2.355468-.722656-.699218-1.492187-1.347656-2.304687-1.945312-3.605469-2.371094-8.050782-3.097656-12.222656-1.984375-4.171876 1.109375-7.671876 3.945313-9.621094 7.796875-2.296875 4.242188-2.296875 9.351562 0 13.59375 2.816406 5.054688 8.269531 8.058594 14.046875 7.738281 5.601562-.179687 11.074219 1.71875 15.359375 5.335938 2.011718 2.046875 4.027344 4.113281 6.039062 6.195312.871094.898438 2.089844 1.371094 3.339844 1.292969 1.246094-.078125 2.398438-.703125 3.148438-1.703125zm0 0"/></g><path d="m51.199219 512.023438h-34.132813c-4.710937 0-8.53125-3.820313-8.53125-8.535157v-450.304687c0-4.710938 3.820313-8.53125 8.53125-8.53125 4.714844 0 8.535156 3.820312 8.535156 8.53125v441.773437h17.066407v-441.773437c0-4.710938 3.820312-8.53125 8.53125-8.53125 4.714843 0 8.535156 3.820312 8.535156 8.53125v450.304687c0 4.714844-3.820313 8.535157-8.535156 8.535157zm0 0"/><path d="m34.132812 68.289062c-18.851562 0-34.132812-15.28125-34.132812-34.132812s15.28125-34.1328125 34.132812-34.1328125c18.851563 0 34.132813 15.2812505 34.132813 34.1328125 0 9.050781-3.59375 17.734375-9.996094 24.136719-6.402343 6.398437-15.082031 9.996093-24.136719 9.996093zm0-51.199218c-9.425781 0-17.066406 7.640625-17.066406 17.066406s7.640625 17.066406 17.066406 17.066406c9.425782 0 17.066407-7.640625 17.066407-17.066406 0-4.527344-1.796875-8.867188-4.996094-12.066406-3.203125-3.203125-7.542969-5-12.070313-5zm0 0"/><path d="m503.464844 238.359375c-4.710938 0-8.53125-3.820313-8.53125-8.535156v-69.800781c0-4.714844 3.820312-8.535157 8.53125-8.535157 4.714844 0 8.535156 3.820313 8.535156 8.535157v69.800781c0 4.714843-3.820312 8.535156-8.535156 8.535156zm0 0"/><path d="m141.789062 443.21875c-31.625.34375-63.105468-4.371094-93.242187-13.96875-3.507813-1.148438-5.878906-4.417969-5.878906-8.109375v-341.332031c0-2.734375 1.3125-5.300782 3.523437-6.90625 2.214844-1.605469 5.0625-2.050782 7.664063-1.199219 73.265625 23.96875 145.449219 10.726563 221.863281-3.277344 70.828125-12.996093 144.148438-26.453125 217.089844-6.65625 11.238281 3.007813 19.09375 13.144531 19.191406 24.78125v34.644531c0 4.714844-3.820312 8.535157-8.535156 8.535157-4.710938 0-8.53125-3.820313-8.53125-8.535157v-34.644531c-.078125-3.9375-2.773438-7.34375-6.589844-8.320312-69.238281-18.773438-140.558594-5.675781-209.542969 6.972656-71.519531 13.105469-145.375 26.605469-219.066406 6.125v323.550781c71.335937 21.453125 141.652344 8.535156 216.046875-5.121094 68.007812-12.484374 138.316406-25.394531 208.390625-8.863281 2.65625.648438 5.460937.042969 7.613281-1.640625 2.007813-1.566406 3.171875-3.980468 3.148438-6.527344v-13.652343c0-4.714844 3.820312-8.535157 8.53125-8.535157 4.714844 0 8.535156 3.820313 8.535156 8.535157v13.652343c.023438 7.765626-3.527344 15.109376-9.625 19.917969-6.230469 4.9375-14.390625 6.730469-22.117188 4.855469-66.5625-15.703125-135.109374-3.117188-201.386718 9.042969-45.097656 9.6875-90.976563 15.265625-137.082032 16.675781zm0 0"/><path d="m503.464844 366.699219c-4.710938 0-8.53125-3.820313-8.53125-8.53125v-40.960938c0-4.714843 3.820312-8.535156 8.53125-8.535156 4.714844 0 8.535156 3.820313 8.535156 8.535156v40.960938c0 4.710937-3.820312 8.53125-8.535156 8.53125zm0 0"/><path d="m503.464844 299.796875c-4.710938 0-8.53125-3.820313-8.53125-8.53125v-9.644531c0-4.710938 3.820312-8.53125 8.53125-8.53125 4.714844 0 8.535156 3.820312 8.535156 8.53125v9.644531c0 4.710937-3.820312 8.53125-8.535156 8.53125zm0 0"/><path d="m251.109375 366.769531c-7.609375.824219-15.257813-1.199219-21.460937-5.683593-3.503907-3.703126-4.277344-9.21875-1.917969-13.738282 2.769531-4.570312 3.492187-10.097656 1.988281-15.226562-.523438-.707032-2.484375-.902344-5.027344-.492188-11.65625 1.789063-23.714844 3.652344-30.96875-4.269531-6.65625-7.277344-4.8125-18.652344-2.859375-26.5625 1.625-6.492187-.339843-9.027344-5.117187-15.15625-7.230469-9.386719-17.144532-22.226563-13.261719-53.152344 6.714844-53.070312 47.445313-94.355469 103.730469-105.214843 24.847656-5.929688 51.039062-1.113282 72.148437 13.265624 19.773438 15.074219 32.378907 37.703126 34.785157 62.449219 3.511718 19.320313-1.148438 39.230469-12.878907 54.980469-5.078125 7.679688-7.074219 11.023438-5.488281 17.066406 3.167969 8.261719 2.570312 17.488282-1.628906 25.273438-5.757813 8.773437-16.664063 10.4375-28.21875 12.195312l-1.324219.195313c-5.691406.90625-7.039063 3.679687-7.492187 4.59375-1.644532 4.800781-1.082032 10.082031 1.539062 14.429687 1.941406 3.402344 2.121094 7.535156.476562 11.09375-2.722656 5.972656-10.503906 13.089844-47.503906 20.539063v-.101563c-9.703125 2.125-19.589844 3.300782-29.519531 3.515625zm-5.886719-17.253906c10.300782.210937 20.597656-.648437 30.71875-2.5625.402344-.117187.855469-.222656 1.28125-.316406 11.6875-1.71875 23.0625-5.136719 33.765625-10.144531-3.832031-8.464844-3.921875-18.152344-.246093-26.683594 3.964843-7.757813 11.554687-13.011719 20.214843-13.988282l1.375-.203124c7.347657-1.117188 14.933594-2.277344 16.527344-4.691407.410156-.625 1.554687-3.277343-.621094-11.589843-2.441406-10.929688.441407-22.367188 7.773438-30.832032 9.464843-12.324218 13.171875-28.125 10.171875-43.375-1.820313-20.066406-11.910156-38.472656-27.84375-50.808594-17.3125-11.542968-38.671875-15.296874-58.882813-10.339843-48.902343 9.4375-84.230469 44.988281-89.992187 90.570312-2.996094 23.9375 3.535156 32.429688 9.847656 40.59375 7.753906 7.773438 10.84375 19.050781 8.132812 29.6875-2.167968 8.757813-1.023437 11.09375-1.015624 11.09375 5.242187.328125 10.503906-.074219 15.632812-1.195312 7.886719-2.011719 16.222656.757812 21.332031 7.09375 5.054688 8.390625 5.738281 18.707031 1.828125 27.691406zm0 0"/><path d="m233.957031 282.929688c-3.660156.035156-7.292969-.660157-10.683593-2.050782-5.378907-2.164062-9.546876-6.566406-11.417969-12.054687-4.265625-12.800781 4.917969-28.265625 21.335937-36.003907 8.554688-4.550781 18.632813-5.289062 27.757813-2.03125 5.21875 2.121094 9.261719 6.398438 11.09375 11.726563 4.265625 12.601563-5.121094 28.550781-21.25 36.308594-5.230469 2.609375-10.984375 4.015625-16.835938 4.105469zm16.214844-37.097657c-3.394531.089844-6.726563.921875-9.761719 2.441407-9.191406 4.34375-13.484375 11.886718-12.390625 15.179687.085938.273437.359375 1.058594 1.859375 1.707031 4.539063 1.25 9.382813.632813 13.464844-1.707031 9.148438-4.394531 13.550781-12.234375 12.460938-15.484375-.078126-.273438-.300782-.90625-1.605469-1.460938-1.273438-.484374-2.628907-.714843-3.992188-.675781zm0 0"/><path d="m311.414062 269.027344c-1.648437 0-3.296874-.105469-4.929687-.316406-8.566406-.824219-16.34375-5.355469-21.285156-12.398438-3.574219-5.433594-4.542969-12.175781-2.644531-18.398438 5.78125-14.582031 21.0625-23.046874 36.488281-20.207031 8.589843.941407 16.339843 5.585938 21.222656 12.714844 3.570313 5.460937 4.53125 12.222656 2.621094 18.457031-5.113281 12.746094-17.753907 20.839844-31.472657 20.148438zm-12.507812-26.222656c-.460938 1.425781-.234375 2.980468.613281 4.214843 2.25 2.808594 5.582031 4.542969 9.171875 4.769531 7.039063 1.507813 14.246094-1.6875 17.863282-7.910156.4375-1.449218.191406-3.023437-.675782-4.265625-2.21875-2.886719-5.558594-4.699219-9.191406-4.984375-7.070312-1.417968-14.253906 1.882813-17.78125 8.175782zm0 0"/><path d="m274.960938 332.992188c-5.078126.054687-10.011719-1.675782-13.941407-4.886719-4.835937-4.109375-7.59375-10.160157-7.519531-16.503907 0-10.300781 8.019531-31.820312 22.792969-34.527343 5.261719-.878907 10.640625.667969 14.632812 4.207031 6.914063 6.320312 10.96875 15.171875 11.238281 24.535156-.414062 13.148438-9.875 24.257813-22.792968 26.757813-1.453125.269531-2.929688.410156-4.410156.417969zm4.191406-39.132813c-5.023438 4.59375-8.097656 10.933594-8.585938 17.722656-.074218 1.285157.425782 2.535157 1.367188 3.414063 1.253906.917968 2.851562 1.230468 4.359375.855468 4.820312-1.019531 8.398437-5.078124 8.804687-9.984374-.128906-4.679688-2.300781-9.070313-5.945312-12.007813zm0 0"/><path d="m167.253906 200.359375c-2.140625 0-4.203125-.804687-5.777344-2.253906-3.191406-2.921875-6.382812-5.886719-9.574218-8.890625-1.988282-1.902344-4.710938-2.839844-7.449219-2.558594-9.761719 1.085938-19.1875-3.953125-23.707031-12.671875-3.660156-6.800781-3.628906-14.988281.078125-21.761719 3.167969-5.683594 8.542969-9.808594 14.855469-11.398437 1.285156-.332031 2.59375-.558594 3.917968-.675781.097656-1.019532.261719-2.03125.492188-3.03125 1.589844-6.679688 5.964844-12.363282 12.015625-15.605469 6.632812-3.792969 14.683593-4.160157 21.632812-.988281 8.898438 3.980468 14.152344 13.304687 12.953125 22.980468-.257812 2.324219.632813 4.628906 2.390625 6.175782l4.691407 4.128906c3.296874 3.167968 3.515624 8.363281.496093 11.792968-3.019531 3.429688-8.199219 3.875-11.757812 1.007813l-4.761719-4.207031c-5.925781-5.238282-8.914062-13.042969-8.003906-20.898438.355468-2.363281-.972656-4.660156-3.199219-5.527344-1.9375-.832031-4.152344-.703124-5.976563.347657-1.894531.910156-3.292968 2.609375-3.820312 4.644531-.386719 1.601562-.078125 3.296875.851562 4.65625.214844.347656.46875.671875.761719.957031 3.417969 3.246094 3.558594 8.648438.3125 12.066407-3.242187 3.417968-8.644531 3.5625-12.066406.316406-.488281-.390625-1.003906-.75-1.542969-1.074219-1.625-.777344-3.472656-.949219-5.214844-.488281-1.789062.433594-3.316406 1.597656-4.207031 3.207031-.847656 1.679687-.8125 3.671875.09375 5.316406 1.171875 2.582031 3.867188 4.113281 6.683594 3.800781 7.738281-.816406 15.449219 1.773438 21.128906 7.097657 3.148438 2.960937 6.289063 5.871093 9.386719 8.765625 2.585938 2.378906 3.449219 6.101562 2.175781 9.375-1.277343 3.277344-4.429687 5.433594-7.945312 5.4375zm0 0"/><path d="m150.1875 160.203125c-2.238281.023437-4.394531-.855469-5.972656-2.441406-1.625-1.613281-2.542969-3.796875-2.5625-6.085938-.007813-2.148437.855468-4.210937 2.390625-5.714843l.511719-.511719c2.175781-2.167969 5.351562-2.996094 8.308593-2.171875 2.957031.820312 5.246094 3.171875 5.988281 6.152344.746094 2.980468-.167968 6.128906-2.394531 8.246093-1.683593 1.621094-3.929687 2.527344-6.269531 2.527344zm0 0"/><path d="m388.445312 168.828125c-3.421874 0-6.511718-2.042969-7.851562-5.1875-1.339844-3.148437-.671875-6.792969 1.699219-9.257813 3.1875-3.324218 6.378906-6.609374 9.574219-9.867187 5.507812-5.785156 13.367187-8.71875 21.316406-7.960937 2.742187.375 5.441406-.949219 6.828125-3.34375.871093-1.710938.839843-3.746094-.085938-5.425782-.902343-1.789062-2.53125-3.097656-4.472656-3.59375-1.75-.449218-3.609375-.140625-5.121094.851563-.074219.09375-.527343.410156-.929687.855469l-.066406.066406c-3.328126 3.257812-8.65625 3.246094-11.96875-.03125-3.3125-3.273438-3.386719-8.601563-.167969-11.964844l.054687-.050781c.28125-.308594.539063-.640625.765625-.992188 1.058594-1.480469 1.402344-3.355469.9375-5.117187-.5-1.820313-1.835937-3.292969-3.59375-3.976563-1.761719-.683593-3.742187-.492187-5.339843.511719-2.652344 1.386719-4.238282 4.203125-4.050782 7.191406.792969 7.859375-1.929687 15.667969-7.433594 21.335938l-4.675781 5.050781c-2.0625 2.246094-5.167969 3.21875-8.144531 2.554687-2.972656-.664062-5.371094-2.863281-6.28125-5.773437-.914062-2.90625-.207031-6.082031 1.855469-8.328125l4.761719-5.121094c2.046874-2.011718 3.128906-4.8125 2.96875-7.679687-.984376-9.660157 3.796874-18.996094 12.210937-23.839844 6.203125-3.773437 13.820313-4.402344 20.558594-1.699219 6.734375 2.703125 11.804687 8.421875 13.679687 15.4375.304688 1.171875.519532 2.367188.636719 3.574219 1.152344.109375 2.292969.304687 3.414063.582031 6.632812 1.648438 12.242187 6.050782 15.421874 12.097656 3.667969 6.832032 3.636719 15.054688-.085937 21.855469-4.671875 8.417969-13.992187 13.144531-23.542969 11.945313-2.742187-.171875-5.417968.910156-7.261718 2.945312-3.160157 3.207032-6.308594 6.453125-9.457032 9.726563-1.605468 1.679687-3.828125 2.628906-6.152344 2.628906zm0 0"/><path d="m162.355469 408.546875c-3.4375.011719-6.832031-.765625-9.925781-2.269531-6.003907-2.902344-10.445313-8.277344-12.167969-14.71875-.316407-1.179688-.539063-2.386719-.664063-3.601563-1.152344-.113281-2.292968-.304687-3.414062-.582031-6.65625-1.648438-12.273438-6.089844-15.410156-12.183594-3.734376-6.808594-3.683594-15.0625.136718-21.820312 4.75-8.316406 13.988282-13.011719 23.507813-11.945313 2.742187.203125 5.429687-.867187 7.277343-2.902343 5.070313-5.175782 10.140626-10.449219 15.214844-15.8125 2.097656-2.214844 5.214844-3.144532 8.183594-2.4375 2.964844.710937 5.328125 2.945312 6.199219 5.867187.867187 2.921875.113281 6.089844-1.980469 8.304687-5.121094 5.414063-10.257812 10.75-15.414062 16.007813-5.527344 5.757813-13.382813 8.683594-21.332032 7.945313-2.757812-.359376-5.460937.988281-6.828125 3.410156-.898437 1.640625-.898437 3.628906 0 5.265625.867188 1.855469 2.511719 3.226562 4.488281 3.746093 2.191407.464844 4.464844-.171874 6.09375-1.707031l.058594-.050781c3.332032-3.257812 8.65625-3.242188 11.96875.03125 3.3125 3.277344 3.386719 8.601562.167969 11.96875l-.058594.058594c-.386719.410156-.742187.847656-1.066406 1.304687-.851563 1.433594-1.082031 3.148438-.640625 4.753907.46875 1.691406 1.664062 3.089843 3.257812 3.824218 1.835938.789063 3.9375.640625 5.640626-.402344 2.667968-1.378906 4.257812-4.214843 4.035156-7.210937-.753906-7.867187 1.984375-15.667969 7.492187-21.332031 5.804688-6.257813 11.609375-12.59375 17.417969-19.003906 2.023438-2.351563 5.160156-3.421876 8.199219-2.796876 3.035156.628907 5.496093 2.851563 6.417969 5.8125.925781 2.960938.171874 6.191407-1.96875 8.433594-5.855469 6.46875-11.710938 12.863282-17.5625 19.175782-2.050782 2.019531-3.15625 4.804687-3.046876 7.679687 1 9.679687-3.789062 19.042969-12.230468 23.894531-3.644532 2.167969-7.808594 3.304688-12.046875 3.292969zm0 0"/><path d="m150.1875 385.824219c-2.113281 0-4.144531-.828125-5.648438-2.3125l-.417968-.410157c-2.289063-2.101562-3.257813-5.277343-2.527344-8.296874.730469-3.015626 3.042969-5.398438 6.035156-6.222657 2.996094-.820312 6.199219.050781 8.367188 2.273438 1.730468 1.695312 2.707031 4.011719 2.707031 6.433593.027344 2.175782-.804687 4.273438-2.3125 5.835938-1.617187 1.703125-3.855469 2.675781-6.203125 2.699219zm0 0"/><path d="m397.984375 376.265625c-3.453125.015625-6.871094-.738281-10-2.210937-8.882813-4.054688-14.105469-13.40625-12.902344-23.097657.230469-2.375-.699219-4.710937-2.5-6.273437-6.210937-5.582032-12.425781-11.054688-18.636719-16.425782-2.304687-1.996093-3.375-5.066406-2.800781-8.0625.574219-2.992187 2.703125-5.453124 5.582031-6.453124 2.878907-1 6.074219-.390626 8.378907 1.605468 6.300781 5.441406 12.597656 10.984375 18.894531 16.621094 5.910156 5.273438 8.902344 13.078125 8.03125 20.949219-.363281 2.421875.992188 4.777343 3.265625 5.683593 1.984375.863282 4.253906.761719 6.152344-.273437 1.753906-.878906 3.046875-2.472656 3.542969-4.367187.414062-1.679688.101562-3.453126-.855469-4.890626 0 0-.332031-.425781-.730469-.8125l-.050781-.058593c-3.246094-3.296875-3.273438-8.578125-.0625-11.910157 3.214843-3.328124 8.492187-3.492187 11.90625-.367187l.058593.058594c.304688.261719.625.5.964844.714843 1.726563 1.136719 3.851563 1.507813 5.863282 1.015626 1.667968-.378907 3.097656-1.460938 3.914062-2.96875.914062-1.667969.890625-3.691407-.058594-5.339844-1.21875-2.640625-3.925781-4.265625-6.828125-4.097656-7.746093.730468-15.429687-1.960938-21.023437-7.371094-6.664063-6.382813-13.324219-12.609375-19.988282-18.671875-2.398437-2.011719-3.5-5.175781-2.875-8.246094.625-3.066406 2.882813-5.542969 5.875-6.457031 2.996094-.910156 6.25-.109375 8.480469 2.089844 6.773438 6.160156 13.542969 12.480468 20.308594 18.953124 2.019531 1.933594 4.769531 2.921876 7.558594 2.714844 9.777343-.882812 19.101562 4.269532 23.5625 13.011719 3.753906 6.847656 3.679687 15.152344-.195313 21.929687-3.132812 5.554688-8.4375 9.550782-14.636718 11.035157-1.320313.324219-2.667969.535156-4.027344.632812-.109375 1.039063-.292969 2.070313-.546875 3.085938-1.632813 6.585937-6 12.160156-12.003907 15.320312-3.570312 1.925781-7.558593 2.933594-11.617187 2.933594zm0 0"/><path d="m411.308594 352.601562c-2.234375.035157-4.386719-.828124-5.976563-2.398437-1.644531-1.613281-2.585937-3.816406-2.609375-6.125 0-2.152344.863282-4.214844 2.398438-5.726563l.425781-.425781c2.140625-2.21875 5.316406-3.109375 8.296875-2.328125 2.984375.78125 5.316406 3.113282 6.097656 6.09375.78125 2.984375-.109375 6.15625-2.328125 8.300782-1.675781 1.667968-3.941406 2.605468-6.304687 2.609374zm0 0"/><path d="m503.464844 168.554688c-2.132813 0-4.191406-.800782-5.765625-2.242188l-17.171875-15.738281c-3.972656-3.636719-5.992188-8.9375-5.453125-14.296875.542969-5.359375 3.582031-10.152344 8.203125-12.921875l15.792968-9.472657c4.042969-2.425781 9.285157-1.117187 11.714844 2.921876 2.425782 4.042968 1.117188 9.285156-2.921875 11.710937l-15.804687 9.472656 17.175781 15.746094c2.59375 2.378906 3.460937 6.105469 2.183594 9.382813-1.273438 3.28125-4.433594 5.4375-7.953125 5.4375zm0 0"/><path d="m503.464844 290.15625c-1.8125-.003906-3.578125-.582031-5.042969-1.65625l-31.195313-22.894531c-4.832031-3.546875-7.449218-9.371094-6.894531-15.339844.558594-5.96875 4.203125-11.207031 9.605469-13.800781l29.867188-14.328125c4.191406-1.761719 9.027343.070312 11 4.164062 1.972656 4.097657.382812 9.023438-3.609376 11.195313l-29.867187 14.320312 31.199219 22.902344c2.996094 2.179688 4.246094 6.042969 3.09375 9.5625-1.15625 3.519531-4.449219 5.894531-8.15625 5.875zm0 0"/><path d="m503.464844 325.738281c-2.136719 0-4.199219-.800781-5.773438-2.25l-8.664062-7.980469c-3.957032-3.640624-5.964844-8.933593-5.421875-14.285156.542969-5.351562 3.578125-10.132812 8.1875-12.902344l7.277343-4.375c4.042969-2.429687 9.285157-1.121093 11.714844 2.921876 2.425782 4.039062 1.117188 9.285156-2.921875 11.710937l-7.289062 4.378906 8.667969 7.96875c2.589843 2.378907 3.453124 6.105469 2.175781 9.382813-1.277344 3.273437-4.433594 5.429687-7.953125 5.429687zm0 0"/><path d="m503.464844 387.605469c-1.691406 0-3.347656-.503907-4.75-1.449219-2.03125-1.367188-3.996094-2.722656-5.839844-4.011719-4.886719-3.429687-7.628906-9.171875-7.222656-15.128906.410156-5.960937 3.902344-11.277344 9.210937-14.011719l4.703125-2.421875c4.191406-2.160156 9.335938-.511719 11.496094 3.675781 2.15625 4.191407.511719 9.335938-3.679688 11.496094l-4.703124 2.421875c1.707031 1.210938 3.621093 2.558594 5.558593 3.816407 3.117188 2.09375 4.496094 5.980468 3.398438 9.574218-1.097657 3.59375-4.414063 6.042969-8.171875 6.039063zm0 0"/></svg>