<svg height="512pt" viewBox="-145 0 512 512.00398" width="512pt" xmlns="http://www.w3.org/2000/svg"><path d="m136.535156 59.738281v25.597657h-51.199218v-25.597657c0-4.714843 3.820312-8.535156 8.53125-8.535156h34.136718c4.710938 0 8.53125 3.820313 8.53125 8.535156zm0 0" fill="#00695c"/><path d="m85.335938 85.335938h51.199218v51.203124h-51.199218zm0 0" fill="#fec108"/><path d="m85.335938 85.335938h25.597656v51.203124h-25.597656zm0 0" fill="#ffeb3a"/><path d="m213.335938 264.539062v204.796876c0 34.132812-102.402344 34.132812-102.402344 34.132812s-4.863282 0-12.542969-.339844h-.511719c-27.5625-1.363281-89.34375-7.253906-89.34375-33.792968v-204.796876c0-33.28125 24.832032-57.515624 47.871094-78.082031 12.636719-9.988281 21.875-23.640625 26.453125-39.082031 1.160156-3.527344 1.988281-7.15625 2.476563-10.835938h51.199218c.488282 3.679688 1.316406 7.308594 2.476563 10.835938 4.578125 15.441406 13.816406 29.09375 26.453125 39.082031 23.039062 20.566407 47.871094 44.800781 47.871094 78.082031zm0 0" fill="#00695c"/><path d="m187.734375 264.539062v204.796876c0 26.539062-61.78125 32.429687-89.34375 33.792968h-.511719c-27.5625-1.363281-89.34375-7.253906-89.34375-33.792968v-204.796876c0-33.28125 24.832032-57.515624 47.871094-78.082031 12.636719-9.988281 21.875-23.640625 26.453125-39.082031 1.160156-3.527344 1.988281-7.15625 2.476563-10.835938h25.597656c.488281 3.679688 1.316406 7.308594 2.476562 10.835938 4.578125 15.441406 13.820313 29.09375 26.453125 39.082031 23.039063 20.566407 47.871094 44.800781 47.871094 78.082031zm0 0" fill="#009688"/><path d="m130.929688 13.214844c-12.601563-6.234375-27.386719-6.234375-39.988282 0-3.414062 1.863281-5.132812 5.800781-4.179687 9.574218l7.105469 28.414063h34.136718l7.105469-28.414063c.953125-3.773437-.765625-7.710937-4.179687-9.574218zm0 0" fill="#ffeb3a"/><path d="m153.601562 452.269531h-85.332031c0-14.136719-11.460937-25.597656-25.601562-25.597656v-136.535156c14.140625 0 25.601562-11.460938 25.601562-25.597657h85.332031c0 14.136719 11.460938 25.597657 25.601563 25.597657v136.535156c-14.140625 0-25.601563 11.460937-25.601563 25.597656zm0 0" fill="#ffeb3a"/><path d="m110.933594 512.003906c-18.523438 0-110.92968775-2.054687-110.92968775-42.667968v-204.796876c0-36.148437 25.05859375-61.535156 50.71874975-84.480468 11.394532-8.910156 19.746094-21.132813 23.894532-34.988282l.625-2.203124c.742187-2.296876 1.265624-4.660157 1.558593-7.054688.261719-3.039062 2.121094-5.710938 4.882813-7.003906 2.761718-1.296875 6.003906-1.019532 8.507812.722656 2.503906 1.746094 3.886719 4.691406 3.625 7.730469-.378906 3.535156-1.117187 7.023437-2.199218 10.410156l-.546876 1.929687c-5.011718 17.039063-15.140624 32.128907-29.015624 43.222657-22.75 20.332031-44.984376 42.613281-44.984376 71.714843v204.796876c0 16.683593 54.519532 25.601562 93.863282 25.601562 4.714844 0 8.535156 3.820312 8.535156 8.53125 0 4.714844-3.820312 8.535156-8.535156 8.535156zm0 0"/><path d="m110.933594 512.003906c-4.710938 0-8.53125-3.820312-8.53125-8.535156 0-4.710938 3.820312-8.53125 8.53125-8.53125 39.347656 0 93.867187-8.917969 93.867187-25.601562v-204.796876c0-29.101562-22.238281-51.382812-45.019531-71.683593-13.871094-11.089844-23.996094-26.175781-29.015625-43.210938l-.546875-1.9375c-1.089844-3.398437-1.832031-6.898437-2.214844-10.445312-.402344-4.710938 3.09375-8.855469 7.804688-9.257813 4.714844-.402344 8.859375 3.09375 9.261718 7.808594.292969 2.417969.824219 4.804688 1.578126 7.125l.621093 2.210938c4.160157 13.835937 12.507813 26.046874 23.894531 34.941406 25.640626 22.914062 50.703126 48.300781 50.703126 84.449218v204.796876c0 40.613281-92.40625 42.667968-110.933594 42.667968zm0 0"/><path d="m136.535156 145.070312h-51.199218c-4.714844 0-8.535157-3.820312-8.535157-8.53125 0-4.714843 3.820313-8.535156 8.535157-8.535156h51.199218c4.714844 0 8.535156 3.820313 8.535156 8.535156 0 4.710938-3.820312 8.53125-8.535156 8.53125zm0 0"/><path d="m136.535156 93.871094h-51.199218c-4.714844 0-8.535157-3.820313-8.535157-8.535156 0-4.710938 3.820313-8.53125 8.535157-8.53125h51.199218c4.714844 0 8.535156 3.820312 8.535156 8.53125 0 4.714843-3.820312 8.535156-8.535156 8.535156zm0 0"/><path d="m110.933594 59.738281h-17.066406c-3.914063 0-7.324219-2.664062-8.277344-6.460937l-7.082032-28.414063c-1.933593-7.574219 1.546876-15.488281 8.433594-19.183593 7.410156-3.832032 15.652344-5.78125 23.992188-5.67578175 4.714844 0 8.535156 3.82031275 8.535156 8.53515575 0 4.710938-3.820312 8.53125-8.535156 8.53125-5.550782-.101562-11.042969 1.160157-15.988282 3.679688l5.5625 21.921875h10.425782c4.714844 0 8.535156 3.820313 8.535156 8.53125 0 4.714844-3.820312 8.535156-8.535156 8.535156zm0 0"/><path d="m128.003906 59.738281h-17.070312c-4.710938 0-8.53125-3.820312-8.53125-8.535156 0-4.710937 3.820312-8.53125 8.53125-8.53125h10.402344l5.488281-21.957031c-4.914063-2.503906-10.375-3.753906-15.890625-3.644532-4.710938 0-8.53125-3.820312-8.53125-8.53125 0-4.714843 3.820312-8.53515575 8.53125-8.53515575 8.34375-.10546825 16.585937 1.84374975 23.996094 5.67578175 6.886718 3.695312 10.367187 11.609374 8.433593 19.183593l-7.109375 28.414063c-.949218 3.789062-4.347656 6.449218-8.25 6.460937zm0 0"/><path d="m136.535156 93.871094h-51.199218c-4.714844 0-8.535157-3.820313-8.535157-8.535156v-25.597657c0-9.425781 7.640625-17.066406 17.066407-17.066406h34.136718c9.421875 0 17.066406 7.640625 17.066406 17.066406v25.597657c0 4.714843-3.820312 8.535156-8.535156 8.535156zm-42.667968-17.066406h34.136718v-17.066407h-34.136718zm0 0"/><path d="m136.535156 145.070312c-4.710937 0-8.53125-3.820312-8.53125-8.53125v-51.203124c0-4.710938 3.820313-8.53125 8.53125-8.53125 4.714844 0 8.535156 3.820312 8.535156 8.53125v51.203124c0 4.710938-3.820312 8.53125-8.535156 8.53125zm0 0"/><path d="m85.335938 145.070312c-4.714844 0-8.535157-3.820312-8.535157-8.53125v-51.203124c0-4.710938 3.820313-8.53125 8.535157-8.53125 4.710937 0 8.53125 3.820312 8.53125 8.53125v51.203124c0 4.710938-3.820313 8.53125-8.53125 8.53125zm0 0"/><path d="m153.601562 460.804688h-85.332031c-4.714843 0-8.535156-3.820313-8.535156-8.535157 0-9.425781-7.640625-17.066406-17.066406-17.066406-4.710938 0-8.53125-3.820313-8.53125-8.53125v-136.535156c0-4.710938 3.820312-8.53125 8.53125-8.53125 9.425781 0 17.066406-7.640625 17.066406-17.066407 0-4.714843 3.820313-8.535156 8.535156-8.535156h85.332031c4.714844 0 8.535157 3.820313 8.535157 8.535156 0 9.425782 7.640625 17.066407 17.066406 17.066407 4.710937 0 8.53125 3.820312 8.53125 8.53125v136.535156c0 4.710937-3.820313 8.53125-8.53125 8.53125-9.425781 0-17.066406 7.640625-17.066406 17.066406 0 4.714844-3.820313 8.535157-8.535157 8.535157zm-77.875-17.066407h70.417969c3.128907-12.015625 12.511719-21.394531 24.523438-24.527343v-121.617188c-12.011719-3.128906-21.394531-12.507812-24.523438-24.523438h-70.417969c-3.128906 12.015626-12.511718 21.394532-24.523437 24.523438v121.617188c12.011719 3.132812 21.394531 12.511718 24.523437 24.527343zm0 0"/><path d="m68.269531 238.9375c-2.957031 0-5.703125-1.535156-7.257812-4.046875-1.550781-2.515625-1.691407-5.65625-.371094-8.300781 6.71875-12.476563 16.945313-22.707032 29.421875-29.421875 4.21875-2.109375 9.34375-.394531 11.453125 3.820312 2.105469 4.21875.394531 9.347657-3.824219 11.453125-9.148437 5.070313-16.6875 12.617188-21.742187 21.777344-1.453125 2.90625-4.429688 4.734375-7.679688 4.71875zm0 0"/><path d="m145.070312 392.539062c-1.597656-.003906-3.160156-.453124-4.515624-1.296874l-68.265626-42.667969c-4.007812-2.5-5.230468-7.769531-2.730468-11.777344 2.496094-4.003906 7.769531-5.226563 11.773437-2.730469l68.269531 42.667969c3.261719 2.003906 4.789063 5.9375 3.734376 9.621094-1.054688 3.683593-4.4375 6.210937-8.265626 6.183593zm0 0"/><path d="m76.800781 392.539062c-3.808593.003907-7.15625-2.519531-8.207031-6.179687-1.054688-3.660156.449219-7.574219 3.675781-9.589844l68.269531-42.667969c2.589844-1.617187 5.847657-1.726562 8.542969-.289062 2.691407 1.433594 4.417969 4.199219 4.519531 7.25.105469 3.054688-1.425781 5.929688-4.019531 7.546875l-68.265625 42.664063c-1.359375.835937-2.921875 1.273437-4.515625 1.265624zm0 0"/></svg>