<svg height="512pt" viewBox="-18 0 512 512.00293" width="512pt" xmlns="http://www.w3.org/2000/svg"><path d="m451.457031 375.46875c22.101563-78.113281 22.101563-160.824219 0-238.933594l-25.515625-68.265625c-7.785156-16.609375-16.617187-32.703125-26.453125-48.1875-4.691406-7.253906-12.761719-11.609375-21.402343-11.546875h-279.585938c-8.632812-.058594-16.699219 4.296875-21.390625 11.546875-9.835937 15.480469-18.675781 31.578125-26.460937 48.1875l-25.515626 68.265625c-22.101562 78.109375-22.101562 160.820313 0 238.933594l25.515626 68.265625c7.78125 16.609375 16.617187 32.703125 26.453124 48.1875 4.691407 7.253906 12.761719 11.609375 21.398438 11.546875h279.585938c8.636718.058594 16.703124-4.296875 21.394531-11.546875 9.835937-15.484375 18.675781-31.578125 26.460937-48.1875zm0 0" fill="#4e342e"/><path d="m396.589844 375.46875c16.46875-78.792969 16.46875-160.140625 0-238.933594l-18.859375-68.265625c-7.109375-20.453125-15.578125-40.410156-25.34375-59.734375h-228.183594c-9.769531 19.324219-18.234375 39.28125-25.34375 59.734375l-18.859375 68.265625c-16.46875 78.792969-16.46875 160.140625 0 238.933594l18.859375 68.265625c7.109375 20.453125 15.574219 40.410156 25.34375 59.734375h228.183594c9.765625-19.324219 18.234375-39.28125 25.34375-59.734375zm0 0" fill="#795548"/><path d="m172.160156 179.203125c.683594-14.335937 1.621094-28.589844 2.816406-42.667969l7.511719-68.265625c2.898438-20.566406 6.3125-40.535156 10.152344-59.734375h91.308594c3.839843 19.199219 7.253906 39.167969 10.152343 59.734375l7.511719 68.265625c1.195313 14.078125 2.132813 28.332032 2.816407 42.667969v153.597656c-.683594 14.335938-1.621094 28.585938-2.816407 42.667969l-7.511719 68.265625c-2.898437 20.566406-6.3125 40.535156-10.152343 59.734375h-91.308594c-3.839844-19.199219-7.253906-39.167969-10.152344-59.734375l-7.511719-68.265625c-1.195312-14.082031-2.132812-28.332031-2.816406-42.667969zm0 0" fill="#bfa885"/><path d="m457.773438 136.535156h-438.957032c-2.621094-.003906-5.097656-1.210937-6.714844-3.277344-1.613281-2.0625-2.191406-4.757812-1.5625-7.304687l12.800782-51.199219c.941406-3.808594 4.355468-6.484375 8.277344-6.484375h413.355468c3.921875 0 7.335938 2.675781 8.277344 6.484375l12.800781 51.199219c.628907 2.546875.050781 5.242187-1.5625 7.304687-1.617187 2.066407-4.09375 3.273438-6.714843 3.277344zm0 0" fill="#283593"/><path d="m466.050781 386.050781-12.800781 51.199219c-.941406 3.804688-4.355469 6.480469-8.277344 6.484375h-413.355468c-3.921876-.003906-7.335938-2.679687-8.277344-6.484375l-12.800782-51.199219c-.628906-2.546875-.050781-5.242187 1.5625-7.308593 1.617188-2.0625 4.09375-3.273438 6.714844-3.273438h438.957032c2.621093 0 5.097656 1.210938 6.714843 3.273438 1.613281 2.066406 2.191407 4.761718 1.5625 7.308593zm0 0" fill="#283593"/><path d="m429.78125 136.535156h-410.964844c-2.621094-.003906-5.097656-1.210937-6.714844-3.277344-1.613281-2.0625-2.191406-4.757812-1.5625-7.304687l12.800782-51.199219c.941406-3.808594 4.355468-6.484375 8.277344-6.484375h385.367187c3.917969 0 7.335937 2.675781 8.277344 6.484375l12.796875 51.199219c.628906 2.546875.054687 5.242187-1.5625 7.304687-1.613282 2.066407-4.089844 3.273438-6.714844 3.277344zm0 0" fill="#3f51b5"/><path d="m438.058594 386.050781-12.796875 51.199219c-.941407 3.804688-4.359375 6.480469-8.277344 6.484375h-385.367187c-3.921876-.003906-7.335938-2.679687-8.277344-6.484375l-12.800782-51.199219c-.628906-2.546875-.050781-5.242187 1.5625-7.308593 1.617188-2.0625 4.09375-3.273438 6.714844-3.273438h410.964844c2.625 0 5.101562 1.210938 6.714844 3.273438 1.617187 2.066406 2.191406 4.761718 1.5625 7.308593zm0 0" fill="#3f51b5"/><path d="m358.769531 332.800781h-240.949219c-4.3125.003907-7.960937-3.183593-8.53125-7.457031-5.90625-46.039062-5.90625-92.644531 0-138.683594.570313-4.273437 4.21875-7.460937 8.53125-7.457031h240.949219c4.308594-.003906 7.957031 3.183594 8.53125 7.457031 5.90625 46.039063 5.90625 92.644532 0 138.683594-.574219 4.273438-4.222656 7.460938-8.53125 7.457031zm0 0" fill="#fec108"/><path d="m25.125 384c-3.816406-.003906-7.164062-2.539062-8.203125-6.210938-22.5625-79.625-22.5625-163.949218 0-243.574218.734375-3.042969 3.074219-5.4375 6.09375-6.246094 3.023437-.808594 6.246094.105469 8.398437 2.375 2.152344 2.269531 2.886719 5.539062 1.917969 8.511719-21.691406 76.589843-21.691406 157.699219 0 234.292969.726563 2.570312.207031 5.335937-1.40625 7.46875-1.609375 2.128906-4.128906 3.382812-6.800781 3.382812zm0 0"/><path d="m451.464844 384c-2.671875 0-5.191406-1.253906-6.800782-3.382812-1.613281-2.132813-2.132812-4.898438-1.40625-7.46875 21.691407-76.59375 21.691407-157.703126 0-234.292969-.96875-2.972657-.234374-6.242188 1.917969-8.511719 2.152344-2.269531 5.375-3.183594 8.398438-2.375 3.019531.808594 5.359375 3.203125 6.09375 6.246094 22.558593 79.625 22.558593 163.949218 0 243.574218-1.039063 3.671876-4.386719 6.207032-8.203125 6.210938zm0 0"/><path d="m378.085938 512h-279.585938c-11.5625.101562-22.367188-5.753906-28.59375-15.503906-10.039062-15.792969-19.066406-32.207032-27.023438-49.144532-1.902343-4.25-.046874-9.238281 4.167969-11.210937 4.21875-1.976563 9.238281-.207031 11.285157 3.976563 7.644531 16.277343 16.308593 32.050781 25.949218 47.230468 3.140625 4.78125 8.496094 7.640625 14.214844 7.585938h279.585938c5.707031.042968 11.046874-2.808594 14.183593-7.578125 9.636719-15.183594 18.304688-30.960938 25.949219-47.238281 2.046875-4.183594 7.066406-5.953126 11.285156-3.976563 4.214844 1.972656 6.070313 6.960937 4.171875 11.210937-7.953125 16.9375-16.96875 33.355469-26.992187 49.152344-6.230469 9.746094-17.03125 15.597656-28.597656 15.496094zm0 0"/><path d="m425.953125 76.800781c-3.316406.003907-6.328125-1.914062-7.734375-4.914062-7.644531-16.277344-16.308594-32.050781-25.949219-47.230469-3.132812-4.773438-8.472656-7.628906-14.183593-7.589844h-279.585938c-5.703125-.039062-11.042969 2.8125-14.179688 7.578125-9.636718 15.1875-18.304687 30.964844-25.949218 47.242188-2 4.277343-7.085938 6.125-11.363282 4.125-4.277343-1.996094-6.125-7.085938-4.125-11.363281 7.949219-16.9375 16.964844-33.351563 26.988282-49.148438 6.234375-9.757812 17.054687-15.613281 28.628906-15.5h279.585938c11.566406-.101562 22.371093 5.757812 28.597656 15.507812 10.039062 15.792969 19.066406 32.207032 27.023437 49.140626 1.242188 2.648437 1.039063 5.746093-.535156 8.210937s-4.296875 3.953125-7.21875 3.941406zm0 0"/><path d="m79.992188 384c-4.027344-.003906-7.503907-2.824219-8.335938-6.765625-16.734375-79.957031-16.734375-162.511719 0-242.464844.976562-4.613281 5.503906-7.558593 10.117188-6.585937 4.609374.976562 7.558593 5.507812 6.582031 10.117187-16.257813 77.625-16.257813 157.777344 0 235.402344.46875 2.214844.039062 4.527344-1.199219 6.425781-1.238281 1.898438-3.179688 3.226563-5.398438 3.695313-.578124.117187-1.171874.175781-1.765624.175781zm0 0"/><path d="m396.597656 384c-.59375 0-1.1875-.058594-1.765625-.175781-2.21875-.46875-4.160156-1.796875-5.398437-3.695313-1.238282-1.898437-1.667969-4.210937-1.199219-6.425781 16.253906-77.625 16.253906-157.777344 0-235.402344-.976563-4.609375 1.972656-9.140625 6.582031-10.117187 4.613282-.972656 9.140625 1.972656 10.117188 6.585937 16.734375 79.953125 16.734375 162.507813 0 242.464844-.832032 3.941406-4.308594 6.761719-8.335938 6.765625zm0 0"/><path d="m352.386719 512h-228.183594c-3.21875.003906-6.164063-1.804688-7.621094-4.675781-9.925781-19.667969-18.539062-39.972657-25.777343-60.78125-1.09375-2.902344-.527344-6.164063 1.476562-8.53125 2.007812-2.363281 5.136719-3.453125 8.175781-2.847657 3.039063.605469 5.511719 2.8125 6.457031 5.761719 6.421876 18.445313 13.953126 36.480469 22.5625 54.007813h217.601563c8.632813-17.527344 16.1875-35.5625 22.628906-54.007813 1.632813-4.332031 6.421875-6.570312 10.792969-5.046875 4.375 1.523438 6.734375 6.253906 5.320312 10.664063-7.242187 20.808593-15.851562 41.113281-25.78125 60.78125-1.460937 2.882812-4.421874 4.695312-7.652343 4.675781zm0 0"/><path d="m377.730469 76.800781c-3.628907 0-6.863281-2.296875-8.054688-5.726562-6.421875-18.441407-13.957031-36.476563-22.5625-54.007813h-217.601562c-8.632813 17.527344-16.1875 35.566406-22.628907 54.007813-1.632812 4.335937-6.421874 6.574219-10.796874 5.050781-4.371094-1.523438-6.730469-6.253906-5.316407-10.664062 7.25-20.808594 15.875-41.117188 25.8125-60.78125 1.457031-2.871094 4.402344-4.679688 7.621094-4.679688h228.183594c3.21875 0 6.164062 1.808594 7.617187 4.679688 9.929688 19.667968 18.542969 39.972656 25.78125 60.78125.910156 2.609374.5 5.496093-1.101562 7.75-1.601563 2.25-4.191406 3.589843-6.953125 3.589843zm0 0"/><path d="m172.167969 187.734375h-.433594c-2.261719-.109375-4.386719-1.109375-5.90625-2.785156-1.523437-1.675781-2.316406-3.886719-2.207031-6.148438.679687-14.363281 1.636718-28.816406 2.839844-42.972656.425781-4.691406 4.535156-8.175781 9.234374-7.828125 2.253907.191406 4.339844 1.273438 5.800782 3 1.460937 1.730469 2.171875 3.972656 1.980468 6.226562-1.175781 13.953126-2.117187 28.203126-2.789062 42.359376-.207031 4.554687-3.957031 8.144531-8.519531 8.148437zm0 0"/><path d="m174.96875 384c-4.445312.015625-8.160156-3.382812-8.535156-7.816406-1.203125-14.15625-2.15625-28.609375-2.839844-42.972656-.109375-2.265626.683594-4.484376 2.210938-6.164063 1.53125-1.675781 3.664062-2.675781 5.929687-2.777344 4.6875-.171875 8.65625 3.429688 8.933594 8.113281.675781 14.15625 1.613281 28.40625 2.792969 42.359376.199218 2.257812-.507813 4.503906-1.964844 6.242187-1.453125 1.734375-3.542969 2.820313-5.800782 3.015625-.238281 0-.488281 0-.726562 0zm0 0"/><path d="m301.621094 384c-.238282 0-.488282 0-.726563 0-2.253906-.1875-4.339843-1.269531-5.800781-3s-2.171875-3.96875-1.980469-6.222656c1.175781-13.953125 2.117188-28.160156 2.789063-42.359375.28125-4.695313 4.253906-8.3125 8.953125-8.148438 2.261719.105469 4.386719 1.109375 5.90625 2.785157 1.523437 1.675781 2.316406 3.886718 2.207031 6.148437-.679688 14.359375-1.636719 28.816406-2.839844 42.972656-.371094 4.425781-4.070312 7.828125-8.507812 7.824219zm0 0"/><path d="m304.417969 187.734375c-4.554688.003906-8.3125-3.570313-8.53125-8.125-.675781-14.15625-1.613281-28.40625-2.789063-42.359375-.359375-3.089844.996094-6.128906 3.53125-7.929688 2.535156-1.800781 5.851563-2.082031 8.652344-.730468 2.800781 1.351562 4.644531 4.121094 4.8125 7.226562 1.203125 14.160156 2.160156 28.613282 2.84375 42.976563.230469 4.699219-3.382812 8.699219-8.082031 8.941406zm0 0"/><path d="m283.949219 512h-91.308594c-4.054687.003906-7.550781-2.851562-8.363281-6.824219-3.933594-19.628906-7.371094-39.910156-10.238282-60.210937-.484374-3.046875.710938-6.117188 3.128907-8.03125 2.417969-1.914063 5.679687-2.375 8.535156-1.207032 2.851563 1.167969 4.851563 3.789063 5.230469 6.847657 2.484375 17.628906 5.417968 35.21875 8.730468 52.394531h77.261719c3.308594-17.175781 6.246094-34.765625 8.730469-52.394531.378906-3.058594 2.378906-5.679688 5.230469-6.847657 2.855469-1.167968 6.117187-.707031 8.535156 1.207032 2.417969 1.914062 3.613281 4.984375 3.128906 8.03125-2.867187 20.300781-6.304687 40.558594-10.238281 60.210937-.8125 3.972657-4.308594 6.828125-8.363281 6.824219zm0 0"/><path d="m294.09375 76.800781c-4.246094-.003906-7.84375-3.132812-8.4375-7.335937-2.484375-17.632813-5.421875-35.21875-8.730469-52.398438h-77.261719c-3.3125 17.179688-6.246093 34.765625-8.730468 52.398438-.378906 3.058594-2.378906 5.675781-5.230469 6.847656-2.855469 1.167969-6.117187.707031-8.535156-1.207031-2.417969-1.917969-3.613281-4.984375-3.128907-8.03125 2.867188-20.300781 6.304688-40.558594 10.238282-60.210938.8125-3.972656 4.308594-6.8281248 8.363281-6.8281248h91.308594c4.054687 0 7.550781 2.8554688 8.363281 6.8281248 3.933594 19.625 7.371094 39.910157 10.238281 60.210938.660157 4.664062-2.589843 8.980469-7.253906 9.640625-.398437.058594-.800781.085937-1.203125.085937zm0 0"/><path d="m457.761719 145.066406h-438.9375c-5.253907.003906-10.214844-2.417968-13.449219-6.554687-3.234375-4.140625-4.382812-9.542969-3.113281-14.640625l12.800781-51.199219c1.898438-7.605469 8.726562-12.9375 16.5625-12.9375h413.339844c7.828125 0 14.65625 5.332031 16.554687 12.929687l12.796875 51.199219c1.277344 5.097657.128906 10.5-3.101562 14.640625-3.234375 4.140625-8.195313 6.5625-13.453125 6.5625zm-12.796875-68.265625h-413.339844l-12.800781 51.199219h438.964843zm0 0"/><path d="m444.964844 452.269531h-413.339844c-7.828125-.003906-14.65625-5.332031-16.554688-12.929687l-12.800781-51.199219c-1.273437-5.097656-.128906-10.5 3.105469-14.640625 3.234375-4.144531 8.195312-6.5625 13.449219-6.566406h438.9375c5.257812 0 10.21875 2.417968 13.453125 6.558594 3.234375 4.140624 4.382812 9.542968 3.113281 14.640624l-12.800781 51.199219c-1.898438 7.601563-8.726563 12.9375-16.5625 12.9375zm-426.140625-68.269531 12.800781 51.203125h413.339844l12.796875-51.203125zm0 0"/><path d="m358.769531 341.335938h-240.949219c-8.597656-.003907-15.867187-6.375-16.996093-14.898438-5.992188-46.765625-5.992188-94.097656 0-140.863281 1.128906-8.523438 8.394531-14.898438 16.996093-14.90625h240.949219c8.597657.003906 15.867188 6.375 16.996094 14.898437 5.992187 46.761719 5.992187 94.097656 0 140.859375-1.128906 8.527344-8.394531 14.902344-16.996094 14.910157zm-240.949219-153.601563c-5.875 45.320313-5.898437 91.207031-.066406 136.535156h241.015625c.03125-.003906.0625-.019531.085938-.042969 5.808593-45.308593 5.808593-91.175781 0-136.484374zm0 0"/><path d="m144.429688 307.203125c-4.714844 0-8.535157-3.820313-8.535157-8.535156v-76.800781c0-4.710938 3.820313-8.53125 8.535157-8.53125 4.710937 0 8.53125 3.820312 8.53125 8.53125v76.800781c0 4.714843-3.820313 8.535156-8.53125 8.535156zm0 0"/><path d="m170.027344 273.066406h-25.597656c-4.714844 0-8.535157-3.820312-8.535157-8.53125v-42.667968c0-4.710938 3.820313-8.53125 8.535157-8.53125h25.597656c14.140625 0 25.601562 11.460937 25.601562 25.597656v8.535156c0 14.136719-11.460937 25.597656-25.601562 25.597656zm-17.066406-17.066406h17.066406c4.714844 0 8.535156-3.820312 8.535156-8.53125v-8.535156c0-4.710938-3.820312-8.53125-8.535156-8.53125h-17.066406zm0 0"/><path d="m187.09375 307.203125c-3.25.015625-6.226562-1.8125-7.679688-4.71875l-17.066406-34.136719c-2.105468-4.214844-.394531-9.34375 3.824219-11.449218 4.21875-2.109376 9.34375-.394532 11.449219 3.820312l17.066406 34.136719c1.320312 2.636719 1.183594 5.769531-.363281 8.285156-1.546875 2.511719-4.28125 4.046875-7.230469 4.0625zm0 0"/><path d="m238.292969 307.203125h-8.53125c-14.140625 0-25.601563-11.464844-25.601563-25.601563v-59.734374c0-4.710938 3.820313-8.53125 8.535156-8.53125 4.710938 0 8.53125 3.820312 8.53125 8.53125v59.734374c0 4.710938 3.820313 8.535157 8.535157 8.535157h8.53125c4.714843 0 8.535156-3.824219 8.535156-8.535157v-59.734374c0-4.710938 3.820313-8.53125 8.53125-8.53125 4.714844 0 8.535156 3.820312 8.535156 8.53125v59.734374c0 14.136719-11.460937 25.601563-25.601562 25.601563zm0 0"/><path d="m332.160156 307.203125c-4.710937 0-8.53125-3.820313-8.53125-8.535156v-51.199219l-10.242187 13.652344c-1.679688 2.042968-4.183594 3.222656-6.824219 3.222656-2.644531 0-5.148438-1.179688-6.828125-3.222656l-10.238281-13.652344v51.199219c0 4.714843-3.820313 8.535156-8.535156 8.535156-4.710938 0-8.53125-3.820313-8.53125-8.535156v-76.800781c0-3.671876 2.347656-6.933594 5.832031-8.09375 3.484375-1.160157 7.324219.035156 9.527343 2.976562l18.773438 25.027344 18.773438-25.027344c2.203124-2.941406 6.039062-4.136719 9.523437-2.976562 3.484375 1.160156 5.835937 4.421874 5.835937 8.09375v76.800781c0 4.714843-3.820312 8.535156-8.535156 8.535156zm0 0"/><path d="m67.628906 102.402344c0 4.710937-3.820312 8.53125-8.535156 8.53125-4.710938 0-8.53125-3.820313-8.53125-8.53125 0-4.714844 3.820312-8.535156 8.53125-8.535156 4.714844 0 8.535156 3.820312 8.535156 8.535156zm0 0"/><path d="m144.429688 102.402344c0 4.710937-3.820313 8.53125-8.535157 8.53125-4.710937 0-8.535156-3.820313-8.535156-8.53125 0-4.714844 3.824219-8.535156 8.535156-8.535156 4.714844 0 8.535157 3.820312 8.535157 8.535156zm0 0"/><path d="m426.027344 102.402344c0 4.710937-3.820313 8.53125-8.53125 8.53125-4.714844 0-8.535156-3.820313-8.535156-8.53125 0-4.714844 3.820312-8.535156 8.535156-8.535156 4.710937 0 8.53125 3.820312 8.53125 8.535156zm0 0"/><path d="m349.226562 102.402344c0 4.710937-3.820312 8.53125-8.53125 8.53125-4.714843 0-8.535156-3.820313-8.535156-8.53125 0-4.714844 3.820313-8.535156 8.535156-8.535156 4.710938 0 8.53125 3.820312 8.53125 8.535156zm0 0"/><path d="m246.828125 102.402344c0 4.710937-3.820313 8.53125-8.535156 8.53125-4.710938 0-8.53125-3.820313-8.53125-8.53125 0-4.714844 3.820312-8.535156 8.53125-8.535156 4.714843 0 8.535156 3.820312 8.535156 8.535156zm0 0"/><path d="m67.628906 409.601562c0 4.710938-3.820312 8.535157-8.535156 8.535157-4.710938 0-8.53125-3.824219-8.53125-8.535157 0-4.710937 3.820312-8.535156 8.53125-8.535156 4.714844 0 8.535156 3.824219 8.535156 8.535156zm0 0"/><path d="m144.429688 409.601562c0 4.710938-3.820313 8.535157-8.535157 8.535157-4.710937 0-8.535156-3.824219-8.535156-8.535157 0-4.710937 3.824219-8.535156 8.535156-8.535156 4.714844 0 8.535157 3.824219 8.535157 8.535156zm0 0"/><path d="m426.027344 409.601562c0 4.710938-3.820313 8.535157-8.53125 8.535157-4.714844 0-8.535156-3.824219-8.535156-8.535157 0-4.710937 3.820312-8.535156 8.535156-8.535156 4.710937 0 8.53125 3.824219 8.53125 8.535156zm0 0"/><path d="m349.226562 409.601562c0 4.710938-3.820312 8.535157-8.53125 8.535157-4.714843 0-8.535156-3.824219-8.535156-8.535157 0-4.710937 3.820313-8.535156 8.535156-8.535156 4.710938 0 8.53125 3.824219 8.53125 8.535156zm0 0"/><path d="m246.828125 409.601562c0 4.710938-3.820313 8.535157-8.535156 8.535157-4.710938 0-8.53125-3.824219-8.53125-8.535157 0-4.710937 3.820312-8.535156 8.53125-8.535156 4.714843 0 8.535156 3.824219 8.535156 8.535156zm0 0"/></svg>