<svg height="512pt" viewBox="0 -40 512.41435 512" width="512pt" xmlns="http://www.w3.org/2000/svg"><path d="m372.347656 142.65625 24.148438-24.148438-48.300782-48.296874-24.148437 24.148437c-6.382813 6.441406-15.078125 10.066406-24.148437 10.066406-9.070313 0-17.765626-3.625-24.148438-10.066406-9.996094-9.980469-26.1875-9.980469-36.183594 0l-162.902344 162.988281c-9.980468 9.992188-9.980468 26.183594 0 36.179688l15.789063 15.785156 47.128906 57.277344 93.253907-7.824219 39.25-31.445313 100.261718-100.183593c4.804688-4.792969 7.507813-11.300781 7.507813-18.089844s-2.703125-13.296875-7.507813-18.089844c-6.433594-6.390625-10.046875-15.082031-10.046875-24.148437s3.613281-17.757813 10.046875-24.152344zm-57.347656 27.136719c3.246094 3.242187-23.4375 5.488281-21.816406 9.386719l-5.121094 35.730468c-.519531-.351562-1.007812-.75-1.449219-1.195312-.597656-.597656-1.195312-1.109375-1.792969-1.707032-14.933593-14.933593-19.03125-35.242187-9.046874-45.226562 11.699218-9.894531 29.179687-8.554688 39.226562 3.011719zm0 0" fill="#00bcd4"/><path d="m318.894531 174.488281c2.222657 3.402344 1.738281 7.902344-1.160156 10.75l-29.699219 29.695313c-.519531-.347656-1.003906-.75-1.449218-1.191406-.597657-.597657-1.195313-1.109376-1.792969-1.707032-14.933594-14.933594-19.027344-35.242187-9.042969-45.226562 11.695312-9.921875 29.191406-8.589844 39.25 2.984375 1.441406 1.441406 2.742188 3.011719 3.894531 4.695312zm0 0" fill="#ff9801"/><path d="m320.804688 229.273438c-.011719.738281-.320313 1.445312-.851563 1.960937l-90.796875 90.878906-4.351562.425781-63.746094 6.828126c-3.640625-4.175782-6.554688-8.9375-8.617188-14.078126-4.769531-8.96875-3.730468-19.914062 2.644532-27.820312l118.871093-118.785156 1.792969-1.875c-9.984375 9.984375-5.890625 30.292968 9.042969 45.226562.597656.597656 1.195312 1.109375 1.792969 1.707032.445312.441406.929687.84375 1.449218 1.191406.394532.46875.851563.871094 1.367188 1.195312.617187.53125 1.273437 1.015625 1.960937 1.453125 1.328125 1.101563 2.757813 2.070313 4.269531 2.898438.535157.390625 1.105469.734375 1.703126 1.027343.34375.167969.597656.339844.941406.511719 1.910156.957031 3.878906 1.789063 5.894531 2.492188 1.890625.664062 3.828125 1.179687 5.796875 1.542969 1.828125.347656 3.683594.53125 5.546875.554687h1.253906c.84375-.125 1.707031-.039063 2.507813.253906.664062.332031 1.167968.910157 1.398437 1.613281.082031.257813.125.527344.128907.796876zm0 0" fill="#fec108"/><path d="m378.347656 40.082031 48.269532 48.273438c3.332031 3.332031 3.332031 8.734375 0 12.066406l-18.101563 18.101563c-3.332031 3.335937-8.734375 3.335937-12.066406 0l-48.273438-48.269532c-3.332031-3.332031-3.332031-8.734375 0-12.070312l18.101563-18.101563c3.332031-3.332031 8.734375-3.332031 12.070312 0zm0 0" fill="#00bcd4"/><path d="m454.179688 57.921875-33.621094 24.40625-36.179688-36.183594 24.402344-33.621093c1.421875-2.125 3.722656-3.503907 6.269531-3.75 2.546875-.25 5.070313.660156 6.875 2.472656l33.535157 33.535156c1.8125 1.804688 2.71875 4.328125 2.472656 6.875-.25 2.542969-1.625 4.84375-3.753906 6.265625zm0 0" fill="#795548"/><path d="m503.675781 318.617188v97.363281c-.03125 9.414062-7.65625 17.039062-17.070312 17.066406h-25.597657c9.414063-.027344 17.039063-7.652344 17.066407-17.066406v-89.085938c6.90625-2.378906 13.199219-6.253906 18.429687-11.351562 1.222656-1.195313 3.042969-1.539063 4.617188-.867188 1.570312.675781 2.578125 2.230469 2.554687 3.941407zm0 0" fill="#283593"/><path d="m503.675781 348.480469v67.5c-.03125 9.414062-7.65625 17.039062-17.070312 17.066406h-25.597657c9.414063-.027344 17.039063-7.652344 17.066407-17.066406v-59.222657c6.90625-2.375 13.199219-6.25 18.429687-11.347656 1.222656-1.199218 3.042969-1.539062 4.617188-.867187 1.570312.675781 2.578125 2.230469 2.554687 3.9375zm0 0" fill="#1566c0"/><path d="m478.074219 326.894531v89.085938c-.027344 9.414062-7.652344 17.039062-17.066407 17.066406h-435.199218c-9.414063-.027344-17.039063-7.652344-17.066406-17.066406v-97.363281c-.027344-1.710938.980468-3.265626 2.554687-3.941407 1.570313-.671875 3.390625-.328125 4.613281.867188 6.335938 6.160156 14.199219 10.519531 22.78125 12.628906 4.132813 1.183594 8.417969 1.757813 12.714844 1.707031 14.71875.039063 28.730469-6.3125 38.402344-17.40625 3.6875-4.113281 6.660156-8.8125 8.789062-13.910156.609375-1.6875 2.214844-2.8125 4.007813-2.8125 1.796875 0 3.398437 1.125 4.011719 2.8125 6.242187 14.691406 18.945312 25.660156 34.390624 29.695312 4.183594 1.0625 8.480469 1.609376 12.800782 1.621094 14.714844.039063 28.726562-6.3125 38.398437-17.40625 3.6875-4.113281 6.660157-8.8125 8.789063-13.910156.613281-1.6875 2.214844-2.8125 4.011718-2.8125 1.792969 0 3.398438 1.125 4.011719 2.8125 6.242188 14.691406 18.941407 25.660156 34.386719 29.695312 4.183594 1.0625 8.484375 1.609376 12.800781 1.621094 14.71875.039063 28.726563-6.3125 38.398438-17.40625 3.691406-4.113281 6.660156-8.8125 8.792969-13.910156.609374-1.6875 2.214843-2.8125 4.007812-2.8125 1.796875 0 3.398438 1.125 4.011719 2.8125 6.242187 14.691406 18.945312 25.660156 34.390625 29.695312 4.183594 1.0625 8.480468 1.609376 12.796875 1.621094 14.71875.039063 28.730469-6.3125 38.402343-17.40625 3.6875-4.113281 6.660157-8.8125 8.789063-13.910156.613281-1.6875 2.214844-2.8125 4.011719-2.8125 1.792968 0 3.398437 1.125 4.007812 2.8125 6.214844 14.664062 18.890625 25.605469 34.304688 29.609375 9.878906 2.652344 20.335937 2.207031 29.953125-1.277344zm0 0" fill="#3f51b5"/><path d="m478.074219 356.757812v59.222657c-.027344 9.414062-7.652344 17.039062-17.066407 17.066406h-435.199218c-9.414063-.027344-17.039063-7.652344-17.066406-17.066406v-67.5c-.027344-1.707031.980468-3.261719 2.554687-3.9375 1.570313-.671875 3.390625-.332031 4.613281.867187 6.335938 6.160156 14.199219 10.519532 22.78125 12.628906 4.132813 1.179688 8.417969 1.757813 12.714844 1.707032 14.71875.039062 28.730469-6.3125 38.402344-17.40625 3.6875-4.113282 6.660156-8.816406 8.789062-13.910156.609375-1.6875 2.214844-2.8125 4.007813-2.8125 1.796875 0 3.398437 1.125 4.011719 2.8125 6.242187 14.691406 18.945312 25.660156 34.390624 29.695312 4.183594 1.0625 8.480469 1.609375 12.800782 1.621094 14.714844.039062 28.726562-6.3125 38.398437-17.40625 3.6875-4.113282 6.660157-8.816406 8.789063-13.910156.613281-1.6875 2.214844-2.8125 4.011718-2.8125 1.792969 0 3.398438 1.125 4.011719 2.8125 6.242188 14.691406 18.941407 25.660156 34.386719 29.695312 4.183594 1.0625 8.484375 1.609375 12.800781 1.621094 14.71875.039062 28.726563-6.3125 38.398438-17.40625 3.691406-4.113282 6.660156-8.816406 8.792969-13.910156.609374-1.6875 2.214843-2.8125 4.007812-2.8125 1.796875 0 3.398438 1.125 4.011719 2.8125 6.242187 14.691406 18.945312 25.660156 34.390625 29.695312 4.183594 1.0625 8.480468 1.609375 12.796875 1.621094 14.71875.039062 28.730469-6.3125 38.402343-17.40625 3.6875-4.113282 6.660157-8.816406 8.789063-13.910156.613281-1.6875 2.214844-2.8125 4.011719-2.8125 1.792968 0 3.398437 1.125 4.007812 2.8125 6.214844 14.664062 18.890625 25.605468 34.304688 29.609374 9.878906 2.652344 20.335937 2.207032 29.953125-1.28125zm0 0" fill="#2296f3"/><path d="m461.007812 338.4375c-20.96875.015625-40.40625-10.976562-51.199218-28.953125-10.800782 17.972656-30.234375 28.964844-51.203125 28.964844-20.964844 0-40.398438-10.992188-51.199219-28.964844-10.800781 17.972656-30.230469 28.964844-51.199219 28.964844s-40.398437-10.992188-51.199219-28.964844c-10.800781 17.972656-30.234374 28.964844-51.199218 28.964844-20.96875 0-40.402344-10.992188-51.203125-28.964844-10.566407 17.558594-29.398438 28.476563-49.890625 28.917969-20.488282.441406-39.777344-9.652344-51.089844-26.742188-1.84375-2.539062-2.140625-5.886718-.777344-8.714844 1.363282-2.828124 4.167969-4.675781 7.304688-4.816406 3.136718-.140625 6.09375 1.453125 7.703125 4.144532 8.6875 13.109374 23.875 20.378906 39.53125 18.917968 15.65625-1.460937 29.238281-11.410156 35.351562-25.898437 1.945313-4.851563 6.648438-8.03125 11.878907-8.03125 5.226562 0 9.929687 3.179687 11.875 8.03125 6.664062 15.820312 22.160156 26.105469 39.324218 26.105469 17.164063 0 32.660156-10.285157 39.320313-26.105469 1.949219-4.851563 6.652343-8.03125 11.878906-8.03125s9.929687 3.179687 11.878906 8.03125c6.664063 15.820312 22.15625 26.105469 39.320313 26.105469 17.167968 0 32.660156-10.285157 39.324218-26.105469 1.945313-4.851563 6.648438-8.03125 11.875-8.03125 5.230469 0 9.933594 3.179687 11.878907 8.03125 6.664062 15.820312 22.15625 26.105469 39.324219 26.105469 17.164062 0 32.65625-10.285157 39.320312-26.105469 1.949219-4.851563 6.648438-8.03125 11.878906-8.03125 5.226563 0 9.929688 3.179687 11.878906 8.03125 6.121094 14.476562 19.703126 24.410156 35.351563 25.863281s30.828125-5.816406 39.511719-18.917969c1.609375-2.691406 4.570312-4.285156 7.703125-4.144531 3.136719.140625 5.941406 1.992188 7.304687 4.816406 1.363282 2.828125 1.066406 6.175782-.777344 8.714844-11.019531 16.75-29.730468 26.828125-49.78125 26.8125zm0 0"/><path d="m272.078125 335.851562c-3.453125.003907-6.570313-2.078124-7.890625-5.269531-1.320312-3.191406-.585938-6.863281 1.859375-9.304687l100.242187-100.171875c3.203126-3.195313 5.007813-7.53125 5.007813-12.058594 0-4.523437-1.804687-8.863281-5.007813-12.058594-8.039062-7.992187-12.554687-18.859375-12.554687-30.195312 0-11.332031 4.515625-22.199219 12.554687-30.195313l18.097657-18.089844-36.191407-36.230468-18.113281 18.140625c-7.988281 8.054687-18.863281 12.589843-30.207031 12.589843s-22.214844-4.535156-30.203125-12.589843c-6.65625-6.621094-17.414063-6.621094-24.070313 0l-162.902343 162.988281c-6.652344 6.660156-6.652344 17.453125 0 24.113281l15.785156 15.789063c3.230469 3.351562 3.171875 8.675781-.128906 11.960937-3.296875 3.285157-8.621094 3.320313-11.960938.078125l-15.789062-15.785156c-13.3125-13.328125-13.3125-34.921875 0-48.25l162.902343-162.984375c13.328126-13.316406 34.921876-13.316406 48.25 0 10.09375 9.746094 26.09375 9.746094 36.1875 0l24.191407-24.195313c3.332031-3.328124 8.734375-3.328124 12.066406 0l48.300781 48.300782c3.328125 3.332031 3.328125 8.734375 0 12.066406l-24.152344 24.148438c-4.820312 4.789062-7.535156 11.304687-7.535156 18.105468 0 6.796875 2.714844 13.3125 7.535156 18.101563 6.414063 6.394531 10.019532 15.078125 10.019532 24.136719 0 9.058593-3.605469 17.742187-10.019532 24.136718l-100.238281 100.25c-1.605469 1.589844-3.773437 2.480469-6.035156 2.472656zm0 0"/><path d="m402.492188 129.550781c-4.527344.011719-8.875-1.785156-12.074219-4.992187l-48.273438-48.273438c-6.660156-6.664062-6.660156-17.46875 0-24.132812l18.101563-18.105469c3.199218-3.203125 7.542968-5.003906 12.070312-5.003906s8.871094 1.800781 12.070313 5.003906l48.273437 48.273437c3.203125 3.199219 5 7.542969 5 12.070313s-1.796875 8.867187-5 12.070313l-18.101562 18.097656c-3.199219 3.199218-7.539063 4.992187-12.066406 4.992187zm0-17.066406 18.101562-18.109375-48.28125-48.28125-18.101562 18.109375zm0 0"/><path d="m420.59375 90.851562c-2.261719 0-4.433594-.898437-6.035156-2.5l-36.214844-36.207031c-2.960938-2.972656-3.324219-7.65625-.851562-11.050781l24.394531-33.570312c2.828125-4.121094 7.34375-6.773438 12.324219-7.234376 5.085937-.496093 10.128906 1.304688 13.746093 4.914063l33.554688 33.554687c3.617187 3.609376 5.429687 8.648438 4.933593 13.738282-.496093 5.085937-3.246093 9.683594-7.496093 12.527344l-33.277344 24.199218c-1.476563 1.070313-3.253906 1.644532-5.078125 1.628906zm-25.027344-45.617187 25.90625 25.898437 27.671875-20.113281-33.277343-33.75zm0 0"/><path d="m315.324219 235.519531c-8.46875-.246093-16.707031-2.839843-23.789063-7.492187-13.140625-8.140625-29.167968-23.84375-31.222656-41.421875-1.125-9.605469 2.355469-19.175781 9.386719-25.8125 6.804687-6.722657 16.246093-10.0625 25.761719-9.113281 15.449218 1.507812 28.800781 11.429687 34.703124 25.785156 1.203126 2.835937.78125 6.097656-1.097656 8.535156-1.878906 2.441406-4.929687 3.675781-7.976562 3.238281s-5.621094-2.484375-6.738282-5.355469c-1.242187-3.007812-3.066406-5.738281-5.367187-8.039062-3.9375-4.074219-9.203125-6.609375-14.847656-7.152344-4.519531-.511718-9.035157 1.003906-12.328125 4.140625-3.359375 2.941407-5.054688 7.34375-4.53125 11.777344 1.183594 10.238281 12.585937 22.320313 23.234375 28.902344 3.636719 2.25 16.070312 9.011719 23.535156 1.550781 3.335937-3.332031 8.738281-3.328125 12.070313.003906 3.332031 3.335938 3.332031 8.738282-.003907 12.070313-5.507812 5.496093-13.007812 8.519531-20.789062 8.382812zm0 0"/><path d="m161.058594 337.902344c-2.496094 0-4.871094-1.09375-6.492188-2.996094-15.480468-18.152344-17.84375-41.140625-5.511718-53.46875l119.824218-119.792969c.273438-.296875.554688-.589843.855469-.851562 3.296875-3.375 8.703125-3.433594 12.078125-.132813 3.371094 3.296875 3.429688 8.707032.132812 12.078125l-.488281.511719c-2.570312 3.695312-3.359375 8.34375-2.148437 12.679688 1.84375 7.667968 5.847656 14.648437 11.535156 20.113281l1.816406 1.707031c.589844.570312 1.21875 1.101562 1.878906 1.585938.4375.378906.898438.726562 1.382813 1.042968.296875.179688.582031.378906.851563.597656.894531.753907 1.859374 1.421876 2.886718 1.988282.542969.28125 1.050782.625 1.519532 1.023437l.929687.410157c6.054687 3.992187 13.695313 4.730468 20.402344 1.96875.570312-.390626 1.109375-.828126 1.613281-1.304688 3.363281-3.148438 8.617188-3.058594 11.871094.203125s3.332031 8.515625.175781 11.871094l-100.949219 101.035156c-2.140625 2.21875-5.3125 3.109375-8.296875 2.328125s-5.3125-3.109375-6.09375-6.09375.105469-6.15625 2.324219-8.300781l82.21875-82.285157c-3.796875-.976562-7.472656-2.378906-10.957031-4.183593l-.851563-.460938c-.882812-.4375-1.734375-.925781-2.558594-1.464843-1.640624-.929688-3.195312-1.992188-4.660156-3.175782-.875-.578125-1.714844-1.210937-2.507812-1.894531-1.167969-.859375-2.269532-1.804687-3.296875-2.824219l-1.78125-1.707031c-7.496094-7.265625-12.925781-16.394531-15.726563-26.453125l-101.914062 101.855469c-5.777344 5.777343-2.894532 19.378906 6.425781 30.316406 2.160156 2.53125 2.648437 6.089844 1.257813 9.109375-1.394532 3.023438-4.417969 4.960938-7.746094 4.964844zm0 0"/><path d="m289.648438 221.789062c-3.449219-.003906-6.5625-2.082031-7.882813-5.269531s-.589844-6.859375 1.851563-9.296875l32.578124-32.566406c3.347657-3.230469 8.671876-3.1875 11.964844.105469 3.289063 3.292969 3.335938 8.613281.101563 11.960937l-32.578125 32.566406c-1.597656 1.605469-3.769532 2.503907-6.035156 2.5zm0 0"/><path d="m245.609375 145.160156c-3.453125-.003906-6.5625-2.082031-7.882813-5.269531-1.320312-3.1875-.589843-6.859375 1.847657-9.296875l12.066406-12.066406c3.347656-3.234375 8.671875-3.1875 11.964844.101562 3.289062 3.292969 3.335937 8.613282.101562 11.964844l-12.066406 12.0625c-1.59375 1.609375-3.765625 2.507812-6.03125 2.503906zm0 0"/><path d="m167.160156 223.605469c-3.449218 0-6.558594-2.078125-7.878906-5.269531-1.320312-3.1875-.59375-6.855469 1.847656-9.296876l54.304688-54.316406c2.144531-2.214844 5.316406-3.105468 8.300781-2.324218s5.3125 3.109374 6.09375 6.09375c.78125 2.984374-.109375 6.15625-2.328125 8.296874l-54.304688 54.316407c-1.601562 1.601562-3.769531 2.5-6.035156 2.5zm0 0"/></svg>