<svg height="512pt" viewBox="0 -13 512.11297 512" width="512pt" xmlns="http://www.w3.org/2000/svg"><path d="m369.140625 383.191406c8.707031 34.132813-8.617187 34.132813-34.730469 34.132813-.9375 0-1.875 0-2.816406.085937-.859375.0625-1.710938.175782-2.558594.34375-20.734375 3.328125-20.054687 26.367188-12.03125 42.238282 3.582032 7.082031-6.230468 11.179687-19.03125 13.570312v.082031c-5.460937 1.027344-11.433594 1.707031-17.152344 2.21875-6.058593.597657-11.859374.855469-16.210937 1.027344-5.207031.167969-8.535156.167969-8.535156.167969s-3.328125 0-8.53125-.167969c-.515625.011719-1.027344-.019531-1.535157-.085937h-.769531c-3.925781-.171876-8.875-.429688-13.910156-.941407-5.714844-.511719-11.691406-1.191406-17.152344-2.21875v-.082031c-12.800781-2.390625-22.613281-6.488281-19.027343-13.570312 8.703124-17.066407 8.703124-42.667969-17.410157-42.667969-6.035156.128906-12.074219-.070313-18.089843-.59375-15.1875-1.625-23.125-8.195313-16.640626-33.539063 8.023438-31.65625-28.757812-33.960937-27.21875-88.574218-.015624-.597657.011719-1.199219.082032-1.792969 10.070312-7.253907 40.277344-35.242188 129.792968-37.203125 3.328126-.171875 6.828126-.171875 10.410157-.171875 97.621093 0 129.792969 29.867187 140.203125 37.375.070312.59375.101562 1.195312.085937 1.792969 1.535157 54.613281-35.242187 56.917968-27.222656 88.574218zm0 0" fill="#bfa885"/><path d="m348.234375 383.191406c6.488281 25.34375-1.449219 31.914063-16.640625 33.539063l-2.644531.253906c-4.605469.339844-9.8125.339844-15.445313.339844-26.109375 0-26.109375 25.601562-17.40625 42.667969 3.582032 7.082031-6.230468 11.179687-19.03125 13.570312v.082031c-5.460937 1.027344-11.433594 1.707031-17.152344 2.21875-5.117187.511719-9.898437.769531-13.90625.941407h-.769531c-3.925781-.171876-8.875-.429688-13.910156-.941407-5.714844-.511719-11.691406-1.191406-17.152344-2.21875v-.082031c-12.800781-2.390625-22.613281-6.488281-19.027343-13.570312 8.703124-17.066407 8.703124-42.667969-17.410157-42.667969-6.035156.128906-12.074219-.070313-18.089843-.59375-15.1875-1.625-23.125-8.195313-16.640626-33.539063 8.023438-31.65625-28.757812-33.960937-27.21875-88.574218-.015624-.597657.011719-1.199219.082032-1.792969 10.070312-7.253907 40.277344-35.242188 129.792968-37.203125 89.429688 1.960937 119.636719 29.949218 129.707032 37.203125.070312.59375.101562 1.195312.085937 1.792969 1.535157 54.613281-35.242187 56.917968-27.222656 88.574218zm0 0" fill="#ffecb3"/><g fill="#795548"><path d="m229.023438 323.460938c1.78125 2.105468 3.0625 4.582031 3.757812 7.25 2.441406 14.796874-6.46875 29.109374-20.824219 33.453124-14.933593 5.460938-29.949219-.769531-33.449219-13.824218-2.109374-10.078125 1.65625-20.484375 9.726563-26.878906 10.621094 5.445312 23.015625 6.277343 34.269531 2.300781zm0 0"/><path d="m323.914062 323.460938c8.074219 6.394531 11.839844 16.800781 9.730469 26.878906-3.5 13.054687-18.519531 19.285156-33.453125 13.824218-14.351562-4.34375-23.261718-18.65625-20.820312-33.453124.691406-2.667969 1.976562-5.144532 3.753906-7.25l6.519531 2.300781c11.253907 3.976562 23.648438 3.144531 34.269531-2.300781zm0 0"/><path d="m273.476562 408.792969c0 9.609375-7.792968 17.398437-17.402343 17.398437s-17.398438-7.789062-17.398438-17.398437c0-9.386719 7.792969-25.601563 17.398438-25.601563 9.609375 0 17.402343 16.214844 17.402343 25.601563zm0 0"/></g><path d="m496.542969 245.550781c-27.476563 18.03125-56.832031 33.023438-87.550781 44.714844-.804688-3.128906-2.070313-6.117187-3.753907-8.875 22.78125-10.261719 44.746094-22.242187 65.707031-35.839844 4.78125-3 7.457032-8.441406 6.917969-14.0625-.542969-5.617187-4.210937-10.445312-9.476562-12.476562-62.890625-25.429688-68.183594-59.734375-101.378907-134.484375-9.367187-22.277344-21.496093-43.292969-36.09375-62.550782.425782-1.878906.679688-3.753906.9375-5.71875.347657-3.109374 2.375-5.78125 5.277344-6.957031s6.214844-.664062 8.632813 1.328125c14.25 12.117188 31.402343 39.167969 46.847656 73.898438 33.195313 74.75 38.484375 109.054687 101.375 134.484375 5.265625 2.03125 8.933594 6.859375 9.476563 12.476562.542968 5.621094-2.132813 11.0625-6.917969 14.0625zm0 0" fill="#37474f"/><path d="m470.945312 245.550781c-20.960937 13.597657-42.925781 25.578125-65.707031 35.839844-10.070312-17.152344-43.09375-43.265625-149.164062-43.265625-4.4375 0-8.703125.085938-12.796875.085938-115.714844 2.476562-136.621094 37.886718-140.121094 52.054687-7.679688-2.816406-15.015625-5.804687-21.84375-8.875-22.78125-10.261719-44.746094-22.242187-65.707031-35.839844-4.78125-3-7.457031-8.441406-6.917969-14.0625.542969-5.617187 4.210938-10.445312 9.480469-12.476562 62.890625-25.429688 68.179687-59.734375 101.375-134.484375 9.367187-22.277344 21.496093-43.292969 36.09375-62.550782 3.21875-4.117187 6.816406-7.914062 10.753906-11.347656 2.414063-1.992187 5.730469-2.503906 8.632813-1.328125 2.902343 1.175781 4.925781 3.847657 5.277343 6.957031 5.203125 39.511719 30.632813 69.292969 62.976563 75.523438 4.210937.855469 8.5 1.285156 12.796875 1.277344 36.609375 0 67.160156-29.4375 74.839843-71.082032 14.597657 19.257813 26.726563 40.273438 36.09375 62.550782 33.195313 74.75 38.488282 109.054687 101.378907 134.484375 5.265625 2.03125 8.933593 6.859375 9.476562 12.476562.539063 5.621094-2.136719 11.0625-6.917969 14.0625zm0 0" fill="#607d8b"/><path d="m408.992188 290.265625c-3.582032 1.277344-7.253907 2.558594-11.007813 3.839844-.535156-.46875-1.105469-.894531-1.707031-1.28125-10.410156-7.507813-42.582032-20.566407-140.203125-20.566407-97.621094 0-129.789063 13.058594-140.203125 20.566407-.597656.386719-1.167969.8125-1.703125 1.28125-3.757813-1.28125-7.425781-2.5625-11.011719-3.839844 3.585938-14.679687 25.941406-73.472656 152.917969-73.472656 126.976562 0 149.335937 58.792969 152.917969 73.472656zm0 0" fill="#37474f"/><path d="m238.582031 454.191406-7.253906 21.671875c-5.714844-.511719-11.691406-1.191406-17.152344-2.21875v-.082031c.085938-.515625.257813-.941406.34375-1.367188l7.847657-23.464843c1.511718-4.480469 6.363281-6.886719 10.839843-5.378907 4.476563 1.507813 6.882813 6.359376 5.375 10.839844zm0 0" fill="#7f6e5d"/><path d="m297.972656 473.5625v.082031c-5.460937 1.027344-11.433594 1.707031-17.152344 2.21875l-7.25-21.671875c-1.507812-4.480468.898438-9.332031 5.375-10.839844 4.476563-1.507812 9.328126.898438 10.835938 5.378907l7.851562 23.464843c.085938.425782.257813.851563.339844 1.367188zm0 0" fill="#7f6e5d"/><path d="m264.609375 451.460938v25.429687c-5.207031.167969-8.535156.167969-8.535156.167969s-3.328125 0-8.53125-.167969v-25.429687c0-4.714844 3.820312-8.535157 8.53125-8.535157 4.714843 0 8.535156 3.820313 8.535156 8.535157zm0 0" fill="#7f6e5d"/><path d="m256.074219 485.59375c-21.878907 0-59.835938-2.039062-68.179688-15.667969-2.566406-4.214843-2.699219-9.480469-.339843-13.816406 4.585937-7.609375 5.417968-16.902344 2.257812-25.207031-.757812-1.246094-3.085938-5.042969-12.074219-5.042969-17.296875 0-32.230469 0-40.445312-10.574219-5.796875-7.449218-6.597657-18.320312-2.5625-34.199218 2.757812-10.890626-1.363281-16.683594-8.207031-26.285157-13.660157-17.074219-20.527344-38.59375-19.277344-60.421875-.011719-.953125.050781-1.90625.1875-2.851562.785156-4.582032 5.09375-7.691406 9.691406-6.996094 4.597656.699219 7.789062 4.949219 7.179688 9.554688-1.246094 18.359374 4.519531 36.507812 16.128906 50.785156 7.679687 10.734375 15.546875 21.828125 10.84375 40.386718-3.414063 13.226563-1.765625 17.921876-.519532 19.523438 3.097657 4.011719 15.238282 4.011719 26.980469 4.011719 10.628907-.847657 20.859375 4.222656 26.625 13.191406 6.128907 12.625 5.894531 27.40625-.621093 39.835937 6.78125 3.667969 29.730468 6.695313 52.332031 6.707032 22.605469.007812 45.550781-3.039063 52.335937-6.707032-6.519531-12.429687-6.75-27.210937-.621094-39.835937 5.761719-8.96875 15.996094-14.039063 26.621094-13.191406 11.742188 0 23.894532 0 26.976563-3.976563 1.246093-1.613281 2.855469-6.296875-.511719-19.515625-4.710938-18.570312 3.191406-29.664062 10.835938-40.398437 11.496093-14.046875 17.257812-31.925782 16.121093-50.046875v-.851563c-.363281-4.625 2.933594-8.734375 7.523438-9.386718 4.488281-.644532 8.664062 2.425781 9.386719 6.902343.144531 1.023438.207031 2.054688.1875 3.089844 1.214843 21.75-5.652344 43.183594-19.277344 60.183594-6.824219 9.601562-10.964844 15.359375-8.199219 26.292969 4.035156 15.871093 3.234375 26.742187-2.558594 34.191406-8.253906 10.582031-23.1875 10.582031-40.484375 10.582031-8.984375 0-11.3125 3.796875-12.074218 5.042969-3.15625 8.308594-2.324219 17.605468 2.261718 25.214844 2.355469 4.335937 2.226563 9.597656-.339844 13.808593-8.347656 13.628907-46.304687 15.667969-68.183593 15.667969zm0 0"/><path d="m201.085938 374.660156c-5.535157.039063-10.996094-1.246094-15.929688-3.753906-7.34375-3.734375-12.753906-10.410156-14.890625-18.367188-2.921875-13.21875 1.859375-26.960937 12.355469-35.515624 2.628906-2.296876 6.394531-2.761719 9.503906-1.167969 8.539062 4.359375 18.492188 5.027343 27.539062 1.851562l6.519532-2.304687c3.296875-1.160156 6.96875-.199219 9.265625 2.433594 2.617187 3.0625 4.507812 6.671874 5.539062 10.5625 3.785157 19.125-7.484375 38.019531-26.113281 43.777343-4.414062 1.628907-9.082031 2.46875-13.789062 2.484375zm-10.71875-40.960937c-3.339844 4.011719-4.660157 9.332031-3.582032 14.4375.898438 3.34375 3.1875 6.140625 6.289063 7.679687 5.046875 2.34375 10.839843 2.484375 15.992187.386719 9.699219-2.929687 16.183594-12.0625 15.75-22.1875-11.1875 3.789063-23.328125 3.675781-34.449218-.316406zm0 0"/><path d="m311.0625 374.660156c-4.710938-.019531-9.382812-.863281-13.804688-2.492187-18.589843-5.746094-29.855468-24.582031-26.121093-43.675781 1.027343-3.925782 2.929687-7.566407 5.5625-10.65625 2.300781-2.632813 5.972656-3.59375 9.269531-2.433594l6.519531 2.304687c9.042969 3.183594 19 2.515625 27.535157-1.851562 3.109374-1.59375 6.875-1.128907 9.507812 1.167969 10.507812 8.5625 15.285156 22.320312 12.347656 35.550781-2.136718 7.945312-7.546875 14.605469-14.882812 18.332031-4.933594 2.507812-10.398438 3.796875-15.933594 3.753906zm-23.695312-40.660156c-.441407 10.113281 6.046874 19.230469 15.742187 22.132812 5.15625 2.109376 10.960937 1.972657 16.011719-.375 3.097656-1.539062 5.386718-4.335937 6.277344-7.679687 1.101562-5.128906-.222657-10.480469-3.582032-14.507813-11.101562 4.050782-23.25 4.207032-34.449218.4375zm0 0"/><path d="m256.074219 434.394531c-14.222657.074219-25.824219-11.378906-25.929688-25.601562 0-13.585938 10.339844-34.132813 25.929688-34.132813 15.589843 0 25.933593 20.546875 25.933593 34.132813-.109374 14.222656-11.707031 25.675781-25.933593 25.601562zm0-42.667969c-2.371094 0-8.863281 9.675782-8.863281 17.066407.207031 4.746093 4.113281 8.484375 8.863281 8.484375s8.660156-3.738282 8.867187-8.484375c0-7.390625-6.492187-17.066407-8.867187-17.066407zm0 0"/><path d="m114.175781 302.636719c-3.585937.003906-6.789062-2.234375-8.019531-5.597657-1.234375-3.363281-.230469-7.140624 2.507812-9.453124.851563-.734376 1.753907-1.402344 2.703126-2.007813 13.535156-9.785156 50.097656-21.851563 144.707031-21.851563 4.714843 0 8.535156 3.820313 8.535156 8.53125 0 4.714844-3.820313 8.535157-8.535156 8.535157-98.328125 0-127.308594 13.253906-135.210938 18.953125-.417969.246094-.816406.53125-1.183593.851562-1.535157 1.308594-3.488282 2.03125-5.503907 2.039063zm0 0"/><path d="m115.789062 303.160156c-.925781 0-1.847656-.15625-2.722656-.453125l-1.613281-.511719c-34.5625-11.898437-67.523437-28.019531-98.132813-47.992187l-2.261718-1.410156c-10.308594-6.394531-14.011719-19.605469-8.535156-30.429688 2.601562-5.152343 7-9.171875 12.367187-11.304687 50.175781-20.25 60.585937-44.878906 83.394531-98.824219 4.027344-9.550781 8.40625-19.898437 13.414063-31.171875 15.976562-35.839844 33.871093-63.898438 49.09375-76.910156 4.660156-4.0664065 11.191406-5.207032 16.957031-2.960938 5.929688 2.28125 10.128906 7.636719 10.9375 13.941406 5.375 40.210938 33.707031 69.394532 67.386719 69.394532 33.683593 0 62.011719-29.183594 67.347656-69.386719.804687-6.308594 5.003906-11.664063 10.9375-13.949219 5.761719-2.246094 12.296875-1.1054685 16.957031 2.960938 15.222656 13.011718 33.117188 41.050781 49.082032 76.902344 5.019531 11.28125 9.386718 21.628906 13.425781 31.179687 22.808593 53.945313 33.21875 78.574219 83.386719 98.824219 5.375 2.132812 9.777343 6.160156 12.382812 11.324218 5.472656 10.816407 1.765625 24.019532-8.535156 30.410157l-2.261719 1.410156c-30.609375 19.976563-63.570313 36.097656-98.132813 48l-.980468.316406c-4.535156 1.433594-9.394532-.949219-11.042969-5.410156-.765625-2.066406-.667969-4.351563.273437-6.34375.941407-1.992187 2.644532-3.519531 4.726563-4.238281l1.007813-.324219c33.523437-11.449219 65.476562-27.058594 95.113281-46.464844l2.25-1.414062c2.808593-1.757813 3.808593-5.375 2.296875-8.320313-.75-1.433594-1.992188-2.542968-3.5-3.125-56.726563-22.886718-69.503906-53.121094-92.695313-108.007812-4.003906-9.453125-8.335937-19.710938-13.304687-30.878906-14.753906-33.121094-31.453125-59.617188-44.59375-70.878907-6.359375 49.066407-41.789063 84.480469-84.140625 84.480469-42.351563 0-77.78125-35.414062-84.257813-84.214844-13.054687 10.996094-29.71875 37.492188-44.484375 70.621094-4.957031 11.160156-9.292969 21.417969-13.292969 30.871094-23.195312 54.886718-35.96875 85.121094-92.714843 108.007812-1.496094.582032-2.734375 1.6875-3.480469 3.105469-1.523438 2.953125-.53125 6.578125 2.285156 8.339844l2.253906 1.414062c29.441407 19.296875 61.183594 34.839844 94.480469 46.269531l1.636719.519532c3.980469 1.320312 6.40625 5.335937 5.734375 9.472656-.675781 4.136719-4.253906 7.171875-8.445313 7.160156zm0 0"/><path d="m397.976562 302.636719c-2.015624 0-3.964843-.710938-5.503906-2.011719-.21875-.207031-.457031-.394531-.707031-.554688-8.382813-6.023437-37.359375-19.277343-135.691406-19.277343-4.710938 0-8.53125-3.820313-8.53125-8.535157 0-4.710937 3.820312-8.53125 8.53125-8.53125 94.609375 0 131.175781 12.066407 145.195312 22.1875.78125.515626 1.519531 1.085938 2.21875 1.707032 2.738281 2.308594 3.738281 6.085937 2.507813 9.453125-1.234375 3.363281-4.4375 5.601562-8.019532 5.597656zm0 0"/><path d="m102.476562 297.859375c-.316406 0-.632812-.015625-.949218-.050781-4.667969-.519532-8.042969-4.714844-7.542969-9.386719.382813-3.414063 11.09375-84.394531 162.082031-84.394531 4.714844 0 8.535156 3.820312 8.535156 8.53125 0 4.714844-3.820312 8.535156-8.535156 8.535156-135.859375 0-145.066406 68.515625-145.117187 69.207031-.496094 4.304688-4.140625 7.554688-8.472657 7.558594zm0 0"/><path d="m409.675781 297.859375c-4.320312-.003906-7.957031-3.238281-8.464843-7.527344-.394532-2.976562-10.605469-69.273437-145.136719-69.273437-4.710938 0-8.53125-3.820313-8.53125-8.53125 0-4.714844 3.820312-8.535156 8.53125-8.535156 150.964843 0 161.699219 80.949218 162.082031 84.394531.5 4.671875-2.871094 8.867187-7.542969 9.386719-.308593.046874-.625.074218-.9375.085937zm0 0"/><path d="m222.625 483.460938c-2.742188-.003907-5.320312-1.324219-6.921875-3.550782-1.601563-2.226562-2.039063-5.085937-1.167969-7.6875l7.851563-23.46875c1.492187-4.476562 6.332031-6.894531 10.8125-5.402344 4.476562 1.496094 6.894531 6.335938 5.398437 10.8125l-7.847656 23.46875c-1.167969 3.488282-4.445312 5.839844-8.125 5.828126zm0 0"/><path d="m289.527344 483.460938c-3.671875-.003907-6.925782-2.351563-8.089844-5.828126l-7.851562-23.46875c-1.492188-4.476562.925781-9.316406 5.402343-10.8125 4.476563-1.492187 9.316407.925782 10.8125 5.402344l7.847657 23.46875c.871093 2.601563.4375 5.460938-1.167969 7.6875-1.601563 2.226563-4.175781 3.546875-6.921875 3.550782zm0 0"/><path d="m256.074219 485.59375c-4.710938 0-8.53125-3.820312-8.53125-8.535156v-25.597656c0-4.714844 3.820312-8.535157 8.53125-8.535157 4.714843 0 8.535156 3.820313 8.535156 8.535157v25.597656c0 4.714844-3.820313 8.535156-8.535156 8.535156zm0 0"/><path d="m145.140625 127.191406c-4.710937 0-8.53125-3.820312-8.53125-8.53125 0-19.097656 16.605469-44.5625 18.5-47.402344 2.648437-3.828124 7.875-4.828124 11.75-2.246093 3.871094 2.582031 4.960937 7.789062 2.449219 11.707031-4.351563 6.546875-15.632813 26.105469-15.632813 37.941406 0 4.710938-3.820312 8.53125-8.535156 8.53125zm0 0"/><path d="m128.074219 178.394531c-3.449219-.003906-6.558594-2.082031-7.878907-5.269531-1.324218-3.1875-.59375-6.859375 1.847657-9.296875 3.257812-2.925781 5.394531-6.898437 6.03125-11.230469.320312-4.601562 4.128906-8.179687 8.738281-8.21875 4.609375.054688 8.320312 3.804688 8.328125 8.414063-.589844 8.824219-4.539063 17.089843-11.03125 23.097656-1.601563 1.601563-3.769531 2.5-6.035156 2.503906zm0 0"/><path d="m300.449219 183.804688c-1.5 0-2.96875-.394532-4.265625-1.144532l-88.75-51.199218c-4.042969-2.375-5.417969-7.566407-3.074219-11.628907 2.347656-4.0625 7.53125-5.472656 11.609375-3.152343l88.679688 51.199218c3.34375 1.933594 4.972656 5.867188 3.972656 9.597656-.996094 3.730469-4.378906 6.324219-8.242188 6.328126zm0 0"/><path d="m200.070312 135.726562c-4.28125-.003906-7.898437-3.179687-8.457031-7.421874-.554687-4.246094 2.121094-8.25 6.257813-9.355469l3.410156-.914063-.910156-3.410156c-.886719-2.976562-.085938-6.199219 2.089844-8.414062 2.171874-2.214844 5.378906-3.074219 8.367187-2.242188 2.992187.828125 5.296875 3.214844 6.019531 6.234375l3.132813 11.65625c.585937 2.1875.277343 4.519531-.855469 6.480469-1.132812 1.957031-3 3.390625-5.1875 3.972656l-11.65625 3.125c-.722656.191406-1.464844.289062-2.210938.289062zm0 0"/><path d="m303.539062 195.460938c-3.859374-.003907-7.238281-2.597657-8.234374-6.324219l-3.132813-11.65625c-.585937-2.1875-.277344-4.519531.855469-6.480469 1.132812-1.960938 2.996094-3.390625 5.1875-3.972656l11.621094-3.140625c4.542968-1.195313 9.195312 1.507812 10.410156 6.046875 1.214844 4.539062-1.46875 9.203125-6 10.4375l-3.414063.914062.914063 3.414063c.585937 2.1875.28125 4.515625-.851563 6.476562-1.128906 1.960938-2.996093 3.390625-5.179687 3.976563-.710938.195312-1.441406.296875-2.175782.308594zm0 0"/><path d="m211.746094 183.804688c-3.863282-.003907-7.242188-2.597657-8.242188-6.328126-1-3.730468.628906-7.664062 3.972656-9.597656l88.679688-51.199218c4.078125-2.320313 9.261719-.910157 11.609375 3.152343 2.34375 4.0625.972656 9.253907-3.074219 11.628907l-88.722656 51.199218c-1.285156.742188-2.742188 1.136719-4.222656 1.144532zm0 0"/><path d="m312.078125 135.726562c-.746094 0-1.488281-.097656-2.207031-.289062l-11.65625-3.125c-2.191406-.582031-4.054688-2.015625-5.1875-3.972656-1.132813-1.960938-1.441406-4.292969-.855469-6.480469l3.132813-11.65625c.722656-3.019531 3.027343-5.40625 6.015624-6.234375 2.992188-.832031 6.195313.027344 8.371094 2.242188 2.175782 2.214843 2.972656 5.4375 2.089844 8.414062l-.914062 3.410156 3.414062.914063c4.136719 1.105469 6.8125 5.109375 6.253906 9.355469-.554687 4.242187-4.171875 7.417968-8.457031 7.421874zm0 0"/><path d="m208.613281 195.460938c-.746093-.003907-1.488281-.101563-2.210937-.292969-2.1875-.585938-4.050782-2.015625-5.179688-3.976563-1.132812-1.960937-1.4375-4.289062-.851562-6.476562l.910156-3.414063-3.410156-.910156c-4.558594-1.230469-7.257813-5.917969-6.03125-10.476563 1.230468-4.554687 5.917968-7.253906 10.476562-6.027343l11.65625 3.121093c2.1875.585938 4.054688 2.015626 5.1875 3.976563 1.132813 1.960937 1.441406 4.289063.851563 6.476563l-3.191407 11.675781c-.996093 3.71875-4.359374 6.308593-8.207031 6.324219zm0 0"/></svg>