<svg height="512pt" viewBox="0 -7 512.0404 512" width="512pt" xmlns="http://www.w3.org/2000/svg"><path d="m483.757812 262.707031c-9.128906 3.328125-18.175781 6.65625-27.21875 9.898438-66.050781 23.980469-131.84375 46.421875-202.328124 54.699219l-9.300782 1.023437c-.425781.085937-.769531.085937-1.195312.171875-16.226563 1.449219-32.527344 1.878906-48.808594 1.28125-5.292969-.171875-10.582031-.34375-15.871094-.683594-48.386718-3.839844-95.148437-19.03125-141.910156-31.316406-5.632812-1.535156-11.265625-2.988281-16.898438-4.4375-2.691406-.710938-5.5625-.058594-7.6875 1.742188-2.125 1.804687-3.238281 4.527343-2.976562 7.300781.253906 2.21875.425781 4.523437.765625 6.828125.683594 6.484375 1.453125 13.140625 2.476563 19.882812 65.449218 26.792969 138.410156 58.113282 209.40625 54.953125 65.464843-2.246093 130.28125-13.765625 192.511718-34.21875 0-.082031 0-.082031.085938-.082031 6.914062-2.304688 13.824218-4.78125 20.738281-7.339844 5.714844-2.046875 40.53125-35.585937 56.0625-42.582031 2.304687-9.726563 4.609375-19.113281 7.082031-27.902344 2.902344-10.15625-8.105468-11.605469-14.933594-9.21875zm0 0" fill="#ffecb3"/><path d="m498.691406 271.925781c-2.472656 8.789063-4.777344 18.175781-7.082031 27.902344-15.53125 6.996094-50.347656 40.535156-56.0625 42.582031-6.914063 2.558594-13.824219 5.035156-20.738281 7.339844 12.117187-9.644531 37.460937-32.769531 50.089844-38.488281 2.304687-9.726563 4.609374-19.113281 7.085937-27.902344 2.898437-10.15625-8.109375-11.605469-14.933594-9.214844l-.511719-1.539062c9.042969-3.242188 18.089844-6.570313 27.21875-9.898438 6.828126-2.386719 17.835938-.9375 14.933594 9.21875zm0 0" fill="#bfa885"/><path d="m462 312.371094c-13.738281 5.546875-26.796875 10.753906-29.953125 11.949218-68.222656 25.183594-140.054687 39.214844-212.734375 41.554688-11.265625.511719-22.445312.597656-33.539062.257812-59.417969-1.804687-118.019532-14.351562-172.96875-37.035156.511718 3.5 1.109374 7.082032 1.707031 10.582032 3.347656 22.976562 10.773437 45.171874 21.929687 65.535156 1.746094 3.488281 3.683594 6.878906 5.800782 10.15625 3.839843 6.269531 8.488281 12.007812 13.824218 17.066406l7.679688 4.605469 20.394531 12.035156.769531-1.453125.511719 1.109375c-11.945313 51.796875 6.402344 45.910156 23.636719 34.390625 5.632812 22.785156 39.167968-11.007812 48.128906-15.359375 13.023438.316406 25.710938-4.148437 35.667969-12.546875 8.960937 12.460938 24.832031 14.765625 43.179687 14.765625 4.136719.03125 8.269532-.195313 12.375-.683594 4.761719.496094 9.546875.722657 14.335938.683594 13.824218 1.042969 27.582031-2.757813 38.910156-10.753906 9.898438 9.214843 25.601562 10.753906 42.070312 10.753906 2.328126.011719 4.640626-.390625 6.828126-1.195313 6.617187.878907 13.289062 1.28125 19.964843 1.195313 15.363281 0 22.699219-16.214844 28.589844-32.085937 3.925781-3.328126 7.507813-6.65625 10.578125-9.730469 4.089844-.492188 8.136719 1.191406 10.667969 4.4375 1.542969 1.96875 3.226562 3.824219 5.035156 5.546875h.085937c8.1875-6.949219 15.777344-14.570313 22.699219-22.78125.339844-.429688.511719-.597656.511719-.597656 24.40625-30.976563 33.707031-75.691407 42.921875-114.945313-6.996094 3.15625-18.515625 8.023437-29.609375 12.542969zm0 0" fill="#795548"/><path d="m12.804688 329.097656c.511718 3.5 1.109374 7.082032 1.707031 10.582032 55.019531 19.101562 113.046875 28.0625 171.261719 26.453124-59.417969-1.804687-118.019532-14.351562-172.96875-37.035156zm449.195312-16.726562c-8.449219 35.925781-18.175781 74.667968-40.023438 102.402344 0 0-.171874.167968-.511718.597656-1.363282 1.707031-5.71875 6.738281-11.777344 12.796875 4.089844-.492188 8.136719 1.191406 10.667969 4.4375 1.542969 1.96875 3.226562 3.824219 5.035156 5.546875h.085937c8.1875-6.949219 15.777344-14.570313 22.699219-22.78125.339844-.429688.511719-.597656.511719-.597656 24.40625-30.976563 33.707031-75.691407 42.921875-114.945313-6.996094 3.15625-18.515625 8.023437-29.609375 12.542969zm0 0" fill="#4e342e"/><path d="m399.789062 435.933594c-.265624.640625-.492187 1.296875-.679687 1.964844 3.925781-3.328126 7.507813-6.65625 10.578125-9.730469-4.511719.480469-8.359375 3.496093-9.898438 7.765625zm0 0" fill="#795548"/><path d="m503.300781 440.96875v53.761719c0 2.386719-2.484375 4.265625-5.648437 4.265625h-28.484375c3.164062 0 5.648437-1.878906 5.648437-4.265625v-47.105469c6.785156-2.257812 13.1875-5.539062 18.984375-9.726562 3.621094-2.644532 9.5-.683594 9.5 3.070312zm0 0" fill="#283593"/><path d="m477.699219 447.625v47.105469c.015625 1.136719-.425781 2.230469-1.230469 3.035156-.804688.800781-1.898438 1.246094-3.035156 1.230469h-456.398438c-1.136718.015625-2.230468-.429688-3.035156-1.230469-.800781-.804687-1.246094-1.898437-1.230469-3.035156v-75.09375c-.015625-1.136719.429688-2.230469 1.230469-3.035157.804688-.804687 1.898438-1.25 3.035156-1.230468h24.953125c3.796875 6.265625 8.40625 12.003906 13.703125 17.066406l55.570313 16.296875c7.195312 1.109375 16.75 2.476563 25.378906 3.15625 5.167969.566406 10.375.679687 15.5625.34375 15.71875-.007813 30.542969-7.324219 40.109375-19.796875 2.710938-3.539062 4.957031-7.410156 6.679688-11.519531.636718-1.640625 2.21875-2.722657 3.976562-2.722657 1.761719 0 3.339844 1.082032 3.976562 2.722657 6.40625 15.332031 19.863282 26.597656 36.089844 30.207031 3.507813.714844 7.074219 1.085938 10.65625 1.109375 15.71875-.007813 30.542969-7.324219 40.105469-19.796875 2.714844-3.539062 4.960937-7.410156 6.683594-11.519531.636719-1.640625 2.214843-2.722657 3.976562-2.722657 1.757813 0 3.335938 1.082032 3.976563 2.722657 6.417968 15.347656 19.902344 26.617187 36.144531 30.207031 3.511719.714844 7.078125 1.085938 10.660156 1.109375 15.71875-.003906 30.542969-7.320313 40.105469-19.796875 2.714844-3.539062 4.960938-7.410156 6.683594-11.519531.636718-1.640625 2.214844-2.722657 3.976562-2.722657 1.757813 0 3.335938 1.082032 3.976563 2.722657 2.515625 6.058593 6.195312 11.566406 10.828125 16.210937.34375.363282.710937.707032 1.101562 1.023438 6.683594 6.453125 15.027344 10.914062 24.105469 12.886718 10.648437 2.375 21.785156 1.175782 31.683594-3.414062zm0 0" fill="#3f51b5"/><path d="m503.300781 466.570312v28.160157c0 2.355469-1.910156 4.265625-4.265625 4.265625h-30.039062c2.355468 0 4.265625-1.910156 4.265625-4.265625v-18.519531c8.621093-2.117188 16.519531-6.507813 22.871093-12.714844 1.21875-1.195313 3.042969-1.539063 4.613282-.863282 1.570312.671876 2.578125 2.226563 2.554687 3.9375zm0 0" fill="#1566c0"/><path d="m473.261719 476.210938v18.519531c0 2.355469-1.910157 4.265625-4.265625 4.265625h-451.925782c-2.355468 0-4.265624-1.910156-4.265624-4.265625v-49.492188c0-2.359375 1.910156-4.269531 4.265624-4.269531h37.972657c3.414062 5.460938-4.523438 12.03125 1.023437 17.066406l39.597656 11.519532c12.144532 3.601562 24.601563 6.058593 37.203126 7.339843 1.640624.285157 3.292968.484375 4.949218.597657 5.1875.5625 10.410156.679687 15.617188.339843 20.578125-.050781 39.144531-12.371093 47.1875-31.316406.613281-1.6875 2.21875-2.808594 4.011718-2.808594 1.796876 0 3.398438 1.121094 4.011719 2.808594 7.957031 19.015625 26.574219 31.375 47.1875 31.316406 20.582031-.050781 39.144531-12.371093 47.191407-31.316406.613281-1.6875 2.214843-2.808594 4.011718-2.808594 1.792969 0 3.394532 1.121094 4.007813 2.808594 7.957031 19.015625 26.578125 31.375 47.191406 31.316406 20.578125-.050781 39.144531-12.371093 47.1875-31.316406.613281-1.6875 2.214844-2.808594 4.011719-2.808594 1.792968 0 3.398437 1.121094 4.011718 2.808594 2.546876 6.066406 6.257813 11.574219 10.921876 16.214844.347656.363281.71875.703125 1.109374 1.023437 9.4375 9.089844 22.050782 14.140625 35.15625 14.078125 4.265626.03125 8.511719-.515625 12.628907-1.621093zm0 0" fill="#2296f3"/><path d="m142.511719 415.371094c-.730469 2.71875-2.175781 5.191406-4.183594 7.167968l-54.269531 54.269532c-3.355469 3.328125-8.765625 3.328125-12.117188 0l-24.066406-24.0625c-3.328125-3.355469-3.328125-8.765625 0-12.117188l54.273438-54.273437c3.199218-3.203125 7.542968-5.003907 12.074218-5.003907s8.875 1.800782 12.074219 5.003907l12.03125 12.03125c4.445313 4.445312 6.054687 10.984375 4.183594 16.984375zm0 0" fill="#ffecb3"/><path d="m95.746094 49.203125c-8.714844-8.820313-20.386719-14.105469-32.765625-14.847656" fill="#e6e7e8"/><path d="m196.101562 93.917969c0 11.316406-4.496093 22.167969-12.5 30.171875-8 8-18.851562 12.496094-30.167968 12.496094h-93.867188c-5.820312.015624-11.597656-.996094-17.066406-2.988282-23.421875-8.367187-37.441406-32.363281-33.230469-56.875 4.207031-24.515625 25.425781-42.457031 50.296875-42.535156 1.140625-.03125 2.28125.023438 3.414063.167969 8.027343-18.589844 28.003906-28.988281 47.835937-24.898438 19.832032 4.089844 34.066406 21.546875 34.082032 41.796875.015624.285156-.011719.574219-.082032.851563 2.839844-.542969 5.722656-.828125 8.617188-.851563 11.316406 0 22.167968 4.492188 30.167968 12.496094 8.003907 8 12.5 18.851562 12.5 30.167969zm0 0" fill="#cfd8dc"/><path d="m144.816406 52.105469c-8.175781 1.679687-15.679687 5.714843-21.589844 11.605469" fill="#e6e7e8"/><path d="m503.300781 64.050781c0 14.710938-5.84375 28.820313-16.246093 39.222657-10.402344 10.402343-24.511719 16.246093-39.222657 16.246093-4.3125.015625-8.609375-.5-12.796875-1.535156-25.011718-5.910156-42.675781-28.234375-42.675781-53.933594 0-25.695312 17.664063-48.019531 42.675781-53.929687 4.1875-1.035156 8.484375-1.550782 12.796875-1.535156 30.632813 0 55.46875 24.832031 55.46875 55.464843zm0 0" fill="#ff9801"/><path d="m477.699219 64.050781c0-29.785156-19.101563-53.929687-42.664063-53.929687-23.566406 0-42.667968 24.144531-42.667968 53.929687 0 29.785157 19.101562 53.933594 42.667968 53.933594 23.5625 0 42.664063-24.148437 42.664063-53.933594zm0 0" fill="#fec108"/><path d="m448.6875 423.304688c-3.269531.003906-6.253906-1.863282-7.683594-4.804688-1.425781-2.941406-1.046875-6.441406.976563-9.011719 21.742187-27.578125 31.238281-68.339843 39.621093-104.300781 2.867188-12.324219 5.585938-23.96875 8.695313-34.925781-1.261719-.085938-2.527344.085937-3.722656.503906l-7.203125 2.625c-71.558594 26.15625-145.558594 53.191406-224.167969 62.386719l-9.386719 1.035156c-.308594.066406-1.007812.152344-1.316406.1875-16.582031 1.488281-33.238281 1.925781-49.875 1.3125-5.402344-.179688-10.777344-.347656-16.15625-.699219-39.304688-4.363281-78.109375-12.429687-115.898438-24.097656-9.214843-2.558594-18.414062-5.058594-27.613281-7.484375-5.605469-1.527344-11.09375-2.953125-16.648437-4.367188.742187 9.949219 1.757812 18.304688 2.933594 26.171876 2.734374 25.5625 10.386718 50.359374 22.539062 73.019531 2.40625 4.050781 1.074219 9.289062-2.980469 11.699219-4.050781 2.40625-9.289062 1.074218-11.699219-2.980469-13.378906-24.542969-21.789062-51.484375-24.746093-79.28125-1.210938-8.125-2.261719-16.742188-3.285157-27.09375-.535156-5.566407 1.683594-11.039063 5.949219-14.65625 4.261719-3.617188 10.023438-4.914063 15.425781-3.476563 5.71875 1.476563 11.324219 2.917969 16.921876 4.445313 9.183593 2.414062 18.449218 4.964843 27.726562 7.519531 36.730469 11.339844 74.441406 19.21875 112.640625 23.523438 5.066406.332031 10.238281.496093 15.460937.667968 15.859376.570313 31.738282.160156 47.546876-1.230468l.675781-.09375 9.878906-1.109376c76.5625-8.960937 146.355469-34.464843 220.246094-61.441406l7.3125-2.675781c7.46875-2.976563 15.949219-1.753906 22.273437 3.207031 4.308594 4.269532 5.785156 10.636719 3.789063 16.367188-3.0625 10.761718-5.785157 22.433594-8.667969 34.796875-8.792969 37.691406-18.773438 80.417969-42.832031 110.996093-1.621094 2.066407-4.105469 3.273438-6.730469 3.265626zm0 0"/><path d="m198.277344 374.878906c-64.773438-.175781-128.886719-13.046875-188.707032-37.886718-4.230468-1.867188-6.203124-6.765626-4.449218-11.042969 1.753906-4.277344 6.59375-6.382813 10.917968-4.746094 64.179688 26.726563 133.433594 39.0625 202.894532 36.148437 71.789062-2.316406 142.734375-16.164062 210.125-41.011718l.855468-.308594c6.179688-2.082031 12.15625-4.726562 17.859376-7.890625 4.019531-2.253906 9.101562-.90625 11.480468 3.039063 2.378906 3.945312 1.195313 9.066406-2.675781 11.570312-6.617187 3.726562-13.570313 6.824219-20.769531 9.25-69.289063 25.652344-142.265625 39.964844-216.113282 42.382812-7.140624.324219-14.28125.492188-21.417968.496094zm0 0"/><path d="m78.007812 487.878906c-4.527343.007813-8.871093-1.789062-12.066406-4.992187l-24.140625-24.140625c-6.664062-6.667969-6.664062-17.46875 0-24.132813l54.3125-54.308593c10.132813-9.667969 26.070313-9.667969 36.199219 0l12.066406 12.066406c9.996094 9.996094 9.996094 26.203125 0 36.199218l-54.304687 54.316407c-3.199219 3.203125-7.539063 5-12.066407 4.992187zm36.171876-98.007812c-2.261719 0-4.433594.902344-6.03125 2.5l-54.273438 54.308594 24.140625 24.140624 54.296875-54.339843c3.332031-3.332031 3.332031-8.734375 0-12.066407l-12.066406-12.066406c-1.613282-1.601562-3.796875-2.492187-6.066406-2.476562zm0 0"/><path d="m126.28125 406.9375c-3.453125 0-6.5625-2.078125-7.882812-5.265625-1.320313-3.1875-.589844-6.859375 1.847656-9.300781l120.679687-120.675782c3.347657-3.234374 8.671875-3.1875 11.960938.101563 3.292969 3.292969 3.339843 8.613281.105469 11.964844l-120.679688 120.675781c-1.597656 1.601562-3.769531 2.5-6.03125 2.5zm0 0"/><path d="m254.210938 335.839844c-2.261719 0-4.433594-.902344-6.03125-2.5l-49.578126-49.578125c-3.234374-3.351563-3.1875-8.671875.101563-11.964844 3.292969-3.289063 8.613281-3.335937 11.964844-.101563l49.578125 49.578126c2.4375 2.441406 3.167968 6.109374 1.847656 9.296874s-4.429688 5.269532-7.882812 5.269532zm0 0"/><path d="m460.632812 460.765625c-20.9375-.074219-40.332031-11.03125-51.199218-28.925781-10.800782 17.972656-30.234375 28.964844-51.199219 28.964844-20.96875 0-40.402344-10.992188-51.199219-28.964844-10.800781 17.972656-30.234375 28.964844-51.203125 28.964844-20.964843 0-40.398437-10.992188-51.199219-28.964844-10.789062 17.980468-30.230468 28.976562-51.199218 28.960937-1.996094.003907-3.988282-.097656-5.972656-.296875-3.035157-.320312-5.667969-2.234375-6.90625-5.023437-1.238282-2.785157-.898438-6.023438.894531-8.488281 1.796875-2.46875 4.769531-3.792969 7.800781-3.472657 1.390625.136719 2.789062.195313 4.183594.179688 17.167968.003906 32.667968-10.285157 39.328125-26.109375 1.949219-4.851563 6.652343-8.03125 11.878906-8.03125 5.230469 0 9.933594 3.179687 11.878906 8.03125 6.664063 15.816406 22.15625 26.105468 39.320313 26.105468 17.167968 0 32.660156-10.289062 39.324218-26.105468 1.945313-4.851563 6.648438-8.03125 11.878907-8.03125 5.226562 0 9.929687 3.179687 11.878906 8.03125 6.660156 15.816406 22.15625 26.105468 39.320313 26.105468 17.164062 0 32.660156-10.289062 39.320312-26.105468 1.949219-4.851563 6.652344-8.03125 11.878906-8.03125 5.226563 0 9.929688 3.179687 11.878906 8.03125 2.113282 5.046875 5.195313 9.625 9.078126 13.480468 9.03125 9.105469 21.683593 13.660157 34.445312 12.394532s24.273438-8.210938 31.339844-18.914063c1.609375-2.691406 4.570312-4.285156 7.703125-4.144531 3.136719.140625 5.941406 1.988281 7.304687 4.816406 1.363282 2.828125 1.066406 6.175782-.773437 8.714844-11.015625 16.761719-29.730469 26.847656-49.785157 26.828125zm0 0"/><path d="m187.566406 290.1875c-3.449218-.003906-6.5625-2.082031-7.882812-5.269531-1.320313-3.1875-.589844-6.859375 1.851562-9.296875l17.066406-17.070313c3.347657-3.230469 8.667969-3.1875 11.960938.105469s3.335938 8.613281.105469 11.960938l-17.066407 17.066406c-1.601562 1.601562-3.773437 2.5-6.035156 2.503906zm0 0"/><path d="m264.367188 290.1875c-2.261719-.003906-4.433594-.902344-6.035157-2.503906l-17.066406-17.066406c-3.234375-3.347657-3.1875-8.667969.105469-11.960938 3.292968-3.292969 8.613281-3.335938 11.960937-.105469l17.066407 17.070313c2.441406 2.4375 3.171874 6.109375 1.851562 9.296875s-4.433594 5.265625-7.882812 5.269531zm0 0"/><path d="m426.5 375.519531c0 4.710938-3.820312 8.53125-8.535156 8.53125-4.710938 0-8.53125-3.820312-8.53125-8.53125 0-4.714843 3.820312-8.535156 8.53125-8.535156 4.714844 0 8.535156 3.820313 8.535156 8.535156zm0 0"/><path d="m400.898438 384.050781c0 4.714844-3.820313 8.535157-8.53125 8.535157-4.714844 0-8.535157-3.820313-8.535157-8.535157 0-4.710937 3.820313-8.53125 8.535157-8.53125 4.710937 0 8.53125 3.820313 8.53125 8.53125zm0 0"/><path d="m59.566406 145.117188c-6.820312.015624-13.585937-1.171876-19.992187-3.503907-27.308594-9.792969-43.628907-37.789062-38.699219-66.378906 4.929688-28.585937 29.683594-49.5 58.691406-49.582031 1.574219-.03125 3.148438.058594 4.710938.273437 14.207031.964844 27.570312 7.109375 37.546875 17.269531 2.144531 2.167969 2.96875 5.316407 2.164062 8.257813-.804687 2.941406-3.117187 5.230469-6.066406 6.003906-2.949219.773438-6.089844-.085937-8.234375-2.253906-7.242188-7.324219-16.9375-11.714844-27.21875-12.332031-.960938-.132813-1.933594-.183594-2.902344-.152344-20.710937.074219-38.378906 15.015625-41.894531 35.425781-3.511719 20.414063 8.140625 40.402344 27.636719 47.398438 4.566406 1.671875 9.394531 2.519531 14.257812 2.507812 4.714844 0 8.535156 3.820313 8.535156 8.535157 0 4.710937-3.820312 8.53125-8.535156 8.53125zm0 0"/><path d="m144.816406 60.640625c-2.472656-.003906-4.820312-1.074219-6.441406-2.9375-1.617188-1.863281-2.351562-4.339844-2.007812-6.785156-.171876-16.144531-11.621094-29.964844-27.449219-33.144531-15.832031-3.175782-31.726563 5.160156-38.113281 19.988281-1.886719 4.320312-6.917969 6.296875-11.238282 4.410156-4.320312-1.882813-6.296875-6.914063-4.410156-11.238281 9.640625-22.300782 33.617188-34.765625 57.410156-29.847656 23.792969 4.917968 40.859375 25.871093 40.867188 50.167968.019531 1.175782-.148438 2.347656-.496094 3.472656-1.136719 3.523438-4.417969 5.914063-8.121094 5.914063zm0 0"/><path d="m153.433594 145.117188c-4.714844 0-8.535156-3.820313-8.535156-8.53125 0-4.714844 3.820312-8.535157 8.535156-8.535157 18.851562 0 34.132812-15.28125 34.132812-34.132812 0-18.851563-15.28125-34.132813-34.132812-34.132813-2.382813.023438-4.753906.261719-7.089844.71875-6.46875 1.351563-12.398438 4.566406-17.070312 9.238282-3.347657 3.234374-8.667969 3.191406-11.960938-.101563-3.289062-3.292969-3.335938-8.613281-.101562-11.960937 7.078124-7.089844 16.089843-11.933594 25.90625-13.929688 3.398437-.660156 6.851562-1.003906 10.316406-1.03125 28.277344 0 51.199218 22.921875 51.199218 51.199219 0 28.277343-22.921874 51.199219-51.199218 51.199219zm0 0"/><path d="m153.433594 145.117188h-93.867188c-4.710937 0-8.53125-3.820313-8.53125-8.53125 0-4.714844 3.820313-8.535157 8.53125-8.535157h93.867188c4.710937 0 8.53125 3.820313 8.53125 8.535157 0 4.710937-3.820313 8.53125-8.53125 8.53125zm0 0"/><path d="m447.832031 128.050781c-35.34375 0-64-28.652343-64-64 0-35.34375 28.65625-63.9999998 64-63.9999998 35.347657 0 64 28.6562498 64 63.9999998-.035156 35.332031-28.667969 63.964844-64 64zm0-110.933593c-25.917969 0-46.933593 21.015624-46.933593 46.933593 0 25.921875 21.015624 46.933594 46.933593 46.933594 25.921875 0 46.933594-21.011719 46.933594-46.933594-.027344-25.90625-21.023437-46.902343-46.933594-46.933593zm0 0"/><path d="m307.035156 179.253906c-3.226562 0-6.179687-1.8125-7.628906-4.695312-3.652344-7.496094-9.871094-13.429688-17.527344-16.726563-4.492187-.988281-9.1875.082031-12.800781 2.921875-2.539063 1.691406-5.785156 1.902344-8.519531.550782-2.730469-1.351563-4.539063-4.058594-4.734375-7.101563-.195313-3.042969 1.246093-5.957031 3.78125-7.652344 7.691406-5.578125 17.449219-7.480469 26.675781-5.203125 12.394531 4.566406 22.550781 13.734375 28.363281 25.601563 1.300781 2.636719 1.148438 5.757812-.398437 8.257812-1.546875 2.503907-4.273438 4.03125-7.210938 4.046875zm0 0"/><path d="m307.035156 179.253906c-2.957031-.003906-5.699218-1.535156-7.25-4.046875-1.554687-2.511719-1.699218-5.648437-.378906-8.292969 5.808594-11.863281 15.96875-21.03125 28.363281-25.601562 9.222657-2.273438 18.980469-.371094 26.675781 5.207031 2.535157 1.691407 3.976563 4.609375 3.78125 7.648438-.199218 3.042969-2.003906 5.75-4.738281 7.101562-2.734375 1.351563-5.980469 1.140625-8.515625-.550781-3.617187-2.839844-8.3125-3.910156-12.800781-2.917969-7.65625 3.292969-13.875 9.230469-17.527344 16.722657-1.4375 2.890624-4.382812 4.71875-7.609375 4.730468zm0 0"/></svg>