<svg height="512pt" viewBox="0 0 512.44849 512" width="512pt" xmlns="http://www.w3.org/2000/svg"><path d="m53.457031 350.242188c20.675781-27.5625 19.085938-71.832032 17.703125-87.839844-.117187-1.445313.5-2.851563 1.648438-3.734375 1.144531-.886719 2.664062-1.128907 4.027344-.644531 46.199218 14.804687 74.597656 85.589843 76.972656 91.792968" fill="#607d8b"/><path d="m496.503906 335.90625c-9.566406 9.140625-22.265625 14.269531-35.496094 14.335938-4.347656-.011719-8.671874-.558594-12.886718-1.621094h-.085938c-12.183594-3.21875-22.753906-10.8125-29.695312-21.332032-1.789063-2.628906-3.304688-5.429687-4.523438-8.363281-.082031-.085937-.082031-.257812-.167968-.339843l-21.589844 7.59375-3.242188 1.109374-51.882812 18.175782c-3.285156-1.589844-6.402344-3.503906-9.300782-5.71875-7.113281-5.421875-12.699218-12.59375-16.214843-20.820313-.613281-1.6875-2.214844-2.8125-4.011719-2.8125-1.792969 0-3.398438 1.125-4.007812 2.8125-1.222657 2.933594-2.738282 5.734375-4.523438 8.363281-1.277344 1.953126-2.707031 3.808594-4.269531 5.546876-9.691407 11.0625-23.6875 17.410156-38.398438 17.40625-4.289062-.019532-8.558593-.5625-12.714843-1.621094h-.171876c-12.207031-3.214844-22.804687-10.808594-29.78125-21.332032-1.785156-2.628906-3.300781-5.429687-4.519531-8.363281-.613281-1.6875-2.21875-2.8125-4.011719-2.8125-1.796874 0-3.398437 1.125-4.011718 2.8125-1.234375 2.925781-2.75 5.726563-4.523438 8.363281-1.269531 1.929688-2.699218 3.757813-4.265625 5.460938-8.148437 9.457031-19.523437 15.539062-31.914062 17.066406-2.152344.273438-4.316407.414063-6.484375.425782-4.347656-.011719-8.671875-.558594-12.886719-1.621094h-.085937c-12.183594-3.21875-22.753907-10.8125-29.695313-21.332032-1.789063-2.628906-3.304687-5.429687-4.523437-8.363281-.613282-1.6875-2.214844-2.8125-4.011719-2.8125-1.792969 0-3.398438 1.125-4.007813 2.8125-1.253906 2.917969-2.769531 5.714844-4.523437 8.363281-1.273438 1.929688-2.699219 3.757813-4.265625 5.460938-3.644532 4.222656-7.96875 7.796875-12.800782 10.582031-7.761718 4.554688-16.601562 6.941407-25.601562 6.910157-4.261719.03125-8.511719-.515626-12.628906-1.621094-8.621094-2.117188-16.519532-6.507813-22.867188-12.714844-1.222656-1.195312-3.042968-1.539062-4.613281-.867188-1.574219.675782-2.582031 2.230469-2.554687 3.941407v147.796875c.027343 9.414062 7.652343 17.039062 17.066406 17.066406h460.796875c9.414062-.027344 17.039062-7.652344 17.070312-17.066406v-147.796875c.023438-1.710938-.984375-3.265625-2.554687-3.941407-1.574219-.671874-3.394532-.328124-4.617188.867188zm0 0" fill="#3f51b5"/><path d="m503.675781 338.980469v147.796875c-.03125 9.414062-7.65625 17.039062-17.070312 17.066406h-25.597657c9.414063-.027344 17.039063-7.652344 17.066407-17.066406v-139.519532c6.90625-2.378906 13.199219-6.253906 18.429687-11.351562 1.222656-1.195312 3.042969-1.539062 4.617188-.867188 1.570312.675782 2.578125 2.230469 2.554687 3.941407zm0 0" fill="#283593"/><path d="m496.503906 361.507812c-9.566406 9.136719-22.265625 14.265626-35.496094 14.335938-4.347656-.015625-8.671874-.558594-12.886718-1.621094h-.085938c-12.183594-3.21875-22.753906-10.816406-29.695312-21.335937-1.789063-2.625-3.304688-5.425781-4.523438-8.359375-.082031-.085938-.082031-.257813-.167968-.34375l-21.589844 7.59375-3.242188 1.109375-51.882812 18.175781c-3.285156-1.585938-6.402344-3.503906-9.300782-5.714844-7.113281-5.421875-12.699218-12.597656-16.214843-20.820312-.613281-1.6875-2.214844-2.8125-4.011719-2.8125-1.792969 0-3.398438 1.125-4.007812 2.8125-1.222657 2.933594-2.738282 5.734375-4.523438 8.359375-1.277344 1.957031-2.707031 3.8125-4.269531 5.546875-9.691407 11.066406-23.6875 17.410156-38.398438 17.410156-4.289062-.019531-8.558593-.5625-12.714843-1.621094h-.171876c-12.207031-3.21875-22.804687-10.8125-29.78125-21.335937-1.785156-2.625-3.300781-5.425781-4.519531-8.359375-.613281-1.6875-2.21875-2.8125-4.011719-2.8125-1.796874 0-3.398437 1.125-4.011718 2.8125-1.234375 2.925781-2.75 5.726562-4.523438 8.359375-1.269531 1.933593-2.699218 3.761719-4.265625 5.460937-8.148437 9.457032-19.523437 15.542969-31.914062 17.070313-2.152344.269531-4.316407.414062-6.484375.425781-4.347656-.015625-8.671875-.558594-12.886719-1.621094h-.085937c-12.183594-3.21875-22.753907-10.816406-29.695313-21.335937-1.789063-2.625-3.304687-5.425781-4.523437-8.359375-.613282-1.6875-2.214844-2.8125-4.011719-2.8125-1.792969 0-3.398438 1.125-4.007813 2.8125-1.253906 2.917968-2.769531 5.714844-4.523437 8.359375-1.273438 1.933593-2.699219 3.761719-4.265625 5.460937-3.644532 4.222656-7.96875 7.800782-12.800782 10.582032-7.761718 4.558593-16.601562 6.945312-25.601562 6.914062-4.261719.027344-8.511719-.515625-12.628906-1.621094-8.621094-2.121094-16.519532-6.511718-22.867188-12.714844-1.222656-1.199218-3.042968-1.539062-4.613281-.867187-1.574219.671875-2.582031 2.230469-2.554687 3.9375v122.199219c.027343 9.414062 7.652343 17.039062 17.066406 17.066406h460.796875c9.414062-.027344 17.039062-7.652344 17.070312-17.066406v-122.199219c.023438-1.707031-.984375-3.265625-2.554687-3.9375-1.574219-.671875-3.394532-.332031-4.617188.867187zm0 0" fill="#2296f3"/><path d="m503.675781 364.578125v122.199219c-.03125 9.414062-7.65625 17.039062-17.070312 17.066406h-25.597657c9.414063-.027344 17.039063-7.652344 17.066407-17.066406v-113.921875c6.90625-2.375 13.199219-6.25 18.429687-11.347657 1.222656-1.199218 3.042969-1.539062 4.617188-.867187 1.570312.671875 2.578125 2.230469 2.554687 3.9375zm0 0" fill="#1566c0"/><path d="m500.089844 462.882812c0 30.207032-109.226563 40.960938-243.882813 40.960938-4.179687 0-8.363281 0-12.542969-.085938-1.367187 0-2.730468.085938-4.097656 0-126.890625-.855468-227.242187-11.945312-227.242187-40.875 0-28.929687 101.375-75.007812 229.289062-78.25 4.78125-.171874 9.730469-.257812 14.59375-.257812 21.558594.007812 43.097657 1.261719 64.511719 3.753906l75.519531 14.167969c62.804688 16.808594 103.851563 42.152344 103.851563 60.585937zm0 0" fill="#ff9801"/><path d="m470.90625 462.882812c0 28.929688-100.351562 40.019532-227.242188 40.875-1.367187 0-2.730468.085938-4.097656 0-126.890625-.855468-227.242187-11.945312-227.242187-40.875 0-28.929687 101.375-75.007812 229.289062-78.25 17.152344.425782 33.964844 1.621094 49.921875 3.496094l75.519532 14.167969c62.804687 16.808594 103.851562 42.152344 103.851562 60.585937zm0 0" fill="#fec108"/><path d="m400.335938 384.375c-7.25 20.640625-17.394532 40.148438-30.125 57.941406-.808594 1.125-2.109376 1.789063-3.496094 1.792969h-73.558594c-1.617188-.039063-3.070312-.988281-3.757812-2.453125s-.488282-3.191406.515624-4.457031c12.128907-15.21875 22.492188-31.765625 30.890626-49.324219.597656-1.195312 1.195312-2.304688 1.707031-3.5zm0 0" fill="#bfa885"/><path d="m335.992188 164.046875h-.082032c-4.707031-.023437-8.503906-3.851563-8.492187-8.554687.011719-4.707032 3.828125-8.511719 8.535156-8.511719 4.703125 0 8.519531 3.804687 8.53125 8.511719.011719 4.703124-3.785156 8.53125-8.492187 8.554687zm0 0"/><path d="m412.195312 333.175781c-2.023437 17.457031-6.003906 34.632813-11.859374 51.199219h-77.824219c7.164062-15.296875 12.765625-31.277344 16.726562-47.699219.339844-1.109375.59375-2.304687.851563-3.5zm0 0" fill="#4e342e"/><path d="m412.195312 333.175781h-72.105468c2.894531-12.890625 4.777344-25.984375 5.632812-39.167969.085938-1.195312.167969-2.304687.253906-3.5h67.757813c.765625 14.242188.253906 28.519532-1.539063 42.667969zm0 0" fill="#bfa885"/><path d="m413.734375 290.507812h-67.757813c.800782-15.933593.058594-31.90625-2.21875-47.699218-.167968-1.195313-.339843-2.304688-.511718-3.5h62.464844c4.433593 16.746094 7.125 33.902344 8.023437 51.199218zm0 0" fill="#4e342e"/><path d="m405.710938 239.308594h-62.464844c-2.46875-16.300782-6.671875-32.292969-12.542969-47.699219-.425781-1.195313-.9375-2.304687-1.367187-3.5h56.832031c8.34375 16.3125 14.894531 33.480469 19.542969 51.199219zm0 0" fill="#bfa885"/><path d="m386.167969 188.109375h-56.832031c-1.789063-4.691406-3.839844-9.300781-5.972657-13.910156v-.085938l12.628907-18.515625 5.804687-1.109375 20.992187-4.011719c8.898438 11.824219 16.726563 24.417969 23.378907 37.632813zm0 0" fill="#4e342e"/><path d="m379 387.875c-7 19.988281-16.734375 38.914062-28.925781 56.234375h-56.917969c-1.617188-.039063-3.070312-.988281-3.757812-2.453125s-.488282-3.191406.515624-4.457031c12.128907-15.21875 22.492188-31.765625 30.890626-49.324219zm0 0" fill="#ffecb3"/><path d="m314.660156 167.542969h-.085937c-4.703125-.023438-8.5-3.847657-8.488281-8.554688.011718-4.703125 3.828124-8.511719 8.53125-8.511719 4.707031 0 8.523437 3.808594 8.535156 8.511719.011718 4.707031-3.789063 8.53125-8.492188 8.554688zm0 0"/><path d="m390.863281 336.675781c-1.878906 16.226563-5.453125 32.214844-10.667969 47.699219-.339843 1.195312-.765624 2.304688-1.195312 3.5h-58.195312c.597656-1.195312 1.195312-2.304688 1.707031-3.5 7.164062-15.296875 12.765625-31.277344 16.726562-47.699219zm0 0" fill="#795548"/><path d="m391.289062 333.175781c-.167968 1.195313-.253906 2.304688-.425781 3.5h-51.625c.339844-1.109375.59375-2.304687.851563-3.5 2.894531-12.890625 4.777344-25.984375 5.632812-39.167969h46.675782c.699218 13.066407.328124 26.164063-1.109376 39.167969zm0 0" fill="#ffecb3"/><path d="m345.976562 290.507812c.800782-15.933593.058594-31.90625-2.21875-47.699218h40.621094c4.140625 15.609375 6.742188 31.585937 7.765625 47.699218.167969 1.195313.167969 2.304688.253907 3.5h-46.675782c.085938-1.195312.167969-2.304687.253906-3.5zm0 0" fill="#795548"/><path d="m384.378906 242.808594h-40.621094c-.167968-1.195313-.339843-2.304688-.511718-3.5-2.46875-16.300782-6.671875-32.292969-12.542969-47.699219h34.132813c7.789062 15.234375 14.019531 31.214844 18.601562 47.699219.34375 1.195312.597656 2.304687.941406 3.5zm0 0" fill="#ffecb3"/><path d="m364.835938 191.609375h-34.132813c-.425781-1.195313-.9375-2.304687-1.367187-3.5-1.789063-4.691406-3.839844-9.300781-5.972657-13.910156v-.085938l12.628907-18.515625 5.804687-1.109375c7.996094 10.585938 15.078125 21.832031 21.164063 33.621094.679687 1.195313 1.277343 2.304687 1.875 3.5zm0 0" fill="#795548"/><path d="m335.992188 155.597656-12.628907 18.515625v.085938l-83.371093 122.453125c-23.378907-15.871094-20.820313-60.414063 5.632812-99.328125 7.582031-11.25 16.847656-21.265625 27.476562-29.695313 22.273438-17.40625 46.59375-23.039062 62.808594-12.117187zm0 0" fill="#8bc34a"/><path d="m431.992188 14.457031-59.988282 88.320313h-.085937c-21.160157 11.519531-34.984375 27.816406-36.351563 44.285156-.226562 2.765625-.113281 5.542969.34375 8.277344-1.851562-8.601563-6.878906-16.191406-14.082031-21.246094-.886719-3.351562-1.457031-6.78125-1.707031-10.242188-.277344-4.695312-.132813-9.40625.425781-14.078124 1.867187-14.289063 6.410156-28.101563 13.398437-40.703126l.085938-.085937c2.269531-4.417969 4.808594-8.691406 7.59375-12.800781 13.34375-21.292969 33.628906-37.332032 57.429688-45.398438 10.976562-3.753906 23.058593-2.40625 32.9375 3.671875zm0 0" fill="#00695c"/><path d="m333.945312 69.070312c-6.988281 12.601563-11.53125 26.414063-13.398437 40.703126-7.898437-7.875-17.109375-14.316407-27.21875-19.03125-.085937-.9375-.171875-1.789063-.171875-2.730469-.851562-37.800781 16.894531-69.03125 39.59375-69.546875zm0 0" fill="#8bc34a"/><path d="m321.828125 134.09375c-6.535156-5.027344-13.980469-8.734375-21.929687-10.921875h-.085938c-13.796875-3.949219-28.210938-5.28125-42.496094-3.925781l-45.910156-21.164063c9.558594-20.566406 45.226562-24.40625 79.53125-8.53125.828125.328125 1.628906.726563 2.390625 1.191407 10.109375 4.714843 19.320313 11.15625 27.21875 19.03125-1.109375 8.113281-.671875 16.367187 1.28125 24.320312zm0 0" fill="#8bc34a"/><path d="m335.910156 155.339844v.171875c-16.214844-10.921875-40.535156-5.289063-62.808594 12.117187l-104.789062 19.882813c-5.289062-27.734375 27.992188-57.429688 74.328125-66.304688 4.847656-.933593 9.75-1.589843 14.675781-1.960937 14.285156-1.355469 28.699219-.023438 42.496094 3.925781h.085938c7.949218 2.1875 15.394531 5.894531 21.929687 10.921875 7.203125 5.054688 12.230469 12.644531 14.082031 21.246094zm0 0" fill="#009688"/><path d="m503.675781 123.769531-140.886719 26.707031-26.796874 5.121094v-.085937l-.082032-.171875c-.273437-1.492188-.417968-3.003906-.429687-4.519532-.054688-1.253906-.027344-2.507812.085937-3.757812 1.367188-16.46875 15.191406-32.765625 36.351563-44.285156h.085937c11.984375-6.394532 24.878906-10.910156 38.230469-13.398438 4.265625-.769531 8.449219-1.449218 12.628906-1.792968 41.046875-4.09375 76.03125 10.921874 80.8125 36.183593zm0 0" fill="#558b30"/><path d="m406.394531 14.457031-59.988281 88.320313h-.085938c-10.019531 5.257812-18.917968 12.417968-26.199218 21.074218-.277344-4.695312-.132813-9.40625.425781-14.078124 1.867187-14.289063 6.410156-28.101563 13.398437-40.703126l.085938-.085937c2.269531-4.417969 4.808594-8.691406 7.59375-12.800781 13.34375-21.292969 33.628906-37.332032 57.429688-45.398438 2.597656.894532 5.066406 2.128906 7.339843 3.671875zm0 0" fill="#009688"/><path d="m478.074219 123.769531-140.886719 26.707031-1.707031.34375c-.054688-1.253906-.027344-2.507812.085937-3.757812 1.367188-16.46875 15.191406-32.765625 36.351563-44.285156h.085937c11.984375-6.394532 24.878906-10.910156 38.230469-13.398438 4.265625-.769531 8.449219-1.449218 12.628906-1.792968 29.183594 2.902343 51.457031 16.386718 55.210938 36.183593zm0 0" fill="#8bc34a"/><path d="m256.207031 452.644531c0 9.425781-7.640625 17.066407-17.066406 17.066407s-17.066406-7.640626-17.066406-17.066407 7.640625-17.070312 17.066406-17.070312 17.066406 7.644531 17.066406 17.070312zm0 0" fill="#ff9801"/><path d="m128.207031 68.644531c0 32.988281-26.742187 59.730469-59.734375 59.730469-32.988281 0-59.730468-26.742188-59.730468-59.730469 0-32.992187 26.742187-59.734375 59.730468-59.734375 32.992188 0 59.734375 26.742188 59.734375 59.734375zm0 0" fill="#fec108"/><path d="m256.207031 512.375c-252.414062 0-252.414062-35.949219-252.414062-49.492188 0-46.078124 141.148437-87.039062 252.414062-87.039062 21.890625.003906 43.761719 1.277344 65.503907 3.8125 4.675781.546875 8.027343 4.785156 7.480468 9.464844-.226562 2.261718-1.367187 4.335937-3.148437 5.746094-1.785157 1.410156-4.066407 2.039062-6.320313 1.738281-21.085937-2.453125-42.289062-3.6875-63.515625-3.695313-135.96875 0-235.347656 49.101563-235.347656 69.972656 0 1.324219 2.667969 32.425782 235.347656 32.425782 232.679688 0 235.347657-31.101563 235.347657-32.425782 0-11-33.890626-35.3125-97.527344-52.34375-4.550782-1.21875-7.253906-5.902343-6.03125-10.453124 1.21875-4.550782 5.902344-7.253907 10.453125-6.03125 50.824219 13.601562 110.175781 39.816406 110.175781 68.828124 0 13.542969 0 49.492188-252.417969 49.492188zm0 0"/><path d="m366.695312 452.644531h-73.523437c-4.894531.023438-9.367187-2.773437-11.484375-7.1875-2.15625-4.445312-1.558594-9.738281 1.535156-13.59375 12.53125-15.695312 23.132813-32.839843 31.574219-51.0625 7.414063-15.863281 13.117187-32.472656 17.015625-49.542969 3.039062-13.554687 4.941406-27.339843 5.683594-41.210937 1.761718-33.695313-3.707032-67.378906-16.042969-98.789063-1.757813-4.617187-3.738281-9.035156-5.785156-13.472656-.527344-1.121094-.796875-2.347656-.792969-3.585937-.042969-4.171875 2.9375-7.765625 7.046875-8.492188 4.113281-.722656 8.144531 1.628907 9.53125 5.566407 2.109375 4.566406 4.132813 9.140624 5.90625 13.789062 13.210937 33.667969 19.070313 69.765625 17.1875 105.882812-.804687 14.84375-2.839844 29.59375-6.085937 44.097657-4.167969 18.25-10.265626 36-18.183594 52.960937-7.789063 16.796875-17.296875 32.738282-28.375 47.570313h62.628906c21.40625-30.695313 34.871094-66.222657 39.191406-103.398438 1.726563-13.660156 2.222656-27.453125 1.484375-41.207031-.867187-16.71875-3.464843-33.304688-7.746093-49.492188-4.496094-17.128906-10.824219-33.722656-18.878907-49.492187-5.648437-11.203125-12.164062-21.945313-19.480469-32.136719l-21.511718 4.113282c-2.773438.527343-5.632813-.351563-7.628906-2.347657-1.160157-1.15625-1.964844-2.617187-2.320313-4.214843-.074219-.25-.128906-.503907-.164063-.761719-.574218-3.414063-.722656-6.886719-.441406-10.339844.390625-4.214844 3.816406-7.507813 8.042969-7.730469 4.226563-.226562 7.980469 2.683594 8.816406 6.832032l17.265625-3.300782c3.195313-.59375 6.457032.667969 8.421875 3.261719 9.191407 12.234375 17.285157 25.257813 24.183594 38.917969 8.605469 16.859375 15.363281 34.597656 20.15625 52.90625 4.589844 17.316406 7.371094 35.0625 8.300781 52.949218.789063 14.738282.253906 29.511719-1.59375 44.152344-4.742187 40.730469-19.695312 79.601563-43.480468 113.007813-2.421876 3.359375-6.308594 5.351562-10.453126 5.351562zm0 0"/><path d="m412.195312 341.710938h-72.105468c-4.710938 0-8.535156-3.820313-8.535156-8.535157 0-4.710937 3.824218-8.53125 8.535156-8.53125h72.105468c4.714844 0 8.535157 3.820313 8.535157 8.53125 0 4.714844-3.820313 8.535157-8.535157 8.535157zm0 0"/><path d="m413.734375 299.042969h-67.757813c-4.710937 0-8.53125-3.820313-8.53125-8.535157 0-4.710937 3.820313-8.53125 8.53125-8.53125h67.757813c4.710937 0 8.53125 3.820313 8.53125 8.53125 0 4.714844-3.820313 8.535157-8.53125 8.535157zm0 0"/><path d="m405.710938 247.84375h-62.207032c-4.714844 0-8.535156-3.820312-8.535156-8.535156 0-4.710938 3.820312-8.53125 8.535156-8.53125h62.207032c4.714843 0 8.535156 3.820312 8.535156 8.53125 0 4.714844-3.820313 8.535156-8.535156 8.535156zm0 0"/><path d="m386.167969 196.644531h-56.832031c-4.710938 0-8.53125-3.824219-8.53125-8.535156s3.820312-8.535156 8.53125-8.535156h56.832031c4.714843 0 8.535156 3.824219 8.535156 8.535156s-3.820313 8.535156-8.535156 8.535156zm0 0"/><path d="m400.335938 392.910156h-77.824219c-4.714844 0-8.535157-3.820312-8.535157-8.535156 0-4.710938 3.820313-8.53125 8.535157-8.53125h77.824219c4.710937 0 8.53125 3.820312 8.53125 8.53125 0 4.714844-3.820313 8.535156-8.53125 8.535156zm0 0"/><path d="m239.992188 305.203125c-1.710938.003906-3.382813-.515625-4.792969-1.484375-27.691407-18.839844-26.179688-67.6875 3.414062-111.207031 29.589844-43.519531 74.511719-62.839844 102.183594-43.996094 2.597656 1.683594 4.078125 4.640625 3.871094 7.726563-.203125 3.085937-2.066407 5.820312-4.863281 7.144531-2.792969 1.324219-6.089844 1.03125-8.605469-.765625-19.097657-12.996094-55.058594 5.078125-78.507813 39.492187-23.449218 34.414063-27.035156 74.488281-7.917968 87.542969 3.097656 2.105469 4.460937 5.988281 3.355468 9.570312-1.101562 3.582032-4.414062 6.023438-8.160156 6.019532zm0 0"/><path d="m239.992188 305.203125c-3.160157 0-6.0625-1.75-7.539063-4.546875-1.476563-2.792969-1.289063-6.175781.492187-8.789062l95.984376-141.101563c2.648437-3.898437 7.960937-4.910156 11.859374-2.257813 3.898438 2.648438 4.914063 7.960938 2.261719 11.859376l-96.015625 141.097656c-1.585937 2.335937-4.222656 3.734375-7.042968 3.738281zm0 0"/><path d="m321.8125 142.601562c-3.863281-.007812-7.234375-2.609374-8.226562-6.339843-2.21875-8.980469-2.71875-18.304688-1.46875-27.46875 1.960937-15.378907 6.828124-30.242188 14.34375-43.800781 2.4375-4.6875 5.160156-9.222657 8.152343-13.578126 12.367188-18.957031 29.5625-34.273437 49.816407-44.382812 19.898437-9.214844 38.492187-9.0625 52.367187.386719 2.523437 1.714843 3.9375 4.644531 3.710937 7.683593-.222656 3.039063-2.050781 5.730469-4.796874 7.058594-2.746094 1.324219-5.992188 1.085938-8.511719-.628906-8.707031-5.933594-21.335938-5.582031-35.609375.996094-17.445313 8.804687-32.238282 22.085937-42.863282 38.488281-2.617187 3.800781-4.996093 7.761719-7.117187 11.859375-6.546875 11.707031-10.800781 24.554688-12.535156 37.855469-.992188 7.042969-.65625 14.214843.988281 21.136719.683594 2.5625.136719 5.296874-1.476562 7.402343-1.617188 2.101563-4.121094 3.332031-6.773438 3.332031zm0 0"/><path d="m371.792969 111.472656c-3.160157-.003906-6.058594-1.753906-7.535157-4.546875-1.476562-2.789062-1.289062-6.171875.484376-8.785156l60.195312-88.472656c1.714844-2.523438 4.644531-3.9375 7.6875-3.714844s5.734375 2.054687 7.0625 4.800781c1.324219 2.746094 1.085938 5.992188-.628906 8.515625l-60.203125 88.472657c-1.589844 2.335937-4.238281 3.734374-7.0625 3.730468zm0 0"/><path d="m168.3125 196.046875c-4.089844-.007813-7.605469-2.917969-8.371094-6.9375-6.253906-32.855469 29.363282-66.347656 81.066406-76.246094 5.171876-1.003906 10.394532-1.710937 15.644532-2.125 15.355468-1.429687 30.84375.019531 45.667968 4.265625.222657.070313.425782.136719.640626.222656 8.78125 2.488282 17 6.640626 24.210937 12.238282 8.761719 6.335937 14.867187 15.691406 17.140625 26.265625.414062 2.160156.03125 4.402343-1.082031 6.304687-2.449219 4.007813-7.671875 5.285156-11.691407 2.859375h-.078124c-2.3125-1.417969-3.8125-3.851562-4.042969-6.554687-1.652344-6.25-5.46875-11.710938-10.769531-15.410156-5.714844-4.359376-12.214844-7.578126-19.148438-9.480469-.234375-.066407-.464844-.144531-.691406-.238281-12.625-3.484376-25.78125-4.628907-38.816406-3.371094-4.625.363281-9.226563.988281-13.78125 1.867187-40.910157 7.832031-71.835938 33.613281-67.515626 56.320313.4375 2.480468-.242187 5.027344-1.859374 6.960937-1.617188 1.929688-4.003907 3.050781-6.523438 3.058594zm0 0"/><path d="m321.8125 142.601562c-3.863281-.007812-7.234375-2.609374-8.226562-6.339843-2.21875-8.980469-2.71875-18.304688-1.46875-27.46875 1.960937-15.378907 6.828124-30.242188 14.34375-43.800781 2.4375-4.6875 5.160156-9.222657 8.152343-13.578126 12.367188-18.957031 29.5625-34.273437 49.816407-44.382812 19.898437-9.214844 38.492187-9.0625 52.367187.386719 2.523437 1.714843 3.9375 4.644531 3.710937 7.683593-.222656 3.039063-2.050781 5.730469-4.796874 7.058594-2.746094 1.324219-5.992188 1.085938-8.511719-.628906-8.707031-5.933594-21.335938-5.582031-35.609375.996094-17.445313 8.804687-32.238282 22.085937-42.863282 38.488281-2.617187 3.800781-4.996093 7.761719-7.117187 11.859375-6.546875 11.707031-10.800781 24.554688-12.535156 37.855469-.992188 7.042969-.65625 14.214843.988281 21.136719.683594 2.5625.136719 5.296874-1.476562 7.402343-1.617188 2.101563-4.121094 3.332031-6.773438 3.332031zm0 0"/><path d="m168.3125 196.046875c-4.089844-.007813-7.605469-2.917969-8.371094-6.9375-6.253906-32.855469 29.363282-66.347656 81.066406-76.246094 5.171876-1.003906 10.394532-1.710937 15.644532-2.125 15.355468-1.429687 30.84375.019531 45.667968 4.265625.222657.070313.425782.136719.640626.222656 8.78125 2.488282 17 6.640626 24.210937 12.238282 8.761719 6.335937 14.867187 15.691406 17.140625 26.265625.414062 2.160156.03125 4.402343-1.082031 6.304687-2.449219 4.007813-7.671875 5.285156-11.691407 2.859375h-.078124c-2.3125-1.417969-3.8125-3.851562-4.042969-6.554687-1.652344-6.25-5.46875-11.710938-10.769531-15.410156-5.714844-4.359376-12.214844-7.578126-19.148438-9.480469-.234375-.066407-.464844-.144531-.691406-.238281-12.625-3.484376-25.78125-4.628907-38.816406-3.371094-4.625.363281-9.226563.988281-13.78125 1.867187-40.910157 7.832031-71.835938 33.613281-67.515626 56.320313.4375 2.480468-.242187 5.027344-1.859374 6.960937-1.617188 1.929688-4.003907 3.050781-6.523438 3.058594zm0 0"/><path d="m321.8125 142.601562c-3.863281-.007812-7.234375-2.609374-8.226562-6.339843-2.21875-8.980469-2.71875-18.304688-1.46875-27.46875 1.960937-15.378907 6.828124-30.242188 14.34375-43.800781 2.4375-4.6875 5.160156-9.222657 8.152343-13.578126 12.367188-18.957031 29.5625-34.273437 49.816407-44.382812 19.898437-9.214844 38.492187-9.0625 52.367187.386719 2.523437 1.714843 3.9375 4.644531 3.710937 7.683593-.222656 3.039063-2.050781 5.730469-4.796874 7.058594-2.746094 1.324219-5.992188 1.085938-8.511719-.628906-8.707031-5.933594-21.335938-5.582031-35.609375.996094-17.445313 8.804687-32.238282 22.085937-42.863282 38.488281-2.617187 3.800781-4.996093 7.761719-7.117187 11.859375-6.546875 11.707031-10.800781 24.554688-12.535156 37.855469-.992188 7.042969-.65625 14.214843.988281 21.136719.683594 2.5625.136719 5.296874-1.476562 7.402343-1.617188 2.101563-4.121094 3.332031-6.773438 3.332031zm0 0"/><path d="m293.308594 99.242188c-4.316406.003906-7.953125-3.222657-8.472656-7.507813-.140626-1.253906-.207032-2.511719-.195313-3.773437-.734375-18.390626 3.425781-36.648438 12.058594-52.90625 6.574219-14.207032 20.277343-23.789063 35.882812-25.085938 2.285157-.152344 4.535157.664062 6.191407 2.246094 1.660156 1.582031 2.578124 3.789062 2.535156 6.082031.054687 2.265625-.796875 4.457031-2.363282 6.09375-1.5625 1.636719-3.714843 2.585937-5.980468 2.636719-9.445313 1.570312-17.484375 7.746094-21.4375 16.46875-7.136719 13.660156-10.527344 28.972656-9.820313 44.371094-.015625.621093.011719 1.238281.085938 1.851562.269531 2.25-.367188 4.511719-1.765625 6.289062-1.398438 1.78125-3.445313 2.933594-5.691406 3.203126-.34375.03125-.683594.042968-1.027344.03125zm0 0"/><path d="m333.972656 77.578125c-4.636718 0-8.421875-3.695313-8.535156-8.328125l-1.195312-50.570312c-.109376-4.710938 3.621093-8.617188 8.328124-8.730469 2.289063-.144531 4.53125.671875 6.191407 2.25 1.65625 1.582031 2.582031 3.78125 2.546875 6.070312l1.195312 50.570313c.109375 4.710937-3.617187 8.617187-8.328125 8.730468zm0 0"/><path d="m293.308594 99.242188c-4.316406.003906-7.953125-3.222657-8.472656-7.507813-.140626-1.253906-.207032-2.511719-.195313-3.773437-.734375-18.390626 3.425781-36.648438 12.058594-52.90625 6.574219-14.207032 20.277343-23.789063 35.882812-25.085938 2.285157-.152344 4.535157.664062 6.191407 2.246094 1.660156 1.582031 2.578124 3.789062 2.535156 6.082031.054687 2.265625-.796875 4.457031-2.363282 6.09375-1.5625 1.636719-3.714843 2.585937-5.980468 2.636719-9.445313 1.570312-17.484375 7.746094-21.4375 16.46875-7.136719 13.660156-10.527344 28.972656-9.820313 44.371094-.015625.621093.011719 1.238281.085938 1.851562.269531 2.25-.367188 4.511719-1.765625 6.289062-1.398438 1.78125-3.445313 2.933594-5.691406 3.203126-.34375.03125-.683594.042968-1.027344.03125zm0 0"/><path d="m293.308594 99.242188c-4.316406.003906-7.953125-3.222657-8.472656-7.507813-.140626-1.253906-.207032-2.511719-.195313-3.773437-.734375-18.390626 3.425781-36.648438 12.058594-52.90625 6.574219-14.207032 20.277343-23.789063 35.882812-25.085938 2.285157-.152344 4.535157.664062 6.191407 2.246094 1.660156 1.582031 2.578124 3.789062 2.535156 6.082031.054687 2.265625-.796875 4.457031-2.363282 6.09375-1.5625 1.636719-3.714843 2.585937-5.980468 2.636719-9.445313 1.570312-17.484375 7.746094-21.4375 16.46875-7.136719 13.660156-10.527344 28.972656-9.820313 44.371094-.015625.621093.011719 1.238281.085938 1.851562.269531 2.25-.367188 4.511719-1.765625 6.289062-1.398438 1.78125-3.445313 2.933594-5.691406 3.203126-.34375.03125-.683594.042968-1.027344.03125zm0 0"/><path d="m320.589844 118.324219c-2.277344-.011719-4.460938-.933594-6.058594-2.558594-7.261719-7.164063-15.683594-13.042969-24.90625-17.394531-1.035156-.542969-1.519531-.851563-2-1.03125-29.804688-13.746094-61.046875-11.714844-68.460938 4.265625-1.285156 2.765625-3.949218 4.636719-6.984374 4.90625-3.039063.269531-5.988282-1.101563-7.738282-3.597657-1.753906-2.496093-2.042968-5.734374-.757812-8.5 11.691406-25.199218 51.585937-30.789062 90.828125-12.699218.734375.308594 1.769531.855468 2.714843 1.367187 10.902344 5.179688 20.847657 12.164063 29.421876 20.660157 2.402343 2.449218 3.101562 6.09375 1.78125 9.261718-1.320313 3.164063-4.410157 5.230469-7.839844 5.242188zm0 0"/><path d="m257.273438 127.777344c-1.234376 0-2.453126-.265625-3.574219-.785156l-45.859375-21.195313c-2.785156-1.269531-4.679688-3.933594-4.964844-6.980469-.28125-3.050781 1.089844-6.015625 3.597656-7.773437 2.507813-1.757813 5.765625-2.039063 8.535156-.734375l45.859376 21.1875c3.640624 1.679687 5.621093 5.671875 4.757812 9.589844-.863281 3.914062-4.339844 6.699218-8.351562 6.691406zm0 0"/><path d="m320.589844 118.324219c-2.277344-.011719-4.460938-.933594-6.058594-2.558594-7.261719-7.164063-15.683594-13.042969-24.90625-17.394531-1.035156-.542969-1.519531-.851563-2-1.03125-29.804688-13.746094-61.046875-11.714844-68.460938 4.265625-1.285156 2.765625-3.949218 4.636719-6.984374 4.90625-3.039063.269531-5.988282-1.101563-7.738282-3.597657-1.753906-2.496093-2.042968-5.734374-.757812-8.5 11.691406-25.199218 51.585937-30.789062 90.828125-12.699218.734375.308594 1.769531.855468 2.714843 1.367187 10.902344 5.179688 20.847657 12.164063 29.421876 20.660157 2.402343 2.449218 3.101562 6.09375 1.78125 9.261718-1.320313 3.164063-4.410157 5.230469-7.839844 5.242188zm0 0"/><path d="m320.589844 118.324219c-2.277344-.011719-4.460938-.933594-6.058594-2.558594-7.261719-7.164063-15.683594-13.042969-24.90625-17.394531-1.035156-.542969-1.519531-.851563-2-1.03125-29.804688-13.746094-61.046875-11.714844-68.460938 4.265625-1.285156 2.765625-3.949218 4.636719-6.984374 4.90625-3.039063.269531-5.988282-1.101563-7.738282-3.597657-1.753906-2.496093-2.042968-5.734374-.757812-8.5 11.691406-25.199218 51.585937-30.789062 90.828125-12.699218.734375.308594 1.769531.855468 2.714843 1.367187 10.902344 5.179688 20.847657 12.164063 29.421876 20.660157 2.402343 2.449218 3.101562 6.09375 1.78125 9.261718-1.320313 3.164063-4.410157 5.230469-7.839844 5.242188zm0 0"/><path d="m168.3125 196.046875c-4.089844-.007813-7.605469-2.917969-8.371094-6.9375-6.253906-32.855469 29.363282-66.347656 81.066406-76.246094 5.171876-1.003906 10.394532-1.710937 15.644532-2.125 15.355468-1.429687 30.84375.019531 45.667968 4.265625.222657.070313.425782.136719.640626.222656 8.78125 2.488282 17 6.640626 24.210937 12.238282 8.761719 6.335937 14.867187 15.691406 17.140625 26.265625.414062 2.160156.03125 4.402343-1.082031 6.304687-2.449219 4.007813-7.671875 5.285156-11.691407 2.859375h-.078124c-2.3125-1.417969-3.8125-3.851562-4.042969-6.554687-1.652344-6.25-5.46875-11.710938-10.769531-15.410156-5.714844-4.359376-12.214844-7.578126-19.148438-9.480469-.234375-.066407-.464844-.144531-.691406-.238281-12.625-3.484376-25.78125-4.628907-38.816406-3.371094-4.625.363281-9.226563.988281-13.78125 1.867187-40.910157 7.832031-71.835938 33.613281-67.515626 56.320313.4375 2.480468-.242187 5.027344-1.859374 6.960937-1.617188 1.929688-4.003907 3.050781-6.523438 3.058594zm0 0"/><path d="m168.3125 196.046875c-4.089844-.007813-7.605469-2.917969-8.371094-6.9375-6.253906-32.855469 29.363282-66.347656 81.066406-76.246094 5.171876-1.003906 10.394532-1.710937 15.644532-2.125 15.355468-1.429687 30.84375.019531 45.667968 4.265625.222657.070313.425782.136719.640626.222656 8.78125 2.488282 17 6.640626 24.210937 12.238282 8.761719 6.335937 14.867187 15.691406 17.140625 26.265625.414062 2.160156.03125 4.402343-1.082031 6.304687-2.449219 4.007813-7.671875 5.285156-11.691407 2.859375h-.078124c-2.3125-1.417969-3.8125-3.851562-4.042969-6.554687-1.652344-6.25-5.46875-11.710938-10.769531-15.410156-5.714844-4.359376-12.214844-7.578126-19.148438-9.480469-.234375-.066407-.464844-.144531-.691406-.238281-12.625-3.484376-25.78125-4.628907-38.816406-3.371094-4.625.363281-9.226563.988281-13.78125 1.867187-40.910157 7.832031-71.835938 33.613281-67.515626 56.320313.4375 2.480468-.242187 5.027344-1.859374 6.960937-1.617188 1.929688-4.003907 3.050781-6.523438 3.058594zm0 0"/><path d="m168.3125 196.046875c-4.390625-.019531-8.054688-3.367187-8.460938-7.742187-.410156-4.375 2.570313-8.34375 6.882813-9.171876l104.796875-19.925781c2.996094-.570312 6.066406.503907 8.058594 2.8125 1.988281 2.3125 2.597656 5.507813 1.589844 8.386719-1.003907 2.875-3.46875 5-6.464844 5.570312l-104.8125 19.921876c-.523438.101562-1.054688.148437-1.589844.148437zm0 0"/><path d="m335.992188 164.128906c-3.75 0-7.0625-2.453125-8.15625-6.039062-.167969-.464844-.285157-.945313-.359376-1.433594-.574218-3.421875-.726562-6.902344-.441406-10.359375 1.585938-19.148437 16.441406-37.769531 40.761719-51.003906 12.792969-6.804688 26.546875-11.621094 40.789063-14.285157 51.832031-9.8125 97.179687 8.277344 103.433593 41.171876.742188 4.566406-2.28125 8.890624-6.824219 9.757812-4.542968.863281-8.949218-2.046875-9.933593-6.566406-4.328125-22.722656-42.550781-35.359375-83.476563-27.59375-12.507812 2.332031-24.59375 6.550781-35.839844 12.507812-18.882812 10.28125-30.8125 24.304688-31.914062 37.488282-.164062 1.917968-.097656 3.855468.195312 5.757812.171876.679688.261719 1.375.265626 2.074219-.003907 4.695312-3.800782 8.507812-8.5 8.523437zm0 0"/><path d="m335.984375 164.128906c-4.394531-.007812-8.066406-3.351562-8.480469-7.730468-.410156-4.375 2.570313-8.351563 6.886719-9.179688l167.6875-31.832031c4.5625-.742188 8.890625 2.285156 9.753906 6.828125.867188 4.542968-2.042969 8.949218-6.5625 9.933594l-167.679687 31.828124c-.527344.101563-1.066406.152344-1.605469.152344zm0 0"/><path d="m239.140625 478.242188c-14.136719 0-25.601563-11.460938-25.601563-25.597657 0-14.140625 11.464844-25.601562 25.601563-25.601562s25.601563 11.460937 25.601563 25.601562c0 14.136719-11.464844 25.597657-25.601563 25.597657zm0-34.132813c-4.714844 0-8.535156 3.820313-8.535156 8.535156 0 4.710938 3.820312 8.53125 8.535156 8.53125 4.710937 0 8.535156-3.820312 8.535156-8.53125 0-4.714843-3.824219-8.535156-8.535156-8.535156zm0 0"/><path d="m187.941406 469.710938c0 4.710937-3.820312 8.53125-8.535156 8.53125-4.710938 0-8.53125-3.820313-8.53125-8.53125 0-4.714844 3.820312-8.535157 8.53125-8.535157 4.714844 0 8.535156 3.820313 8.535156 8.535157zm0 0"/><path d="m102.605469 452.644531c0 4.710938-3.820313 8.53125-8.53125 8.53125-4.714844 0-8.535157-3.820312-8.535157-8.53125 0-4.714843 3.820313-8.535156 8.535157-8.535156 4.710937 0 8.53125 3.820313 8.53125 8.535156zm0 0"/><path d="m426.875 452.644531c0 4.710938-3.820312 8.53125-8.535156 8.53125-4.710938 0-8.53125-3.820312-8.53125-8.53125 0-4.714843 3.820312-8.535156 8.53125-8.535156 4.714844 0 8.535156 3.820313 8.535156 8.535156zm0 0"/><path d="m53.445312 358.777344c-3.230468 0-6.1875-1.828125-7.632812-4.71875s-1.132812-6.351563.808594-8.9375c19.207031-25.597656 17.125-69.230469 16.03125-81.988282-.386719-4.257812 1.394531-8.429687 4.746094-11.089843 3.390624-2.710938 7.914062-3.535157 12.039062-2.195313 51.132812 16.402344 81.066406 93.609375 82.339844 96.886719 1.085937 2.851563.566406 6.066406-1.359375 8.429687-1.925781 2.367188-4.964844 3.523438-7.976563 3.039063-3.011718-.488281-5.535156-2.542969-6.621094-5.390625-.265624-.691406-25.667968-66.3125-65.707031-84.429688 1.160157 21.1875.007813 60.527344-19.832031 86.980469-1.613281 2.152344-4.144531 3.414063-6.835938 3.414063zm0 0"/><path d="m461.007812 358.777344c-23.9375.015625-45.566406-14.269532-54.945312-36.292969-1.964844-3.75-.886719-8.371094 2.539062-10.859375 3.421876-2.492188 8.152344-2.097656 11.113282.925781.730468.746094 1.324218 1.613281 1.757812 2.558594.085938.164063.160156.324219.238282.496094 6.109374 14.488281 19.691406 24.441406 35.347656 25.902343 15.65625 1.460938 30.847656-5.804687 39.53125-18.914062 1.613281-2.691406 4.570312-4.285156 7.707031-4.144531s5.941406 1.992187 7.304687 4.816406c1.363282 2.828125 1.066407 6.175781-.777343 8.714844-11.027344 16.757812-29.757813 26.832031-49.816407 26.796875zm0 0"/><path d="m256.207031 358.777344c-20.976562-.011719-40.410156-11.023438-51.199219-29.015625-9.425781 15.667969-25.503906 26.160156-43.640624 28.484375-2.507813.332031-5.03125.507812-7.558594.53125-20.980469.003906-40.421875-11.015625-51.203125-29.015625-5.230469 8.664062-12.566407 15.863281-21.332031 20.925781-9.054688 5.316406-19.367188 8.109375-29.867188 8.089844-20.046875.023437-38.757812-10.042969-49.78125-26.789063-1.84375-2.539062-2.140625-5.886719-.777344-8.714843 1.363282-2.824219 4.167969-4.675782 7.304688-4.816407 3.136718-.140625 6.09375 1.453125 7.703125 4.144531 7.882812 11.949219 21.242187 19.128907 35.550781 19.109376 7.472656.023437 14.8125-1.953126 21.257812-5.726563 8.109376-4.609375 14.464844-11.777344 18.074219-20.378906 1.945313-4.851563 6.648438-8.03125 11.878907-8.03125 5.226562 0 9.929687 3.179687 11.875 8.03125 6.664062 15.816406 22.152343 26.101562 39.316406 26.105469 1.832031-.015626 3.660156-.136719 5.476562-.367188 15.054688-1.972656 27.941406-11.773438 33.859375-25.753906 1.960938-4.84375 6.667969-8.007813 11.894531-7.996094 5.222657.011719 9.914063 3.195312 11.855469 8.046875 6.671875 15.816406 22.171875 26.09375 39.335938 26.085937 17.164062-.011718 32.652343-10.304687 39.308593-26.128906 1.953126-4.847656 6.664063-8.019531 11.890626-8.011718 5.226562.011718 9.925781 3.199218 11.863281 8.054687 4.183593 9.722656 11.769531 17.589844 21.335937 22.125 3.917969 2.203125 5.457032 7.070313 3.515625 11.128906-1.941406 4.054688-6.699219 5.90625-10.871093 4.234375-10.71875-5.101562-19.707032-13.222656-25.867188-23.367187-10.777344 18-30.21875 29.015625-51.199219 29.015625zm47.359375-36.5v.042968zm-94.71875 0v.054687zm0 0"/><path d="m68.472656 136.910156c-37.703125 0-68.265625-30.566406-68.265625-68.265625 0-37.703125 30.5625-68.269531 68.265625-68.269531s68.269532 30.566406 68.269532 68.269531c-.042969 37.683594-30.582032 68.222657-68.269532 68.265625zm0-119.46875c-28.277344 0-51.199218 22.925782-51.199218 51.203125 0 28.273438 22.921874 51.199219 51.199218 51.199219s51.203125-22.925781 51.203125-51.199219c-.03125-28.265625-22.9375-51.171875-51.203125-51.203125zm0 0"/></svg>