<svg height="512pt" viewBox="-145 0 512 512.02379" width="512pt" xmlns="http://www.w3.org/2000/svg"><path d="m147.644531 264.363281c-.820312.101563-1.648437.160157-2.476562.171875h-22.953125l-.171875-.171875c-.820313.101563-1.648438.160157-2.472657.171875h-42.667968c-.828125-.011718-1.652344-.070312-2.476563-.171875l-.167969.171875c-27.648437 35.328125-65.621093 93.4375-65.621093 145.746094-1.207031 26.148438 9.117187 51.507812 28.242187 69.378906 17.234375 14.519532 38.835938 22.84375 61.355469 23.636719 2.5625.085937 4.863281.167969 6.914063.167969 2.046874 0 4.007812-.082032 5.546874-.167969h.679688c1.539062.085937 3.414062.167969 5.546875.167969 24.878906.539062 49.117187-7.914063 68.269531-23.804688 19.125-17.871094 29.449219-43.230468 28.242188-69.378906 0-52.394531-38.058594-110.589844-65.789063-145.917969zm-49.496093 204.714844h-.511719c-19.710938-1.792969-54.867188-11.351563-54.867188-58.796875 0-35.753906 24.40625-77.992188 46.847657-109.226562 2.902343-4.09375 5.800781-7.933594 8.617187-11.605469 4.609375-5.972657 8.960937-11.433594 12.800781-16.042969 6.144532 7.425781 13.652344 16.898438 21.417969 27.648438 22.445313 31.234374 46.847656 73.472656 46.847656 109.226562 0 66.132812-68.265625 58.796875-68.265625 58.796875-4.230468.371094-8.484375.371094-12.714844 0zm0 0" fill="#f57c00"/><path d="m147.644531 264.363281c-.820312.101563-1.648437.160157-2.476562.171875h-22.953125c27.648437 35.328125 65.621094 93.4375 65.621094 145.746094 1.203124 26.148438-9.121094 51.507812-28.246094 69.378906-17.230469 14.519532-38.835938 22.84375-61.355469 23.636719 2.5625.085937 4.863281.167969 6.914063.167969 2.046874 0 4.007812-.082032 5.546874-.167969h.679688c1.539062.085937 3.414062.167969 5.546875.167969 24.878906.539062 49.117187-7.914063 68.269531-23.804688 19.125-17.871094 29.449219-43.230468 28.242188-69.378906 0-52.394531-38.058594-110.589844-65.789063-145.917969zm-73.386719.171875h2.644532c-.828125-.011718-1.652344-.070312-2.476563-.171875zm0 0" fill="#d84315"/><path d="m122.042969 264.363281c-.820313.101563-1.648438.160157-2.472657.171875h2.644532zm0 0" fill="#f57c00"/><path d="m157.199219 191.230469c-3.160157 3.242187-7.503907 5.058593-12.03125 5.035156 9.414062.027344 17.039062 7.652344 17.066406 17.066406-.070313 9.398438-7.667969 17-17.066406 17.066407 9.414062.03125 17.039062 7.652343 17.066406 17.066406.023437 4.53125-1.792969 8.871094-5.035156 12.035156-2.546875 2.644531-5.914063 4.359375-9.554688 4.863281-.820312.101563-1.648437.160157-2.476562.171875h-68.265625c-.828125-.011718-1.652344-.070312-2.476563-.171875-8.382812-1.230469-14.59375-8.421875-14.589843-16.898437.070312-9.394532 7.667968-16.996094 17.066406-17.066406-9.414063-.027344-17.039063-7.652344-17.066406-17.066407.070312-9.394531 7.667968-16.996093 17.066406-17.066406-9.414063-.027344-17.039063-7.652344-17.066406-17.066406.070312-9.394531 7.667968-16.996094 17.066406-17.066407-9.414063-.027343-17.039063-7.652343-17.066406-17.066406.070312-9.394531 7.667968-16.996094 17.066406-17.066406h68.265625c9.414062.027344 17.039062 7.652344 17.066406 17.066406-.070313 9.398438-7.667969 16.996094-17.066406 17.066406 9.414062.027344 17.039062 7.652344 17.066406 17.066407.023437 4.527343-1.792969 8.871093-5.035156 12.03125zm0 0" fill="#ff9801"/><path d="m128.101562 121.683594c5.121094-19.710938 18.347657-53.417969 48.300782-53.417969 13.167968-.597656 25.796875 5.300781 33.789062 15.789063 3.667969 5.214843 4.121094 12.039062 1.175782 17.691406-2.945313 5.65625-8.792969 9.199218-15.167969 9.1875-5.152344-.121094-10.003907-2.453125-13.3125-6.398438-1.742188-1.632812-4.117188-2.414062-6.484375-2.136718-4.523438 0-13.058594 15.875-16.726563 33.707031l-41.882812 3.269531zm0 0" fill="#d84315"/><path d="m111.035156 8.535156c9.425782 0 17.066406 7.640625 17.066406 17.066406v110.933594h-34.132812v-110.933594c0-9.425781 7.640625-17.066406 17.066406-17.066406zm0 0" fill="#ff9801"/><path d="m162.234375 145.066406c-.070313 9.398438-7.667969 16.996094-17.066406 17.066406h-68.265625c-9.414063-.027343-17.039063-7.652343-17.066406-17.066406.070312-9.394531 7.667968-16.996094 17.066406-17.066406h68.265625c9.414062.027344 17.039062 7.652344 17.066406 17.066406zm0 0" fill="#d84315"/><path d="m162.234375 213.332031c-.070313 9.398438-7.667969 17-17.066406 17.066407h-68.265625c-9.414063-.027344-17.039063-7.652344-17.066406-17.066407.070312-9.394531 7.667968-16.996093 17.066406-17.066406h68.265625c9.414062.027344 17.039062 7.652344 17.066406 17.066406zm0 0" fill="#d84315"/><path d="m131.601562 191.230469c-3.160156 3.242187-7.503906 5.058593-12.03125 5.035156 9.414063.027344 17.035157 7.652344 17.066407 17.066406-.070313 9.398438-7.671875 17-17.066407 17.066407 9.414063.03125 17.035157 7.652343 17.066407 17.066406.023437 4.53125-1.792969 8.871094-5.035157 12.035156-2.550781 2.644531-5.917968 4.359375-9.558593 4.863281-.820313.101563-1.648438.160157-2.472657.171875h-42.667968c-.828125-.011718-1.652344-.070312-2.476563-.171875-8.382812-1.230469-14.59375-8.421875-14.589843-16.898437.070312-9.394532 7.667968-16.996094 17.066406-17.066406-9.414063-.027344-17.039063-7.652344-17.066406-17.066407.070312-9.394531 7.667968-16.996093 17.066406-17.066406-9.414063-.027344-17.039063-7.652344-17.066406-17.066406.070312-9.394531 7.667968-16.996094 17.066406-17.066407-9.414063-.027343-17.039063-7.652343-17.066406-17.066406.070312-9.394531 7.667968-16.996094 17.066406-17.066406h42.667968c9.414063.027344 17.035157 7.652344 17.066407 17.066406-.070313 9.398438-7.671875 16.996094-17.066407 17.066406 9.414063.027344 17.035157 7.652344 17.066407 17.066407.023437 4.527343-1.792969 8.871093-5.035157 12.03125zm0 0" fill="#fec108"/><path d="m136.636719 145.066406c-.070313 9.398438-7.671875 16.996094-17.066407 17.066406h-42.667968c-9.414063-.027343-17.039063-7.652343-17.066406-17.066406.070312-9.394531 7.667968-16.996094 17.066406-17.066406h42.667968c9.414063.027344 17.035157 7.652344 17.066407 17.066406zm0 0" fill="#f57c00"/><path d="m136.636719 213.332031c-.070313 9.398438-7.671875 17-17.066407 17.066407h-42.667968c-9.414063-.027344-17.039063-7.652344-17.066406-17.066407.070312-9.394531 7.667968-16.996093 17.066406-17.066406h42.667968c9.414063.027344 17.035157 7.652344 17.066407 17.066406zm0 0" fill="#f57c00"/><path d="m128.101562 136.535156h-34.132812c-4.710938 0-8.535156-3.824218-8.535156-8.535156v-102.398438c0-14.140624 11.464844-25.601562 25.601562-25.601562 14.140625 0 25.601563 11.460938 25.601563 25.601562v102.398438c0 4.710938-3.820313 8.535156-8.535157 8.535156zm-25.597656-17.070312h17.066406v-93.863282c0-4.714843-3.820312-8.535156-8.535156-8.535156-4.710937 0-8.53125 3.820313-8.53125 8.535156zm0 0"/><path d="m145.167969 170.667969h-68.265625c-14.136719 0-25.601563-11.460938-25.601563-25.601563 0-14.136718 11.464844-25.601562 25.601563-25.601562h68.265625c14.140625 0 25.601562 11.464844 25.601562 25.601562 0 14.140625-11.460937 25.601563-25.601562 25.601563zm-68.265625-34.132813c-4.714844 0-8.535156 3.820313-8.535156 8.53125 0 4.714844 3.820312 8.535156 8.535156 8.535156h68.265625c4.714843 0 8.535156-3.820312 8.535156-8.535156 0-4.710937-3.820313-8.53125-8.535156-8.53125zm0 0"/><path d="m145.167969 204.800781h-68.265625c-14.136719 0-25.601563-11.460937-25.601563-25.601562 0-14.136719 11.464844-25.597657 25.601563-25.597657h68.265625c14.140625 0 25.601562 11.460938 25.601562 25.597657 0 14.140625-11.460937 25.601562-25.601562 25.601562zm-68.265625-34.132812c-4.714844 0-8.535156 3.820312-8.535156 8.53125 0 4.714843 3.820312 8.535156 8.535156 8.535156h68.265625c4.714843 0 8.535156-3.820313 8.535156-8.535156 0-4.710938-3.820313-8.53125-8.535156-8.53125zm0 0"/><path d="m145.167969 238.933594h-68.265625c-14.136719 0-25.601563-11.460938-25.601563-25.601563 0-14.136719 11.464844-25.597656 25.601563-25.597656h68.265625c14.140625 0 25.601562 11.460937 25.601562 25.597656 0 14.140625-11.460937 25.601563-25.601562 25.601563zm-68.265625-34.132813c-4.714844 0-8.535156 3.820313-8.535156 8.53125 0 4.714844 3.820312 8.535157 8.535156 8.535157h68.265625c4.714843 0 8.535156-3.820313 8.535156-8.535157 0-4.710937-3.820313-8.53125-8.535156-8.53125zm0 0"/><path d="m145.167969 273.066406h-68.265625c-1.140625-.011718-2.28125-.085937-3.414063-.222656-12.664062-1.789062-22.105469-12.585938-22.1875-25.378906.082031-14.105469 11.496094-25.519532 25.601563-25.597656h68.265625c14.140625 0 25.601562 11.460937 25.601562 25.597656.039063 6.835937-2.710937 13.390625-7.621093 18.144531-3.847657 3.933594-8.898438 6.46875-14.351563 7.210937-1.203125.152344-2.414063.234376-3.628906.246094zm-68.265625-34.132812c-2.226563-.023438-4.363282.863281-5.914063 2.457031-1.675781 1.578125-2.625 3.777344-2.621093 6.074219-.003907 4.234375 3.09375 7.828125 7.28125 8.449218.414062.054688.835937.082032 1.253906.085938h68.265625c.507812-.007812 1.011719-.046875 1.511719-.121094 1.675781-.269531 3.214843-1.082031 4.386718-2.3125 1.683594-1.582031 2.636719-3.789062 2.636719-6.101562 0-4.710938-3.820313-8.53125-8.535156-8.53125zm0 0"/><path d="m117.007812 477.867188c-2.753906 0-4.820312-.128907-5.972656-.214844-5.742187.453125-36.011718 1.828125-57.019531-17.066406-13.648437-13.058594-20.878906-31.445313-19.78125-50.304688 0-38.65625 26.351563-83.445312 48.453125-114.207031 2.824219-3.597657 7.980469-4.324219 11.691406-1.65625 3.710938 2.671875 4.660156 7.792969 2.148438 11.613281-20.613282 28.730469-45.226563 70.136719-45.226563 104.25-.992187 14 4.160157 27.738281 14.117188 37.632812 17.183593 15.429688 44.414062 12.707032 44.714843 12.679688.597657-.066406 1.207032-.066406 1.808594 0 .273438 0 27.730469 2.648438 44.78125-12.746094 9.910156-9.890625 15.035156-23.597656 14.046875-37.566406 0-34.132812-24.609375-75.519531-45.226562-104.25-2.382813-3.816406-1.390625-8.828125 2.265625-11.453125 3.660156-2.621094 8.722656-1.953125 11.574218 1.527344 22.101563 30.722656 48.453126 75.519531 48.453126 114.175781 1.109374 18.871094-6.121094 37.28125-19.78125 50.347656-14.421876 11.636719-32.523438 17.746094-51.046876 17.238282zm0 0"/><path d="m116.921875 512c-2.3125 0-4.359375-.085938-6.03125-.179688-1.382813.09375-3.414063.179688-5.742187.179688-26.984376.554688-53.257813-8.671875-73.96875-25.984375-20.945313-19.476563-32.304688-47.15625-31.078126-75.734375 0-53.757812 36.769532-111.894531 67.617188-151.191406 1.820312-2.347656 4.734375-3.566406 7.679688-3.210938.5.074219 1 .113282 1.503906.121094h9.898437c4.710938 0 8.535157 3.820312 8.535157 8.535156 0 4.710938-3.824219 8.53125-8.535157 8.53125h-8.328125c-24.089844 31.265625-61.304687 87.621094-61.304687 137.214844-1.167969 23.722656 8.125 46.761719 25.421875 63.039062 19 15.453126 43.15625 23.121094 67.59375 21.449219h1.167968c1.886719.09375 3.601563.171875 5.546876.171875 22.777343.550782 44.992187-7.128906 62.566406-21.632812 17.300781-16.265625 26.601562-39.304688 25.4375-63.027344 0-49.59375-37.214844-105.949219-61.304688-137.214844h-8.328125c-4.710937 0-8.53125-3.820312-8.53125-8.53125 0-4.714844 3.820313-8.535156 8.53125-8.535156h9.898438c.507812-.007812 1.011719-.046875 1.511719-.121094 2.945312-.347656 5.859374.867188 7.679687 3.210938 30.839844 39.296875 67.609375 97.425781 67.609375 151.191406 1.230469 28.574219-10.125 56.246094-31.070312 75.71875-20.707032 17.320312-46.984376 26.558594-73.976563 26zm0 0"/><path d="m117.007812 477.867188c-2.753906 0-4.820312-.128907-5.972656-.214844-5.742187.453125-36.011718 1.828125-57.019531-17.066406-13.648437-13.058594-20.878906-31.445313-19.78125-50.304688 0-38.65625 26.351563-83.445312 48.453125-114.207031 2.824219-3.597657 7.980469-4.324219 11.691406-1.65625 3.710938 2.671875 4.660156 7.792969 2.148438 11.613281-20.613282 28.730469-45.226563 70.136719-45.226563 104.25-.992187 14 4.160157 27.738281 14.117188 37.632812 17.183593 15.429688 44.414062 12.707032 44.714843 12.679688.597657-.066406 1.207032-.066406 1.808594 0 .273438 0 27.730469 2.648438 44.78125-12.746094 9.910156-9.890625 15.035156-23.597656 14.046875-37.566406 0-34.132812-24.609375-75.519531-45.226562-104.25-2.382813-3.816406-1.390625-8.828125 2.265625-11.453125 3.660156-2.621094 8.722656-1.953125 11.574218 1.527344 22.101563 30.722656 48.453126 75.519531 48.453126 114.175781 1.109374 18.871094-6.121094 37.28125-19.78125 50.347656-14.421876 11.636719-32.523438 17.746094-51.046876 17.238282zm0 0"/><path d="m86.800781 273.066406h-9.898437c-1.140625-.011718-2.28125-.085937-3.414063-.222656-4.683593-.53125-8.050781-4.761719-7.515625-9.445312.53125-4.683594 4.761719-8.050782 9.445313-7.519532.492187.070313.988281.113282 1.484375.121094h9.898437c4.710938 0 8.535157 3.820312 8.535157 8.535156 0 4.710938-3.824219 8.53125-8.535157 8.53125zm0 0"/><path d="m135.269531 273.066406h-.085937c-4.703125-.023437-8.5-3.851562-8.488282-8.554687.011719-4.703125 3.828126-8.511719 8.53125-8.511719 4.707032 0 8.523438 3.808594 8.535157 8.511719s-3.785157 8.53125-8.492188 8.554687zm0 0"/><path d="m89.609375 309.589844c-3.203125-.003906-6.136719-1.800782-7.589844-4.65625-1.457031-2.855469-1.191406-6.28125.683594-8.878906 6.75-9.386719 14.074219-18.773438 21.753906-28.082032 3-3.632812 8.378907-4.144531 12.015625-1.144531 3.632813 3.003906 4.144532 8.382813 1.140625 12.015625-7.457031 9.003906-14.546875 18.160156-21.074219 27.203125-1.605468 2.226563-4.1875 3.546875-6.929687 3.542969zm0 0"/><path d="m145.167969 273.066406h-9.898438c-4.710937 0-8.53125-3.820312-8.53125-8.53125 0-4.714844 3.820313-8.535156 8.53125-8.535156h9.898438c.507812-.007812 1.011719-.046875 1.511719-.121094 3.03125-.34375 6.015624.957032 7.828124 3.40625 1.8125 2.453125 2.179688 5.6875.964844 8.484375-1.21875 2.796875-3.835937 4.730469-6.863281 5.074219-1.144531.136719-2.289063.210938-3.441406.222656zm0 0"/><path d="m132.460938 309.589844c-2.742188.003906-5.320313-1.316406-6.925782-3.542969-6.53125-9.042969-13.65625-18.199219-21.078125-27.203125-2.773437-3.363281-5.300781-6.304688-7.398437-8.738281-3.078125-3.570313-2.675782-8.964844.894531-12.039063 3.574219-3.078125 8.964844-2.675781 12.042969.894532 2.164062 2.515624 4.761718 5.546874 7.617187 9.011718 7.679688 9.285156 15.003907 18.773438 21.753907 28.082032 1.875 2.597656 2.140624 6.023437.6875 8.878906-1.457032 2.855468-4.386719 4.652344-7.59375 4.65625zm0 0"/><path d="m159.675781 144.640625c-2.5625 0-4.992187-1.152344-6.613281-3.136719-1.617188-1.984375-2.261719-4.59375-1.75-7.105468.085938-.425782 8.535156-40.53125 25.089844-40.53125 4.828125-.308594 9.546875 1.535156 12.890625 5.035156 1.71875 2.074218 4.21875 3.339844 6.90625 3.496094 3.328125-.007813 6.359375-1.910157 7.816406-4.90625 1.414063-2.660157 1.160156-5.902344-.648437-8.308594-6.394532-8.328125-16.484376-12.960938-26.964844-12.382813-24.21875 0-35.484375 29.464844-40.039063 47.027344-.707031 3.011719-2.992187 5.402344-5.964843 6.25-2.972657.851563-6.175782.023437-8.367188-2.160156-2.191406-2.183594-3.027344-5.378907-2.1875-8.359375 10.007812-38.585938 30.105469-59.824219 56.558594-59.824219 15.863281-.644531 31.035156 6.523437 40.609375 19.191406 5.691406 7.578125 6.574219 17.742188 2.269531 26.1875-3.652344 7.457031-10.695312 12.679688-18.890625 14.007813-8.195313 1.332031-16.527344-1.398438-22.351563-7.316406-4.90625 7.980468-8.296874 16.804687-10 26.015624-.816406 3.972657-4.3125 6.820313-8.363281 6.820313zm0 0"/></svg>