<svg height="512pt" viewBox="-43 0 512 512" width="512pt" xmlns="http://www.w3.org/2000/svg"><path d="m29.867188 93.867188h12.800781v42.667968h-12.800781c-11.78125 0-21.332032-9.554687-21.332032-21.335937s9.550782-21.332031 21.332032-21.332031zm0 0" fill="#3f51b5"/><path d="m396.800781 136.535156h-12.800781v-42.667968h12.800781c11.78125 0 21.332031 9.550781 21.332031 21.332031s-9.550781 21.335937-21.332031 21.335937zm0 0" fill="#3f51b5"/><path d="m179.199219 290.132812h68.265625v75.433594h-68.265625zm0 0" fill="#2296f3"/><path d="m196.265625 443.734375c.015625 5.792969-1.453125 11.492187-4.265625 16.554687-10.445312-9.839843-22.824219-17.394531-36.351562-22.1875-8.023438-3.242187-16.128907-6.230468-23.980469-9.726562 7.125-14.101562 22.992187-21.46875 38.363281-17.8125 15.367188 3.652344 26.21875 17.375 26.234375 33.171875zm0 0" fill="#3f51b5"/><path d="m294.996094 428.375c-7.847656 3.496094-15.957032 6.484375-23.976563 9.726562-13.527343 4.792969-25.90625 12.347657-36.351562 22.1875-6.007813-10.808593-5.699219-24.015624.800781-34.53125 6.5-10.515624 18.179688-16.695312 30.53125-16.152343s23.445312 7.722656 28.996094 18.769531zm0 0" fill="#3f51b5"/><path d="m344.320312 387.414062c-8.917968 12.003907-19.65625 22.542969-31.828124 31.230469-5.542969 3.738281-11.398438 6.992188-17.496094 9.730469-5.550782-11.046875-16.644532-18.226562-28.996094-18.769531s-24.03125 5.636719-30.53125 16.152343c-6.5 10.515626-6.808594 23.722657-.800781 34.53125-1.367188 1.363282-2.648438 2.898438-3.925781 4.4375-7.445313 12.109376-13.292969 25.132813-17.410157 38.738282-4.113281-13.605469-9.964843-26.628906-17.40625-38.738282-1.28125-1.539062-2.558593-3.074218-3.925781-4.4375 6.007812-10.808593 5.699219-24.015624-.800781-34.53125-6.5-10.515624-18.179688-16.695312-30.53125-16.152343-12.351563.542969-23.445313 7.722656-29 18.769531-6.097657-2.738281-11.949219-5.992188-17.492188-9.730469-12.171875-8.6875-22.910156-19.226562-31.828125-31.230469 11.859375-1.453124 12.457032-11.605468 20.050782-20.480468 1.707031-2.046875 13.910156.851562 15.363281-1.367188 7.980469 5.816406 17.449219 9.25 27.304687 9.898438 12.09375.0625 23.949219-3.375 34.132813-9.898438h68.265625c10.1875 6.523438 22.042968 9.960938 34.136718 9.898438 9.855469-.648438 19.320313-4.082032 27.304688-9.898438 1.449219 2.21875 5.121094-9.214844 6.828125-7.167968 7.59375 8.875 16.722656 27.5625 28.585937 29.015624zm0 0" fill="#2296f3"/><path d="m179.199219 119.464844h68.265625v170.667968h-68.265625zm0 0" fill="#2296f3"/><path d="m128 336.8125c-.703125 10.34375-4.246094 20.292969-10.238281 28.753906-1.472657 2.199219-3.066407 4.304688-4.78125 6.316406-7.921875 8.808594-18.84375 14.347657-30.632813 15.53125-20.132812 3.488282-40.378906-5.507812-51.285156-22.785156-8.707031-15.871094-4.949219-37.203125-2.816406-54.273437 4.234375-33.003907 11.75-65.507813 22.441406-97.023438 0 .171875.085938.34375.085938.511719 3.09375 11.398438 7.929687 22.25 14.335937 32.171875 6.195313 10.046875 13.339844 19.476563 21.332031 28.160156 8.621094 9.386719 19.117188 16.8125 27.394532 26.539063 9.074218 9.832031 14.132812 22.714844 14.164062 36.097656zm0 0" fill="#3f51b5"/><path d="m395.605469 364.628906c-10.90625 17.277344-31.152344 26.273438-51.285157 22.785156-1.792968-.257812-3.5-.511718-5.207031-.855468-9.839843-2.007813-18.765625-7.15625-25.429687-14.675782-1.710938-2.011718-3.308594-4.117187-4.777344-6.316406-5.992188-8.460937-9.535156-18.410156-10.238281-28.753906.03125-13.382812 5.085937-26.265625 14.164062-36.097656 8.277344-9.726563 18.773438-17.152344 27.390625-26.539063 7.605469-8.257812 14.433594-17.199219 20.394532-26.710937.34375-.425782.597656-.9375.941406-1.449219 6.40625-9.921875 11.242187-20.773437 14.335937-32.171875 0-.167969.085938-.339844.085938-.511719 10.6875 31.515625 18.207031 64.019531 22.441406 97.023438 2.132813 17.070312 5.886719 38.402343-2.816406 54.273437zm0 0" fill="#283593"/><path d="m370.003906 364.628906c-6.652344 11.421875-17.914062 19.414063-30.890625 21.929688-9.839843-2.007813-18.765625-7.15625-25.429687-14.675782-1.710938-2.011718-3.308594-4.117187-4.777344-6.316406-5.992188-8.460937-9.535156-18.410156-10.238281-28.753906.03125-13.382812 5.085937-26.265625 14.164062-36.097656 8.277344-9.726563 18.773438-17.152344 27.390625-26.539063 7.605469-8.257812 14.433594-17.199219 20.394532-26.710937 5.453124 20.671875 9.53125 41.683594 12.203124 62.890625 2.132813 17.070312 5.890626 38.402343-2.816406 54.273437zm0 0" fill="#3f51b5"/><path d="m170.667969 273.066406h85.332031c9.425781 0 17.066406 7.640625 17.066406 17.066406 0 9.425782-7.640625 17.066407-17.066406 17.066407h-85.332031c-9.425781 0-17.066407-7.640625-17.066407-17.066407 0-9.425781 7.640626-17.066406 17.066407-17.066406zm0 0" fill="#3f51b5"/><path d="m278.273438 142.507812 71.59375-5.972656v-42.667968l-110.933594-8.535157h-51.199219l-110.933594 8.535157v42.667968l71.59375 5.972656zm0 0" fill="#2296f3"/><path d="m213.332031 8.535156c-4.332031.011719-8.644531.644532-12.796875 1.875-17.785156 5.632813-29.871094 22.136719-29.871094 40.789063 0 18.65625 12.085938 35.15625 29.871094 40.789062 4.152344 1.234375 8.464844 1.863281 12.796875 1.878907 23.566407 0 42.667969-19.101563 42.667969-42.667969 0-23.5625-19.101562-42.664063-42.667969-42.664063zm0 0" fill="#3f51b5"/><path d="m213.332031 8.535156c-4.332031.011719-8.644531.644532-12.796875 1.875 17.78125 5.632813 29.867188 22.136719 29.867188 40.789063 0 18.65625-12.085938 35.15625-29.867188 40.789062 4.152344 1.234375 8.464844 1.863281 12.796875 1.878907 23.566407 0 42.667969-19.101563 42.667969-42.667969 0-23.5625-19.101562-42.664063-42.667969-42.664063zm0 0" fill="#283593"/><g fill-rule="evenodd"><path d="m238.933594 179.199219-25.601563 68.265625c-21.589843-12.796875-47.445312-32-57.511719-51.285156-14.335937-25.597657-14.335937-51.199219 0-64 15.757813-12.695313 38.527344-11.597657 52.992188 2.5625l-12.546875 44.457031zm0 0" fill="#e91e63"/><path d="m270.847656 196.179688c-10.070312 19.285156-35.925781 38.488281-57.515625 51.285156l9.300781-24.746094 16.300782-43.519531h-42.667969l12.546875-44.457031c1.703125 1.617187 3.21875 3.417968 4.519531 5.375 4.78125-6.976563 11.746094-12.171876 19.796875-14.761719 12.910156-4.367188 27.160156-1.789063 37.71875 6.824219 14.335938 12.800781 14.335938 38.402343 0 64zm0 0" fill="#ad1457"/><path d="m245.246094 196.179688c-5.894532 10.125-13.550782 19.113281-22.613282 26.539062l16.300782-43.519531h-42.667969l12.546875-44.457031c1.703125 1.617187 3.21875 3.417968 4.519531 5.375 4.78125-6.976563 11.746094-12.171876 19.796875-14.761719 4.464844 1.425781 8.585938 3.75 12.117188 6.824219 14.339844 12.800781 14.339844 38.402343 0 64zm0 0" fill="#e91e63"/></g><path d="m59.734375 76.800781h17.066406c4.710938 0 8.53125 3.820313 8.53125 8.53125v59.734375c0 4.714844-3.820312 8.535156-8.53125 8.535156h-17.066406c-4.714844 0-8.535156-3.820312-8.535156-8.535156v-59.734375c0-4.710937 3.820312-8.53125 8.535156-8.53125zm0 0" fill="#3f51b5"/><path d="m366.933594 153.601562h-17.066406c-4.714844 0-8.535157-3.820312-8.535157-8.535156v-59.734375c0-4.710937 3.820313-8.53125 8.535157-8.53125h17.066406c4.710937 0 8.53125 3.820313 8.53125 8.53125v59.734375c0 4.714844-3.820313 8.535156-8.53125 8.535156zm0 0" fill="#3f51b5"/><path d="m213.332031 102.398438c-28.277343 0-51.199219-22.921876-51.199219-51.199219 0-28.277344 22.921876-51.199219 51.199219-51.199219 28.277344 0 51.203125 22.921875 51.203125 51.199219-.03125 28.265625-22.9375 51.171875-51.203125 51.199219zm0-85.332032c-18.851562 0-34.132812 15.28125-34.132812 34.132813 0 18.851562 15.28125 34.132812 34.132812 34.132812 18.851563 0 34.132813-15.28125 34.132813-34.132812 0-9.050781-3.59375-17.734375-9.996094-24.136719-6.402344-6.398438-15.082031-9.996094-24.136719-9.996094zm0 0"/><path d="m145.066406 384c-11.519531-.609375-22.617187-4.527344-31.964844-11.28125-3.953124-2.570312-5.074218-7.859375-2.503906-11.8125 2.570313-3.957031 7.859375-5.078125 11.8125-2.507812 6.601563 4.914062 14.453125 7.871093 22.65625 8.535156 17.300782.03125 33.621094-8.035156 44.101563-21.804688 2.613281-3.917968 7.914062-4.976562 11.835937-2.363281 3.917969 2.617187 4.976563 7.914063 2.363282 11.835937-13.65625 18.511719-35.300782 29.421876-58.300782 29.398438zm0 0"/><path d="m213.332031 256c-1.53125 0-3.039062-.410156-4.359375-1.195312-17.398437-10.339844-48.417968-31.1875-60.6875-54.613282-16.214844-28.910156-15.507812-58.878906 1.882813-74.402344 18.542969-15.109374 45.316406-14.5 63.148437 1.441407 17.832032-15.941407 44.605469-16.550781 63.148438-1.441407 17.390625 15.507813 18.097656 45.492188 1.765625 74.617188-12.152344 23.226562-43.171875 44.074219-60.585938 54.417969-1.308593.765625-2.796875 1.171875-4.3125 1.175781zm-32.621093-124.109375c-6.980469-.15625-13.785157 2.191406-19.183594 6.621094-11.273438 10.046875-10.5625 31.574219 1.757812 53.523437 7.238282 13.824219 25.320313 30.171875 50.046875 45.457032 24.746094-15.285157 42.804688-31.625 49.929688-45.226563 12.441406-22.1875 13.148437-43.699219 1.878906-53.761719-6.734375-5.25-15.320313-7.53125-23.769531-6.308594-8.453125 1.21875-16.042969 5.835938-21.015625 12.777344-1.675781 2.179688-4.269531 3.460938-7.023438 3.460938-2.75 0-5.34375-1.28125-7.023437-3.460938-4.992188-7.226562-12.886719-11.921875-21.621094-12.859375-1.320312-.152343-2.648438-.226562-3.976562-.222656zm0 0"/><path d="m213.332031 256c-1.019531-.003906-2.035156-.183594-2.992187-.539062-2.125-.792969-3.84375-2.394532-4.78125-4.457032s-1.015625-4.410156-.222656-6.53125l21.285156-56.738281h-30.355469c-2.671875-.003906-5.1875-1.253906-6.796875-3.382813-1.613281-2.132812-2.136719-4.894531-1.410156-7.464843l12.542968-44.457031c1.28125-4.535157 5.992188-7.175782 10.53125-5.898438 4.535157 1.28125 7.175782 5.996094 5.894532 10.53125l-9.488282 33.605469h31.394532c2.800781-.003907 5.421875 1.367187 7.015625 3.667969 1.597656 2.300781 1.960937 5.238281.980469 7.859374l-25.601563 68.265626c-1.25 3.332031-4.433594 5.542968-7.996094 5.539062zm0 0"/><path d="m179.199219 281.601562c-4.710938 0-8.53125-3.820312-8.53125-8.535156v-49.664062c0-4.710938 3.820312-8.53125 8.53125-8.53125 4.714843 0 8.535156 3.820312 8.535156 8.53125v49.664062c0 4.714844-3.820313 8.535156-8.535156 8.535156zm0 0"/><path d="m179.199219 374.101562c-4.710938 0-8.53125-3.820312-8.53125-8.535156v-58.367187c0-4.710938 3.820312-8.53125 8.53125-8.53125 4.714843 0 8.535156 3.820312 8.535156 8.53125v58.367187c0 4.714844-3.820313 8.535156-8.535156 8.535156zm0 0"/><path d="m247.464844 374.101562c-4.710938 0-8.53125-3.820312-8.53125-8.535156v-58.367187c0-4.710938 3.820312-8.53125 8.53125-8.53125 4.714844 0 8.535156 3.820312 8.535156 8.53125v58.367187c0 4.714844-3.820312 8.535156-8.535156 8.535156zm0 0"/><path d="m247.464844 281.601562c-4.710938 0-8.53125-3.820312-8.53125-8.535156v-49.664062c0-4.710938 3.820312-8.53125 8.53125-8.53125 4.714844 0 8.535156 3.820312 8.535156 8.53125v49.664062c0 4.714844-3.820312 8.535156-8.535156 8.535156zm0 0"/><path d="m213.332031 512c-3.574219-.003906-6.769531-2.234375-8.003906-5.589844l-1.585937-4.351562c-3.464844-11.246094-8.335938-22.011719-14.507813-32.035156-.980469-1.175782-2.082031-2.558594-3.265625-3.703126-9.660156-8.996093-21.066406-15.90625-33.511719-20.308593l-7.628906-3.019531c-5.589844-2.195313-11.171875-4.394532-16.632813-6.828126-6.585937-2.945312-12.902343-6.464843-18.875-10.511718-12.90625-9.203125-24.296874-20.363282-33.765624-33.078125-2.859376-3.746094-2.136719-9.105469 1.613281-11.960938 3.746093-2.859375 9.105469-2.136719 11.960937 1.613281 8.375 11.289063 18.449219 21.207032 29.867188 29.40625 5.136718 3.457032 10.5625 6.46875 16.214844 8.992188 5.121093 2.277344 10.445312 4.367188 15.796874 6.46875l7.78125 3.089844c14.621094 5.230468 27.988282 13.453125 39.253907 24.140625 1.464843 1.464843 2.925781 3.199219 4.375 4.929687 7.484375 11.460938 13.3125 23.921875 17.316406 37.011719l1.535156 4.265625c.953125 2.605469.582031 5.511719-.996093 7.792969-1.578126 2.28125-4.167969 3.652343-6.941407 3.675781zm0 0"/><path d="m74.792969 396.484375c-2.339844 0-4.675781-.121094-7.003907-.367187-18.359374-1.332032-34.898437-11.578126-44.261718-27.425782-9.242188-16.957031-6.484375-38.085937-4.269532-55.058594l.554688-4.265624c4.277344-33.59375 11.902344-66.679688 22.761719-98.757813 1.273437-3.648437 4.808593-6.019531 8.667969-5.808594 3.859374.265625 7.054687 3.089844 7.792968 6.886719 2.839844 10.597656 7.347656 20.675781 13.34375 29.867188 5.898438 9.585937 12.722656 18.574218 20.371094 26.835937 3.660156 3.984375 7.679688 7.621094 12.015625 11.476563 5.53125 4.765624 10.730469 9.90625 15.554687 15.386718 10.53125 11.429688 16.304688 26.449219 16.136719 41.992188-1.070312 14.933594-7.074219 29.09375-17.066406 40.242187-11.433594 12.460938-27.6875 19.386719-44.597656 18.996094zm-23.269531-157.148437c-6.753907 23.632812-11.695313 47.746093-14.777344 72.128906l-.574219 4.398437c-1.988281 15.273438-4.265625 32.59375 2.339844 44.679688 6.6875 10.902343 18.277343 17.851562 31.042969 18.617187 13.648437 1.910156 27.378906-2.851562 36.914062-12.796875 7.507812-8.265625 12.078125-18.777343 12.996094-29.902343-.007813-11.246094-4.335938-22.054688-12.089844-30.199219-4.34375-4.863281-9.015625-9.425781-13.976562-13.652344-4.40625-3.960937-8.96875-8.046875-13.183594-12.640625-8.402344-9.078125-15.894532-18.957031-22.375-29.488281-2.375-3.867188-4.480469-7.597657-6.316406-11.144531zm0 0"/><path d="m281.601562 384c-23.003906.023438-44.644531-10.886719-58.300781-29.398438-1.699219-2.53125-1.917969-5.777343-.570312-8.515624 1.34375-2.738282 4.046875-4.550782 7.089843-4.753907 3.042969-.203125 5.964844 1.230469 7.664063 3.765625 10.449219 13.8125 26.792969 21.902344 44.117187 21.835938 8.203126-.664063 16.050782-3.621094 22.65625-8.535156 3.945313-2.492188 9.160157-1.351563 11.707032 2.5625 2.546875 3.910156 1.476562 9.140624-2.398438 11.742187-9.347656 6.757813-20.445312 10.683594-31.964844 11.296875zm0 0"/><path d="m213.332031 512c-2.785156 0-5.398437-1.363281-6.992187-3.652344-1.59375-2.285156-1.972656-5.207031-1.011719-7.824218l1.535156-4.265626c3.984375-13.027343 9.769531-25.429687 17.1875-36.847656 1.578125-1.894531 3.039063-3.628906 4.582031-5.171875 11.25-10.65625 24.59375-18.851562 39.1875-24.0625l7.78125-3.089843c5.351563-2.101563 10.691407-4.191407 15.921876-6.519532 5.617187-2.515625 11.007812-5.511718 16.113281-8.953125 11.417969-8.191406 21.492187-18.109375 29.863281-29.398437 1.851562-2.421875 4.851562-3.679688 7.878906-3.289063 3.023438.386719 5.613282 2.359375 6.789063 5.175781 1.175781 2.8125.757812 6.039063-1.089844 8.464844-9.464844 12.710938-20.855469 23.867188-33.757813 33.066406-5.9375 4.03125-12.21875 7.535157-18.773437 10.464844-5.582031 2.480469-11.160156 4.683594-16.75 6.875l-7.628906 3.023438c-12.410157 4.386718-23.789063 11.269531-33.433594 20.230468-1.261719 1.261719-2.363281 2.5625-3.472656 3.941407-6.105469 9.984375-10.9375 20.691406-14.378907 31.875l-1.585937 4.351562c-1.222656 3.347657-4.398437 5.582031-7.964844 5.605469zm0 0"/><path d="m351.871094 396.484375c-16.9375.402344-33.226563-6.535156-44.671875-19.03125-9.996094-11.152344-16-25.3125-17.066407-40.25-.136718-15.539063 5.664063-30.542969 16.214844-41.949219 4.832032-5.472656 10.039063-10.605468 15.582032-15.359375 4.265624-3.859375 8.351562-7.492187 12.015624-11.480469 7.644532-8.261718 14.472657-17.25 20.375-26.835937 5.957032-9.132813 10.445313-19.144531 13.296876-29.667969.875-3.777344 4.105468-6.542968 7.96875-6.828125 3.761718-.265625 7.242187 1.992188 8.535156 5.539063 10.847656 32.0625 18.464844 65.132812 22.738281 98.710937l.554687 4.269531c2.210938 16.972657 4.96875 38.101563-4.265624 55.054688-9.363282 15.847656-25.902344 26.09375-44.261719 27.425781-2.328125.257813-4.671875.390625-7.015625.402344zm23.269531-157.148437c-1.835937 3.546874-3.929687 7.246093-6.277344 11.089843-6.492187 10.546875-13.996093 20.433594-22.410156 29.519531-4.214844 4.589844-8.78125 8.675782-13.183594 12.636719-4.964843 4.230469-9.632812 8.789063-13.976562 13.652344-7.761719 8.152344-12.089844 18.972656-12.09375 30.226563.90625 11.128906 5.464843 21.644531 12.964843 29.917968 9.53125 9.949219 23.265626 14.710938 36.914063 12.800782 12.765625-.765626 24.355469-7.71875 31.042969-18.621094 6.578125-12.082032 4.328125-29.40625 2.339844-44.679688l-.574219-4.394531c-3.070313-24.390625-8-48.511719-14.746094-72.148437zm0 0"/><path d="m213.417969 59.734375c-4.710938.023437-8.550781-3.777344-8.574219-8.492187-.023438-4.710938 3.777344-8.550782 8.488281-8.574219h.085938c4.714843 0 8.535156 3.820312 8.535156 8.53125 0 4.714843-3.820313 8.535156-8.535156 8.535156zm0 0"/><path d="m148.402344 151.039062c-.238282 0-.476563 0-.714844 0l-71.597656-5.972656c-4.433594-.367187-7.839844-4.082031-7.824219-8.53125v-42.667968c-.011719-4.46875 3.421875-8.191407 7.878906-8.535157l110.933594-8.53125c4.710937-.363281 8.824219 3.164063 9.1875 7.875.363281 4.714844-3.164063 8.828125-7.875 9.191407l-103.058594 7.902343v26.914063l63.769531 5.324218c3.050782.125 5.800782 1.867188 7.214844 4.570313 1.417969 2.703125 1.285156 5.953125-.347656 8.53125s-4.515625 4.089844-7.566406 3.964844zm0 0"/><path d="m68.265625 162.132812h-17.066406c-9.425781 0-17.066407-7.640624-17.066407-17.066406v-59.734375c0-9.425781 7.640626-17.066406 17.066407-17.066406h17.066406c9.425781 0 17.066406 7.640625 17.066406 17.066406v59.734375c0 9.425782-7.640625 17.066406-17.066406 17.066406zm-17.066406-76.800781v59.734375h17.066406v-59.734375zm0 0"/><path d="m42.667969 145.066406h-12.800781c-16.496094 0-29.867188-13.371094-29.867188-29.867187 0-16.492188 13.371094-29.867188 29.867188-29.867188h12.800781c4.710937 0 8.53125 3.820313 8.53125 8.535157v42.667968c0 2.261719-.898438 4.433594-2.5 6.03125-1.597657 1.601563-3.769531 2.5-6.03125 2.5zm-12.800781-42.667968c-7.070313 0-12.800782 5.730468-12.800782 12.800781 0 7.070312 5.730469 12.800781 12.800782 12.800781h4.265624v-25.601562zm0 0"/><path d="m278.261719 151.039062c-4.710938.195313-8.6875-3.46875-8.882813-8.183593-.191406-4.710938 3.472656-8.6875 8.183594-8.882813l63.769531-5.289062v-26.914063l-103.054687-7.902343c-3.050782-.234376-5.742188-2.078126-7.0625-4.835938-1.320313-2.757812-1.070313-6.011719.65625-8.535156 1.726562-2.519532 4.671875-3.929688 7.71875-3.695313l110.933594 8.53125c4.453124.34375 7.890624 4.066407 7.875 8.535157v42.667968c.015624 4.449219-3.390626 8.164063-7.824219 8.53125l-71.59375 5.972656c-.238281 0-.476563 0-.71875 0zm0 0"/><path d="m375.464844 162.132812h-17.066406c-9.425782 0-17.066407-7.640624-17.066407-17.066406v-59.734375c0-9.425781 7.640625-17.066406 17.066407-17.066406h17.066406c9.425781 0 17.070312 7.640625 17.070312 17.066406v59.734375c0 9.425782-7.644531 17.066406-17.070312 17.066406zm-17.066406-76.800781v59.734375h17.066406v-59.734375zm0 0"/><path d="m396.800781 145.066406h-12.800781c-4.710938 0-8.535156-3.820312-8.535156-8.53125v-42.667968c0-4.714844 3.824218-8.535157 8.535156-8.535157h12.800781c16.492188 0 29.867188 13.375 29.867188 29.867188 0 16.496093-13.375 29.867187-29.867188 29.867187zm-4.265625-17.066406h4.265625c7.070313 0 12.800781-5.730469 12.800781-12.800781 0-7.070313-5.730468-12.800781-12.800781-12.800781h-4.265625zm0 0"/><path d="m256 315.734375h-85.332031c-14.140625 0-25.601563-11.460937-25.601563-25.601563 0-14.136718 11.460938-25.597656 25.601563-25.597656h85.332031c14.136719 0 25.601562 11.460938 25.601562 25.597656 0 14.140626-11.464843 25.601563-25.601562 25.601563zm-85.332031-34.132813c-4.714844 0-8.535157 3.820313-8.535157 8.53125 0 4.714844 3.820313 8.535157 8.535157 8.535157h85.332031c4.710938 0 8.535156-3.820313 8.535156-8.535157 0-4.710937-3.824218-8.53125-8.535156-8.53125zm0 0"/><path d="m192 468.820312c-2.296875.003907-4.5-.917968-6.109375-2.558593-9.640625-8.964844-21.019531-15.851563-33.433594-20.234375l-7.628906-3.019532c-5.589844-2.191406-11.171875-4.394531-16.632813-6.828124-2.132812-.949219-3.78125-2.730469-4.566406-4.929688s-.632812-4.625.421875-6.707031c6.933594-13.832031 20.808594-22.824219 36.261719-23.503907 15.457031-.679687 30.070312 7.058594 38.191406 20.226563 8.121094 13.164063 8.480469 29.695313.9375 43.203125-1.320312 2.339844-3.667968 3.921875-6.332031 4.265625-.367187.050781-.738281.078125-1.109375.085937zm-47-44.109374c2.011719.804687 4.042969 1.597656 6.066406 2.390624l7.78125 3.089844c10.195313 3.863282 19.878906 8.957032 28.835938 15.171875 0-.539062.050781-1.082031.050781-1.628906 0-10.113281-5.953125-19.277344-15.191406-23.390625-9.238281-4.109375-20.03125-2.398438-27.542969 4.367188zm0 0"/><path d="m234.667969 468.820312c-.371094 0-.742188-.023437-1.109375-.066406-2.664063-.347656-5.011719-1.925781-6.332032-4.265625-7.542968-13.507812-7.1875-30.039062.9375-43.207031 8.121094-13.167969 22.734376-20.90625 38.1875-20.226562 15.457032.683593 29.332032 9.675781 36.265626 23.503906 1.050781 2.085937 1.203124 4.507812.421874 6.707031-.785156 2.199219-2.4375 3.984375-4.570312 4.933594-5.460938 2.421875-11.039062 4.625-16.628906 6.824219l-7.628906 3.023437c-12.414063 4.378906-23.792969 11.265625-33.433594 20.230469-1.613282 1.636718-3.816406 2.554687-6.109375 2.542968zm29.867187-50.6875c-14.140625 0-25.601562 11.460938-25.601562 25.601563 0 .546875 0 1.089844.050781 1.628906 8.957031-6.214843 18.640625-11.308593 28.835937-15.171875l7.78125-3.089844c2.023438-.792968 4.054688-1.585937 6.066407-2.390624-4.691407-4.25-10.804688-6.597657-17.132813-6.578126zm0 0"/></svg>