<svg height="512pt" viewBox="0 0 512 512" width="512pt" xmlns="http://www.w3.org/2000/svg"><path d="m452.265625 256c0 108.394531-87.871094 196.265625-196.265625 196.265625s-196.265625-87.871094-196.265625-196.265625 87.871094-196.265625 196.265625-196.265625 196.265625 87.871094 196.265625 196.265625zm0 0" fill="#ffb301"/><path d="m501.078125 221.441406c-.769531-5.632812-1.792969-11.265625-2.988281-16.8125-4.710938-22.671875-12.671875-44.542968-23.636719-64.9375-2.644531-5.035156-5.460937-9.984375-8.53125-14.761718-12.265625-19.613282-27.199219-37.417969-44.375-52.910157-4.265625-3.839843-8.617187-7.507812-13.140625-10.921875-18.167969-14.347656-38.316406-25.988281-59.820312-34.558594-5.203126-2.21875-10.582032-4.183593-15.957032-5.886718-22.003906-7.226563-44.941406-11.222656-68.09375-11.863282-2.816406-.171874-5.632812-.253906-8.535156-.253906s-5.71875.082032-8.535156.253906c-1.449219 0-2.8125.085938-4.265625.171876-21.707031.980468-43.183594 4.914062-63.828125 11.691406-5.375 1.703125-10.753906 3.667968-15.957032 5.886718-21.503906 8.570313-41.652343 20.210938-59.820312 34.558594-4.523438 3.414063-8.875 7.082032-13.140625 10.921875-17.175781 15.492188-32.109375 33.296875-44.375 52.910157-3.070313 4.777343-5.886719 9.726562-8.53125 14.761718-10.964844 20.394532-18.925781 42.265625-23.636719 64.9375-1.195312 5.546875-2.21875 11.179688-2.988281 16.8125-3.183594 22.929688-3.183594 46.1875 0 69.117188.769531 5.632812 1.792969 11.265625 2.988281 16.8125 4.710938 22.671875 12.671875 44.542968 23.636719 64.9375 2.644531 5.035156 5.460937 9.984375 8.53125 14.761718 12.265625 19.613282 27.199219 37.417969 44.375 52.910157 4.265625 3.839843 8.617187 7.507812 13.140625 10.921875 18.167969 14.347656 38.316406 25.988281 59.820312 34.558594 5.203126 2.21875 10.582032 4.183593 15.957032 5.886718 20.644531 6.777344 42.121094 10.710938 63.828125 11.691406 1.453125.085938 2.816406.171876 4.265625.171876 2.816406.171874 5.632812.253906 8.535156.253906s5.71875-.082032 8.535156-.253906c23.152344-.640626 46.089844-4.636719 68.09375-11.863282 5.375-1.703125 10.753906-3.667968 15.957032-5.886718 21.503906-8.570313 41.652343-20.210938 59.820312-34.558594 4.523438-3.414063 8.875-7.082032 13.140625-10.921875 17.175781-15.492188 32.109375-33.296875 44.375-52.910157 3.070313-4.777343 5.886719-9.726562 8.53125-14.761718 10.964844-20.394532 18.925781-42.265625 23.636719-64.9375 1.195312-5.546875 2.21875-11.179688 2.988281-16.8125 3.183594-22.929688 3.183594-46.1875 0-69.117188zm-441.34375 34.558594c.121094-103.375 80.316406-188.980469 183.464844-195.839844 4.183593-.257812 8.535156-.425781 12.800781-.425781 108.394531 0 196.265625 87.871094 196.265625 196.265625s-87.871094 196.265625-196.265625 196.265625c-4.265625 0-8.617188-.167969-12.800781-.425781-103.148438-6.859375-183.34375-92.464844-183.464844-195.839844zm0 0" fill="#ffeb3a"/><path d="m501.078125 221.441406c-.769531-5.632812-1.792969-11.265625-2.988281-16.8125-4.710938-22.671875-12.671875-44.542968-23.636719-64.9375-2.644531-5.035156-5.460937-9.984375-8.53125-14.761718-12.265625-19.613282-27.199219-37.417969-44.375-52.910157-4.265625-3.839843-8.617187-7.507812-13.140625-10.921875-18.167969-14.347656-38.316406-25.988281-59.820312-34.558594-5.203126-2.21875-10.582032-4.183593-15.957032-5.886718-22.003906-7.226563-44.941406-11.222656-68.09375-11.863282-2.816406-.171874-5.632812-.253906-8.535156-.253906s-5.71875.082032-8.535156.253906c-1.449219 0-2.8125.085938-4.265625.171876 21.710937.980468 43.183593 4.914062 63.832031 11.691406 5.375 1.703125 10.75 3.667968 15.957031 5.886718 21.5 8.570313 41.648438 20.210938 59.816407 34.558594 4.523437 3.414063 8.875 7.082032 13.140624 10.921875 17.179688 15.492188 32.113282 33.296875 44.375 52.910157 3.070313 4.777343 5.886719 9.726562 8.53125 14.761718 10.96875 20.394532 18.929688 42.265625 23.640626 64.9375 1.191406 5.546875 2.21875 11.179688 2.984374 16.8125 3.1875 22.929688 3.1875 46.1875 0 69.117188-.765624 5.632812-1.792968 11.265625-2.984374 16.8125-4.710938 22.671875-12.671876 44.542968-23.640626 64.9375-2.644531 5.035156-5.460937 9.984375-8.53125 14.761718-12.261718 19.613282-27.195312 37.417969-44.375 52.910157-4.265624 3.839843-8.617187 7.507812-13.140624 10.921875-18.167969 14.347656-38.316407 25.988281-59.816407 34.558594-5.207031 2.21875-10.582031 4.183593-15.957031 5.886718-20.648438 6.777344-42.121094 10.710938-63.832031 11.691406 1.453125.085938 2.816406.171876 4.265625.171876 2.816406.171874 5.632812.253906 8.535156.253906s5.71875-.082032 8.535156-.253906c23.152344-.640626 46.089844-4.636719 68.09375-11.863282 5.375-1.703125 10.753906-3.667968 15.957032-5.886718 21.503906-8.570313 41.652343-20.210938 59.820312-34.558594 4.523438-3.414063 8.875-7.082032 13.140625-10.921875 17.175781-15.492188 32.109375-33.296875 44.375-52.910157 3.070313-4.777343 5.886719-9.726562 8.53125-14.761718 10.964844-20.394532 18.925781-42.265625 23.636719-64.9375 1.195312-5.546875 2.21875-11.179688 2.988281-16.8125 3.183594-22.929688 3.183594-46.1875 0-69.117188zm0 0" fill="#fec108"/><path d="m352.257812 302.847656c7.421876 29.527344-7.425781 29.527344-29.613281 29.527344s-22.1875 22.101562-14.847656 36.863281c4.011719 7.933594-11.261719 11.605469-26.195313 13.3125-6.230468.679688-12.289062 1.023438-16.984374 1.277344-5.117188.171875-8.617188.171875-8.617188.171875s-3.5 0-8.617188-.257812c-4.695312-.167969-10.839843-.511719-16.984374-1.191407-14.933594-1.707031-30.207032-5.378906-26.195313-13.3125 7.339844-14.761719 7.339844-36.863281-14.847656-36.863281s-37.035157 0-29.613281-29.527344c6.316406-25.003906-19.367188-28.84375-22.867188-65.363281-.550781-7.742187-.324219-15.519531.683594-23.210937 7.335937-59.050782 51.796875-103.339844 118.441406-103.339844 28.085938-.632813 55.507812 8.605468 77.484375 26.113281 23.089844 19.503906 37.761719 47.167969 40.957031 77.226563 7.425782 59.050781-29.609375 59.050781-22.183594 88.574218zm0 0" fill="#f57c00"/><g fill="#d84315"><path d="m226.988281 213.332031c5.285157 2.679688 9.277344 7.363281 11.089844 13.007813 4.320313 14.078125-7.113281 30.207031-25.386719 36.078125-18.269531 5.871093-36.691406-.855469-41.042968-14.960938-3.933594-12.714843 5.058593-27.1875 20.523437-34.132812 8.753906 6.054687 20.074219 6.976562 29.695313 2.425781zm0 0"/><path d="m285.011719 213.332031c-5.285157 2.679688-9.277344 7.363281-11.089844 13.007813-4.320313 14.078125 7.113281 30.207031 25.386719 36.078125 18.269531 5.871093 36.734375-.855469 41.042968-14.960938 3.933594-12.714843-5.058593-27.1875-20.523437-34.132812-8.753906 6.054687-20.074219 6.976562-29.695313 2.425781zm0 0"/><path d="m273.066406 298.667969c0 9.425781-7.640625 17.066406-17.066406 17.066406s-17.066406-7.640625-17.066406-17.066406c0-9.386719 7.636718-25.601563 17.066406-25.601563s17.066406 16.214844 17.066406 25.601563zm0 0"/></g><path d="m256 512c-141.386719 0-256-114.613281-256-256s114.613281-256 256-256 256 114.613281 256 256c-.160156 141.320312-114.679688 255.839844-256 256zm0-494.933594c-131.960938 0-238.933594 106.972656-238.933594 238.933594s106.972656 238.933594 238.933594 238.933594 238.933594-106.972656 238.933594-238.933594c-.152344-131.898438-107.035156-238.78125-238.933594-238.933594zm0 0"/><path d="m256 460.800781c-113.109375 0-204.800781-91.691406-204.800781-204.800781s91.691406-204.800781 204.800781-204.800781 204.800781 91.691406 204.800781 204.800781c-.132812 113.054688-91.746093 204.667969-204.800781 204.800781zm0-392.535156c-103.683594 0-187.734375 84.050781-187.734375 187.734375s84.050781 187.734375 187.734375 187.734375 187.734375-84.050781 187.734375-187.734375c-.117187-103.632812-84.101563-187.617188-187.734375-187.734375zm0 0"/><path d="m319.054688 413.910156c-4.066407.007813-7.574219-2.855468-8.382813-6.839844-.804687-3.988281 1.3125-7.988281 5.0625-9.5625 10.300781-4.363281 20.089844-9.839843 29.199219-16.332031 3.84375-2.730469 9.171875-1.824219 11.902344 2.019531 2.726562 3.839844 1.824218 9.167969-2.019532 11.898438-10.117187 7.214844-20.988281 13.300781-32.425781 18.148438-1.058594.445312-2.191406.671874-3.335937.667968zm0 0"/><path d="m384 363.9375c-1.898438.007812-3.738281-.628906-5.230469-1.800781-3.703125-2.890625-4.367187-8.230469-1.492187-11.945313 20.992187-26.90625 32.371094-60.066406 32.324218-94.191406 0-4.710938 3.820313-8.535156 8.53125-8.535156 4.714844 0 8.535157 3.824218 8.535157 8.535156.035156 37.917969-12.613281 74.757812-35.933594 104.652344-1.621094 2.074218-4.105469 3.285156-6.734375 3.285156zm0 0"/><path d="m256 34.132812c-4.710938 0-8.535156-3.820312-8.535156-8.53125v-17.066406c0-4.714844 3.824218-8.535156 8.535156-8.535156s8.535156 3.820312 8.535156 8.535156v17.066406c0 4.710938-3.824218 8.53125-8.535156 8.53125zm0 0"/><path d="m256 512c-4.710938 0-8.535156-3.820312-8.535156-8.535156v-17.066406c0-4.710938 3.824218-8.53125 8.535156-8.53125s8.535156 3.820312 8.535156 8.53125v17.066406c0 4.714844-3.824218 8.535156-8.535156 8.535156zm0 0"/><path d="m177.203125 48.035156c-3.589844 0-6.792969-2.242187-8.019531-5.617187l-5.839844-16.042969c-1.503906-4.394531.789062-9.191406 5.15625-10.78125s9.203125.609375 10.878906 4.945312l5.835938 16.035157c.957031 2.617187.574218 5.535156-1.019532 7.816406-1.597656 2.28125-4.207031 3.640625-6.992187 3.644531zm0 0"/><path d="m340.640625 497.074219c-3.585937.003906-6.792969-2.242188-8.019531-5.613281l-5.792969-16.035157c-1.582031-4.417969.699219-9.285156 5.109375-10.894531 4.410156-1.605469 9.289062.648438 10.921875 5.050781l5.839844 16.042969c.769531 2.128906.664062 4.476562-.296875 6.523438-.960938 2.050781-2.695313 3.636718-4.824219 4.40625-.941406.347656-1.933594.523437-2.9375.519531zm0 0"/><path d="m107.914062 88.039062c-2.53125.003907-4.929687-1.117187-6.554687-3.054687l-10.964844-13.074219c-3.027343-3.613281-2.554687-8.996094 1.058594-12.023437 3.609375-3.027344 8.992187-2.554688 12.023437 1.058593l10.964844 13.074219c2.132813 2.539063 2.597656 6.082031 1.199219 9.085938-1.398437 3.007812-4.414063 4.929687-7.726563 4.933593zm0 0"/><path d="m415.078125 454.101562c-2.527344.003907-4.929687-1.109374-6.554687-3.046874l-10.964844-13.074219c-1.957032-2.335938-2.519532-5.539063-1.476563-8.40625 1.042969-2.863281 3.539063-4.953125 6.539063-5.480469 3.003906-.527344 6.0625.585938 8.019531 2.921875l10.964844 13.074219c2.128906 2.539062 2.59375 6.078125 1.195312 9.082031-1.402343 3.003906-4.410156 4.921875-7.722656 4.929687zm0 0"/><path d="m56.457031 149.332031c-1.5.003907-2.972656-.390625-4.265625-1.140625l-14.773437-8.535156c-4.046875-2.371094-5.417969-7.566406-3.074219-11.628906 2.347656-4.0625 7.53125-5.46875 11.609375-3.152344l14.769531 8.535156c3.34375 1.929688 4.976563 5.867188 3.976563 9.597656-1 3.730469-4.378907 6.324219-8.242188 6.324219zm0 0"/><path d="m470.296875 388.265625c-1.496094.003906-2.96875-.390625-4.265625-1.140625l-14.773438-8.535156c-2.660156-1.511719-4.308593-4.335938-4.3125-7.398438-.007812-3.0625 1.625-5.894531 4.28125-7.417968 2.65625-1.527344 5.925782-1.511719 8.566407.035156l14.769531 8.535156c3.347656 1.929688 4.976562 5.867188 3.976562 9.597656-1 3.730469-4.378906 6.324219-8.242187 6.324219zm0 0"/><path d="m29.105469 224.527344c-.5.003906-1-.042969-1.492188-.136719l-16.800781-2.960937c-4.644531-.816407-7.742188-5.242188-6.925781-9.882813.816406-4.644531 5.242187-7.742187 9.886719-6.925781l16.808593 2.96875c4.363281.765625 7.414063 4.738281 7.03125 9.148437-.386719 4.410157-4.078125 7.792969-8.507812 7.789063zm0 0"/><path d="m499.71875 307.507812c-.5 0-1-.042968-1.492188-.128906l-16.808593-2.96875c-3.058594-.472656-5.621094-2.5625-6.699219-5.460937-1.078125-2.898438-.503906-6.15625 1.503906-8.507813 2.007813-2.355468 5.128906-3.4375 8.164063-2.832031l16.800781 2.960937c4.359375.761719 7.410156 4.730469 7.03125 9.140626-.382812 4.410156-4.074219 7.792968-8.5 7.796874zm0 0"/><path d="m12.28125 307.507812c-4.425781-.003906-8.117188-3.386718-8.5-7.796874-.378906-4.410157 2.671875-8.378907 7.03125-9.140626l16.800781-2.996093c3.035157-.605469 6.15625.476562 8.164063 2.832031 2.007812 2.355469 2.582031 5.609375 1.503906 8.507812-1.078125 2.902344-3.640625 4.988282-6.699219 5.460938l-16.808593 2.96875c-.492188.097656-.992188.152344-1.492188.164062zm0 0"/><path d="m482.894531 224.527344c-4.429687.003906-8.121093-3.378906-8.507812-7.789063-.382813-4.410156 2.667969-8.382812 7.03125-9.148437l16.808593-2.96875c4.644532-.816406 9.070313 2.28125 9.886719 6.925781.816407 4.640625-2.28125 9.066406-6.925781 9.882813l-16.800781 2.960937c-.492188.09375-.992188.140625-1.492188.136719zm0 0"/><path d="m41.703125 388.265625c-3.863281 0-7.242187-2.59375-8.242187-6.324219-1-3.730468.628906-7.667968 3.976562-9.597656l14.769531-8.535156c2.640625-1.546875 5.910157-1.5625 8.566407-.035156 2.65625 1.523437 4.289062 4.355468 4.28125 7.417968-.003907 3.0625-1.652344 5.886719-4.3125 7.398438l-14.773438 8.535156c-1.296875.75-2.769531 1.144531-4.265625 1.140625zm0 0"/><path d="m455.542969 149.332031c-3.863281 0-7.242188-2.59375-8.242188-6.324219-1-3.730468.632813-7.667968 3.976563-9.597656l14.769531-8.535156c4.078125-2.316406 9.261719-.910156 11.609375 3.152344 2.34375 4.0625.972656 9.257812-3.074219 11.628906l-14.773437 8.535156c-1.292969.75-2.765625 1.144532-4.265625 1.140625zm0 0"/><path d="m96.921875 454.101562c-3.3125-.007812-6.320313-1.925781-7.722656-4.929687-1.398438-3.003906-.933594-6.542969 1.195312-9.082031l10.964844-13.074219c3.027344-3.613281 8.410156-4.085937 12.023437-1.058594 3.613282 3.03125 4.085938 8.414063 1.058594 12.023438l-10.964844 13.074219c-1.625 1.9375-4.027343 3.050781-6.554687 3.046874zm0 0"/><path d="m404.085938 88.039062c-3.3125-.003906-6.328126-1.925781-7.726563-4.933593-1.398437-3.003907-.933594-6.546875 1.199219-9.085938l10.964844-13.074219c3.03125-3.613281 8.414062-4.085937 12.023437-1.058593 3.613281 3.027343 4.085937 8.410156 1.058594 12.023437l-10.964844 13.074219c-1.625 1.9375-4.023437 3.058594-6.554687 3.054687zm0 0"/><path d="m171.359375 497.074219c-.996094.003906-1.984375-.171875-2.917969-.519531-2.128906-.769532-3.867187-2.355469-4.828125-4.40625-.957031-2.046876-1.066406-4.394532-.292969-6.523438l5.835938-16.042969c1.632812-4.402343 6.511719-6.65625 10.921875-5.050781 4.410156 1.609375 6.695313 6.476562 5.113281 10.894531l-5.835937 16.035157c-1.226563 3.363281-4.417969 5.605468-7.996094 5.613281zm0 0"/><path d="m334.796875 48.035156c-2.777344-.015625-5.375-1.382812-6.960937-3.660156-1.585938-2.28125-1.960938-5.191406-1.007813-7.800781l5.835937-16.035157c1.671876-4.335937 6.511719-6.535156 10.878907-4.945312 4.367187 1.589844 6.660156 6.386719 5.15625 10.78125l-5.839844 16.042969c-1.230469 3.386719-4.457031 5.636719-8.0625 5.617187zm0 0"/><path d="m256 392.535156c-18.824219 0-51.523438-1.820312-59.050781-14.03125-2.453125-3.980468-2.609375-8.964844-.410157-13.089844 3.773438-6.300781 4.480469-13.96875 1.929688-20.855468-.570312-.914063-2.289062-3.6875-9.121094-3.6875-15.011718 0-27.980468 0-35.398437-9.503906-6.902344-8.859376-4.726563-21.71875-2.492188-30.625 2.160157-8.59375-.519531-12.921876-6.824219-21.863282-8.535156-12.179687-20.226562-28.851562-15.609374-65.707031 8.363281-66.246094 59.359374-110.773437 126.976562-110.773437s118.613281 44.527343 126.949219 110.789062c4.617187 36.839844-7.074219 53.511719-15.605469 65.707031-6.28125 8.941407-8.960938 13.269531-6.828125 21.863281 2.238281 8.910157 4.414063 21.769532-2.492187 30.625-7.414063 9.507813-20.386719 9.507813-35.394532 9.507813-6.828125 0-8.535156 2.773437-9.121094 3.683594-2.554687 6.886719-1.84375 14.558593 1.925782 20.855469 2.199218 4.128906 2.042968 9.109374-.410156 13.09375-7.5 12.191406-40.199219 14.011718-59.023438 14.011718zm-42.914062-22.257812c13.960937 3.894531 28.429687 5.644531 42.914062 5.1875 14.484375.449218 28.953125-1.300782 42.914062-5.1875-5.355468-10.945313-5.320312-23.761719.09375-34.679688 5.121094-7.96875 14.199219-12.496094 23.644532-11.792968 9.210937 0 19.628906 0 21.941406-2.933594.605469-.777344 2.347656-4.226563-.597656-15.984375-3.03125-12.761719.488281-26.199219 9.386718-35.839844 7.679688-11 16.453126-23.464844 12.65625-53.757813-7.332031-58.199218-50.511718-95.824218-110.039062-95.824218s-102.707031 37.625-110.019531 95.847656c-3.796875 30.300781 4.949219 42.769531 12.652343 53.761719 8.902344 9.636719 12.421876 23.074219 9.386719 35.839843-2.941406 11.757813-1.203125 15.207032-.59375 15.980469 2.292969 2.9375 12.730469 2.9375 21.9375 2.9375 9.449219-.707031 18.523438 3.820313 23.644531 11.792969 5.398438 10.914062 5.429688 23.714844.078126 34.652344zm0 0"/><path d="m199.304688 273.066406c-6.96875.070313-13.851563-1.542968-20.0625-4.710937-7.535157-3.757813-13.234376-10.398438-15.8125-18.414063-5.214844-16.820312 5.367187-35.507812 25.191406-44.375 2.714844-1.214844 5.867187-.929687 8.320312.753906 6.265625 4.359376 14.390625 5.011719 21.273438 1.707032l5.121094-2.40625c2.441406-1.164063 5.289062-1.101563 7.679687.167968 7.242187 3.75 12.710937 10.214844 15.207031 17.980469 5.664063 18.515625-8.21875 39.464844-30.925781 46.761719-5.167969 1.660156-10.5625 2.515625-15.992187 2.535156zm-7.46875-49.996094c-8.464844 3.753907-13.40625 12.675782-12.097657 21.84375 1.257813 3.660157 3.933594 6.660157 7.421875 8.328126 7.203125 3.300781 15.402344 3.671874 22.871094 1.035156 13.652344-4.371094 22.714844-16.035156 19.839844-25.457032-.703125-2.183593-1.964844-4.144531-3.660156-5.691406l-.675782.324219c-10.675781 5.136719-23.136718 4.996094-33.699218-.375zm0 0"/><path d="m312.695312 273.066406c-5.410156-.027344-10.785156-.890625-15.929687-2.558594-22.71875-7.304687-36.601563-28.253906-30.953125-46.710937 2.488281-7.792969 7.960938-14.28125 15.222656-18.042969 2.390625-1.269531 5.238282-1.332031 7.683594-.167968l5.117188 2.414062c6.882812 3.300781 15.007812 2.648438 21.273437-1.707031 2.453125-1.683594 5.605469-1.96875 8.320313-.75 19.824218 8.890625 30.40625 27.578125 25.183593 44.433593-2.582031 8-8.28125 14.625-15.804687 18.378907-6.226563 3.175781-13.125 4.789062-20.113282 4.710937zm-26.90625-49.9375c-1.707031 1.566406-2.972656 3.550782-3.667968 5.761719-2.867188 9.386719 6.21875 21.015625 19.855468 25.394531 7.46875 2.628906 15.664063 2.257813 22.863282-1.042968 3.480468-1.660157 6.152344-4.648438 7.414062-8.292969 1.320313-9.175781-3.621094-18.113281-12.089844-21.878907-10.5625 5.371094-23.019531 5.511719-33.699218.382813zm0 0"/><path d="m256 324.265625c-14.136719 0-25.601562-11.460937-25.601562-25.597656 0-13.585938 10.242187-34.132813 25.601562-34.132813s25.601562 20.546875 25.601562 34.132813c0 14.136719-11.464843 25.597656-25.601562 25.597656zm0-42.664063c-2.703125.367188-8.535156 10.066407-8.535156 17.066407 0 4.710937 3.824218 8.53125 8.535156 8.53125s8.535156-3.820313 8.535156-8.53125c0-7-5.804687-16.699219-8.535156-17.066407zm0 0"/><path d="m238.933594 391.851562c-4.714844 0-8.535156-3.820312-8.535156-8.535156v-24.917968c0-4.710938 3.820312-8.53125 8.535156-8.53125 4.710937 0 8.53125 3.820312 8.53125 8.53125v24.917968c0 4.714844-3.820313 8.535156-8.53125 8.535156zm0 0"/><path d="m273.066406 391.851562c-4.710937 0-8.53125-3.820312-8.53125-8.535156v-24.917968c0-4.710938 3.820313-8.53125 8.53125-8.53125 4.714844 0 8.535156 3.820312 8.535156 8.53125v24.917968c0 4.714844-3.820312 8.535156-8.535156 8.535156zm0 0"/></svg>