<svg height="512pt" viewBox="0 0 512 512" width="512pt" xmlns="http://www.w3.org/2000/svg"><path d="m290.132812 413.78125v47.019531l-34.132812 42.664063-34.136719-42.664063v-47.019531zm0 0" fill="#cfd8dc" fill-rule="evenodd"/><path d="m290.132812 413.78125v47.019531l-34.132812 42.664063v-89.683594zm0 0" fill="#607d8b" fill-rule="evenodd"/><path d="m418.898438 264.535156-42.578126 76.796875c-31.320312 35.839844-78.933593 69.546875-120.320312 93.867188-4.183594-2.472657-8.449219-5.035157-12.800781-7.765625-39.734375-23.464844-75.9375-52.457032-107.519531-86.101563l-42.582032-76.796875c-14.761718-47.363281-8.363281-90.457031 19.199219-114.773437 13.984375-11.75 31.160156-19.0625 49.324219-20.992188 8.671875-1.039062 17.441406-1.011719 26.109375.082031h136.535156c.171875 0 .339844-.082031.511719-.082031 26.808594-3.746093 53.964844 3.859375 74.921875 20.992188 27.5625 24.316406 33.964843 67.410156 19.199219 114.773437zm0 0" fill="#ad1457" fill-rule="evenodd"/><path d="m393.300781 264.535156-42.582031 76.796875c-31.585938 33.644531-67.785156 62.636719-107.519531 86.101563-39.734375-23.464844-75.9375-52.457032-107.519531-86.101563l-42.582032-76.796875c-14.761718-47.363281-8.363281-90.457031 19.199219-114.773437 13.984375-11.75 31.160156-19.0625 49.324219-20.992188.167968 0 .339844.082031.511718.082031h136.53125c8.667969-1.09375 17.4375-1.121093 26.113282-.082031 18.164062 1.929688 35.335937 9.242188 49.324218 20.992188 27.5625 24.316406 33.960938 67.410156 19.199219 114.773437zm0 0" fill="#e91e63" fill-rule="evenodd"/><path d="m221.863281 145.066406h68.269531v76.800782h-68.269531zm0 0" fill="#cfd8dc"/><path d="m281.597656 38.398438v81.066406h-51.199218v-29.863282zm0 0" fill="#795548" fill-rule="evenodd"/><path d="m281.597656 42.667969-51.199218 51.199219v-51.199219zm0 0" fill="#795548" fill-rule="evenodd"/><path d="m495.699219 388.179688c1.5625 2.640624 1.59375 5.914062.074219 8.578124-1.515626 2.664063-4.347657 4.308594-7.414063 4.308594h-23.550781c3.066406 0 5.898437-1.644531 7.414062-4.308594 1.515625-2.664062 1.488282-5.9375-.074218-8.578124l-15.277344-25.425782c-1.621094-2.675781-1.621094-6.03125 0-8.707031l15.277344-25.429687c1.5625-2.636719 1.589843-5.910157.074218-8.574219-1.515625-2.664063-4.347656-4.308594-7.414062-4.308594h23.550781c3.066406 0 5.898437 1.644531 7.414063 4.308594 1.519531 2.664062 1.488281 5.9375-.074219 8.574219l-15.1875 25.429687c-1.621094 2.675781-1.621094 6.03125 0 8.707031zm0 0" fill="#00695c" fill-rule="evenodd"/><path d="m472.148438 388.179688c1.5625 2.640624 1.589843 5.914062.074218 8.578124-1.515625 2.664063-4.347656 4.308594-7.414062 4.308594h-55.210938l42.667969-59.734375h-392.535156l42.667969 59.734375h-78.761719c-3.066407 0-5.898438-1.644531-7.414063-4.308594-1.519531-2.664062-1.488281-5.9375.074219-8.578124l7.339844-12.285157v-34.988281l-7.339844-12.289062c-1.5625-2.636719-1.59375-5.910157-.074219-8.574219 1.515625-2.664063 4.347656-4.308594 7.414063-4.308594h441.171875c3.066406 0 5.898437 1.644531 7.414062 4.308594 1.515625 2.664062 1.488282 5.9375-.074218 8.574219l-15.277344 25.429687c-1.621094 2.675781-1.621094 6.03125 0 8.707031zm0 0" fill="#009688" fill-rule="evenodd"/><path d="m256 145.066406h34.132812v76.800782h-34.132812zm0 0" fill="#607d8b"/><g fill-rule="evenodd"><path d="m324.265625 128c-.070313 9.398438-7.671875 16.996094-17.066406 17.066406h-102.402344c-9.414063-.027344-17.035156-7.652344-17.066406-17.066406.070312-9.398438 7.671875-16.996094 17.066406-17.066406h102.402344c9.414062.027344 17.039062 7.652344 17.066406 17.066406zm0 0" fill="#ff9801"/><path d="m298.664062 128c-.070312 9.398438-7.667968 16.996094-17.066406 17.066406h-76.800781c-9.414063-.027344-17.035156-7.652344-17.066406-17.066406.070312-9.398438 7.671875-16.996094 17.066406-17.066406h76.800781c9.414063.027344 17.039063 7.652344 17.066406 17.066406zm0 0" fill="#fec108"/><path d="m307.199219 25.601562c.023437 4.527344-1.792969 8.871094-5.035157 12.03125-3.160156 3.242188-7.503906 5.058594-12.03125 5.035157h-68.269531c-9.414062-.03125-17.035156-7.652344-17.066406-17.066407-.023437-4.527343 1.792969-8.871093 5.035156-12.035156 3.164063-3.238281 7.503907-5.058594 12.03125-5.03125h68.269531c9.414063.027344 17.039063 7.652344 17.066407 17.066406zm0 0" fill="#ff9801"/><path d="m281.597656 25.601562c.023438 4.527344-1.792968 8.871094-5.035156 12.03125-3.160156 3.242188-7.503906 5.058594-12.03125 5.035157h-42.667969c-9.414062-.03125-17.035156-7.652344-17.066406-17.066407-.023437-4.527343 1.792969-8.871093 5.035156-12.035156 3.164063-3.238281 7.503907-5.058594 12.03125-5.03125h42.667969c9.414062.027344 17.039062 7.652344 17.066406 17.066406zm0 0" fill="#fec108"/><path d="m102.398438 341.332031v59.734375l-42.667969-59.734375zm0 0" fill="#009688"/><path d="m452.265625 273.066406v68.265625h-392.535156v-68.265625c0-4.710937 3.820312-8.53125 8.535156-8.53125h375.464844c4.714843 0 8.535156 3.820313 8.535156 8.53125zm0 0" fill="#2e7d32"/><path d="m426.664062 273.066406v68.265625h-366.933593v-68.265625c0-4.710937 3.820312-8.53125 8.535156-8.53125h349.867187c4.710938 0 8.53125 3.820313 8.53125 8.53125zm0 0" fill="#4caf50"/><path d="m452.265625 341.332031-42.667969 59.734375v-59.734375zm0 0" fill="#009688"/></g><path d="m93.097656 273.066406c-3.730468.003906-7.03125-2.414062-8.148437-5.972656-16.011719-51.371094-7.894531-97.621094 21.714843-123.734375 22.882813-18.882813 52.671876-27.230469 82.03125-22.988281 3.027344.363281 5.632813 2.3125 6.832032 5.117187 1.199218 2.800781.8125 6.03125-1.015625 8.472657-1.828125 2.441406-4.820313 3.71875-7.847657 3.359374-24.53125-3.546874-49.433593 3.277344-68.726562 18.839844-24.398438 21.53125-30.644531 61.089844-16.691406 105.8125.675781 2.160156.464844 4.503906-.585938 6.507813-1.054687 2.007812-2.859375 3.511719-5.019531 4.183593-.824219.257813-1.679687.394532-2.542969.402344zm0 0"/><path d="m418.898438 273.066406c-.867188 0-1.730469-.128906-2.558594-.382812-2.160156-.675782-3.96875-2.179688-5.019532-4.183594-1.050781-2.007812-1.261718-4.347656-.585937-6.507812 13.949219-44.742188 7.679687-84.300782-16.691406-105.816407-19.292969-15.554687-44.191407-22.382812-68.71875-18.839843-2.433594.292968-4.875-.460938-6.71875-2.078126-1.839844-1.613281-2.90625-3.9375-2.933594-6.386718-.015625-4.460938 3.410156-8.179688 7.859375-8.535156 29.292969-4.183594 58.992188 4.175781 81.800781 23.023437 29.601563 26.113281 37.71875 72.363281 21.707031 123.734375-1.117187 3.554688-4.414062 5.972656-8.140624 5.972656zm0 0"/><path d="m256 443.734375c-1.523438 0-3.015625-.40625-4.328125-1.179687-29.867187-17.535157-85.445313-53.28125-122.417969-95.574219-2.027344-2.292969-2.667968-5.492188-1.683594-8.390625.980469-2.894532 3.441407-5.042969 6.445313-5.632813 3-.585937 6.085937.480469 8.089844 2.796875 33.707031 38.570313 84.144531 71.78125 113.894531 89.597656 29.746094-17.773437 80.210938-50.984374 113.894531-89.597656 3.105469-3.519531 8.472657-3.867187 12.007813-.777344 3.539062 3.089844 3.914062 8.453126.839844 12.003907-36.972657 42.328125-92.566407 78.074219-122.417969 95.574219-1.3125.773437-2.804688 1.179687-4.324219 1.179687zm0 0"/><path d="m290.132812 230.398438h-68.269531c-4.710937 0-8.53125-3.820313-8.53125-8.53125v-76.800782c0-4.710937 3.820313-8.53125 8.53125-8.53125h68.269531c4.710938 0 8.53125 3.820313 8.53125 8.53125v76.800782c0 4.710937-3.820312 8.53125-8.53125 8.53125zm-59.734374-17.066407h51.199218v-59.730469h-51.199218zm0 0"/><path d="m315.730469 230.398438h-119.464844c-4.714844 0-8.535156-3.820313-8.535156-8.53125 0-4.714844 3.820312-8.535157 8.535156-8.535157h119.464844c4.714843 0 8.535156 3.820313 8.535156 8.535157 0 4.710937-3.820313 8.53125-8.535156 8.53125zm0 0"/><path d="m256 230.398438c-4.714844 0-8.535156-3.820313-8.535156-8.53125v-42.667969c0-4.710938 3.820312-8.53125 8.535156-8.53125 4.710938 0 8.53125 3.820312 8.53125 8.53125v42.667969c0 4.710937-3.820312 8.53125-8.53125 8.53125zm0 0"/><path d="m256 512c-2.59375 0-5.046875-1.175781-6.667969-3.199219l-34.132812-42.667969c-1.210938-1.511718-1.867188-3.394531-1.867188-5.332031v-47.019531c0-4.710938 3.820313-8.535156 8.53125-8.535156 4.714844 0 8.535157 3.824218 8.535157 8.535156v44.023438l25.601562 32 25.597656-32v-44.023438c0-4.710938 3.820313-8.535156 8.535156-8.535156 4.710938 0 8.53125 3.824218 8.53125 8.535156v47.019531c0 1.9375-.65625 3.820313-1.867187 5.332031l-34.132813 42.667969c-1.621093 2.023438-4.074218 3.199219-6.664062 3.199219zm0 0"/><path d="m256 460.800781c-4.714844 0-8.535156-3.820312-8.535156-8.535156v-17.066406c0-4.710938 3.820312-8.53125 8.535156-8.53125 4.710938 0 8.53125 3.820312 8.53125 8.53125v17.066406c0 4.714844-3.820312 8.535156-8.53125 8.535156zm0 0"/><path d="m307.199219 153.601562h-102.402344c-14.136719 0-25.597656-11.464843-25.597656-25.601562s11.460937-25.601562 25.597656-25.601562h102.402344c14.136719 0 25.597656 11.464843 25.597656 25.601562s-11.460937 25.601562-25.597656 25.601562zm-102.402344-34.136718c-4.710937 0-8.53125 3.824218-8.53125 8.535156s3.820313 8.535156 8.53125 8.535156h102.402344c4.710937 0 8.53125-3.824218 8.53125-8.535156s-3.820313-8.535156-8.53125-8.535156zm0 0"/><path d="m290.132812 51.199219h-68.269531c-14.136719 0-25.597656-11.460938-25.597656-25.597657 0-14.140624 11.460937-25.601562 25.597656-25.601562h68.269531c14.136719 0 25.597657 11.460938 25.597657 25.601562 0 14.136719-11.460938 25.597657-25.597657 25.597657zm-68.269531-34.132813c-4.710937 0-8.53125 3.820313-8.53125 8.535156 0 4.710938 3.820313 8.53125 8.53125 8.53125h68.269531c4.710938 0 8.53125-3.820312 8.53125-8.53125 0-4.714843-3.820312-8.535156-8.53125-8.535156zm0 0"/><path d="m281.597656 119.464844h-51.199218c-4.710938 0-8.535157-3.820313-8.535157-8.53125v-68.265625c0-4.714844 3.824219-8.535157 8.535157-8.535157h51.199218c4.714844 0 8.535156 3.820313 8.535156 8.535157v68.265625c0 4.710937-3.820312 8.53125-8.535156 8.53125zm-42.664062-17.066406h34.132812v-51.199219h-34.132812zm0 0"/><path d="m230.398438 102.398438c-3.449219 0-6.5625-2.078126-7.882813-5.265626s-.589844-6.859374 1.851563-9.300781l51.199218-51.199219c2.140625-2.21875 5.3125-3.105468 8.296875-2.328124 2.984375.78125 5.3125 3.113281 6.09375 6.097656.78125 2.980468-.105469 6.15625-2.324219 8.296875l-51.203124 51.199219c-1.597657 1.601562-3.769532 2.5-6.03125 2.5zm0 0"/><path d="m102.398438 409.601562h-93.867188c-3.074219-.003906-5.910156-1.65625-7.425781-4.332031-1.511719-2.679687-1.46875-5.960937.113281-8.597656l22.964844-38.273437-22.964844-38.269532c-1.582031-2.636718-1.625-5.921875-.113281-8.597656 1.515625-2.675781 4.351562-4.332031 7.425781-4.332031h51.199219c4.714843 0 8.535156 3.820312 8.535156 8.535156 0 4.710937-3.820313 8.53125-8.535156 8.53125h-36.121094l17.835937 29.738281c1.625 2.707032 1.625 6.085938 0 8.789063l-17.835937 29.742187h70.253906v-51.203125c0-4.710937 3.824219-8.53125 8.535157-8.53125 4.710937 0 8.535156 3.820313 8.535156 8.53125v59.734375c0 4.714844-3.824219 8.535156-8.535156 8.535156zm0 0"/><path d="m256 349.867188h-196.269531c-4.710938 0-8.53125-3.820313-8.53125-8.535157v-76.796875c0-4.714844 3.820312-8.535156 8.53125-8.535156h196.269531c4.710938 0 8.53125 3.820312 8.53125 8.535156 0 4.710938-3.820312 8.53125-8.53125 8.53125h-187.734375v59.734375h187.734375c4.710938 0 8.53125 3.820313 8.53125 8.53125 0 4.714844-3.820312 8.535157-8.53125 8.535157zm0 0"/><path d="m102.398438 409.601562c-2.757813 0-5.34375-1.332031-6.945313-3.578124l-42.667969-59.730469c-1.914062-2.472657-2.324218-5.796875-1.066406-8.65625 1.257812-2.863281 3.980469-4.808594 7.097656-5.074219 3.117188-.261719 6.125 1.203125 7.84375 3.8125l42.667969 59.734375c1.855469 2.597656 2.105469 6.015625.644531 8.855469-1.457031 2.839844-4.382812 4.628906-7.574218 4.636718zm0 0"/><path d="m503.464844 409.601562h-93.867188c-4.710937 0-8.53125-3.820312-8.53125-8.535156v-59.734375c0-4.710937 3.820313-8.53125 8.53125-8.53125 4.714844 0 8.535156 3.820313 8.535156 8.53125v51.203125h70.253907l-17.835938-29.742187c-1.625-2.703125-1.625-6.082031 0-8.789063l17.835938-29.738281h-36.121094c-4.714844 0-8.535156-3.820313-8.535156-8.53125 0-4.714844 3.820312-8.535156 8.535156-8.535156h51.199219c3.074218 0 5.910156 1.65625 7.425781 4.332031s1.472656 5.960938-.113281 8.597656l-22.960938 38.269532 22.960938 38.273437c1.585937 2.636719 1.628906 5.917969.113281 8.597656-1.515625 2.675781-4.351563 4.328125-7.425781 4.332031zm0 0"/><path d="m452.265625 349.867188h-196.265625c-4.714844 0-8.535156-3.820313-8.535156-8.535157 0-4.710937 3.820312-8.53125 8.535156-8.53125h187.730469v-59.734375h-187.730469c-4.714844 0-8.535156-3.820312-8.535156-8.53125 0-4.714844 3.820312-8.535156 8.535156-8.535156h196.265625c4.710937 0 8.53125 3.820312 8.53125 8.535156v76.796875c0 4.714844-3.820313 8.535157-8.53125 8.535157zm0 0"/><path d="m409.597656 409.601562c-3.191406-.007812-6.113281-1.796874-7.574218-4.636718-1.457032-2.839844-1.210938-6.257813.644531-8.855469l42.667969-59.734375c1.71875-2.609375 4.730468-4.074219 7.84375-3.8125 3.117187.265625 5.839843 2.210938 7.097656 5.074219 1.257812 2.859375.847656 6.183593-1.066406 8.65625l-42.667969 59.730469c-1.601563 2.246093-4.1875 3.578124-6.945313 3.578124zm0 0"/></svg>