<svg height="512pt" viewBox="-94 0 512 512" width="512pt" xmlns="http://www.w3.org/2000/svg"><path d="m34.132812 171.691406h256v314.707032h-256zm0 0" fill="#1566c0"/><path d="m34.132812 171.691406h230.402344v314.707032h-230.402344zm0 0" fill="#2296f3"/><path d="m256 221.867188v204.800781c0 4.710937-3.820312 8.53125-8.535156 8.53125h-170.664063c-4.714843 0-8.535156-3.820313-8.535156-8.53125v-204.800781c0-4.714844 3.820313-8.535157 8.535156-8.535157h170.664063c4.714844 0 8.535156 3.820313 8.535156 8.535157zm0 0" fill="#fec108"/><path d="m315.734375 486.398438v17.066406h-307.199219v-17.066406c.027344-9.414063 7.652344-17.035157 17.066406-17.066407h273.066407c9.414062.03125 17.039062 7.652344 17.066406 17.066407zm0 0" fill="#283593"/><path d="m290.132812 486.398438v17.066406h-281.597656v-17.066406c.027344-9.414063 7.652344-17.035157 17.066406-17.066407h247.464844c9.414063.03125 17.039063 7.652344 17.066406 17.066407zm0 0" fill="#3f51b5"/><path d="m315.734375 153.601562v8.53125c-.027344 9.414063-7.652344 17.039063-17.066406 17.066407h-273.066407c-9.414062-.027344-17.039062-7.652344-17.066406-17.066407v-8.53125c0-4.714843 3.820313-8.535156 8.53125-8.535156h290.132813c4.714843 0 8.535156 3.820313 8.535156 8.535156zm0 0" fill="#283593"/><path d="m290.132812 153.601562v8.53125c-.027343 9.414063-7.652343 17.039063-17.066406 17.066407h-247.464844c-9.414062-.027344-17.039062-7.652344-17.066406-17.066407v-8.53125c0-4.714843 3.820313-8.535156 8.53125-8.535156h264.535156c4.710938 0 8.53125 3.820313 8.53125 8.535156zm0 0" fill="#3f51b5"/><path d="m162.132812 110.933594c14.140626 0 25.601563 11.460937 25.601563 25.601562v8.53125h-51.199219v-8.53125c0-14.140625 11.460938-25.601562 25.597656-25.601562zm0 0" fill="#3f51b5"/><path d="m187.734375 295.253906c-1.566406 12.640625-12.925781 21.730469-25.601563 20.480469-12.675781 1.25-24.035156-7.839844-25.597656-20.480469 0-11.308594 25.597656-47.789062 25.597656-47.789062s25.601563 36.480468 25.601563 47.789062zm0 0" fill="#d84315"/><path d="m204.800781 366.933594v68.265625h-85.335937v-68.265625c.03125-9.414063 7.65625-17.039063 17.070312-17.066406h51.199219c9.414063.027343 17.039063 7.652343 17.066406 17.066406zm0 0" fill="#ffeb3a"/><path d="m290.132812 477.867188h-256c-4.710937 0-8.53125-3.820313-8.53125-8.535157v-290.132812c0-4.710938 3.820313-8.53125 8.53125-8.53125h256c4.714844 0 8.535157 3.820312 8.535157 8.53125v290.132812c0 4.714844-3.820313 8.535157-8.535157 8.535157zm-247.464843-17.066407h238.933593v-273.066406h-238.933593zm0 0"/><path d="m315.734375 512h-307.199219c-4.714844 0-8.535156-3.820312-8.535156-8.535156v-17.066406c0-14.136719 11.460938-25.597657 25.601562-25.597657h273.066407c14.136719 0 25.597656 11.460938 25.597656 25.597657v17.066406c0 4.714844-3.820313 8.535156-8.53125 8.535156zm-298.667969-17.066406h290.132813v-8.535156c0-4.710938-3.820313-8.53125-8.53125-8.53125h-273.066407c-4.714843 0-8.535156 3.820312-8.535156 8.53125zm0 0"/><path d="m298.667969 187.734375h-273.066407c-14.140624 0-25.601562-11.460937-25.601562-25.601563v-8.53125c0-9.425781 7.640625-17.066406 17.066406-17.066406h290.132813c9.425781 0 17.066406 7.640625 17.066406 17.066406v8.53125c0 14.140626-11.460937 25.601563-25.597656 25.601563zm-281.601563-34.132813v8.53125c0 4.714844 3.820313 8.535157 8.535156 8.535157h273.066407c4.710937 0 8.53125-3.820313 8.53125-8.535157v-8.53125zm0 0"/><path d="m204.800781 443.734375h-85.335937c-4.710938 0-8.53125-3.820313-8.53125-8.535156v-68.265625c0-14.140625 11.460937-25.601563 25.601562-25.601563h51.199219c14.136719 0 25.597656 11.460938 25.597656 25.601563v68.265625c0 4.714843-3.820312 8.535156-8.53125 8.535156zm-76.800781-17.066406h68.265625v-59.734375c0-4.714844-3.820313-8.535156-8.53125-8.535156h-51.199219c-4.714844 0-8.535156 3.820312-8.535156 8.535156zm0 0"/><path d="m170.667969 384c-4.714844 0-8.535157-3.820312-8.535157-8.535156v-25.597656c0-4.714844 3.820313-8.535157 8.535157-8.535157 4.710937 0 8.53125 3.820313 8.53125 8.535157v25.597656c0 4.714844-3.820313 8.535156-8.53125 8.535156zm0 0"/><path d="m170.667969 409.601562c-1.117188-.015624-2.21875-.246093-3.242188-.683593-2.144531-.777344-3.832031-2.464844-4.609375-4.609375-.910156-2.066406-.910156-4.417969 0-6.484375.433594-1.035157 1.039063-1.984375 1.792969-2.816407.816406-.769531 1.769531-1.378906 2.816406-1.792968 3.175781-1.335938 6.84375-.628906 9.300781 1.792968 1.558594 1.636719 2.441407 3.800782 2.472657 6.058594-.011719 1.117188-.246094 2.21875-.683594 3.242188-.410156 1.046875-1.019531 2-1.789063 2.816406-1.636718 1.558594-3.800781 2.441406-6.058593 2.476562zm0 0"/><path d="m162.132812 324.265625c-18.824218 0-34.132812-13.011719-34.132812-29.011719 0-12.636718 18.988281-41.054687 27.152344-52.695312 1.675781-2.152344 4.253906-3.410156 6.980468-3.410156 2.730469 0 5.304688 1.257812 6.980469 3.410156 8.167969 11.640625 27.152344 40.058594 27.152344 52.695312 0 16-15.308594 29.011719-34.132813 29.011719zm0-61.53125c-7.273437 9.929687-13.027343 20.890625-17.066406 32.519531 0 6.449219 7.816406 11.945313 17.066406 11.945313s17.066407-5.460938 17.066407-11.945313c-4.050781-11.625-9.800781-22.582031-17.066407-32.519531zm0 0"/><path d="m162.132812 358.398438c-4.710937 0-8.53125-3.820313-8.53125-8.53125v-34.132813c0-4.714844 3.820313-8.535156 8.53125-8.535156 4.714844 0 8.535157 3.820312 8.535157 8.535156v34.132813c0 4.710937-3.820313 8.53125-8.535157 8.53125zm0 0"/><path d="m162.132812 119.464844c-32.988281 0-59.734374-26.742188-59.734374-59.730469 0-32.992187 26.746093-59.734375 59.734374-59.734375 32.992188 0 59.734376 26.742188 59.734376 59.734375-.039063 32.972656-26.757813 59.695313-59.734376 59.730469zm0-102.398438c-23.5625 0-42.667968 19.101563-42.667968 42.667969 0 23.5625 19.105468 42.664063 42.667968 42.664063 23.566407 0 42.667969-19.101563 42.667969-42.664063-.027343-23.554687-19.113281-42.640625-42.667969-42.667969zm0 0"/><path d="m187.734375 153.601562h-51.199219c-4.714844 0-8.535156-3.820312-8.535156-8.535156v-8.53125c0-18.851562 15.28125-34.136718 34.132812-34.136718 18.851563 0 34.132813 15.285156 34.132813 34.136718v8.53125c0 4.714844-3.820313 8.535156-8.53125 8.535156zm-42.667969-17.066406h34.132813c0-9.425781-7.640625-17.070312-17.066407-17.070312-9.425781 0-17.066406 7.644531-17.066406 17.070312zm0 0"/><path d="m68.265625 290.132812c-4.710937 0-8.53125-3.820312-8.53125-8.53125v-68.269531c0-4.710937 3.820313-8.53125 8.53125-8.53125h34.132813c4.714843 0 8.535156 3.820313 8.535156 8.53125 0 4.714844-3.820313 8.535157-8.535156 8.535157h-25.597657v59.734374c0 4.710938-3.820312 8.53125-8.535156 8.53125zm0 0"/><path d="m68.265625 443.734375c-4.710937 0-8.53125-3.820313-8.53125-8.535156v-119.464844c0-4.714844 3.820313-8.535156 8.53125-8.535156 4.714844 0 8.535156 3.820312 8.535156 8.535156v119.464844c0 4.714843-3.820312 8.535156-8.535156 8.535156zm0 0"/><path d="m256 443.734375c-4.710938 0-8.535156-3.820313-8.535156-8.535156v-34.132813c0-4.710937 3.824218-8.53125 8.535156-8.53125s8.535156 3.820313 8.535156 8.53125v34.132813c0 4.714843-3.824218 8.535156-8.535156 8.535156zm0 0"/><path d="m256 375.464844c-4.710938 0-8.535156-3.820313-8.535156-8.53125v-145.066406h-102.398438c-4.710937 0-8.53125-3.820313-8.53125-8.535157 0-4.710937 3.820313-8.53125 8.53125-8.53125h110.933594c4.710938 0 8.535156 3.820313 8.535156 8.53125v153.601563c0 4.710937-3.824218 8.53125-8.535156 8.53125zm0 0"/><path d="m256 443.734375h-187.734375c-4.710937 0-8.53125-3.820313-8.53125-8.535156 0-4.710938 3.820313-8.53125 8.53125-8.53125h187.734375c4.710938 0 8.535156 3.820312 8.535156 8.53125 0 4.714843-3.824218 8.535156-8.535156 8.535156zm0 0"/></svg>