<svg height="504pt" viewBox="0 0 504.43575 504" width="504pt" xmlns="http://www.w3.org/2000/svg"><path d="m331.539062 33.792969c0 6.628906-14.855468 21.066406-39.195312 25.515625-14.917969 2.644531-29.960938 4.523437-45.074219 5.621094-13.175781 1.09375-27.527343 1.847656-42.554687 2.183593-6.546875.167969-13.261719.253907-20.058594.253907-4.953125 0-9.90625-.085938-14.6875-.167969-1.847656 0-3.609375 0-5.375-.085938-15.023438-.335937-29.375-1.089843-42.554688-2.183593-15.109374-1.097657-30.152343-2.976563-45.070312-5.621094-24.34375-4.449219-39.199219-18.886719-39.199219-25.515625 0-13.09375 57.832031-23.753907 131.863281-25.015625.214844-.082032.453126-.082032.671876 0 4.699218-.167969 9.484374-.167969 14.351562-.167969 81.082031 0 146.882812 11.25 146.882812 25.183594zm0 0" fill="#ff9801"/><path d="m302.164062 33.792969c0 6.628906-14.855468 21.066406-39.199218 25.515625-14.917969 2.644531-29.960938 4.523437-45.070313 5.621094-13.179687 1.09375-27.53125 1.847656-42.554687 2.183593-1.761719.085938-3.527344.085938-5.371094.085938-1.847656 0-3.609375 0-5.375-.085938-15.023438-.335937-29.375-1.089843-42.554688-2.183593-15.109374-1.097657-30.152343-2.976563-45.070312-5.621094-24.34375-4.449219-39.199219-18.886719-39.199219-25.515625 0-13.09375 57.832031-23.753907 131.863281-25.015625.214844-.082032.453126-.082032.671876 0 74.027343 1.261718 131.859374 11.921875 131.859374 25.015625zm0 0" fill="#fec108"/><path d="m193.050781 411.496094c-.039062 11.285156 2.246094 22.457031 6.714844 32.820312-.097656.230469-.207031.453125-.335937.671875-4.367188 0-8.730469.082031-13.09375.082031h-3.359376c-4.363281 0-8.730468-.082031-13.09375-.082031-13.261718-.253906-26.523437-.757812-39.699218-1.679687-15.109375-1.09375-30.132813-2.6875-45.074219-5.203125l-2.855469-.503907c-9.785156-1.457031-19.417968-3.789062-28.789062-6.96875-3.425782-1.117187-6.71875-2.609374-9.820313-4.449218-4.355469-3.902344-7.253906-9.171875-8.222656-14.9375-4.449219-14.691406-8.144531-29.714844-11.332031-44.90625 2.515625.417968 13.175781-7.554688 15.441406-7.21875 10.828125 1.761718 22.496094 3.273437 34.917969 4.617187 15.445312 1.679688 31.980469 2.9375 49.1875 3.945313 14.9375.839844 30.300781 1.34375 46.164062 1.59375 7.636719.167968 15.359375.253906 23.25.253906 5.203125 0 10.40625 0 15.527344-.167969-4.617187 10.320313-15.527344 30.128907-15.527344 42.132813zm0 0" fill="#4e342e"/><path d="m265.066406 257.394531c-3.253906 9.042969-4.898437 18.589844-4.871094 28.199219-.035156 6.566406.753907 13.105469 2.351563 19.472656v.085938c-.585937 6.714844-1.175781 13.34375-1.847656 20.058594-3.691407.253906-7.46875.421874-11.328125.671874v-69.832031c.082031-5.203125 16.03125-15.277343 16.03125-20.480469 0 7.300782-.085938 14.605469-.335938 21.824219zm0 0" fill="#af8066"/><path d="m360.414062 203.253906c-5.363281-1.046875-10.816406-1.582031-16.28125-1.59375-9.523437-.015625-18.976562 1.601563-27.953124 4.785156-10.492188 3.691407-32.816407 123.550782-40.957032 130.9375-8.816406 7.890626-23.671875 15.695313-25.851562 3.1875v-6.292968c3.859375-.253906 7.636718-.421875 11.328125-.671875.671875-6.714844 1.261719-13.34375 1.847656-20.058594v-.085937c-1.597656-6.367188-2.386719-12.910157-2.351563-19.472657-.027343-9.613281 1.617188-19.15625 4.871094-28.203125.25-7.21875.335938-14.519531.335938-21.820312 0 5.203125-15.949219 15.273437-16.03125 20.480468v69.832032c-12.171875.671875-24.929688 1.089844-38.023438 1.425781-8.730468.167969-17.628906.253906-26.691406.253906-9.066406 0-17.960938-.085937-26.691406-.253906-17.207032-.417969-33.742188-1.089844-49.355469-2.097656-18.296875-1.175781-35.335937-2.769531-50.695313-4.699219-16.617187-2.097656-31.308593-13.011719-43.308593-15.78125-4.085938-28.75-6.160157-57.75-6.210938-86.789062 0-20.058594 1.089844-39.449219 2.769531-57.660157 10.324219 2.683594 20.3125-4.03125 28.453126-2.601562 4.953124.835937 10.15625 1.675781 15.445312 2.347656 15.527344 2.265625 32.480469 4.03125 50.527344 5.289063 16.113281 1.175781 33.070312 2.015624 50.527344 2.433593 9.402343.25 18.886718.335938 28.539062.335938s19.136719-.085938 28.539062-.335938c17.457032-.417969 34.410157-1.257812 50.527344-2.433593 18.046875-1.257813 35-3.023438 50.527344-5.289063 5.289062-.671875 10.492188-1.511719 15.445312-2.347656 8.140626-1.429688 18.128907 5.285156 28.453126 2.601562 1.007812 11.160157 1.847656 22.660157 2.265624 34.578125zm0 0" fill="#4e342e"/><path d="m265.066406 257.394531c-3.253906 9.042969-4.898437 18.589844-4.871094 28.199219-.035156 6.566406.753907 13.105469 2.351563 19.472656v.085938c-.585937 6.714844-1.175781 13.34375-1.847656 20.058594-3.691407.253906-7.46875.421874-11.328125.671874v-69.832031c.082031-5.203125 16.03125-15.277343 16.03125-20.480469 0 7.300782-.085938 14.605469-.335938 21.824219zm0 0" fill="#cb8252"/><path d="m351.433594 118.480469c-11.582032 3.191406-26.273438 14.523437-43.308594 16.871093-14.691406 2.097657-31.226562 3.777344-49.019531 5.035157-15.277344 1.09375-31.363281 1.847656-48.261719 2.269531-8.5625.167969-17.289062.25-26.1875.25s-17.625-.082031-26.1875-.25c-16.871094-.421875-32.957031-1.175781-48.261719-2.269531-17.796875-1.257813-34.332031-2.9375-49.019531-5.035157-17.039062-2.347656-31.726562-13.679687-43.308594-16.871093 2.265625-13.597657 4.785156-26.101563 7.21875-36.929688 6.546875-29.628906 12.671875-47.757812 12.671875-47.757812 0 6.628906 14.855469 12.671875 39.199219 17.121093 14.917969 2.648438 29.960938 4.523438 45.070312 5.625 13.179688 1.089844 27.53125 1.84375 42.554688 2.179688 6.546875.167969 13.261719.253906 20.0625.253906 6.796875 0 13.511719-.085937 20.058594-.253906 15.027344-.335938 29.378906-1.089844 42.554687-2.179688 15.113281-1.101562 30.15625-2.976562 45.074219-5.625 24.339844-4.449218 39.195312-10.492187 39.195312-17.121093 0 0 6.128907 18.128906 12.675782 47.757812 2.433594 10.828125 4.953125 23.332031 7.21875 36.929688zm0 0" fill="#4e342e"/><path d="m316.179688 206.445312c-10.523438 3.71875-32.816407 123.585938-40.941407 130.9375-8.804687 7.929688-23.679687 7.34375-25.886719-5.144531v-76.1875c.117188-5.203125 16.050782-15.25 16.050782-20.480469 0-18.464843-.589844-36.429687-1.679688-53.464843 18.046875-1.261719 35-3.023438 50.527344-5.289063.839844 9.566406 1.511719 19.472656 1.929688 29.628906zm0 0" fill="#795548"/><path d="m130.183594 443.308594c-15.109375-1.09375-30.132813-2.6875-45.074219-5.203125l-2.855469-.503907c-1.121094-2.644531-2.046875-5.363281-2.769531-8.144531-5.371094-18.800781-9.734375-37.9375-13.429687-57.324219 15.445312 1.675782 31.980468 2.9375 49.1875 3.945313 2.769531 18.042969 6.042968 35.921875 9.988281 53.378906.792969 4.882813 2.472656 9.574219 4.953125 13.851563zm0 0" fill="#795548"/><path d="m169.882812 444.988281c-13.261718-.253906-26.523437-.757812-39.699218-1.679687-2.480469-4.277344-4.160156-8.96875-4.953125-13.851563-3.945313-17.457031-7.21875-35.335937-9.988281-53.378906 14.941406.835937 30.300781 1.339844 46.164062 1.59375 1.425781 17.457031 3.105469 34.832031 5.121094 51.785156.289062 5.324219 1.421875 10.5625 3.355468 15.53125zm0 0" fill="#bfa885"/><path d="m193.050781 411.496094c-.039062 11.285156 2.246094 22.457031 6.714844 32.820312-.097656.230469-.207031.453125-.335937.671875-4.367188 0-8.730469.082031-13.09375.082031h-3.359376c-4.363281 0-8.730468-.082031-13.09375-.082031-1.933593-4.96875-3.066406-10.207031-3.355468-15.53125-2.015625-16.953125-3.695313-34.328125-5.121094-51.785156 7.636719.167969 15.359375.25 23.25.25 5.203125 0 10.40625 0 15.527344-.167969-4.730469 10.617188-7.164063 22.117188-7.132813 33.742188zm0 0" fill="#ffecb3"/><path d="m271.613281 327.730469c-31.304687 1.972656-58.875 21.28125-71.429687 50.023437-5.121094.167969-10.324219.167969-15.527344.167969-7.890625 0-15.613281-.082031-23.25-.25-15.863281-.253906-31.222656-.757813-46.164062-1.59375-17.207032-1.007813-33.742188-2.269531-49.1875-3.945313-12.421876-1.34375-24.085938-2.855468-34.914063-4.617187-2.265625-.335937-4.535156-.757813-7.050781-1.175781h-.085938c-1.675781-7.890625-3.273437-15.78125-4.699218-23.753906-1.761719-9.734376-3.355469-19.554688-4.699219-29.460938 12 2.769531 26.691406 5.289062 43.308593 7.386719 15.359376 1.929687 32.398438 3.523437 50.695313 4.699219 15.613281 1.007812 32.148437 1.679687 49.355469 2.097656 8.730468.167968 17.625.253906 26.691406.253906 9.0625 0 17.960938-.085938 26.691406-.253906 17.207032-.417969 33.742188-1.089844 49.351563-2.097656 3.105469-.167969 6.128906-.417969 9.148437-.585938.523438 1.070312 1.113282 2.105469 1.765625 3.105469zm0 0" fill="#607d8b"/><path d="m108.609375 325.210938c-18.296875-1.175782-35.335937-2.769532-50.695313-4.699219-3.582031-28.171875-5.40625-56.542969-5.453124-84.941407 0-20.394531 1.003906-40.121093 2.601562-58.753906 15.527344 2.265625 32.480469 4.027344 50.527344 5.289063-1.089844 17.035156-1.679688 35-1.679688 53.464843.046875 29.941407 1.617188 59.859376 4.699219 89.640626zm0 0" fill="#795548"/><path d="m157.964844 327.308594c-17.207032-.417969-33.742188-1.089844-49.355469-2.097656-3.082031-29.78125-4.652344-59.699219-4.699219-89.640626 0-18.464843.589844-36.429687 1.679688-53.464843 16.113281 1.171875 33.070312 2.011719 50.527344 2.433593-.503907 16.28125-.839844 33.40625-.839844 51.03125 0 30.71875.925781 61.355469 2.6875 91.738282zm0 0" fill="#bfa885"/><path d="m214.03125 235.570312c0 30.71875-.921875 61.355469-2.683594 91.738282-8.730468.167968-17.628906.253906-26.691406.253906-9.066406 0-17.960938-.085938-26.691406-.253906-1.761719-30.382813-2.6875-61.019532-2.6875-91.738282 0-17.625.335937-34.75.839844-51.03125 9.402343.25 18.886718.335938 28.539062.335938s19.136719-.085938 28.539062-.335938c.5 16.28125.835938 33.40625.835938 51.03125zm0 0" fill="#ffecb3"/><path d="m122.039062 56.539062c-3.523437 17.289063-8.140624 43.5625-11.832031 75.457032-17.796875-1.261719-34.332031-2.9375-49.019531-5.039063 3.972656-25.597656 9.238281-50.976562 15.78125-76.042969 14.917969 2.648438 29.960938 4.523438 45.070312 5.625zm0 0" fill="#795548"/><path d="m164.59375 58.71875c-1.84375 17.710938-4.277344 43.984375-6.125 75.542969-16.871094-.421875-32.957031-1.175781-48.261719-2.265625 3.691407-31.894532 8.308594-58.167969 11.832031-75.457032 13.179688 1.089844 27.53125 1.84375 42.554688 2.179688zm0 0" fill="#bfa885"/><path d="m210.84375 134.261719c-8.5625.167969-17.289062.25-26.1875.25s-17.625-.082031-26.1875-.25c1.847656-31.558594 4.28125-57.832031 6.125-75.542969 6.546875.167969 13.261719.253906 20.0625.253906 6.796875 0 13.511719-.085937 20.058594-.253906 1.847656 17.710938 4.28125 43.984375 6.128906 75.542969zm0 0" fill="#ffecb3"/><path d="m259.105469 131.996094c-15.277344 1.117187-31.363281 1.875-48.261719 2.265625-1.847656-31.558594-4.28125-57.832031-6.128906-75.542969 15.027344-.335938 29.378906-1.089844 42.554687-2.179688 3.527344 17.289063 8.144531 43.5625 11.835938 75.457032zm0 0" fill="#bfa885"/><path d="m308.125 126.957031c-14.691406 2.101563-31.226562 3.777344-49.019531 5.039063-3.691407-31.894532-8.308594-58.167969-11.835938-75.457032 15.113281-1.101562 30.15625-2.976562 45.074219-5.625 6.542969 25.066407 11.808594 50.445313 15.78125 76.042969zm0 0" fill="#795548"/><path d="m358.148438 168.675781c-10.324219 2.683594-20.3125 4.363281-28.453126 5.789063-4.953124.839844-10.15625 1.679687-15.445312 2.351562-15.527344 2.265625-32.480469 4.027344-50.527344 5.289063-16.117187 1.171875-33.070312 2.011719-50.527344 2.433593-9.402343.25-18.886718.335938-28.539062.335938-4.53125 0-9.066406 0-13.597656-.085938h-.753906c-4.785157-.082031-9.484376-.082031-14.1875-.25-17.457032-.421874-34.414063-1.261718-50.527344-2.433593-18.046875-1.261719-35-3.023438-50.527344-5.289063-5.289062-.671875-10.492188-1.511718-15.445312-2.351562-8.140626-1.425782-18.128907-3.105469-28.453126-5.789063 1.425782-15.695312 3.441407-30.46875 5.707032-44.234375.335937-2.015625.671875-4.03125 1.007812-5.960937 14.238282 3.75 28.707032 6.582031 43.308594 8.476562 14.6875 2.101563 31.222656 3.777344 49.019531 5.039063 15.273438 1.117187 31.363281 1.875 48.261719 2.265625 3.777344.082031 7.554688.167969 11.414062.167969h1.511719c4.363281.082031 8.8125.082031 13.261719.082031 8.898438 0 17.625-.082031 26.1875-.25 16.871094-.421875 32.957031-1.175781 48.261719-2.265625 17.792969-1.261719 34.328125-2.9375 49.019531-5.039063 5.707031-.753906 11.246094-1.675781 16.367188-2.515625 10.238281-1.847656 19.304687-3.863281 26.941406-5.960937 2.6875 15.359375 5.035156 32.230469 6.714844 50.195312zm0 0" fill="#37474f"/><path d="m330.199219 168.675781c-10.324219 2.683594-20.3125 4.363281-28.453125 5.789063-4.953125.839844-10.15625 1.679687-15.445313 2.351562-15.527343 2.265625-32.484375 4.027344-50.527343 5.289063-16.117188 1.171875-33.070313 2.011719-50.53125 2.433593-4.699219.167969-9.398438.167969-14.183594.25h-.753906c-4.785157-.082031-9.484376-.082031-14.1875-.25-17.457032-.421874-34.414063-1.261718-50.527344-2.433593-18.046875-1.261719-35-3.023438-50.527344-5.289063-5.289062-.671875-10.492188-1.511718-15.445312-2.351562-8.140626-1.425782-18.128907-3.105469-28.453126-5.789063 1.425782-15.695312 3.441407-30.46875 5.707032-44.234375 5.121094.839844 10.660156 1.761719 16.367187 2.515625 14.6875 2.101563 31.222657 3.777344 49.015625 5.039063 15.277344 1.117187 31.367188 1.875 48.265625 2.265625 8.558594.167969 17.289063.25 26.1875.25 4.445313 0 8.8125 0 13.175781-.082031h1.511719c3.859375 0 7.722657-.085938 11.5-.167969 16.871094-.421875 32.957031-1.175781 48.261719-2.265625 17.792969-1.261719 34.328125-2.9375 49.015625-5.039063 14.605469-1.894531 29.070313-4.726562 43.3125-8.476562.335937 1.929687.671875 3.945312 1.007813 5.960937 2.265624 13.765625 4.277343 28.539063 5.707031 44.234375zm0 0" fill="#607d8b"/><path d="m265.066406 257.394531c-3.253906 9.042969-4.898437 18.589844-4.871094 28.199219-.035156 6.566406.753907 13.105469 2.351563 19.472656v.085938c-.585937 6.714844-1.175781 13.34375-1.847656 20.058594-15.609375 1.007812-32.144531 1.679687-49.351563 2.097656 1.761719-30.382813 2.683594-61.019532 2.683594-91.738282 0-17.625-.335938-34.75-.835938-51.03125 17.457032-.421874 34.410157-1.261718 50.527344-2.433593 1.089844 17.035156 1.679688 35 1.679688 53.464843 0 7.300782-.085938 14.605469-.335938 21.824219zm0 0" fill="#bfa885"/><path d="m495.214844 411.496094c0 46.355468-37.582032 83.933594-83.9375 83.933594-4.242188.007812-8.480469-.332032-12.671875-1.007813-21.746094-3.289063-41.320313-15.019531-54.472657-32.648437l-20.984374-122.628907 80.410156-9.820312 13.09375-1.59375c44.160156 2.875 78.523437 39.511719 78.5625 83.765625zm0 0" fill="#283593"/><path d="m470.03125 411.496094c.011719 41.515625-30.367188 76.789062-71.425781 82.925781-21.746094-3.289063-41.320313-15.019531-54.472657-32.648437l-20.984374-122.628907 80.410156-9.820312c38.738281 8.324219 66.425781 42.546875 66.472656 82.171875zm0 0" fill="#3f51b5"/><path d="m360.917969 411.496094c.027343 39.757812-27.859375 74.074218-66.78125 82.179687-38.925781 8.105469-78.191407-12.226562-94.035157-48.6875h-.085937c-.097656-.21875-.183594-.445312-.25-.671875-9.097656-21.285156-8.945313-45.394531.417969-66.5625 12.554687-28.742187 40.125-48.050781 71.429687-50.023437 23.734375 14.863281 5.472657.167969 31.054688 4.027343 0 .085938 28.773437 15.460938 28.855469 15.378907 4.113281.671875 5.683593 7.183593 9.972656 7.183593 1.835937 0 6.226562 15.109376 7.988281 15.042969 7.527344 12.761719 11.476563 27.316407 11.433594 42.132813zm0 0" fill="#3f51b5"/><path d="m428.066406 285.59375c.046875 14.816406-3.894531 29.371094-11.414062 42.136719-14.035156 24.214843-39.222656 39.832031-67.148438 41.632812-1.761718.082031-3.527344.167969-5.371094.167969-4.136718.003906-8.261718-.332031-12.339843-1.007812h-.335938c-.046875 0-.082031.035156-.082031.082031v-.082031c-25.085938-3.8125-47.074219-18.820313-59.761719-40.792969-.652343-1-1.242187-2.035157-1.765625-3.105469-3.28125-6.140625-5.738281-12.6875-7.300781-19.472656v-.085938c-1.597656-6.367187-2.386719-12.90625-2.351563-19.472656-.027343-9.609375 1.617188-19.15625 4.871094-28.199219 8.527344-23.796875 27.292969-42.5 51.113282-50.949219 5.023437-1.820312 10.230468-3.085937 15.527343-3.777343 4.109375-.675781 8.261719-1.011719 12.425781-1.007813 5.464844.011719 10.917969.546875 16.28125 1.59375 39.285157 7.832032 67.59375 42.285156 67.652344 82.339844zm0 0" fill="#283593"/><path d="m402.886719 285.59375c.046875 14.816406-3.898438 29.371094-11.417969 42.136719-12.714844 21.90625-34.648438 36.894531-59.675781 40.792969h-.167969c-.066406.0625-.160156.09375-.25.082031v-.082031c-25.085938-3.8125-47.074219-18.820313-59.761719-40.792969-.652343-1-1.242187-2.035157-1.765625-3.105469-3.28125-6.140625-5.738281-12.6875-7.300781-19.472656v-.085938c-1.597656-6.367187-2.386719-12.90625-2.351563-19.472656-.027343-9.609375 1.617188-19.15625 4.871094-28.199219 8.527344-23.796875 27.292969-42.5 51.113282-50.949219 5.023437-1.820312 10.230468-3.085937 15.527343-3.777343 1.175781.167969 2.351563.335937 3.527344.585937 39.285156 7.832032 67.589844 42.285156 67.652344 82.339844zm0 0" fill="#3f51b5"/><path d="m388.191406 256.390625c-8.007812-16.722656-24.542968-25.46875-36.929687-19.535156-12.390625 5.933593-15.9375 24.300781-7.929688 41.023437 8.011719 16.722656 24.546875 25.46875 36.933594 19.535156 12.386719-5.933593 15.9375-24.296874 7.925781-41.023437zm0 0" fill="#f5f5f5"/><path d="m460.425781 390.929688c-8.011719-16.722657-24.546875-25.46875-36.933593-19.539063-12.386719 5.933594-15.9375 24.300781-7.925782 41.023437 8.007813 16.722657 24.542969 25.472657 36.933594 19.539063 12.386719-5.933594 15.933594-24.300781 7.925781-41.023437zm0 0" fill="#f5f5f5"/><path d="m184.65625 67.367188c-25.929688 0-155.277344-1.621094-155.277344-33.574219 0-31.957031 129.347656-33.574219 155.277344-33.574219 25.925781 0 155.277344 1.617188 155.277344 33.574219 0 31.953125-129.351563 33.574219-155.277344 33.574219zm-136.695312-33.574219c11.171874 6.5625 57.308593 16.785156 136.695312 16.785156 79.382812 0 125.523438-10.222656 136.695312-16.785156-11.171874-6.566407-57.3125-16.789063-136.695312-16.789063-79.386719 0-125.523438 10.222656-136.695312 16.789063zm0 0"/><path d="m184.65625 193.265625c-49.027344.441406-98.007812-3.078125-146.464844-10.523437l-1.679687-.300782c-7.804688-1.363281-17.515625-3.046875-27.457031-5.652344-3.976563-1.039062-6.609376-4.8125-6.226563-8.902343 1.59375-16.9375 3.878906-34.035157 6.773437-50.832031 2.148438-12.757813 4.582032-25.347657 7.277344-37.34375.605469-2.980469 2.773438-5.398438 5.667969-6.324219 2.894531-.929688 6.066406-.21875 8.289063 1.859375 2.222656 2.074218 3.148437 5.191406 2.417968 8.140625-2.617187 11.675781-5.035156 23.957031-7.109375 36.480469-2.417969 14.015624-4.390625 28.234374-5.875 42.371093 6.765625 1.507813 13.238281 2.640625 19.128907 3.667969l1.679687.292969c47.503906 7.28125 95.519531 10.71875 143.578125 10.28125 48.074219.441406 96.105469-3 143.628906-10.289063l1.679688-.285156c5.875-1.027344 12.363281-2.160156 19.125-3.667969-1.492188-14.136719-3.464844-28.347656-5.875-42.328125-2.105469-12.59375-4.496094-24.847656-7.117188-36.523437-.726562-2.949219.199219-6.066407 2.421875-8.140625 2.21875-2.078125 5.390625-2.789063 8.285157-1.859375 2.898437.925781 5.066406 3.34375 5.667968 6.324219 2.695313 11.980468 5.148438 24.550781 7.285156 37.378906 2.890626 16.785156 5.171876 33.859375 6.765626 50.796875.386718 4.089843-2.25 7.863281-6.226563 8.902343-9.9375 2.605469-19.648437 4.289063-27.453125 5.652344l-1.679688.292969c-48.472656 7.453125-97.46875 10.972656-146.507812 10.53125zm0 0"/><path d="m184.65625 142.90625c-69.355469 0-132.550781-6.109375-169.054688-16.34375-4.128906-1.15625-6.722656-5.242188-6.007812-9.472656 2.15625-12.792969 4.589844-25.382813 7.285156-37.378906.605469-2.980469 2.773438-5.398438 5.667969-6.324219 2.894531-.929688 6.066406-.21875 8.289063 1.859375 2.222656 2.074218 3.148437 5.191406 2.417968 8.140625-2.082031 9.320312-4.035156 19.011719-5.800781 28.910156 35.722656 8.578125 94.789063 13.824219 157.203125 13.824219s121.476562-5.246094 157.199219-13.824219c-1.761719-9.898437-3.71875-19.589844-5.796875-28.910156-.730469-2.949219.195312-6.066407 2.417968-8.140625 2.222657-2.078125 5.390626-2.789063 8.289063-1.859375 2.894531.925781 5.0625 3.34375 5.667969 6.324219 2.691406 11.980468 5.144531 24.550781 7.285156 37.378906.710938 4.230468-1.878906 8.316406-6.011719 9.472656-36.503906 10.234375-99.695312 16.34375-169.050781 16.34375zm0 0"/><path d="m11.996094 299.949219c-3.429688.023437-6.535156-2.027344-7.859375-5.191407-1.320313-3.164062-.601563-6.8125 1.824219-9.238281 2.421874-2.425781 6.074218-3.144531 9.234374-1.820312 3.164063 1.320312 5.214844 4.425781 5.191407 7.855469 0 2.226562-.882813 4.359374-2.457031 5.933593-1.574219 1.574219-3.710938 2.460938-5.933594 2.460938zm0 0"/><path d="m331.332031 376.964844c-1.050781 0-2.089843-.199219-3.066406-.585938-3.042969-1.332031-5.015625-4.332031-5.03125-7.65625-.015625-3.320312 1.933594-6.339844 4.964844-7.699218 3.035156-1.355469 6.582031-.796876 9.050781 1.429687 3.347656 3.195313 3.476562 8.496094.292969 11.851563-1.621094 1.699218-3.863281 2.660156-6.210938 2.660156zm0 0"/><path d="m184.65625 386.316406c-7.957031 0-15.738281-.085937-23.433594-.253906-16.789062-.265625-31.972656-.796875-46.449218-1.609375-18.871094-1.101563-35.101563-2.402344-49.613282-3.980469-13.347656-1.441406-24.921875-2.96875-35.371094-4.671875-1.417968-.210937-2.980468-.480469-4.609374-.757812l-2.347657-.402344c-4.335937-.648437-7.441406-4.519531-7.132812-8.890625.304687-4.371094 3.925781-7.769531 8.304687-7.804688h.085938c.460937.003907.921875.042969 1.375.117188l2.570312.4375c1.492188.253906 2.910156.503906 4.320313.714844 10.292969 1.675781 21.5625 3.164062 34.605469 4.574218 14.269531 1.542969 30.21875 2.820313 48.777343 3.902344 14.269531.839844 29.226563 1.316406 45.800781 1.585938 7.621094.167968 15.285157.253906 23.117188.253906h.285156c5.035156 0 10.070313 0 14.957032-.167969 4.636718-.15625 8.519531 3.476563 8.675781 8.109375.152343 4.636719-3.476563 8.519532-8.113281 8.675782-5.203126.167968-10.507813.167968-15.804688.167968zm0 0"/><path d="m184.65625 335.957031c-9.121094 0-18.074219-.085937-26.859375-.253906-18.355469-.445313-34.605469-1.140625-49.730469-2.113281-18.214844-1.167969-35.445312-2.769532-51.199218-4.75-16.832032-2.117188-31.6875-4.636719-44.144532-7.539063-4.515625-1.039062-7.332031-5.546875-6.292968-10.0625 1.039062-4.519531 5.546874-7.335937 10.0625-6.296875 11.917968 2.753906 26.207031 5.1875 42.472656 7.242188 15.417968 1.941406 32.3125 3.5 50.191406 4.652344 14.890625.957031 30.921875 1.679687 49.019531 2.089843 17.253907.328125 35.664063.328125 53.003907 0 18.054687-.445312 34.085937-1.125 48.976562-2.082031l9.230469-.597656c4.636719-.253906 8.601562 3.292968 8.859375 7.929687.257812 4.636719-3.292969 8.601563-7.925782 8.859375l-9.175781.59375c-15.03125.96875-31.28125 1.679688-49.597656 2.109375-8.828125.132813-17.765625.21875-26.890625.21875zm0 0"/><path d="m11.996094 299.949219c-3.429688.023437-6.535156-2.027344-7.859375-5.191407-1.320313-3.164062-.601563-6.8125 1.824219-9.238281 2.421874-2.425781 6.074218-3.144531 9.234374-1.820312 3.164063 1.320312 5.214844 4.425781 5.191407 7.855469 0 2.226562-.882813 4.359374-2.457031 5.933593-1.574219 1.574219-3.710938 2.460938-5.933594 2.460938zm0 0"/><path d="m186.335938 453.464844h-3.359376c-33.21875.347656-66.410156-2.023438-99.242187-7.085938-11.253906-1.578125-22.332031-4.207031-33.097656-7.847656-3.984375-1.316406-7.8125-3.0625-11.414063-5.210938-6.207031-4.941406-10.421875-11.957031-11.867187-19.757812-4.128907-13.640625-7.824219-28.210938-11.25-44.386719-.125-.351562-.226563-.714843-.308594-1.082031-1.679687-7.980469-3.316406-15.945312-4.757813-24.03125-1.898437-10.480469-3.484374-20.242188-4.753906-29.8125-4.128906-29.121094-6.2304685-58.5-6.285156-87.914062 0-18.589844.941406-38.246094 2.804688-58.433594 1.601562-17.113282 3.894531-34.21875 6.804687-50.871094 2.089844-12.5 4.550781-25.082031 7.304687-37.320312 6.585938-29.703126 12.648438-47.851563 12.90625-48.605469.898438-2.921875 3.308594-5.125 6.300782-5.75 2.988281-.628907 6.082031.417969 8.078125 2.730469 1.996093 2.3125 2.578125 5.527343 1.519531 8.390624-.058594.175782-6.078125 18.121094-12.421875 46.886719-2.695313 11.96875-5.09375 24.230469-7.144531 36.496094-2.84375 16.273437-5.035156 32.941406-6.628906 49.59375-1.820313 19.667969-2.738282 38.804687-2.738282 56.882813.0625 28.644531 2.109375 57.253906 6.128906 85.613281 1.277344 9.359375 2.785157 18.878906 4.648438 29.132812 1.34375 7.554688 2.847656 14.96875 4.425781 22.402344.128907.371094.234375.746094.316407 1.125 3.359374 16.140625 7.035156 30.605469 11.148437 44.203125 2.140625 7.441406 3.660156 9.652344 4.574219 10.203125 2.589844 1.523437 5.339844 2.753906 8.199218 3.679687 9.832032 3.300782 19.945313 5.679688 30.21875 7.105469 31.933594 4.921875 64.21875 7.21875 96.53125 6.875l16.425782-.082031c4.703125-.027344 8.570312 3.695312 8.730468 8.394531.078126 2.1875-.738281 4.316407-2.253906 5.898438-1.519531 1.582031-3.613281 2.480469-5.804687 2.492187zm0 0"/><path d="m360.40625 211.648438c-4.519531.003906-8.230469-3.574219-8.394531-8.089844-.375-10.511719-1.082031-21.355469-2.238281-34.128906-1.5625-16.628907-3.789063-33.296876-6.625-49.519532-2.054688-12.332031-4.457032-24.59375-7.140626-36.539062-6.355468-28.789063-12.375-46.734375-12.433593-46.910156-1.332031-4.34375 1.035156-8.960938 5.339843-10.414063 4.304688-1.453125 8.984376.78125 10.558594 5.042969.261719.753906 6.355469 18.902344 12.917969 48.628906 2.746094 12.214844 5.203125 24.796875 7.300781 37.359375 2.90625 16.585937 5.195313 33.691406 6.800782 50.796875 1.183593 13.113281 1.914062 24.242188 2.289062 35.0625.167969 4.625-3.445312 8.511719-8.074219 8.6875zm0 0"/><path d="m82.253906 445.992188c-3.265625.007812-6.238281-1.882813-7.621094-4.839844-1.226562-2.785156-2.238281-5.65625-3.019531-8.597656-5.472656-19.160157-9.921875-38.15625-13.839843-58.863282-.8125-4.53125 2.175781-8.871094 6.699218-9.726562 4.523438-.855469 8.890625 2.089844 9.792969 6.605468 3.828125 20.203126 8.15625 38.710938 13.261719 56.589844.601562 2.351563 1.378906 4.652344 2.324218 6.890625 1.210938 2.589844 1.015626 5.621094-.511718 8.035157-1.527344 2.417968-4.183594 3.890624-7.042969 3.90625zm0 0"/><path d="m61.203125 135.351562c-2.453125.011719-4.789063-1.058593-6.390625-2.917968-1.605469-1.863282-2.308594-4.332032-1.933594-6.757813 3.988282-25.894531 9.3125-51.566406 15.949219-76.910156.773437-2.910156 3.039063-5.183594 5.945313-5.96875s6.007812.042969 8.140624 2.167969c2.132813 2.121094 2.96875 5.222656 2.195313 8.132812-6.5 24.773438-11.710937 49.867188-15.621094 75.179688-.648437 4.074218-4.160156 7.074218-8.285156 7.074218zm0 0"/><path d="m57.914062 328.90625c-4.226562-.007812-7.789062-3.152344-8.316406-7.34375-3.621094-28.523438-5.46875-57.242188-5.53125-85.992188 0-19.0625.898438-39.070312 2.675782-59.484374.402343-4.621094 4.476562-8.039063 9.09375-7.632813 4.621093.402344 8.039062 4.472656 7.636718 9.09375-1.746094 19.925781-2.621094 39.449219-2.621094 58.023437.050782 28.0625 1.84375 56.09375 5.371094 83.933594.277344 2.210938-.335937 4.4375-1.703125 6.195313-1.371093 1.757812-3.378906 2.898437-5.589843 3.171875-.335938.035156-.675782.046875-1.015626.035156zm0 0"/><path d="m130.175781 451.699219c-2.695312.003906-5.226562-1.285157-6.808593-3.464844-3.179688-5.175781-5.324219-10.917969-6.3125-16.914063-3.71875-16.382812-7.023438-34.035156-10.070313-53.960937-.710937-4.582031 2.429687-8.871094 7.011719-9.578125 4.582031-.710938 8.871094 2.429688 9.582031 7.011719 3.011719 19.539062 6.242187 36.8125 9.871094 52.8125.65625 3.742187 1.847656 7.371093 3.53125 10.773437 1.851562 2.554688 2.117187 5.929688.683593 8.738282-1.429687 2.808593-4.3125 4.578124-7.464843 4.582031zm0 0"/><path d="m110.199219 140.386719c-.328125.003906-.65625-.015625-.984375-.058594-2.210938-.257813-4.230469-1.382813-5.609375-3.132813-1.382813-1.746093-2.011719-3.96875-1.75-6.183593 3.945312-33.648438 8.710937-59.988281 12-76.152344.539062-3 2.660156-5.472656 5.542969-6.460937 2.882812-.988282 6.074218-.335938 8.335937 1.703124 2.265625 2.039063 3.246094 5.144532 2.566406 8.113282-3.222656 15.847656-7.890625 41.683594-11.75 74.761718-.5 4.234376-4.089843 7.417969-8.351562 7.410157zm0 0"/><path d="m108.628906 333.605469c-4.308594-.003907-7.914062-3.269531-8.34375-7.554688-3.15625-30.070312-4.761718-60.28125-4.808594-90.515625 0-17.515625.59375-35.679687 1.777344-54.011718.113282-2.230469 1.121094-4.324219 2.800782-5.800782 1.679687-1.472656 3.886718-2.207031 6.113281-2.027344 2.222656.140626 4.296875 1.160157 5.765625 2.832032 1.472656 1.671875 2.21875 3.859375 2.074218 6.078125-1.15625 17.972656-1.746093 35.773437-1.746093 52.929687.046875 29.65625 1.625 59.289063 4.726562 88.777344.234375 2.21875-.421875 4.4375-1.824219 6.167969-1.402343 1.734375-3.4375 2.835937-5.65625 3.066406-.289062.035156-.585937.054687-.878906.058594zm0 0"/><path d="m169.96875 453.464844c-2.398438 0-4.679688-1.023438-6.269531-2.8125-.34375-.375-.648438-.785156-.917969-1.21875-2.742188-5.894532-4.296875-12.277344-4.574219-18.773438-1.921875-16.378906-3.609375-33.40625-5.195312-52.285156-.386719-4.617188 3.039062-8.679688 7.660156-9.066406 4.617187-.390625 8.679687 3.039062 9.070313 7.65625 1.566406 18.691406 3.238281 35.546875 5.109374 51.519531.367188 4.066406 1.089844 8.089844 2.15625 12.027344 1.671876 2.582031 1.796876 5.867187.328126 8.566406-1.46875 2.703125-4.296876 4.382813-7.367188 4.386719zm0 0"/><path d="m158.441406 142.65625c-.175781 0-.34375 0-.519531 0-4.621094-.285156-8.140625-4.257812-7.863281-8.882812 1.542968-25.640626 3.640625-51.199219 6.195312-75.902344.199219-2.226563 1.296875-4.28125 3.035156-5.6875 1.738282-1.410156 3.972657-2.054688 6.195313-1.789063 2.21875.230469 4.25 1.332031 5.65625 3.066407 1.402344 1.730468 2.058594 3.949218 1.824219 6.164062-2.519532 24.492188-4.601563 49.792969-6.144532 75.191406-.292968 4.410156-3.957031 7.839844-8.378906 7.839844zm0 0"/><path d="m157.914062 335.703125c-4.457031.007813-8.144531-3.472656-8.394531-7.921875-1.769531-31.617188-2.660156-62.640625-2.660156-92.210938 0-17.761718.304687-35.027343.890625-51.335937.167969-4.632813 4.058594-8.257813 8.695312-8.089844 4.636719.167969 8.257813 4.058594 8.089844 8.695313-.578125 16.105468-.835937 33.179687-.835937 50.730468 0 29.257813.878906 59.972657 2.625 91.277344.257812 4.625-3.28125 8.585938-7.90625 8.847656zm0 0"/><path d="m199.34375 453.464844c-2.949219-.003906-5.683594-1.554688-7.195312-4.085938-1.515626-2.527344-1.589844-5.667968-.199219-8.269531 1.546875-4.242187 6.214843-6.453125 10.476562-4.960937 4.414063 1.542968 6.777344 6.34375 5.3125 10.785156-.253906.691406-.554687 1.359375-.90625 2.007812-.144531.25-.304687.492188-.460937.730469-1.554688 2.367187-4.195313 3.792969-7.027344 3.792969zm0 0"/><path d="m211.398438 335.703125h-.480469c-4.625-.261719-8.164063-4.21875-7.90625-8.847656 1.746093-31.304688 2.628906-62.015625 2.628906-91.277344 0-17.550781-.296875-34.621094-.839844-50.730469-.171875-4.628906 3.445313-8.523437 8.074219-8.695312 4.617188-.117188 8.480469 3.476562 8.695312 8.089844.585938 16.308593.890626 33.574218.890626 51.335937 0 29.570313-.890626 60.59375-2.660157 92.210937-.253906 4.449219-3.945312 7.925782-8.402343 7.914063zm0 0"/><path d="m210.867188 142.65625c-4.441407.007812-8.121094-3.449219-8.390626-7.882812-1.546874-25.398438-3.609374-50.695313-6.144531-75.1875-.476562-4.613282 2.875-8.738282 7.484375-9.21875 4.613282-.476563 8.738282 2.875 9.21875 7.488281 2.515625 24.726562 4.648438 50.261719 6.191406 75.902343.277344 4.621094-3.242187 8.597657-7.863281 8.878907-.152343.019531-.320312.019531-.496093.019531zm0 0"/><path d="m316.171875 214.839844c-4.503906.003906-8.207031-3.550782-8.394531-8.050782-.382813-9.382812-1.023438-19.222656-1.902344-29.242187-.261719-2.988281 1.089844-5.890625 3.546875-7.609375 2.460937-1.71875 5.648437-2 8.367187-.730469 2.714844 1.269531 4.550782 3.890625 4.8125 6.878907.898438 10.273437 1.554688 20.371093 1.949219 30.015624.1875 4.628907-3.410156 8.539063-8.042969 8.726563zm0 0"/><path d="m308.105469 135.351562c-4.136719-.003906-7.652344-3.019531-8.285157-7.109374-3.90625-25.300782-9.121093-50.382813-15.617187-75.144532-.769531-2.902344.070313-5.988281 2.195313-8.105468 2.128906-2.113282 5.222656-2.933594 8.117187-2.148438s5.152344 3.054688 5.917969 5.957031c6.636718 25.34375 11.960937 51.015625 15.949218 76.90625.375 2.421875-.328124 4.890625-1.925781 6.75-1.59375 1.859375-3.925781 2.929688-6.375 2.929688zm0 0"/><path d="m260.707031 333.605469c-.277343.015625-.558593.015625-.835937 0-2.222656-.210938-4.269532-1.300781-5.683594-3.023438-1.417969-1.722656-2.09375-3.9375-1.871094-6.160156.679688-6.714844 1.257813-13.359375 1.84375-20.050781.484375-4.550782 4.523438-7.875 9.082032-7.476563 4.558593.402344 7.957031 4.378907 7.640624 8.945313-.589843 6.714844-1.183593 13.503906-1.855468 20.253906-.449219 4.257812-4.035156 7.496094-8.320313 7.511719zm0 0"/><path d="m265.074219 265.785156h-.304688c-2.222656-.078125-4.324219-1.035156-5.84375-2.667968-1.515625-1.628907-2.324219-3.792969-2.246093-6.019532.242187-7.125.328124-14.324218.328124-21.527344 0-17.871093-.554687-35.679687-1.679687-52.929687-.296875-4.636719 3.222656-8.632813 7.855469-8.929687 4.636718-.296876 8.636718 3.21875 8.933594 7.855468 1.121093 17.625 1.675781 35.78125 1.675781 54.003906 0 7.402344-.082031 14.796876-.34375 22.117188-.15625 4.511719-3.859375 8.09375-8.375 8.097656zm0 0"/><path d="m259.113281 140.386719c-4.25-.003907-7.828125-3.1875-8.324219-7.410157-3.886718-33.078124-8.554687-58.914062-11.753906-74.761718-.679687-2.96875.300782-6.074219 2.566406-8.113282 2.265626-2.039062 5.457032-2.691406 8.335938-1.703124 2.882812.988281 5.003906 3.460937 5.542969 6.460937 3.289062 16.164063 8.058593 42.503906 12 76.152344.261719 2.214843-.367188 4.4375-1.75 6.183593-1.378907 1.75-3.398438 2.875-5.609375 3.132813-.335938.042969-.671875.0625-1.007813.058594zm0 0"/><path d="m276.984375 503.824219c-36.339844.042969-69.300781-21.296875-84.128906-54.472657-.140625-.21875-.269531-.445312-.378907-.679687-.175781-.34375-.570312-1.378906-.6875-1.738281-4.777343-11.199219-7.207031-23.261719-7.132812-35.4375-.042969-12.804688 2.640625-25.472656 7.863281-37.164063 13.761719-31.652343 44.125-52.898437 78.570313-54.980469 4.636718-.289062 8.628906 3.234376 8.917968 7.871094.292969 4.636719-3.230468 8.628906-7.867187 8.917969-28.1875 1.707031-53.027344 19.101563-64.269531 45.003906-8.417969 19.015625-8.574219 40.667969-.4375 59.804688.136718.242187.261718.488281.371094.738281 14.347656 32.710938 49.640624 50.898438 84.605468 43.605469s60.042969-38.078125 60.113282-73.796875c.035156-13.308594-3.503907-26.386719-10.246094-37.863282-2.242188-3.976562-.890625-9.015624 3.039062-11.339843 3.929688-2.324219 8.996094-1.082031 11.40625 2.796875 18.722656 31.996094 16.40625 72.105468-5.875 101.734375-17.46875 23.222656-44.808594 36.917969-73.863281 37zm0 0"/><path d="m411.277344 503.824219c-29.058594-.089844-56.394532-13.789063-73.859375-37.015625-2.78125-3.707032-2.03125-8.96875 1.675781-11.75 3.710938-2.78125 8.972656-2.03125 11.753906 1.679687 20.925782 27.976563 58.3125 37.953125 90.398438 24.117188 32.085937-13.835938 50.496094-47.867188 44.515625-82.292969-5.976563-34.425781-34.785157-60.257812-69.65625-62.464844-4.636719-.292968-8.15625-4.289062-7.859375-8.925781.292968-4.636719 4.289062-8.15625 8.925781-7.859375 50.089844 2.75 88.816406 44.996094 87.214844 95.132812-1.601563 50.140626-42.945313 89.828126-93.109375 89.378907zm0 0"/><path d="m344.132812 377.921875c-50.992187 0-92.328124-41.335937-92.328124-92.328125 0-50.988281 41.335937-92.328125 92.328124-92.328125 50.988282 0 92.328126 41.339844 92.328126 92.328125-.0625 50.96875-41.363282 92.269531-92.328126 92.328125zm0-167.867187c-41.722656 0-75.542968 33.820312-75.542968 75.539062 0 41.722656 33.820312 75.542969 75.542968 75.542969 41.71875 0 75.539063-33.820313 75.539063-75.542969-.046875-41.699219-33.839844-75.492188-75.539063-75.539062zm0 0"/><path d="m372.097656 307.621094c-16.0625-1.1875-30.109375-11.277344-36.359375-26.121094-9.988281-20.875-4.667969-44.292969 11.875-52.214844 16.542969-7.925781 38.140625 2.609375 48.128907 23.5 9.988281 20.890625 4.667968 44.292969-11.875 52.222656-3.679688 1.738282-7.699219 2.632813-11.769532 2.613282zm-12.4375-64.253906c-1.652344-.011719-3.289062.347656-4.785156 1.050781-8.050781 3.859375-9.871094 17.523437-3.96875 29.828125 5.898438 12.304687 17.625 19.441406 25.734375 15.597656 8.105469-3.847656 9.878906-17.527344 3.976563-29.832031-3.492188-8.910157-11.492188-15.261719-20.957032-16.644531zm0 0"/><path d="m444.179688 442.175781c-5.492188-.058593-10.890626-1.460937-15.71875-4.082031-18.21875-10.460938-28.097657-31.082031-24.828126-51.835938 1.519532-9.644531 7.550782-17.980468 16.230469-22.445312 16.519531-7.914062 38.125 2.609375 48.121094 23.503906 4.585937 9.207032 6.117187 19.640625 4.363281 29.777344-1.519531 9.640625-7.550781 17.976562-16.230468 22.4375-3.730469 1.765625-7.808594 2.667969-11.9375 2.644531zm-12.285157-64.253906c-1.652343-.011719-3.285156.347656-4.777343 1.050781-3.835938 2.21875-6.421876 6.097656-7 10.492188-1.859376 13.488281 4.515624 26.78125 16.191406 33.78125 3.664062 2.648437 8.484375 3.078125 12.558594 1.125 4.078124-1.953125 6.761718-5.976563 6.996093-10.492188 1.03125-6.589844-.023437-13.339844-3.011719-19.304687-3.484374-8.914063-11.488281-15.273438-20.957031-16.652344zm0 0"/></svg>