<svg height="512pt" viewBox="0 0 512.07897 512" width="512pt" xmlns="http://www.w3.org/2000/svg"><path d="m185.378906 145.054688 14.507813-38.867188c3.550781-13.078125 13.097656-23.691406 25.726562-28.597656 7.753907-2.132813 15.878907-2.550782 23.808594-1.21875 25.023437 3.472656 48.59375 13.8125 68.097656 29.867187 6.039063 4.742188 10.820313 10.894531 13.925781 17.917969 2.203126 5.351562 2.886719 11.207031 1.980469 16.921875-1.886719 7.398437-4.550781 14.574219-7.945312 21.410156-4.449219 10.933594-8.847657 21.886719-13.199219 32.863281" fill="#283593"/><path d="m354.382812 390.269531c-36.457031 92.007813-140.59375 137.042969-232.601562 100.589844-92.011719-36.453125-137.050781-140.589844-100.601562-232.601563 36.449218-92.007812 140.582031-137.050781 232.59375-100.609374 44.191406 17.503906 79.617187 51.847656 98.488281 95.472656 18.867187 43.625 19.628906 92.960937 2.121093 137.148437zm0 0" fill="#283593"/><path d="m328.867188 390.269531c-25.355469 63.988281-85.117188 107.796875-153.769532 112.726563-93.699218-6.75-166.28125-84.710938-166.324218-178.652344-.046876-93.941406 72.460937-171.972656 166.152343-178.8125 56.988281 4.007812 108.648438 34.953125 139.066407 83.3125 30.417968 48.355469 35.941406 108.324219 14.875 161.425781zm0 0" fill="#3f51b5"/><g fill="#cfd8dc"><path d="m137.296875 354.683594c-2.589844.199218-5.183594-.300782-7.511719-1.449219-6.976562-3.511719-15.449218-1.839844-20.566406 4.066406-5.117188 5.902344-5.574219 14.527344-1.109375 20.9375 2.46875 3.5 6.148437 5.964844 10.328125 6.910157 4.140625.910156 6.886719 4.84375 6.3125 9.046874-.523438 4.230469.507812 8.503907 2.902344 12.03125 4.464844 6.457032 12.761718 9.03125 20.097656 6.242188 7.339844-2.789062 11.828125-10.226562 10.878906-18.019531-.507812-5.910157 2.238282-11.628907 7.167969-14.933594l18.515625-12.882813h7l18.429688 12.882813c4.976562 3.269531 7.761718 9.003906 7.253906 14.933594-.875 7.742187 3.601562 15.09375 10.878906 17.867187 7.277344 2.773438 15.511719.269532 20.011719-6.089844 2.472656-3.492187 3.511719-7.796874 2.902343-12.03125-.5-4.210937 2.261719-8.117187 6.398438-9.046874 4.179688-.945313 7.859375-3.410157 10.324219-6.910157 4.46875-6.410156 4.011719-15.035156-1.105469-20.9375-5.117188-5.90625-13.589844-7.578125-20.566406-4.066406-2.328125 1.148437-4.921875 1.648437-7.511719 1.449219zm0 0"/><path d="m136.613281 324.304688v29.101562c.003907 1.617188.234375 3.222656.683594 4.777344 2.28125 7.71875 9.648437 12.792968 17.671875 12.175781 8.027344-.617187 14.53125-6.757813 15.605469-14.734375.101562-.738281.160156-1.476562.171875-2.21875v-18.261719"/><path d="m204.878906 332.839844v18.261718c.011719 8.085938-5.65625 15.066407-13.566406 16.722657h-.085938c-2.253906.457031-4.574218.457031-6.828124 0h-.085938c-6.996094-1.492188-12.335938-7.171875-13.394531-14.25-.105469-.820313-.160157-1.644531-.171875-2.472657v-18.261718"/><path d="m239.011719 324.304688v29.101562c0 9.425781-7.640625 17.066406-17.066407 17.066406-9.425781 0-17.066406-7.640625-17.066406-17.066406v-18.261719"/><path d="m264.613281 285.90625c-.035156 5.8125-1.722656 11.496094-4.863281 16.382812-5.132812 7.917969-12.292969 14.3125-20.738281 18.519532-10.613281 5.679687-22.183594 9.351562-34.132813 10.835937-1.109375.171875-2.21875.339844-3.328125.425781-4.5625.519532-9.148437.777344-13.738281.769532-5.710938 0-11.414062-.398438-17.066406-1.195313-11.949219-1.484375-23.519532-5.15625-34.132813-10.835937-8.445312-4.207032-15.605469-10.601563-20.738281-18.519532-3.144531-4.886718-4.828125-10.570312-4.863281-16.382812 0-25.941406 34.390625-46.933594 76.800781-46.933594s76.800781 20.992188 76.800781 46.933594zm0 0"/></g><path d="m187.539062 512.039062c-82.402343-.089843-155.109374-53.90625-179.273437-132.683593-24.160156-78.777344 5.871094-164.105469 74.050781-210.382813 68.179688-46.273437 158.566406-42.683594 222.855469 8.859375 64.292969 51.539063 87.460937 138.980469 57.121094 215.59375-28.144531 71.851563-97.589844 118.988281-174.753907 118.613281zm.433594-358.398437c-88.046875-.03125-161.671875 66.925781-169.96875 154.585937-8.292968 87.65625 51.457032 167.238282 137.949219 183.726563s171.332031-35.527344 195.867187-120.09375c24.535157-84.5625-19.289062-173.910156-101.175781-206.273437-19.953125-7.898438-41.210937-11.96875-62.671875-11.996094zm0 0"/><path d="m62.234375 392.699219c-3.335937 0-6.363281-1.941407-7.753906-4.972657-31.636719-68.996093-7.886719-150.753906 55.789062-192.058593 2.554688-1.871094 5.929688-2.175781 8.777344-.792969 2.84375 1.386719 4.691406 4.230469 4.792969 7.390625.105468 3.164063-1.546875 6.125-4.292969 7.695313-56.578125 36.710937-77.671875 109.359374-49.5625 170.664062 1.210937 2.640625.996094 5.71875-.570313 8.164062-1.570312 2.445313-4.273437 3.925782-7.179687 3.929688zm0 0"/><path d="m141.289062 197.859375c-4.097656.007813-7.621093-2.894531-8.394531-6.917969-.777343-4.023437 1.414063-8.027344 5.21875-9.542968 4.375-1.78125 8.855469-3.285157 13.414063-4.503907 2.996094-.898437 6.242187-.085937 8.460937 2.117188s3.054688 5.441406 2.179688 8.441406c-.875 3.003906-3.320313 5.285156-6.371094 5.953125-3.871094 1.042969-7.671875 2.324219-11.386719 3.839844-.992187.398437-2.050781.609375-3.121094.613281zm0 0"/><path d="m260.722656 454.441406c-3.777344-.007812-7.097656-2.492187-8.167968-6.113281-1.074219-3.621094.359374-7.511719 3.523437-9.574219 56.558594-36.707031 77.65625-109.324218 49.570313-170.621094-1.371094-2.785156-1.121094-6.097656.652343-8.644531 1.773438-2.546875 4.789063-3.933593 7.875-3.613281 3.089844.316406 5.761719 2.285156 6.976563 5.140625 31.636718 68.992187 7.886718 150.746094-55.789063 192.050781-1.378906.902344-2.992187 1.378906-4.640625 1.375zm0 0"/><path d="m312.28125 203.890625c-2.828125 0-5.472656-1.402344-7.058594-3.738281-1.589844-2.339844-1.914062-5.316406-.871094-7.941406 4.351563-11.007813 8.765626-21.988282 13.234376-32.9375.769531-1.894532 1.605468-3.78125 2.449218-5.695313 2.210938-4.4375 3.886719-9.125 4.992188-13.957031.632812-4.15625.117187-8.402344-1.492188-12.28125-2.578125-5.703125-6.519531-10.683594-11.476562-14.507813-18.273438-15.050781-40.359375-24.746093-63.804688-28.015625-6.671875-1.164062-13.515625-.851562-20.054687.914063-10.152344 4.0625-17.714844 12.78125-20.300781 23.40625l-14.503907 38.90625c-1.652343 4.414062-6.566406 6.65625-10.984375 5.007812-4.414062-1.648437-6.65625-6.566406-5.007812-10.984375l14.507812-38.875c4.289063-15.636718 15.902344-28.214844 31.144532-33.742187 8.957031-2.558594 18.375-3.082031 27.5625-1.535157 26.605468 3.710938 51.664062 14.722657 72.390624 31.8125 7.128907 5.621094 12.753907 12.917969 16.375 21.246094 2.804688 6.824219 3.65625 14.292969 2.457032 21.574219-1.316406 6.207031-3.394532 12.226563-6.195313 17.917969-.777343 1.707031-1.546875 3.472656-2.246093 5.207031-4.449219 10.90625-8.84375 21.832031-13.183594 32.785156-1.273438 3.273438-4.421875 5.429688-7.933594 5.433594zm0 0"/><path d="m282.609375 93.992188c-3.105469-.003907-5.964844-1.691407-7.464844-4.410157-1.5-2.714843-1.40625-6.035156.246094-8.664062 11.253906-17.917969 39.59375-44.371094 103.140625-20.609375 39.253906 14.722656 52.003906 10.652344 54.972656 9.0625 1.578125-.851563 1.792969-1.644532 1.816406-1.703125.007813-2.234375.921876-4.363281 2.53125-5.910157 1.605469-1.546874 3.773438-2.375 6.003907-2.292968 4.753906.171875 8.511719 4.085937 8.488281 8.839844-.320312 5.96875-3.464844 11.425781-8.464844 14.695312-12.636718 8.753906-35.964844 6.5625-71.328125-6.699219-39.253906-14.683593-67.855469-9.941406-82.707031 13.695313-1.5625 2.492187-4.296875 4-7.234375 3.996094zm0 0"/><path d="m443.8125 34.171875c-4.714844 0-8.535156-3.820313-8.535156-8.53125v-17.066406c0-4.714844 3.820312-8.5351565 8.535156-8.5351565 4.710938 0 8.53125 3.8203125 8.53125 8.5351565v17.066406c0 4.710937-3.820312 8.53125-8.53125 8.53125zm0 0"/><path d="m443.8125 136.574219c-4.714844 0-8.535156-3.820313-8.535156-8.535157v-17.066406c0-4.710937 3.820312-8.53125 8.535156-8.53125 4.710938 0 8.53125 3.820313 8.53125 8.53125v17.066406c0 4.714844-3.820312 8.535157-8.53125 8.535157zm0 0"/><path d="m443.8125 34.171875c-4.714844 0-8.535156-3.820313-8.535156-8.53125v-17.066406c0-4.714844 3.820312-8.5351565 8.535156-8.5351565 4.710938 0 8.53125 3.8203125 8.53125 8.5351565v17.066406c0 4.710937-3.820312 8.53125-8.53125 8.53125zm0 0"/><path d="m443.8125 136.574219c-4.714844 0-8.535156-3.820313-8.535156-8.535157v-17.066406c0-4.710937 3.820312-8.53125 8.535156-8.53125 4.710938 0 8.53125 3.820313 8.53125 8.53125v17.066406c0 4.714844-3.820312 8.535157-8.53125 8.535157zm0 0"/><path d="m503.546875 76.839844h-17.066406c-4.714844 0-8.535157-3.820313-8.535157-8.535156 0-4.710938 3.820313-8.53125 8.535157-8.53125h17.066406c4.710937 0 8.53125 3.820312 8.53125 8.53125 0 4.714843-3.820313 8.535156-8.53125 8.535156zm0 0"/><path d="m503.546875 76.839844h-17.066406c-4.714844 0-8.535157-3.820313-8.535157-8.535156 0-4.710938 3.820313-8.53125 8.535157-8.53125h17.066406c4.710937 0 8.53125 3.820312 8.53125 8.53125 0 4.714843-3.820313 8.535156-8.53125 8.535156zm0 0"/><path d="m486.050781 119.078125c-2.261719 0-4.429687-.898437-6.03125-2.5l-12.066406-12.066406c-3.234375-3.347657-3.1875-8.667969.105469-11.960938 3.289062-3.292969 8.613281-3.335937 11.960937-.105469l12.066407 12.066407c2.4375 2.441406 3.167968 6.113281 1.847656 9.300781-1.320313 3.1875-4.429688 5.265625-7.882813 5.265625zm0 0"/><path d="m413.636719 46.664062c-2.261719 0-4.429688-.898437-6.03125-2.5l-12.066407-12.066406c-2.21875-2.140625-3.109374-5.3125-2.328124-8.296875s3.113281-5.3125 6.097656-6.09375c2.980468-.78125 6.152344.109375 8.296875 2.324219l12.066406 12.066406c2.4375 2.441406 3.167969 6.113282 1.847656 9.300782-1.320312 3.1875-4.429687 5.265624-7.882812 5.265624zm0 0"/><path d="m486.050781 119.078125c-2.261719 0-4.429687-.898437-6.03125-2.5l-12.066406-12.066406c-3.234375-3.347657-3.1875-8.667969.105469-11.960938 3.289062-3.292969 8.613281-3.335937 11.960937-.105469l12.066407 12.066407c2.4375 2.441406 3.167968 6.113281 1.847656 9.300781-1.320313 3.1875-4.429688 5.265625-7.882813 5.265625zm0 0"/><path d="m413.636719 46.664062c-2.261719 0-4.429688-.898437-6.03125-2.5l-12.066407-12.066406c-2.21875-2.140625-3.109374-5.3125-2.328124-8.296875s3.113281-5.3125 6.097656-6.09375c2.980468-.78125 6.152344.109375 8.296875 2.324219l12.066406 12.066406c2.4375 2.441406 3.167969 6.113282 1.847656 9.300782-1.320312 3.1875-4.429687 5.265624-7.882812 5.265624zm0 0"/><path d="m473.984375 46.664062c-3.449219 0-6.558594-2.078124-7.878906-5.265624-1.320313-3.1875-.59375-6.859376 1.847656-9.300782l12.066406-12.066406c2.140625-2.214844 5.316407-3.105469 8.296875-2.324219 2.984375.78125 5.316406 3.109375 6.097656 6.09375.777344 2.984375-.109374 6.15625-2.328124 8.296875l-12.066407 12.066406c-1.601562 1.601563-3.769531 2.5-6.035156 2.5zm0 0"/><path d="m473.984375 46.664062c-3.449219 0-6.558594-2.078124-7.878906-5.265624-1.320313-3.1875-.59375-6.859376 1.847656-9.300782l12.066406-12.066406c2.140625-2.214844 5.316407-3.105469 8.296875-2.324219 2.984375.78125 5.316406 3.109375 6.097656 6.09375.777344 2.984375-.109374 6.15625-2.328124 8.296875l-12.066407 12.066406c-1.601562 1.601563-3.769531 2.5-6.035156 2.5zm0 0"/><path d="m187.8125 341.371094c-6.109375.003906-12.210938-.425782-18.261719-1.277344-12.988281-1.644531-25.5625-5.65625-37.101562-11.835938-9.746094-4.933593-17.996094-12.378906-23.894531-21.574218-3.957032-6.207032-6.0625-13.414063-6.074219-20.777344 0-31.105469 37.484375-55.464844 85.332031-55.464844s85.332031 24.359375 85.332031 55.464844c-.019531 7.417969-2.160156 14.675781-6.167969 20.914062-5.90625 9.167969-14.15625 16.59375-23.894531 21.503907-11.511719 6.152343-24.050781 10.140625-37 11.777343-1.1875.179688-2.507812.375-3.832031.476563-4.792969.542969-9.613281.804687-14.4375.792969zm0-93.863282c-37 0-68.265625 17.585938-68.265625 38.398438.03125 4.210938 1.265625 8.320312 3.558594 11.851562 4.363281 6.644532 10.417969 12.007813 17.542969 15.53125 9.726562 5.191407 20.324218 8.546876 31.265624 9.898438 9.5 1.332031 19.128907 1.46875 28.664063.410156 1.203125-.101562 2.097656-.246094 3.003906-.382812 10.9375-1.34375 21.535157-4.6875 31.265625-9.855469 7.128906-3.503906 13.199219-8.839844 17.585938-15.464844 2.339844-3.5625 3.605468-7.726562 3.644531-11.988281 0-20.8125-31.265625-38.398438-68.265625-38.398438zm0 0"/><path d="m153.679688 375.507812c-11.316407-.09375-21.261719-7.527343-24.550782-18.355468-.6875-2.355469-1.042968-4.792969-1.050781-7.246094v-29.097656c0-4.714844 3.820313-8.535156 8.535156-8.535156 4.710938 0 8.53125 3.820312 8.53125 8.535156v29.097656c.003907.839844.128907 1.675781.367188 2.484375 1.1875 3.820313 4.875 6.304687 8.863281 5.96875 3.988281-.332031 7.207031-3.394531 7.742188-7.359375.054687-.363281.085937-.726562.09375-1.09375v-18.261719c0-4.710937 3.820312-8.53125 8.535156-8.53125 4.710937 0 8.53125 3.820313 8.53125 8.53125v18.261719c-.007813 1.105469-.089844 2.214844-.238282 3.3125-1.699218 12.71875-12.527343 22.234375-25.359374 22.289062zm0 0"/><path d="m187.8125 375.507812c-1.605469.011719-3.210938-.136718-4.789062-.445312-.152344-.019531-.308594-.046875-.460938-.085938-10.507812-2.21875-18.527344-10.746093-20.09375-21.375-.15625-1.226562-.242188-2.460937-.257812-3.695312v-18.261719c0-4.710937 3.820312-8.53125 8.535156-8.53125 4.710937 0 8.53125 3.820313 8.53125 8.53125v18.261719c.007812.503906.050781 1.011719.121094 1.511719.597656 3.328125 3.085937 5.996093 6.367187 6.824219l.570313.113281c.976562.160156 1.976562.160156 2.953124 0 .203126-.050781.410157-.085938.613282-.121094 3.808594-.960937 6.46875-4.398437 6.441406-8.328125v-18.261719c0-4.710937 3.824219-8.53125 8.535156-8.53125 4.714844 0 8.535156 3.820313 8.535156 8.53125v18.261719c-.035156 12.109375-8.511718 22.550781-20.355468 25.078125l-.5.085937c-1.5625.308594-3.152344.453126-4.746094.4375zm0 0"/><path d="m221.945312 375.507812c-14.136718 0-25.601562-11.464843-25.601562-25.601562v-18.261719c0-4.710937 3.824219-8.53125 8.535156-8.53125 4.714844 0 8.535156 3.820313 8.535156 8.53125v18.261719c0 4.710938 3.820313 8.535156 8.53125 8.535156 4.714844 0 8.535157-3.824218 8.535157-8.535156v-29.097656c0-4.714844 3.820312-8.535156 8.53125-8.535156 4.714843 0 8.535156 3.820312 8.535156 8.535156v29.097656c0 14.136719-11.460937 25.601562-25.601563 25.601562zm0 0"/><path d="m162.210938 307.238281c-4.710938 0-8.53125-3.820312-8.53125-8.53125v-17.066406c0-4.714844 3.820312-8.535156 8.53125-8.535156 4.714843 0 8.535156 3.820312 8.535156 8.535156v17.066406c0 4.710938-3.820313 8.53125-8.535156 8.53125zm0 0"/><path d="m213.414062 307.238281c-4.714843 0-8.535156-3.820312-8.535156-8.53125v-17.066406c0-4.714844 3.820313-8.535156 8.535156-8.535156 4.710938 0 8.53125 3.820312 8.53125 8.535156v17.066406c0 4.710938-3.820312 8.53125-8.53125 8.53125zm0 0"/><path d="m170.746094 360.871094c-1.796875-.007813-3.539063-.609375-4.957032-1.707032l-.34375-.253906c-2.4375-1.839844-3.710937-4.839844-3.339843-7.871094.375-3.03125 2.335937-5.632812 5.148437-6.828124 2.808594-1.191407 6.042969-.792969 8.484375 1.042968 3.796875 2.859375 4.613281 8.230469 1.835938 12.085938-1.59375 2.1875-4.125 3.496094-6.828125 3.53125zm0 0"/><path d="m233.890625 422.011719c-5.222656.003906-10.320313-1.609375-14.589844-4.617188-7.667969-5.410156-11.785156-14.5625-10.753906-23.890625.148437-2.785156-1.222656-5.429687-3.582031-6.914062l-18.234375-12.789063c-3.160157-2.039062-4.613281-5.90625-3.578125-9.519531s4.316406-6.125 8.074218-6.183594c1.777344 0 3.511719.539063 4.972657 1.546875l18.433593 12.882813c7.589844 5.027344 11.761719 13.847656 10.835938 22.902344-.335938 3.136718 1.058594 6.203124 3.636719 8.015624 3.847656 2.636719 9.097656 1.699219 11.792969-2.109374 1.226562-1.707032 1.746093-3.824219 1.449218-5.90625-1.128906-8.667969 4.5625-16.761719 13.101563-18.636719 2.046875-.480469 3.847656-1.695313 5.066406-3.410157 2.226563-3.203124 2-7.503906-.546875-10.453124-2.550781-2.949219-6.773438-3.796876-10.265625-2.058594-3.691406 1.863281-7.824219 2.675781-11.945313 2.355468-3.046874-.199218-5.757812-2.011718-7.109374-4.753906-1.347657-2.742187-1.132813-5.992187.5625-8.535156 1.699218-2.539062 4.625-3.980469 7.671874-3.777344 1.078126.089844 2.15625-.105468 3.132813-.5625 10.476563-5.269531 23.191406-2.746094 30.863281 6.121094 7.671875 8.871094 8.335938 21.816406 1.613282 31.425781-3.667969 5.21875-9.140626 8.894531-15.359376 10.324219.949219 6.214844-.582031 12.554688-4.265624 17.648438-3.882813 5.550781-9.820313 9.320312-16.496094 10.46875-1.476563.273437-2.976563.414062-4.480469.425781zm0 0"/><path d="m170.746094 360.871094c-1.796875-.007813-3.539063-.609375-4.957032-1.707032l-.34375-.253906c-2.4375-1.839844-3.710937-4.839844-3.339843-7.871094.375-3.03125 2.335937-5.632812 5.148437-6.828124 2.808594-1.191407 6.042969-.792969 8.484375 1.042968 3.796875 2.859375 4.613281 8.230469 1.835938 12.085938-1.59375 2.1875-4.125 3.496094-6.828125 3.53125zm0 0"/><path d="m141.730469 422.011719c-1.511719 0-3.023438-.128907-4.511719-.390625-6.703125-1.144532-12.664062-4.929688-16.554688-10.503906-3.597656-5.261719-5.152343-11.65625-4.378906-17.980469-6.167968-1.238281-11.613281-4.832031-15.171875-10.019531-6.726562-9.609376-6.0625-22.5625 1.613281-31.433594 7.675782-8.871094 20.398438-11.390625 30.875-6.113282.976563.460938 2.054688.652344 3.128907.5625 4.714843-.308593 8.785156 3.257813 9.097656 7.972657.3125 4.710937-3.257813 8.785156-7.96875 9.09375-4.101563.3125-8.210937-.492188-11.886719-2.328125-3.484375-1.761719-7.71875-.9375-10.285156 2.007812-2.566406 2.941406-2.808594 7.25-.585938 10.460938 1.257813 1.785156 3.144532 3.035156 5.28125 3.496094 8.464844 1.894531 14.042969 9.984374 12.800782 18.570312-.234375 2.132812.308594 4.28125 1.527344 6.050781 1.296874 1.792969 3.257812 3 5.441406 3.351563 2.660156.476562 5.382812-.335938 7.347656-2.183594 1.964844-1.851562 2.941406-4.519531 2.628906-7.203125-.902344-9.039063 3.238282-17.839844 10.777344-22.910156l18.519531-12.886719c2.589844-1.621094 5.847657-1.738281 8.550781-.304688 2.699219 1.433594 4.429688 4.199219 4.539063 7.253907.109375 3.054687-1.421875 5.9375-4.011719 7.558593l-17.851562 12.425782c-2.335938 1.515625-3.695313 4.160156-3.566406 6.945312 1.054687 9.320313-3.046876 18.476563-10.703126 23.890625-4.289062 3.011719-9.40625 4.625-14.652343 4.617188zm0 0"/></svg>