<svg height="512pt" viewBox="0 -72 512.05687 512" width="512pt" xmlns="http://www.w3.org/2000/svg"><path d="m470.277344 97.105469-74.242188 23.039062-157.097656 48.554688-13.652344 4.183593-32.597656 10.070313-40.789062 12.628906-6.058594-23.296875-19.542969-75.863281 41.816406-8.617187 33.449219-6.996094 50.433594-10.410156 33.109375-7h.082031l59.90625-12.285157 31.402344-6.65625 75.261718-15.53125.855469-.171875zm0 0" fill="#283593"/><path d="m463.449219 74.066406-74.324219 23.039063-157.011719 48.554687-13.65625 4.183594-32.597656 10.066406-40.019531 12.375-19.542969-75.863281 41.816406-8.617187 33.449219-6.996094 50.433594-10.410156 33.109375-7h.082031l59.90625-12.285157 31.402344-6.65625 75.261718-15.53125zm0 0" fill="#3f51b5"/><g fill="#00bcd4"><path d="m375.300781 136.105469c1.175781.265625 2.378907.410156 3.585938.425781 1.46875-.03125 2.925781-.230469 4.351562-.597656 9.109375-2.34375 14.605469-11.621094 12.285157-20.738282l-17.066407-66.132812c-.40625-1.628906-1.070312-3.183594-1.960937-4.605469-3.113282-5.082031-8.636719-8.179687-14.59375-8.191406-1.40625 0-2.8125.171875-4.179688.511719-6.734375 1.785156-11.742187 7.433594-12.714844 14.335937-.277343 2.167969-.132812 4.371094.425782 6.484375l16.46875 64.085938zm0 0"/><path d="m300.550781 122.707031-15.105469-58.453125c-.0625-.304687-.175781-.59375-.339843-.855468-2.171875-7.136719-8.753907-12.019532-16.214844-12.03125-1.441406.039062-2.871094.238281-4.265625.597656-8.207031 2.152344-13.585938 10.003906-12.628906 18.433594.097656.800781.242187 1.597656.425781 2.386718l21.246094 82.605469v.082031l22.527343 3.347656zm0 0"/><path d="m224.175781 189.609375c2.46875-3.910156 3.210938-8.667969 2.046875-13.144531l-.9375-3.582032-23.636718-92.074218h-.085938l-.851562-3.5c-1.980469-7.539063-8.761719-12.816406-16.554688-12.886719-1.441406.039063-2.875.238281-4.269531.597656-9.109375 2.34375-14.605469 11.621094-12.285157 20.738281l.511719 2.046876 24.574219 95.148437.511719 1.960937c.414062 1.695313 1.109375 3.308594 2.046875 4.777344zm0 0"/></g><path d="m126.308594 96.4375 25.554687 99.15625c-27.382812 7.058594-55.300781-9.417969-62.359375-36.800781-7.054687-27.382813 9.421875-55.300781 36.804688-62.355469zm0 0" fill="#3f51b5"/><path d="m90.3125 165.175781c0 14.140625-11.460938 25.601563-25.597656 25.601563-14.140625 0-25.601563-11.460938-25.601563-25.601563 0-14.136719 11.460938-25.597656 25.601563-25.597656 14.136718 0 25.597656 11.460937 25.597656 25.597656zm0 0" fill="#3f51b5"/><path d="m485.890625 21.382812 17.035156 66.105469c2.355469 9.125-3.136719 18.433594-12.265625 20.785157-9.128906 2.351562-18.433594-3.140626-20.785156-12.265626l-17.039062-66.109374c-2.351563-9.125 3.140624-18.433594 12.269531-20.785157 9.125-2.351562 18.433593 3.140625 20.785156 12.269531zm0 0" fill="#00bcd4"/><path d="m375.472656 138.40625v153.601562l-68.265625 51.199219h-221.867187v-76.800781c0-4.710938 3.820312-8.53125 8.53125-8.53125h34.132812c4.714844 0 8.535156-3.820312 8.535156-8.535156v-17.066406c0-4.710938 3.820313-8.53125 8.53125-8.53125h34.136719c4.710938 0 8.53125-3.820313 8.53125-8.535157v-17.066406c0-4.710937 3.820313-8.53125 8.535157-8.53125h34.132812c4.710938 0 8.53125-3.820313 8.53125-8.535156v-17.066407c0-4.714843 3.820312-8.535156 8.535156-8.535156h34.132813c4.710937 0 8.53125-3.820312 8.53125-8.53125v-8.535156c.03125-9.414062 7.65625-17.035156 17.070312-17.066406h51.199219c9.414062.03125 17.039062 7.652344 17.066406 17.066406zm0 0" fill="#4e342e"/><path d="m349.871094 138.40625v153.601562l-68.265625 51.199219h-196.265625v-76.800781c0-4.710938 3.820312-8.53125 8.53125-8.53125h34.132812c4.714844 0 8.535156-3.820312 8.535156-8.535156v-17.066406c0-4.710938 3.820313-8.53125 8.53125-8.53125h34.136719c4.710938 0 8.53125-3.820313 8.53125-8.535157v-17.066406c0-4.710937 3.820313-8.53125 8.535157-8.53125h34.132812c4.710938 0 8.53125-3.820313 8.53125-8.535156v-17.066407c0-4.714843 3.820312-8.535156 8.535156-8.535156h34.132813c4.710937 0 8.53125-3.820312 8.53125-8.53125v-8.535156c.03125-9.414062 7.65625-17.035156 17.070312-17.066406h25.597657c9.414062.03125 17.039062 7.652344 17.066406 17.066406zm0 0" fill="#795548"/><path d="m93.871094 317.609375c.039062 9.234375-2.960938 18.230469-8.53125 25.597656-11.019532 14.691407-30.203125 20.683594-47.628906 14.878907-17.421876-5.808594-29.171876-22.113282-29.171876-40.476563 0-18.367187 11.75-34.671875 29.171876-40.480469 17.425781-5.804687 36.609374.1875 47.628906 14.878906 5.570312 7.367188 8.570312 16.363282 8.53125 25.601563zm0 0" fill="#ff9801"/><path d="m384.003906 317.609375c.039063 9.234375-2.960937 18.230469-8.53125 25.597656-8.066406 10.734375-20.707031 17.054688-34.132812 17.066407-4.351563.023437-8.675782-.671876-12.800782-2.046876-17.785156-5.53125-29.902343-21.992187-29.902343-40.617187 0-18.628906 12.117187-35.085937 29.902343-40.621094 4.125-1.375 8.449219-2.066406 12.800782-2.046875 13.425781.011719 26.066406 6.332032 34.132812 17.066406 5.570313 7.367188 8.570313 16.363282 8.53125 25.601563zm0 0" fill="#f57c00"/><path d="m358.40625 317.609375c.027344 18.621094-12.082031 35.09375-29.867188 40.617187-17.785156-5.53125-29.902343-21.992187-29.902343-40.617187 0-18.628906 12.117187-35.085937 29.902343-40.621094 17.785157 5.523438 29.894532 21.996094 29.867188 40.621094zm0 0" fill="#ff9801"/><path d="m375.472656 300.542969c-4.714844 0-8.535156-3.824219-8.535156-8.535157v-153.601562c0-4.710938-3.820312-8.53125-8.53125-8.53125h-51.199219c-4.714843 0-8.535156 3.820312-8.535156 8.53125v8.535156c0 9.425782-7.640625 17.066406-17.066406 17.066406h-34.132813v17.066407c0 9.425781-7.640625 17.066406-17.066406 17.066406h-34.132812v17.066406c0 9.425781-7.644532 17.066407-17.066407 17.066407h-34.136719v17.066406c0 9.425781-7.640624 17.066406-17.066406 17.066406h-34.132812v25.601562c0 4.710938-3.820313 8.535157-8.53125 8.535157-4.714844 0-8.535156-3.824219-8.535156-8.535157v-25.601562c0-9.425781 7.640624-17.066406 17.066406-17.066406h34.132812v-17.066406c0-9.425782 7.640625-17.066407 17.066406-17.066407h34.136719v-17.066406c0-9.425781 7.640625-17.066406 17.066407-17.066406h34.132812v-17.066407c0-9.425781 7.640625-17.066406 17.066406-17.066406h34.132813v-8.535156c0-14.136719 11.460937-25.597656 25.601562-25.597656h51.199219c14.136719 0 25.597656 11.460937 25.597656 25.597656v153.601562c0 4.710938-3.820312 8.535157-8.53125 8.535157zm0 0"/><path d="m307.207031 351.742188h-221.867187c-4.714844 0-8.535156-3.820313-8.535156-8.535157 0-4.710937 3.820312-8.53125 8.535156-8.53125h221.867187c4.710938 0 8.53125 3.820313 8.53125 8.53125 0 4.714844-3.820312 8.535157-8.53125 8.535157zm0 0"/><path d="m51.207031 368.808594c-24.078125 0-44.902343-16.777344-50.027343-40.300782-5.125-23.527343 6.832031-47.445312 28.726562-57.460937 21.898438-10.015625 47.8125-3.421875 62.257812 15.839844 13.65625 18.207031 13.65625 43.238281 0 61.441406-9.699218 12.855469-24.855468 20.4375-40.957031 20.480469zm0-85.335938c-16.054687 0-29.9375 11.1875-33.351562 26.871094-3.417969 15.683594 4.554687 31.628906 19.152343 38.304688 14.597657 6.675781 31.871094 2.28125 41.503907-10.5625 9.101562-12.132813 9.101562-28.820313 0-40.957032-6.476563-8.5625-16.574219-13.609375-27.304688-13.65625zm0 0"/><path d="m341.339844 368.808594c-16.105469-.050782-31.257813-7.628906-40.960938-20.480469-13.652344-18.203125-13.652344-43.234375 0-61.441406 9.671875-12.875 24.835938-20.449219 40.9375-20.449219 16.105469 0 31.269532 7.574219 40.9375 20.449219 13.65625 18.207031 13.65625 43.238281 0 61.441406-9.6875 12.84375-24.824218 20.421875-40.914062 20.480469zm0-85.335938c-10.734375.039063-20.835938 5.089844-27.308594 13.65625-9.101562 12.136719-9.101562 28.824219 0 40.957032 6.445312 8.613281 16.574219 13.683593 27.328125 13.683593 10.757813 0 20.882813-5.070312 27.328125-13.683593 9.101562-12.132813 9.101562-28.820313 0-40.957032-6.484375-8.574218-16.601562-13.625-27.347656-13.65625zm0 0"/><path d="m315.738281 215.207031c-4.710937 0-8.53125-3.820312-8.53125-8.53125v-25.601562c0-4.710938 3.820313-8.53125 8.53125-8.53125 4.714844 0 8.535157 3.820312 8.535157 8.53125v25.601562c0 4.710938-3.820313 8.53125-8.535157 8.53125zm0 0"/><path d="m315.738281 249.339844c-18.851562 0-34.132812-15.28125-34.132812-34.132813 0-18.851562 15.28125-34.132812 34.132812-34.132812 18.851563 0 34.132813 15.28125 34.132813 34.132812 0 18.851563-15.28125 34.132813-34.132813 34.132813zm0-51.199219c-9.425781 0-17.066406 7.640625-17.066406 17.066406s7.640625 17.066407 17.066406 17.066407 17.066407-7.640626 17.066407-17.066407-7.640626-17.066406-17.066407-17.066406zm0 0"/><path d="m59.738281 317.609375c0 4.710937-3.820312 8.53125-8.53125 8.53125-4.714843 0-8.535156-3.820313-8.535156-8.53125 0-4.714844 3.820313-8.535156 8.535156-8.535156 4.710938 0 8.53125 3.820312 8.53125 8.535156zm0 0"/><path d="m349.871094 317.609375c0 4.710937-3.820313 8.53125-8.53125 8.53125-4.714844 0-8.535156-3.820313-8.535156-8.53125 0-4.714844 3.820312-8.535156 8.535156-8.535156 4.710937 0 8.53125 3.820312 8.53125 8.535156zm0 0"/><path d="m225.285156 181.425781c-4.234375.007813-7.832031-3.089843-8.457031-7.277343-.625-4.183594 1.914063-8.195313 5.964844-9.425782l13.652343-4.179687c4.480469-1.300781 9.175782 1.234375 10.539063 5.695312 1.367187 4.457031-1.097656 9.1875-5.539063 10.621094l-13.652343 4.179687c-.8125.253907-1.65625.382813-2.507813.386719zm0 0"/><path d="m201.589844 89.347656c-4.371094-.015625-8.019532-3.328125-8.460938-7.671875-.4375-4.347656 2.476563-8.324219 6.753906-9.214843l50.34375-10.417969c4.5625-.832031 8.949219 2.128906 9.890626 6.667969.9375 4.535156-1.917969 8.996093-6.433594 10.039062l-50.347656 10.421875c-.574219.121094-1.160157.183594-1.746094.175781zm0 0"/><path d="m285.214844 71.941406c-4.296875 0-7.921875-3.191406-8.464844-7.453125s2.164062-8.261719 6.324219-9.339843h.082031l60.171875-12.417969c4.613281-.953125 9.128906 2.015625 10.085937 6.632812.953126 4.617188-2.015624 9.132813-6.632812 10.085938l-59.824219 12.3125c-.574219.125-1.15625.183593-1.742187.179687zm0 0"/><path d="m395.996094 128.695312c-4.226563.015626-7.824219-3.0625-8.464844-7.238281s1.871094-8.191406 5.902344-9.441406l74.242187-23.042969c4.507813-1.402344 9.296875 1.117188 10.699219 5.625 1.402344 4.507813-1.117188 9.296875-5.625 10.699219l-74.238281 23.042969c-.816407.246094-1.664063.367187-2.515625.355468zm0 0"/><path d="m376.480469 53.007812c-4.386719.003907-8.058594-3.316406-8.5-7.675781-.441407-4.363281 2.496093-8.347656 6.792969-9.222656l76.125-15.742187c2.984374-.621094 6.074218.402343 8.105468 2.679687 2.027344 2.273437 2.6875 5.460937 1.730469 8.355469-.957031 2.898437-3.386719 5.0625-6.371094 5.679687l-76.136719 15.746094c-.574218.117187-1.160156.175781-1.746093.179687zm0 0"/><path d="m151.898438 204.113281c-3.894532 0-7.289063-2.636719-8.261719-6.40625l-25.554688-99.160156c-.585937-2.257813-.21875-4.652344 1.011719-6.636719 1.230469-1.980468 3.214844-3.371094 5.496094-3.847656l41.816406-8.664062c3.015625-.695313 6.175781.292968 8.25 2.589843 2.078125 2.296875 2.75 5.539063 1.753906 8.46875-.996094 2.933594-3.503906 5.09375-6.550781 5.652344l-33.054687 6.824219 21.066406 81.859375 32.257812-9.980469c4.464844-1.292969 9.144532 1.226562 10.519532 5.667969 1.378906 4.441406-1.054688 9.167969-5.46875 10.628906l-40.804688 12.636719c-.804688.246094-1.636719.367187-2.476562.367187zm0 0"/><path d="m378.886719 145.0625c-1.804688-.015625-3.601563-.222656-5.359375-.613281-4.542969-1.042969-7.410156-5.535157-6.441406-10.09375.96875-4.558594 5.417968-7.496094 9.988281-6.597657 1.390625.347657 2.84375.304688 4.207031-.128906 4.480469-1.246094 7.136719-5.847656 5.976562-10.351562l-17.066406-66.082032c-.191406-.78125-.503906-1.527343-.933594-2.207031-2-3.191406-5.796874-4.769531-9.46875-3.933593-3.332031.917968-5.8125 3.714843-6.324218 7.132812-.140625 1.066406-.070313 2.148438.203125 3.191406l16.496093 64.179688c.761719 2.953125-.109374 6.089844-2.285156 8.226562-2.179687 2.136719-5.332031 2.949219-8.269531 2.132813-2.941406-.816407-5.222656-3.140625-5.984375-6.09375l-16.46875-64.085938c-.828125-3.15625-1.039062-6.441406-.621094-9.675781 1.398438-10.769531 9.441406-19.488281 20.066406-21.742188 10.625-2.257812 21.515626 2.433594 27.171876 11.707032 1.339843 2.15625 2.335937 4.507812 2.953124 6.972656l17.066407 66.082031c1.683593 6.578125.683593 13.554688-2.777344 19.394531-3.460937 5.839844-9.101563 10.070313-15.679687 11.75-2.109376.527344-4.273438.808594-6.449219.835938zm0 0"/><path d="m273.667969 164.007812c-4.109375.003907-7.640625-2.921874-8.394531-6.964843l-21.113282-82.089844c-.277344-1.171875-.496094-2.355469-.648437-3.550781-1.484375-12.644532 6.589843-24.449219 18.917969-27.644532 2.113281-.53125 4.28125-.820312 6.460937-.855468 10.917969-.03125 20.628906 6.925781 24.113281 17.273437.300782.652344.535156 1.332031.710938 2.027344l15.09375 58.4375c.839844 2.976563 0 6.175781-2.191406 8.359375-2.1875 2.183594-5.390626 3.007812-8.363282 2.160156-2.976562-.847656-5.257812-3.242187-5.964844-6.253906l-14.949218-58.035156c-.144532-.3125-.269532-.640625-.367188-.972656-1.070312-3.550782-4.347656-5.980469-8.054687-5.972657-.785157.046875-1.5625.171875-2.324219.375-4.011719 1.136719-6.601562 5.023438-6.101562 9.167969.0625.476562.171874 1.003906.28125 1.492188l21.179687 82.328124c.679687 2.566407.128906 5.304688-1.496094 7.40625-1.625 2.097657-4.132812 3.324219-6.789062 3.3125zm0 0"/><path d="m195.257812 198.226562c-2.902343.003907-5.605468-1.464843-7.179687-3.898437-1.445313-2.261719-2.511719-4.742187-3.15625-7.347656l-25.597656-99.148438c-1.664063-6.566406-.652344-13.527343 2.8125-19.347656 3.4375-5.863281 9.09375-10.09375 15.6875-11.742187 2.078125-.53125 4.210937-.816407 6.355469-.851563 11.660156.0625 21.828124 7.941406 24.796874 19.21875l.632813 2.558594c.121094.328125.226563.664062.316406 1.007812l24.558594 95.625c1.757813 6.769531.636719 13.964844-3.097656 19.878907-2.53125 3.980468-7.808594 5.152343-11.785157 2.621093-3.976562-2.53125-5.148437-7.804687-2.621093-11.785156 1.199219-1.910156 1.558593-4.230469.992187-6.414063l-.929687-3.570312-23.382813-91.007812c-.15625-.386719-.285156-.789063-.390625-1.191407l-.855469-3.5c-1.015624-3.734375-4.390624-6.339843-8.257812-6.375-.78125.039063-1.554688.160157-2.304688.367188-2.132812.558593-3.949218 1.941406-5.054687 3.847656-1.152344 1.957031-1.484375 4.292969-.917969 6.496094l.511719 2.0625 25.070313 97.050781c.1875.8125.507812 1.589844.953124 2.296875 1.699219 2.621094 1.824219 5.964844.332032 8.707031-1.492188 2.746094-4.367188 4.457032-7.488282 4.457032zm0 0"/><path d="m139.097656 205.753906c-27.242187-.035156-51.023437-18.464844-57.855468-44.835937-8.195313-31.941407 11.015624-64.484375 42.941406-72.746094 2.191406-.566406 4.515625-.234375 6.464844.914063 1.949218 1.152343 3.363281 3.03125 3.925781 5.222656l25.550781 99.15625c.566406 2.191406.234375 4.519531-.914062 6.46875-1.152344 1.949218-3.03125 3.359375-5.222657 3.925781-4.863281 1.253906-9.867187 1.890625-14.890625 1.894531zm-41.324218-49.09375c5.109374 19.613282 23.273437 32.957032 43.519531 31.976563l-20.90625-80.949219c-18.203125 8.910156-27.648438 29.375-22.613281 49.007812zm0 0"/><path d="m64.722656 199.320312c-18.015625-.003906-32.929687-14.003906-34.066406-31.980468-1.136719-17.980469 11.894531-33.746094 29.765625-36.015625s34.429687 9.738281 37.824219 27.433593c3.390625 17.691407-7.546875 34.972657-24.992188 39.476563-2.785156.71875-5.652344 1.082031-8.53125 1.085937zm0-51.203124c-8.550781-.015626-15.796875 6.296874-16.949218 14.773437-1.148438 8.472656 4.148437 16.488281 12.394531 18.753906 8.25 2.261719 16.898437-1.925781 20.234375-9.800781 3.335937-7.875.328125-17.003906-7.035156-21.351562-2.613282-1.542969-5.585938-2.367188-8.621094-2.382813zm0 0"/><path d="m486.40625 117.363281c-11.667969-.019531-21.84375-7.925781-24.746094-19.222656l-17.070312-66.109375c-2.285156-8.855469.328125-18.261719 6.855468-24.667969 6.523438-6.410156 15.976563-8.847656 24.789063-6.398437 8.8125 2.445312 15.648437 9.410156 17.9375 18.265625l17.066406 66.109375c1.988281 7.675781.308594 15.84375-4.550781 22.113281-4.859375 6.265625-12.351562 9.925781-20.28125 9.910156zm-17.066406-100.257812c-.722656 0-1.445313.089843-2.144532.273437-4.558593 1.179688-7.300781 5.832032-6.125 10.394532l17.066407 66.105468c1.179687 4.566406 5.832031 7.3125 10.398437 6.132813 4.5625-1.179688 7.308594-5.832031 6.128906-10.398438l-17.066406-66.105469c-.972656-3.769531-4.367187-6.402343-8.257812-6.402343zm0 0"/><path d="m143.28125 101.457031c-3.851562 0-7.226562-2.578125-8.234375-6.296875-3.960937-14.601562-14.066406-20.050781-30.960937-16.65625-3.027344.699219-6.191407-.304687-8.265626-2.617187-2.074218-2.3125-2.730468-5.566407-1.710937-8.5 1.019531-2.933594 3.554687-5.082031 6.613281-5.609375 25.507813-5.117188 44.484375 5.683594 50.792969 28.910156.695313 2.566406.15625 5.308594-1.457031 7.421875-1.613282 2.109375-4.121094 3.347656-6.777344 3.347656zm0 0"/><path d="m136.539062 317.609375h-8.535156c-4.710937 0-8.53125-3.820313-8.53125-8.535156 0-4.710938 3.820313-8.53125 8.53125-8.53125h8.535156c4.710938 0 8.53125 3.820312 8.53125 8.53125 0 4.714843-3.820312 8.535156-8.53125 8.535156zm0 0"/><path d="m238.9375 317.609375h-68.265625c-4.714844 0-8.535156-3.820313-8.535156-8.535156 0-4.710938 3.820312-8.53125 8.535156-8.53125h68.265625c4.714844 0 8.535156 3.820312 8.535156 8.53125 0 4.714843-3.820312 8.535156-8.535156 8.535156zm0 0"/></svg>