<svg height="511pt" viewBox="0 0 511.67107 511" width="511pt" xmlns="http://www.w3.org/2000/svg"><path d="m100.921875 479.917969c-15.019531 31.402343-65.960937 30.550781-85.078125-1.789063-4.738281-8.261718-7.238281-17.613281-7.253906-27.136718-.292969-16.230469.621094-32.460938 2.730468-48.554688 1.445313-11.636719 3.582032-23.179688 6.402344-34.5625-1.800781 15.160156.433594 30.527344 6.484375 44.546875 5.546875 11.605469 14.082031 18.773437 24.40625 17.917969 2.046875 7.253906 4.179688 13.226562 11.261719 9.472656 1.027344-.511719 1.964844-1.023438 2.902344-1.535156 4.097656 9.726562 4.011718 23.808594 14.082031 18.515625 4.101563-1.90625 7.964844-4.285157 11.519531-7.082031 3.113282-2.285157 5.101563-5.796876 5.460938-9.640626 9.046875 12.628907 17.324218 18.429688 7.082031 39.847657zm0 0" fill="#ff9801"/><path d="m88.378906 449.710938c-.851562 4.59375-2.347656 9.046874-4.4375 13.226562-11.605468 24.320312-44.886718 29.269531-68.097656 15.191406-4.738281-8.261718-7.238281-17.613281-7.253906-27.136718-.292969-16.230469.621094-32.460938 2.730468-48.554688 3.097657 4.636719 7.621094 8.144531 12.886719 9.984375 5.546875 11.605469 14.082031 18.773437 24.40625 17.917969 2.046875 7.253906 4.179688 13.226562 11.261719 9.472656 1.027344-.511719 1.964844-1.023438 2.902344-1.535156 4.097656 9.726562 4.011718 23.808594 14.082031 18.515625 4.101563-1.90625 7.964844-4.285157 11.519531-7.082031zm0 0" fill="#fec108"/><path d="m498.574219 40.195312-15.1875 7.851563s-5.546875 2.988281-15.019531 7.9375c-14.265626-1.382813-.339844-21.761719-15.957032-30.292969l15.105469-7.9375 15.1875-7.9375c4.195313-2.144531 9.339844-.507812 11.519531 3.671875l7.9375 15.101563c2.207032 4.195312.605469 9.386718-3.585937 11.605468zm0 0" fill="#cfd8dc"/><path d="m427.929688 86.421875c-7.511719 10.332031-29.3125 24.148437-42.625 19.199219-11.488282-4.265625-17.628907-22.503906-23.6875-32.484375l57.511718-30.039063c3.414063 4.179688 9.261719 7.679688 10.796875 12.886719 3.671875 9.96875 2.945313 21.03125-1.996093 30.4375zm0 0" fill="#795548"/><path d="m351.800781 162.222656-94.378906 56.660156c7.253906-5.375 6.230469-18.601562 13.226563-24.320312 8.277343-6.910156 11.4375.941406 4.269531-11.773438-.257813-.425781-.425781-.769531-.683594-1.195312-6.144531-11.179688-6.828125-16.382812-15.445313-14.078125-.597656.167969-1.28125.339844-1.960937.59375-5.429687 1.941406-10.730469 4.21875-15.875 6.828125 5.035156-2.644531 10.582031-5.886719 16.640625-9.640625l1.367188-.855469c5.375-3.328125 11.09375-7.082031 16.980468-11.007812 20.480469-13.398438 43.605469-29.269532 64.9375-41.726563 5.121094-2.988281 10.070313-5.804687 14.933594-8.363281 7.167969 16.382812-2.304688 48.210938-4.011719 58.878906zm0 0" fill="#4e342e"/><path d="m210.550781 165.890625c-10.496093 5.890625-27.964843 2.5625-35.984375 7.683594l-5.71875-7.511719-19.796875-26.195312c-5.347656-6.710938-4.984375-16.324219.851563-22.613282 3.425781-3.527344 8.226562-5.378906 13.132812-5.066406s9.429688 2.753906 12.382813 6.6875l17.238281 22.699219c3.582031 4.777343 15.078125 18.941406 17.894531 24.316406zm0 0" fill="#cfd8dc"/><path d="m80.101562 384.601562c-1.109374 30.804688 6.570313 45.398438 13.738282 55.46875.277344 8.871094-4.046875 17.261719-11.433594 22.183594-15.53125 8.109375-23.980469-10.152344-43.351562-7.082031-8.191407 1.367187-13.738282-5.714844-17.238282-16.980469-5.410156-23.027344-6.796875-46.816406-4.09375-70.316406 10.699219-45.917969 34.089844-87.902344 67.5-121.171875 10.410156-10.15625 21.1875-19.941406 32.339844-29.355469 2.191406 3.089844 5.011719 5.675782 8.277344 7.59375 7.253906 5.035156 16.554687 9.730469 19.457031 15.277344-6.164063 4.546875-12.035156 9.480469-17.578125 14.761719-18.519531 18.003906-7.683594 20.820312-7.683594 20.820312l3.671875-.597656 52.992188-8.105469c-27.90625 16.980469-94.636719 62.976563-96.597657 117.503906zm0 0" fill="#4e342e"/><path d="m340.878906 111.707031c-1.363281 13.480469-5.035156 27.21875-6.058594 33.535157l-60.585937 36.351562c-6.144531-11.179688-6.828125-16.382812-15.445313-14.078125-.257812-.515625-.597656-1.109375-.9375-1.707031l-.257812-.511719 1.367188-.855469 16.980468-11.007812zm0 0" fill="#795548"/><path d="m159.71875 250.117188c-12.535156 7.574218-24.5625 15.957031-36.011719 25.085937-28.503906 22.699219-59.222656 55.636719-60.585937 92.417969-1.109375 30.804687 6.570312 45.398437 13.738281 55.464844.277344 8.875-4.046875 17.265624-11.4375 22.1875-15.527344 8.105468-23.976563-10.15625-43.347656-7.082032h-.257813c-5.410156-23.027344-6.796875-46.816406-4.09375-70.316406 10.699219-45.917969 34.089844-87.902344 67.5-121.171875 10.410156-10.15625 21.1875-19.941406 32.339844-29.355469 2.191406 3.089844 5.011719 5.675782 8.277344 7.59375-38.484375 29.699219-22.785156 33.792969-22.785156 33.792969l24.664062-3.753906zm0 0" fill="#795548"/><path d="m279.78125 163.84375c-7.847656.035156-15.621094 1.480469-22.953125 4.265625-5.429687 1.941406-10.730469 4.21875-15.875 6.828125 10.410156-5.460938 23.296875-12.203125 37.460937-19.457031 24.917969-12.96875 53.421876-27.730469 77.738282-40.445313-2.8125-6.316406-11.261719-10.582031-19.367188-15.789062-3.746094-2.167969-7.234375-4.742188-10.414062-7.679688l-98.132813 51.371094c-2.898437 1.535156-6.824219 3.5-10.921875 5.546875-5.035156 2.816406-9.984375 5.546875-14.933594 8.363281-10.496093 5.886719-19.796874 11.605469-27.816406 16.726563-14.59375 9.640625-24.832031 17.40625-29.613281 21.332031-3.683594-7.050781-8.023437-13.738281-12.96875-19.96875 0-.085938-.085937-.085938-.085937-.171875-3.839844-5.714844-7.765626-11.433594-12.03125-16.980469-3.628907-5.515625-7.925782-10.5625-12.800782-15.019531-1.519531-1.21875-3.183594-2.25-4.949218-3.070313-4.316407-2.027343-9.261719-2.242187-13.738282-.597656-6.589844 2.925782-10.695312 9.609375-10.324218 16.8125.402343 3.984375 1.878906 7.789063 4.265624 11.007813 3.839844 5.546875 9.386719 10.496093 12.96875 15.445312 4.523438 6.226563 8.707032 12.628907 12.800782 19.113281 3.242187 5.207032 6.402344 10.496094 9.472656 15.871094 3.5 6.058594 6.910156 12.203125 10.15625 18.433594 1.925781 3.667969.953125 8.191406-2.304688 10.75-10.160156 8.105469-19.046874 17.683594-26.371093 28.417969-2.289063 3.335937-4.367188 6.816406-6.226563 10.410156-1.539062 3.183594-.953125 6.984375 1.46875 9.558594s6.183594 3.386719 9.453125 2.046875l72.960938-29.867188c2.472656-1.535156 4.691406-2.816406 6.484375-3.839844 8.449218-4.863281 16.8125-9.898437 25.089844-14.847656l49.148437-29.527344c7.253906-5.375 14.167969-10.921874 21.164063-16.636718 8.277343-6.914063 23.722656-17.664063 16.554687-30.378906-3.292969-5.253907-9.167969-8.320313-15.359375-8.023438zm0 0" fill="#607d8b"/><path d="m278.160156 154.882812c-7.253906-12.796874-27.476562-7.507812-38.316406-3.753906-5.429688 1.941406-10.730469 4.21875-15.871094 6.828125 28.160156-14.761719 75.179688-38.996093 112.8125-58.710937-3.746094-2.167969-7.234375-4.742188-10.414062-7.679688l-98.132813 51.371094c-2.898437 1.535156-6.824219 3.5-10.921875 5.546875-5.035156 2.816406-9.984375 5.546875-14.933594 8.363281-10.496093 5.886719-19.796874 11.605469-27.816406 16.726563-14.59375 9.640625-24.832031 17.40625-29.613281 21.332031-3.683594-7.050781-8.023437-13.738281-12.96875-19.96875 0-.085938-.085937-.085938-.085937-.171875-1.535157 1.28125-2.902344 2.304687-3.925782 3.160156-3.683594-7.050781-8.027344-13.738281-12.96875-19.96875-3.839844-5.804687-7.851562-11.519531-12.117187-17.152343-.257813-.339844-.515625-.769532-.769531-1.109376-4.316407-2.027343-9.261719-2.242187-13.738282-.597656-6.589844 2.925782-10.695312 9.609375-10.324218 16.8125.402343 3.984375 1.878906 7.789063 4.265624 11.007813 3.839844 5.546875 9.386719 10.496093 12.96875 15.445312 4.523438 6.226563 8.707032 12.628907 12.800782 19.113281 3.242187 5.207032 6.402344 10.496094 9.472656 15.871094 3.5 6.058594 6.910156 12.203125 10.15625 18.433594 1.925781 3.667969.953125 8.191406-2.304688 10.75-10.160156 8.105469-19.046874 17.683594-26.371093 28.417969l60.675781-24.832031c2.472656-1.535157 4.691406-2.816407 6.484375-3.839844 8.445313-4.863282 16.808594-9.898438 25.085937-14.847656l49.152344-29.527344c7.253906-5.375 14.167969-10.921875 21.164063-16.640625 6.230469-5.203125 16.554687-12.628907 18.175781-21.417969.539062-2.859375.054688-5.820312-1.367188-8.363281-.046874-.210938-.132812-.414063-.253906-.597657zm0 0" fill="#cfd8dc"/><path d="m468.367188 55.984375c-.660157 4.035156-1.925782 7.945313-3.753907 11.605469l-24.917969 40.789062c-.722656 1.160156-1.71875 2.128906-2.902343 2.816406l-84.992188 51.027344c1.425781-8.945312 1.28125-18.070312-.425781-26.964844-1.003906-5.351562-2.636719-10.5625-4.863281-15.53125-4.816407-10.605468-11.65625-20.171874-20.140625-28.160156l31.574218-16.554687 3.671876-1.875c1.703124 2.8125 3.496093 5.800781 5.460937 8.703125 4.332031 7.859375 11.058594 14.136718 19.199219 17.917968 13.3125 4.949219 27.390625-5.203124 34.902344-15.53125 6.023437-7.628906 8.109374-17.648437 5.628906-27.046874-1.59375-5.160157-4.207032-9.949219-7.679688-14.082032l29.527344-15.445312 2.046875-1.109375 1.707031-.851563c11.59375 5.285156 18.15625 17.738282 15.957032 30.292969zm0 0" fill="#ff9801"/><path d="m451.386719 39c-.660157 4.039062-1.925781 7.949219-3.753907 11.605469l-24.917968 40.789062c-.722656 1.164063-1.71875 2.132813-2.902344 2.816407l-68.4375 41.046874c-1.003906-5.351562-2.636719-10.5625-4.863281-15.53125-4.816407-10.605468-11.65625-20.171874-20.140625-28.160156l31.574218-16.554687c2.609376 2.804687 5.703126 5.117187 9.132813 6.828125 4.332031 7.859375 11.058594 14.136718 19.199219 17.917968 13.3125 4.949219 27.390625-5.203124 34.902344-15.53125 6.023437-7.628906 8.109374-17.648437 5.628906-27.046874-1.59375-5.160157-4.207032-9.949219-7.679688-14.082032l29.527344-15.445312 2.046875-1.109375c1.101563 4.058593 1.335937 8.304687.683594 12.457031zm0 0" fill="#fec108"/><path d="m217.28125 157.007812c-3.960938.007813-7.40625-2.710937-8.320312-6.570312-.910157-3.855469.953124-7.832031 4.5-9.597656l1.234374-.617188c3.621094-1.808594 7.007813-3.496094 9.628907-4.871094l254.453125-133.085937c8.363281-4.34375 18.664062-1.109375 23.039062 7.238281l7.921875 15.152344c4.347657 8.359375 1.117188 18.660156-7.21875 23.039062l-15.15625 7.929688c-4.164062 2.109375-9.253906.480469-11.417969-3.65625-2.164062-4.136719-.601562-9.246094 3.507813-11.464844l15.15625-7.9375-7.914063-15.152344-254.460937 133.117188c-2.699219 1.410156-6.1875 3.148438-9.898437 5.011719l-1.246094.621093c-1.1875.570313-2.492188.859376-3.808594.84375zm0 0"/><path d="m351.828125 170.738281c-.453125 0-.902344-.035156-1.347656-.101562-4.65625-.738281-7.828125-5.109375-7.09375-9.761719 2.050781-12.78125.414062-25.878906-4.71875-37.761719-4.339844-9.5625-10.523438-18.183593-18.191407-25.359375-2.285156-2.089844-3.261718-5.257812-2.542968-8.273437.714844-3.011719 3.011718-5.402344 5.992187-6.238281 2.984375-.839844 6.1875.003906 8.371094 2.207031 9.289063 8.734375 16.769531 19.210937 22.015625 30.832031 6.453125 14.859375 8.523438 31.257812 5.972656 47.257812-.65625 4.15625-4.246094 7.214844-8.457031 7.199219zm0 0"/><path d="m393.488281 109.574219c-3.464843 0-6.902343-.617188-10.148437-1.828125-13.875-5.164063-21.878906-18.40625-28.320313-29.011719l-.683593-1.136719c-1.578126-2.609375-1.648438-5.859375-.179688-8.535156 1.46875-2.671875 4.25-4.359375 7.300781-4.421875 3.046875-.066406 5.898438 1.5 7.480469 4.109375l.691406 1.152344c5.324219 8.804687 11.367188 18.773437 19.625 21.878906 9.234375 3.414062 19.996094-5.632812 25.039063-12.535156 4.390625-5.527344 5.96875-12.777344 4.265625-19.628906-1.273438-4.050782-3.351563-7.804688-6.109375-11.03125-1.941407-2.351563-2.480469-5.5625-1.414063-8.417969s3.578125-4.925781 6.585938-5.433594c3.007812-.503906 6.054687.636719 7.996094 2.988281 4.222656 5 7.390624 10.804688 9.308593 17.066406 3.242188 11.960938.691407 24.753907-6.886719 34.558594-7.820312 11.667969-20.546874 19.121094-34.550781 20.226563zm0 0"/><path d="m61.003906 511.492188c-4.558594-.003907-9.105468-.496094-13.558594-1.46875-27.90625-5.691407-47.808593-30.4375-47.3867182-58.914063-.9140628-48.84375 8.1835942-141.175781 79.1796872-210.492187 10.496094-10.238282 21.53125-20.28125 32.804688-29.789063 2.3125-2.074219 5.574219-2.730469 8.511719-1.703125s5.082031 3.570312 5.597656 6.636719c.519531 3.066406-.675782 6.171875-3.113282 8.105469-10.945312 9.242187-21.671874 18.988281-31.871093 28.960937-66.363281 64.839844-74.894531 151.871094-74.042969 197.976563-.566406 20.554687 13.789062 38.519531 33.960938 42.503906 14.839843 3.226562 34.382812-.761719 42.183593-17.066406 6.65625-13.9375 4.078125-17.324219-2.773437-26.367188-8.59375-11.335938-20.371094-26.855469-18.929688-65.5625 2.296875-63.070312 82.773438-114.226562 107.367188-128.410156 8.378906-4.855469 16.742187-9.804688 24.984375-14.796875l228.515625-137.207031 24.917968-40.78125c3.050782-5.113282 3.808594-11.273438 2.082032-16.972657-1.726563-5.699219-5.777344-10.40625-11.152344-12.960937-4.136719-2.265625-5.652344-7.453125-3.390625-11.589844 2.265625-4.136719 7.453125-5.652344 11.589844-3.386719 13.109375 6.292969 21.242187 19.761719 20.703125 34.292969-.292969 6.679688-2.019532 13.21875-5.070313 19.167969l-25.113281 41.128906c-1.441406 2.355469-3.429688 4.324219-5.792969 5.742187l-228.507812 137.148438c-8.320313 5.027344-16.757813 10.027344-25.25 14.960938-22.699219 13.082031-96.878907 59.9375-98.859375 114.261718-1.210938 32.621094 8.039062 44.816406 15.472656 54.613282 7.730469 10.1875 15.710938 20.71875 4.582031 44.039062-9.140625 17.742188-27.695312 28.617188-47.640625 27.929688zm0 0"/><path d="m195.316406 207.3125c-3.921875 0-7.339844-2.679688-8.277344-6.488281-.941406-3.808594.839844-7.769531 4.3125-9.597657 3.863282-2.03125 78.703126-41.171874 151.183594-79.078124 2.699219-1.414063 5.953125-1.28125 8.527344.351562s4.085938 4.515625 3.960938 7.5625c-.128907 3.046875-1.867188 5.792969-4.570313 7.207031l-151.183594 79.070313c-1.21875.640625-2.574219.976562-3.953125.972656zm0 0"/><path d="m468.332031 64.515625c-3.933593.011719-7.371093-2.667969-8.3125-6.492187-.941406-3.820313.855469-7.792969 4.347657-9.609376l15.101562-7.886718c2.714844-1.53125 6.046875-1.460938 8.695312.179687 2.648438 1.640625 4.191407 4.597657 4.023438 7.707031-.167969 3.113282-2.015625 5.886719-4.824219 7.234376l-15.078125 7.894531c-1.21875.640625-2.574218.972656-3.953125.972656zm0 0"/><path d="m257.414062 227.460938c-3.671874 0-6.933593-2.351563-8.09375-5.835938-1.164062-3.484375.035157-7.320312 2.976563-9.523438 6.152344-4.582031 12.566406-9.652343 20.8125-16.445312l2.207031-1.792969c9.976563-8.046875 14.890625-13.257812 12.339844-17.78125-4.070312-7.21875-21-2.320312-28.074219.117188-8.710937 3.265625-17.15625 7.207031-25.257812 11.785156l-4.761719 2.5625c-4.179688 2.183594-9.335938.566406-11.519531-3.609375-2.183594-4.179688-.570313-9.335938 3.609375-11.523438l4.675781-2.464843c8.882813-4.984375 18.144531-9.265625 27.699219-12.800781 30.617187-10.539063 43.265625-1.707032 48.496094 7.628906 10.136718 17.972656-7.851563 32.480468-16.488282 39.460937l-2.082031 1.703125c-8.464844 6.980469-15.085937 12.203125-21.476563 16.957032-1.480468 1.042968-3.25 1.589843-5.0625 1.5625zm0 0"/><path d="m158.820312 347.542969c-19.300781-1.027344-37.574218-9.011719-51.4375-22.476563-3.394531-3.269531-3.5-8.671875-.230468-12.066406 3.269531-3.398438 8.667968-3.5 12.066406-.230469 1.363281 1.304688 33.996094 31.972657 61.636719 9.667969 29.011719-23.441406 15.121093-67.132812 14.972656-67.578125-1.347656-4.4375 1.097656-9.144531 5.507813-10.589844 4.410156-1.445312 9.167968.898438 10.707031 5.273438.734375 2.253906 17.605469 55.410156-20.480469 86.1875-9.1875 7.660156-20.78125 11.839843-32.742188 11.8125zm0 0"/><path d="m166.730469 318.828125c-2.207031 0-4.332031-.859375-5.921875-2.390625l-19.480469-18.773438c-2.195313-2.117187-3.09375-5.242187-2.359375-8.199218.734375-2.960938 2.992188-5.300782 5.921875-6.144532s6.085937-.058593 8.28125 2.054688l19.488281 18.773438c2.515625 2.421874 3.300782 6.128906 1.984375 9.363281-1.316406 3.230469-4.464843 5.335937-7.957031 5.316406zm0 0"/><path d="m144.996094 203.4375c-3.59375 0-6.800782-2.253906-8.023438-5.632812-1.21875-3.378907-.191406-7.164063 2.570313-9.460938 9.746093-7.804688 19.886719-15.101562 30.378906-21.863281 9.78125-6.289063 19.003906-11.851563 28.261719-17.066407l14.910156-8.378906c4.109375-2.308594 9.3125-.851562 11.621094 3.257813s.851562 9.316406-3.257813 11.625l-14.925781 8.378906c-8.960938 5.015625-17.921875 10.402344-27.308594 16.476563-9.9375 6.394531-19.546875 13.292968-28.78125 20.667968-1.527344 1.28125-3.453125 1.988282-5.445312 1.996094zm0 0"/><path d="m174.609375 182.105469c-2.660156.003906-5.167969-1.234375-6.785156-3.34375l-25.601563-33.792969c-6.34375-7.882812-7.402344-18.78125-2.695312-27.738281 4.707031-8.960938 14.28125-14.269531 24.371094-13.519531 7.316406.53125 14.035156 4.230468 18.398437 10.128906l17.117187 22.613281c3.960938 5.183594 7.472657 10.699219 10.496094 16.484375 1.503906 2.710938 1.421875 6.023438-.21875 8.65625-1.640625 2.628906-4.578125 4.164062-7.671875 4.007812-3.097656-.15625-5.863281-1.976562-7.230469-4.761718-2.574218-4.925782-5.566406-9.621094-8.941406-14.035156l-17.203125-22.726563c-1.425781-1.929687-3.625-3.136719-6.019531-3.308594-2.496094-.171875-4.941406.765625-6.6875 2.558594-2.792969 3.25-2.847656 8.039063-.128906 11.347656l25.601562 33.742188c1.976563 2.578125 2.320313 6.054687.882813 8.96875-1.433594 2.914062-4.402344 4.761719-7.652344 4.761719zm0 0"/><path d="m86.246094 312.664062c-2.429688.015626-4.75-1.007812-6.378906-2.808593-1.628907-1.800781-2.414063-4.210938-2.15625-6.628907.144531-1.328124 3.816406-31.785156 42.417968-63.453124-3.136718-5.90625-6.476562-12.023438-10.015625-18.097657-3.003906-5.375-6.085937-10.539062-9.308593-15.632812-4.585938-7.289063-8.535157-13.203125-12.484376-18.648438-1.636718-2.136719-3.386718-4.1875-5.242187-6.140625-7.214844-6.460937-12.003906-15.191406-13.574219-24.75-.613281-10.878906 5.636719-20.984375 15.648438-25.289062 9.285156-3.417969 19.6875-1.558594 27.214844 4.863281 4.824218 4.269531 9.09375 9.125 12.714843 14.453125l1.601563 2.167969c4.644531 6.222656 8.6875 11.949219 12.367187 17.578125 2.617188 3.867187 4.265625 6.042968 5.511719 7.722656 3.078125 4.027344 5.738281 8.359375 7.933594 12.929688 1.558594 2.714843 1.503906 6.058593-.136719 8.722656-1.640625 2.664062-4.609375 4.214844-7.730469 4.042968-3.125-.171874-5.902344-2.039062-7.242187-4.863281-1.777344-3.738281-3.9375-7.28125-6.453125-10.566406-1.382813-1.84375-3.164063-4.207031-6.09375-8.53125-3.546875-5.417969-7.398438-10.890625-11.84375-16.835937l-1.707032-2.261719c-2.773437-4.140625-6.035156-7.933594-9.710937-11.300781-2.734375-2.40625-6.492187-3.28125-10.007813-2.328126-3.238281 1.480469-5.25 4.78125-5.078124 8.335938 1.585937 5.605469 4.785156 10.621094 9.199218 14.421875 2.257813 2.414063 4.390625 4.941406 6.390625 7.570313 4.183594 5.777343 8.347657 11.945312 13.117188 19.574218 3.367187 5.324219 6.601562 10.75 9.703125 16.273438 4.90625 8.429687 9.445312 16.964844 13.601562 24.910156 1.9375 3.695312.914063 8.253906-2.414062 10.769531-14.710938 10.53125-26.867188 24.238281-35.558594 40.105469l69.734375-28.773438c2.816406-1.164062 6.042969-.738281 8.460937 1.121094 2.417969 1.859375 3.660157 4.867188 3.257813 7.886719-.398437 3.023437-2.382813 5.605469-5.199219 6.769531l-87.28125 36.027344c-1.03125.429688-2.140625.65625-3.257812.664062zm0 0"/><path d="m173.890625 233.773438c0 4.730468-3.832031 8.5625-8.558594 8.5625-4.726562 0-8.558593-3.832032-8.558593-8.5625 0-4.726563 3.832031-8.558594 8.558593-8.558594 4.726563 0 8.558594 3.832031 8.558594 8.558594zm0 0"/><path d="m73.742188 471.675781c-5.925782-.335937-11.6875-2.058593-16.828126-5.035156-4.835937-3.128906-10.585937-4.535156-16.324218-3.992187-6.144532 1.046874-12.414063-.96875-16.800782-5.402344-18.089843-17.367188-15.878906-73.285156-13.441406-94.019532.167969-3.960937 3.039063-7.285156 6.933594-8.027343 3.890625-.738281 7.785156 1.296875 9.390625 4.921875.488281 1.105468.738281 2.296875.734375 3.503906.007812.394531-.011719.789062-.058594 1.179688-3.6875 30.539062-.9375 71.296874 8.261719 80.128906 1.015625.972656 1.585937.980468 2.261719.851562 9.238281-1.164062 18.597656.785156 26.605468 5.539063 7.097657 3.5 9.308594 4.164062 13.03125 2.203125 4.898438-2.5625 6.363282-9.847656 6.742188-15.515625.199219-3.046875 2.007812-5.757813 4.75-7.109375 2.738281-1.351563 5.992188-1.140625 8.53125.558594 2.542969 1.695312 3.984375 4.621093 3.785156 7.667968-1.195312 18.175782-9.292968 26.085938-15.863281 29.519532-3.59375 1.960937-7.617187 3-11.710937 3.027343zm0 0"/></svg>