<svg height="512pt" viewBox="0 0 512 512.009" width="512pt" xmlns="http://www.w3.org/2000/svg"><path d="m424.367188 228.277344v55.464844c-5.414063 32.863281-20.335938 63.417968-42.921876 87.894531l-9.8125 9.8125c-24.476562 22.585937-55.03125 37.507812-87.894531 42.921875h-55.464843c-32.863282-5.414063-63.417969-20.335938-87.894532-42.921875l-9.8125-9.8125c-22.589844-24.476563-37.511718-55.03125-42.925781-87.894531v-55.464844c5.414063-32.863282 20.335937-63.417969 42.925781-87.894532l9.8125-9.8125c24.476563-22.589843 55.03125-37.511718 87.894532-42.925781h55.464843c32.863281 5.414063 63.417969 20.335938 87.894531 42.925781l9.8125 9.8125c22.585938 24.476563 37.507813 55.03125 42.921876 87.894532zm0 0" fill="#ffeb3a"/><path d="m262.0625 25.78125h-12.117188c-3.667968.082031-7.253906.253906-10.921874.597656 118.011718 8.570313 210.261718 105.285156 213.25 223.570313v12.117187c-2.988282 118.285156-95.238282 215.003906-213.25 223.574219 3.667968.339844 7.253906.511719 10.921874.597656h12.117188c122.492188-3.113281 221.058594-101.675781 224.171875-224.171875v-12.117187c-3.113281-122.492188-101.679687-221.054688-224.171875-224.167969zm0 0" fill="#ff9801"/><path d="m239.023438 26.378906c-118.011719 8.570313-210.261719 105.285156-213.246094 223.570313v12.117187c2.984375 118.285156 95.234375 215.003906 213.246094 223.574219 118.011718-8.570313 210.261718-105.289063 213.25-223.574219v-12.117187c-2.988282-118.285157-95.238282-215-213.25-223.570313zm185.34375 257.363282c-5.414063 32.863281-20.335938 63.417968-42.921876 87.894531l-9.8125 9.8125c-24.476562 22.585937-55.03125 37.507812-87.894531 42.921875h-55.464843c-32.863282-5.414063-63.417969-20.335938-87.894532-42.921875l-9.8125-9.8125c-22.589844-24.476563-37.511718-55.03125-42.925781-87.894531v-55.464844c5.414063-32.863282 20.335937-63.417969 42.925781-87.894532l9.8125-9.8125c24.476563-22.589843 55.03125-37.511718 87.894532-42.925781h55.464843c32.863281 5.414063 63.417969 20.335938 87.894531 42.925781l9.8125 9.8125c22.585938 24.476563 37.507813 55.03125 42.921876 87.894532zm0 0" fill="#fec108"/><path d="m365.230469 304.394531c-3.574219 8.109375-8.066407 15.785157-13.394531 22.867188l-24.578126 24.578125c-7.082031 5.328125-14.757812 9.820312-22.867187 13.394531h-96.769531c-8.113282-3.574219-15.785156-8.066406-22.871094-13.394531l-24.574219-24.578125c-5.328125-7.082031-9.824219-14.757813-13.398437-22.867188v-96.769531c3.574218-8.113281 8.070312-15.785156 13.398437-22.871094l24.574219-24.574218c7.085938-5.328126 14.757812-9.824219 22.871094-13.398438h96.769531c8.109375 3.574219 15.785156 8.070312 22.867187 13.398438l24.578126 24.574218c5.328124 7.085938 9.820312 14.757813 13.394531 22.871094zm0 0" fill="#cb8252"/><path d="m342.019531 312.5 9.816407 14.761719 29.609374 44.375 14.675782 22.015625 4.949218 7.421875-7.421874-4.949219-22.015626-14.675781-44.375-29.609375-14.761718-9.816406h-112.980469l-14.765625 9.816406-44.371094 29.609375-22.015625 14.675781-7.425781 4.949219 4.949219-7.421875 14.679687-22.015625 29.609375-44.375 9.8125-14.761719v-112.980469l-9.8125-14.765625-29.609375-44.371094-14.679687-22.015624-4.949219-7.425782 7.425781 4.949219 22.015625 14.679687 44.371094 29.609376 14.765625 9.8125h112.980469l14.761718-9.8125 44.375-29.609376 22.015626-14.679687 7.421874-4.949219-4.949218 7.425782-14.675782 22.015624-29.609374 44.371094-9.816407 14.765625zm0 0" fill="#d84315"/><path d="m503.472656 256.007812-183.296875 64.171876-64.171875 183.296874-64.167968-183.296874-183.296876-64.171876 183.296876-64.167968 64.167968-183.296875 64.171875 183.296875zm0 0" fill="#ff5722"/><path d="m256.003906 256.007812h-247.464844l183.296876-64.167968zm0 0" fill="#f57c00"/><path d="m256.003906 8.542969v247.464843l-64.167968-64.167968zm0 0" fill="#ffb301"/><path d="m320.175781 191.839844-64.171875 64.167968v-247.464843zm0 0" fill="#ff9801"/><path d="m503.472656 256.007812h-247.46875l64.171875-64.167968zm0 0" fill="#f57c00"/><path d="m256.003906 256.007812v247.46875l-64.167968-183.296874zm0 0" fill="#ff9801"/><path d="m249.945312 494.773438h-.210937c-127.097656-3.101563-229.394531-105.398438-232.492187-232.492188-.121094-4.710938 3.601562-8.625 8.3125-8.746094h.222656c4.628906-.003906 8.414062 3.691406 8.53125 8.320313 2.855468 118.03125 97.863281 213.035156 215.894531 215.890625 4.710937.058594 8.484375 3.929687 8.425781 8.640625-.058594 4.714843-3.925781 8.488281-8.640625 8.425781zm0 0"/><path d="m262.0625 494.773438c-4.710938.058593-8.578125-3.714844-8.640625-8.429688-.058594-4.710938 3.714844-8.578125 8.429687-8.640625 118.015626-2.851563 213.011719-97.835937 215.890626-215.847656.117187-4.628907 3.902343-8.324219 8.535156-8.320313h.222656c4.707031.121094 8.429688 4.035156 8.308594 8.746094-3.101563 127.109375-105.421875 229.40625-232.53125 232.480469zm0 0"/><path d="m486.234375 258.484375c-4.628906 0-8.417969-3.691406-8.535156-8.320313-2.875-118-97.851563-212.972656-215.847657-215.851562-4.714843-.058594-8.488281-3.925781-8.429687-8.640625.0625-4.710937 3.929687-8.484375 8.640625-8.425781h.214844c127.09375 3.097656 229.390625 105.394531 232.492187 232.492187.117188 4.707031-3.601562 8.625-8.3125 8.746094zm0 0"/><path d="m25.777344 258.484375h-.222656c-4.710938-.121094-8.433594-4.039063-8.3125-8.746094 3.101562-127.09375 105.398437-229.386719 232.492187-232.484375h.210937c4.714844-.058594 8.582032 3.714844 8.640626 8.425782.058593 4.714843-3.714844 8.582031-8.425782 8.640624-117.996094 2.878907-212.96875 97.847657-215.851562 215.84375-.117188 4.628907-3.902344 8.320313-8.53125 8.320313zm0 0"/><path d="m140.378906 139.101562c-3.519531.003907-6.683594-2.152343-7.960937-5.433593-1.277344-3.28125-.410157-7.007813 2.183593-9.386719 25.691407-23.730469 57.785157-39.394531 92.296876-45.058594 2.472656-.382812 4.988281.324219 6.898437 1.941406 1.90625 1.617188 3.019531 3.980469 3.050781 6.480469.027344 4.375-3.257812 8.058594-7.601562 8.535157-31.074219 5.183593-59.953125 19.332031-83.089844 40.710937-1.582031 1.433594-3.644531 2.222656-5.777344 2.210937zm0 0"/><path d="m87.640625 236.851562c-4.695313 0-8.507813-3.792968-8.53125-8.492187-.003906-.488281.03125-.976563.101563-1.457031 5.671874-34.507813 21.339843-66.597656 45.066406-92.289063 2.039062-2.332031 5.179687-3.375 8.210937-2.726562 3.027344.648437 5.46875 2.886719 6.375 5.847656.902344 2.964844.132813 6.1875-2.019531 8.417969-21.445312 23.21875-35.617188 52.214844-40.761719 83.402344-.613281 4.191406-4.207031 7.296874-8.441406 7.296874zm0 0"/><path d="m228.355469 432.90625h-.082031c-.460938 0-.921876-.039062-1.375-.113281-34.511719-5.660157-66.605469-21.324219-92.296876-45.054688-2.246093-2.0625-3.21875-5.167969-2.554687-8.144531s2.867187-5.375 5.777344-6.285156c2.910156-.914063 6.085937-.203125 8.332031 1.859375 23.214844 21.449219 52.210938 35.617187 83.394531 40.753906 4.425781.632813 7.613281 4.570313 7.3125 9.027344-.304687 4.460937-3.996093 7.929687-8.464843 7.957031zm0 0"/><path d="m130.566406 380.167969c-2.390625 0-4.675781-1-6.289062-2.765625-23.726563-25.691406-39.394532-57.777344-45.066406-92.285156-.070313-.457032-.105469-.914063-.101563-1.375-.027344-4.539063 3.507813-8.308594 8.042969-8.566407 4.53125-.261719 8.476562 3.070313 8.972656 7.585938 5.1875 31.078125 19.339844 59.960937 40.71875 83.105469 2.289062 2.492187 2.886719 6.101562 1.527344 9.199218s-4.421875 5.097656-7.804688 5.101563zm0 0"/><path d="m381.445312 380.167969c-3.382812-.003907-6.445312-2.003907-7.804687-5.101563-1.363281-3.097656-.761719-6.707031 1.523437-9.199218 21.445313-23.222657 35.617188-52.21875 40.765626-83.40625.652343-4.398438 4.578124-7.554688 9.015624-7.253907s7.902344 3.960938 7.957032 8.40625v.085938c.003906.460937-.03125.921875-.105469 1.375-5.667969 34.507812-21.339844 66.59375-45.0625 92.289062-1.609375 1.777344-3.890625 2.796875-6.289063 2.804688zm0 0"/><path d="m283.738281 432.90625c-4.574219.070312-8.390625-3.480469-8.648437-8.046875-.261719-4.566406 3.125-8.527344 7.675781-8.976563 31.074219-5.183593 59.953125-19.335937 83.089844-40.714843 2.246093-2.0625 5.421875-2.773438 8.332031-1.859375 2.910156.910156 5.109375 3.308594 5.777344 6.285156.664062 2.976562-.3125 6.082031-2.554688 8.144531-25.695312 23.730469-57.785156 39.394531-92.296875 45.054688-.457031.074219-.914062.113281-1.375.113281zm0 0"/><path d="m371.632812 139.101562c-2.140624 0-4.203124-.804687-5.777343-2.253906-23.214844-21.445312-52.210938-35.617187-83.398438-40.753906-4.421875-.628906-7.613281-4.566406-7.308593-9.023438.300781-4.460937 3.992187-7.929687 8.460937-7.957031h.085937c.460938 0 .921876.035157 1.375.109375 34.511719 5.664063 66.605469 21.328125 92.296876 45.058594 2.585937 2.371094 3.457031 6.089844 2.191406 9.367188-1.269532 3.277343-4.414063 5.441406-7.925782 5.453124zm0 0"/><path d="m424.367188 236.851562c-4.347657 0-8.003907-3.269531-8.480469-7.59375-5.191407-31.078124-19.34375-59.960937-40.722657-83.105468-2.148437-2.230469-2.921874-5.453125-2.015624-8.417969.90625-2.960937 3.34375-5.199219 6.375-5.847656 3.027343-.648438 6.171874.394531 8.210937 2.726562 23.722656 25.691407 39.394531 57.78125 45.0625 92.289063.074219.453125.109375.914062.105469 1.375.011718 2.269531-.882813 4.449218-2.484375 6.058594-1.601563 1.609374-3.78125 2.515624-6.050781 2.515624zm0 0"/><path d="m184.761719 168.714844c-3.675781 0-6.933594-2.351563-8.097657-5.835938-1.160156-3.484375.039063-7.320312 2.976563-9.527344 7.609375-5.710937 15.851563-10.535156 24.558594-14.378906 2.8125-1.332031 6.125-1.027344 8.648437.792969 2.523438 1.820313 3.855469 4.871094 3.476563 7.960937-.378907 3.085938-2.410157 5.722657-5.296875 6.878907-7.507813 3.320312-14.609375 7.488281-21.171875 12.417969-1.472657 1.097656-3.257813 1.6875-5.09375 1.691406zm0 0"/><path d="m146.777344 216.167969c-2.875-.003907-5.554688-1.457031-7.128906-3.867188-1.574219-2.40625-1.828126-5.445312-.679688-8.082031 3.839844-8.703125 8.660156-16.941406 14.371094-24.550781 2.828125-3.769531 8.175781-4.53125 11.945312-1.703125 3.773438 2.824218 4.535156 8.175781 1.707032 11.945312-4.929688 6.566406-9.097657 13.675782-12.414063 21.1875-1.371094 3.082032-4.425781 5.070313-7.800781 5.070313zm0 0"/><path d="m351.824219 335.796875c-1.847657.003906-3.644531-.59375-5.117188-1.707031-3.773437-2.828125-4.535156-8.175782-1.707031-11.949219 4.933594-6.566406 9.097656-13.671875 12.414062-21.1875 1.976563-4.164063 6.902344-6.011719 11.128907-4.164063 4.222656 1.84375 6.21875 6.710938 4.503906 10.992188-3.839844 8.703125-8.660156 16.941406-14.367187 24.550781-1.609376 2.175781-4.148438 3.460938-6.855469 3.464844zm0 0"/><path d="m304.398438 373.769531c-4.039063-.003906-7.519532-2.839843-8.34375-6.789062-.824219-3.953125 1.230468-7.941407 4.929687-9.5625 7.507813-3.320313 14.609375-7.484375 21.171875-12.414063 2.4375-1.828125 5.667969-2.21875 8.472656-1.023437 2.800782 1.199219 4.753906 3.800781 5.117188 6.828125.367187 3.027344-.910156 6.019531-3.351563 7.847656-7.609375 5.714844-15.851562 10.539062-24.558593 14.378906-1.082032.484375-2.253907.734375-3.4375.734375zm0 0"/><path d="m365.230469 216.167969c-3.394531 0-6.464844-2.011719-7.824219-5.121094-3.316406-7.511719-7.484375-14.621094-12.414062-21.1875-2.828126-3.769531-2.066407-9.121094 1.703124-11.949219 3.773438-2.824218 9.121094-2.0625 11.949219 1.707032 5.707031 7.609374 10.53125 15.847656 14.371094 24.550781 1.148437 2.636719.894531 5.675781-.679687 8.082031-1.574219 2.410156-4.253907 3.859375-7.128907 3.867188zm0 0"/><path d="m327.25 168.714844c-1.847656.003906-3.644531-.597656-5.121094-1.707032-6.5625-4.933593-13.664062-9.097656-21.171875-12.417968-2.886719-1.15625-4.917969-3.792969-5.296875-6.882813-.378906-3.085937.953125-6.136719 3.476563-7.957031 2.523437-1.820312 5.835937-2.125 8.648437-.792969 8.707032 3.839844 16.949219 8.664063 24.558594 14.378907 2.9375 2.203124 4.136719 6.039062 2.976562 9.523437-1.164062 3.484375-4.421874 5.835937-8.097656 5.835937zm0 0"/><path d="m207.613281 373.769531c-1.175781 0-2.339843-.242187-3.414062-.71875-8.707031-3.839843-16.949219-8.664062-24.558594-14.378906-3.769531-2.824219-4.535156-8.175781-1.707031-11.945313 2.828125-3.769531 8.175781-4.535156 11.945312-1.707031 6.5625 4.929688 13.667969 9.097657 21.171875 12.417969 3.699219 1.617188 5.753907 5.605469 4.929688 9.558594s-4.304688 6.785156-8.34375 6.789062zm0 0"/><path d="m160.183594 335.796875c-2.683594 0-5.214844-1.265625-6.824219-3.414063-5.710937-7.609374-10.53125-15.847656-14.371094-24.550781-1.714843-4.28125.28125-9.148437 4.503907-10.992187 4.226562-1.847656 9.152343 0 11.128906 4.164062 3.316406 7.515625 7.480468 14.625 12.414062 21.191406 2.828125 3.769532 2.066406 9.117188-1.707031 11.945313-1.484375 1.101563-3.292969 1.683594-5.144531 1.65625zm0 0"/><path d="m256.003906 512.007812c-3.625.003907-6.855468-2.285156-8.054687-5.707031l-62.769531-179.464843-179.457032-62.769532c-3.425781-1.199218-5.71874975-4.429687-5.71874975-8.058594 0-3.625 2.29296875-6.855468 5.71874975-8.054687l179.457032-62.769531 62.769531-179.464844c1.195312-3.425781 4.429687-5.71875 8.054687-5.71875 3.628906 0 6.859375 2.292969 8.054688 5.71875l62.773437 179.464844 179.457031 62.769531c3.421876 1.199219 5.714844 4.429687 5.714844 8.054687 0 3.628907-2.292968 6.859376-5.714844 8.058594l-179.457031 62.769532-62.804687 179.4375c-1.1875 3.421874-4.402344 5.71875-8.023438 5.734374zm-221.636718-256 160.300781 56.109376c2.449219.855468 4.378906 2.78125 5.238281 5.230468l56.097656 160.296875 56.097656-160.296875c.859376-2.449218 2.789063-4.375 5.242188-5.230468l160.296875-56.109376-160.296875-56.105468c-2.453125-.855469-4.382812-2.78125-5.242188-5.230469l-56.097656-160.300781-56.097656 160.300781c-.859375 2.449219-2.789062 4.375-5.238281 5.230469zm0 0"/><path d="m320.167969 328.703125c-2.265625 0-4.433594-.898437-6.035157-2.5l-128.324218-128.324219c-3.234375-3.347656-3.1875-8.667968.105468-11.960937 3.292969-3.292969 8.613282-3.339844 11.960938-.105469l128.324219 128.324219c2.441406 2.441406 3.171875 6.113281 1.851562 9.300781-1.320312 3.1875-4.433593 5.265625-7.882812 5.265625zm0 0"/><path d="m191.84375 328.703125c-3.453125 0-6.5625-2.078125-7.882812-5.265625-1.320313-3.1875-.589844-6.859375 1.847656-9.300781l128.324218-128.324219c3.347657-3.234375 8.671876-3.1875 11.964844.105469 3.289063 3.292969 3.335938 8.613281.101563 11.960937l-128.324219 128.324219c-1.597656 1.601563-3.769531 2.5-6.03125 2.5zm0 0"/><path d="m256.003906 512.007812c-4.710937 0-8.53125-3.820312-8.53125-8.53125v-494.933593c0-4.714844 3.820313-8.5351565 8.53125-8.5351565 4.714844 0 8.535156 3.8203125 8.535156 8.5351565v494.933593c0 4.710938-3.820312 8.53125-8.535156 8.53125zm0 0"/><path d="m503.472656 264.542969h-494.933594c-4.714843 0-8.53515575-3.820313-8.53515575-8.535157 0-4.710937 3.82031275-8.53125 8.53515575-8.53125h494.933594c4.710938 0 8.53125 3.820313 8.53125 8.53125 0 4.714844-3.820312 8.535157-8.53125 8.535157zm0 0"/><path d="m186.167969 66.800781c0 4.710938-3.820313 8.53125-8.53125 8.53125-4.714844 0-8.535157-3.820312-8.535157-8.53125 0-4.714843 3.820313-8.535156 8.535157-8.535156 4.710937 0 8.53125 3.820313 8.53125 8.535156zm0 0"/><path d="m342.910156 445.21875c0 4.710938-3.820312 8.53125-8.535156 8.53125-4.710938 0-8.535156-3.820312-8.535156-8.53125 0-4.714844 3.824218-8.535156 8.535156-8.535156 4.714844 0 8.535156 3.820312 8.535156 8.535156zm0 0"/><path d="m453.746094 177.640625c0 4.710937-3.820313 8.53125-8.53125 8.53125-4.714844 0-8.535156-3.820313-8.535156-8.53125 0-4.714844 3.820312-8.535156 8.535156-8.535156 4.710937 0 8.53125 3.820312 8.53125 8.535156zm0 0"/><path d="m75.328125 334.378906c0 4.714844-3.820313 8.535156-8.53125 8.535156-4.714844 0-8.535156-3.820312-8.535156-8.535156 0-4.710937 3.820312-8.53125 8.535156-8.53125 4.710937 0 8.53125 3.820313 8.53125 8.53125zm0 0"/><path d="m409.359375 111.191406c0 4.710938-3.824219 8.53125-8.535156 8.53125-4.710938 0-8.535157-3.820312-8.535157-8.53125 0-4.714844 3.824219-8.535156 8.535157-8.535156 4.710937 0 8.535156 3.820312 8.535156 8.535156zm0 0"/><path d="m119.71875 400.828125c0 4.714844-3.820312 8.535156-8.53125 8.535156-4.714844 0-8.535156-3.820312-8.535156-8.535156 0-4.710937 3.820312-8.535156 8.535156-8.535156 4.710938 0 8.53125 3.824219 8.53125 8.535156zm0 0"/><path d="m409.359375 400.828125c0 4.714844-3.824219 8.535156-8.535156 8.535156-4.710938 0-8.535157-3.820312-8.535157-8.535156 0-4.710937 3.824219-8.535156 8.535157-8.535156 4.710937 0 8.535156 3.824219 8.535156 8.535156zm0 0"/><path d="m119.71875 111.191406c0 4.710938-3.820312 8.53125-8.53125 8.53125-4.714844 0-8.535156-3.820312-8.535156-8.53125 0-4.714844 3.820312-8.535156 8.535156-8.535156 4.710938 0 8.53125 3.820312 8.53125 8.535156zm0 0"/><path d="m342.910156 66.800781c0 4.710938-3.820312 8.53125-8.535156 8.53125-4.710938 0-8.535156-3.820312-8.535156-8.53125 0-4.714843 3.824218-8.535156 8.535156-8.535156 4.714844 0 8.535156 3.820313 8.535156 8.535156zm0 0"/><path d="m186.167969 445.21875c0 4.710938-3.820313 8.53125-8.53125 8.53125-4.714844 0-8.535157-3.820312-8.535157-8.53125 0-4.714844 3.820313-8.535156 8.535157-8.535156 4.710937 0 8.53125 3.820312 8.53125 8.535156zm0 0"/><path d="m453.746094 334.378906c0 4.714844-3.820313 8.535156-8.53125 8.535156-4.714844 0-8.535156-3.820312-8.535156-8.535156 0-4.710937 3.820312-8.53125 8.535156-8.53125 4.710937 0 8.53125 3.820313 8.53125 8.53125zm0 0"/><path d="m75.328125 177.640625c0 4.710937-3.820313 8.53125-8.53125 8.53125-4.714844 0-8.535156-3.820313-8.535156-8.53125 0-4.714844 3.820312-8.535156 8.535156-8.535156 4.710937 0 8.53125 3.820312 8.53125 8.535156zm0 0"/><path d="m110.9375 409.609375c-3.148438 0-6.039062-1.734375-7.523438-4.507813-1.484374-2.777343-1.324218-6.144531.425782-8.761718l59.039062-88.566406c2.613282-3.925782 7.910156-4.992188 11.835938-2.382813 3.925781 2.613281 4.992187 7.910156 2.382812 11.835937l-35.398437 53.078126 53.085937-35.378907c2.539063-1.707031 5.796875-1.929687 8.542969-.574219 2.742187 1.351563 4.550781 4.070313 4.742187 7.125.1875 3.054688-1.273437 5.976563-3.828124 7.65625l-88.566407 59.042969c-1.402343.933594-3.050781 1.433594-4.738281 1.433594zm0 0"/><path d="m401.070312 409.609375c-1.683593 0-3.332031-.5-4.734374-1.433594l-88.566407-59.042969c-2.558593-1.679687-4.015625-4.601562-3.828125-7.65625.1875-3.054687 1.996094-5.773437 4.742188-7.125 2.742187-1.355468 6-1.132812 8.539062.574219l53.128906 35.378907-35.394531-53.078126c-2.613281-3.925781-1.546875-9.222656 2.378907-11.835937 3.925781-2.609375 9.226562-1.542969 11.835937 2.382813l59.042969 88.566406c1.75 2.625 1.910156 6 .414062 8.78125-1.496094 2.777344-4.402344 4.503906-7.558594 4.488281zm0 0"/><path d="m342.011719 208.050781c-3.144531 0-6.035157-1.730469-7.519531-4.503906-1.484376-2.773437-1.320313-6.136719.421874-8.757813l35.394532-53.074218-53.085938 35.378906c-2.539062 1.707031-5.796875 1.925781-8.539062.574219-2.746094-1.355469-4.554688-4.074219-4.742188-7.128907-.1875-3.050781 1.269532-5.972656 3.828125-7.65625l88.566407-59.039062c3.382812-2.261719 7.894531-1.816406 10.773437 1.0625 2.878906 2.875 3.324219 7.386719 1.0625 10.773438l-59.042969 88.566406c-1.585937 2.378906-4.257812 3.808594-7.117187 3.804687zm0 0"/><path d="m169.996094 208.050781c-2.859375.003907-5.53125-1.425781-7.117188-3.804687l-59.039062-88.566406c-2.261719-3.386719-1.816406-7.898438 1.0625-10.773438 2.875-2.878906 7.386718-3.324219 10.773437-1.0625l88.566407 59.039062c2.554687 1.683594 4.015624 4.605469 3.828124 7.65625-.191406 3.054688-2 5.773438-4.742187 7.128907-2.746094 1.351562-6.003906 1.132812-8.542969-.574219l-53.085937-35.378906 35.398437 53.074218c1.742188 2.621094 1.902344 5.984376.417969 8.757813s-4.375 4.503906-7.519531 4.503906zm0 0"/></svg>