<svg height="512pt" viewBox="0 -68 512 512" width="512pt" xmlns="http://www.w3.org/2000/svg"><path d="m451.925781 164.949219 13.140625 22.785156h-21.332031c-1.457031 0-2.910156.085937-4.351563.253906-21.765624 2.203125-38.328124 20.535157-38.316406 42.410157.035156 11.328124-4.449218 22.199218-12.457031 30.210937-8.011719 8.007813-18.882813 12.492187-30.210937 12.457031h-315.730469c-18.851563 0-34.132813-15.28125-34.132813-34.132812v-196.265625c0-18.851563 15.28125-34.132813 34.132813-34.132813h315.730469c23.566406 0 42.667968 19.101563 42.667968 42.664063-.089844 21.941406 16.558594 40.328125 38.398438 42.410156 1.417968.175781 2.84375.257813 4.269531.257813h21.332031l-14.933594 21.332031zm0 0" fill="#00838f"/><path d="m426.324219 164.949219 13.140625 22.785156h-21.332032c-23.5625 0-42.667968 19.101563-42.667968 42.664063.035156 11.328124-4.449219 22.199218-12.457032 30.210937-8.007812 8.007813-18.882812 12.492187-30.207031 12.457031h-290.132812c-18.851563 0-34.132813-15.28125-34.132813-34.132812v-196.265625c0-18.851563 15.28125-34.132813 34.132813-34.132813h290.132812c23.5625 0 42.664063 19.101563 42.664063 42.664063-.03125 11.328125 4.453125 22.199219 12.460937 30.207031 8.007813 8.011719 18.882813 12.496094 30.207031 12.460938h21.332032l-14.929688 21.332031zm0 0" fill="#00bcd4"/><path d="m469.332031 93.867188v93.867187h-4.265625l-25.035156-5.566406c-7.796875-1.730469-13.347656-8.636719-13.363281-16.621094v-49.492187c0-8 5.554687-14.921876 13.363281-16.660157l25.035156-5.527343zm0 0" fill="#ffb301"/><path d="m503.464844 106.582031v68.4375c.011718 5.171875-2.328125 10.070313-6.363282 13.304688-4.035156 3.238281-9.324218 4.464843-14.371093 3.335937l-17.664063-3.925781h4.265625v-93.867187h-4.265625l17.664063-3.925782c5.046875-1.132812 10.335937.09375 14.371093 3.332032 4.035157 3.238281 6.375 8.136718 6.363282 13.308593zm0 0" fill="#f57c00"/><path d="m213.929688 93.867188h-63.4375c-1.433594.007812-2.769532.734374-3.554688 1.9375-.78125 1.203124-.910156 2.71875-.335938 4.035156 10.121094 25.660156 9.195313 54.363281-2.558593 79.316406v.042969h1.023437l66.664063 15.464843c.9375-.921874.671875-16.921874 1.601562-17.851562zm0 0" fill="#ffeb3a"/><path d="m312.917969 366.933594h-199.167969c-9.890625-.003906-18.890625-5.707032-23.125-14.644532-4.230469-8.9375-2.9375-19.515624 3.328125-27.167968l42.582031-52.054688h153.597656l42.582032 52.054688c6.261718 7.652344 7.558594 18.230468 3.324218 27.167968-4.230468 8.9375-13.230468 14.640626-23.121093 14.644532zm0 0" fill="#d84315"/><path d="m281.683594 366.933594h-167.933594c-9.890625-.003906-18.890625-5.707032-23.125-14.644532-4.230469-8.9375-2.9375-19.515624 3.328125-27.167968l42.582031-52.054688h122.367188l42.664062 52.054688c6.273438 7.664062 7.5625 18.261718 3.308594 27.207031s-13.285156 14.632813-23.191406 14.605469zm0 0" fill="#ff5722"/><path d="m143.164062 318.863281 6.980469-8.53125c1.621094-1.980469 4.042969-3.132812 6.605469-3.132812h113.167969c2.558593 0 4.984375 1.152343 6.605469 3.132812l6.980468 8.53125c2.085938 2.554688 2.515625 6.078125 1.105469 9.058594-1.414063 2.976563-4.414063 4.878906-7.710937 4.878906h-127.148438c-3.292969-.007812-6.289062-1.910156-7.695312-4.886719-1.40625-2.976562-.976563-6.5 1.109374-9.050781zm0 0" fill="#ff9801"/><path d="m256.597656 93.867188c-.878906-10.894532-3.570312-21.566407-7.960937-31.574219-.707031-1.5625-2.269531-2.566407-3.984375-2.558594h-59c-1.4375.003906-2.773438.734375-3.558594 1.9375-.78125 1.203125-.90625 2.71875-.332031 4.035156 9.300781 23.605469 9.300781 49.863281 0 73.472657-.574219 1.316406-.449219 2.832031.332031 4.035156.785156 1.203125 2.121094 1.929687 3.558594 1.9375h60.585937l2.023438-1.707032zm0 0" fill="#ffe0b2"/><path d="m315.222656 153.601562c3.394532-19.316406 1.019532-39.203124-6.828125-57.175781-.710937-1.566406-2.273437-2.566406-3.992187-2.558593h-59.019532c-1.4375.003906-2.773437.730468-3.558593 1.933593-.789063 1.203125-.914063 2.722657-.339844 4.039063 5.429687 13.832031 7.734375 28.695312 6.75 43.519531v.085937c-.882813 12.386719-4.035156 24.507813-9.300781 35.753907 11.433594 0 65.449218 8.535156 76.800781 8.535156zm0 0" fill="#ffe0b2"/><path d="m363.640625 153.601562h-64.972656c0 14.136719-11.460938 25.597657-25.601563 25.597657h-128c-14.136718 0-25.601562-11.460938-25.601562-25.597657v-25.601562c0-4.710938-3.820313-8.535156-8.53125-8.535156h-42.667969c-4.710937 0-8.53125 3.824218-8.53125 8.535156v34.132812c0 9.425782 7.640625 17.066407 17.066406 17.066407 0 32.992187 26.742188 59.734375 59.734375 59.734375h145.066406c24.953126.007812 47.285157-15.5 55.996094-38.886719 5.707032-16.449219 14.894532-31.472656 26.9375-44.050781l.070313-.066406c.386719-.390626.503906-.976563.292969-1.488282-.210938-.507812-.707032-.839844-1.257813-.839844zm0 0" fill="#795548"/><path d="m358.398438 281.601562h-315.730469c-23.554688-.03125-42.6406252-19.117187-42.667969-42.667968v-196.265625c.0273438-23.554688 19.113281-42.6406252 42.667969-42.667969h315.730469c28.265624.0273438 51.171874 22.933594 51.203124 51.199219-.039062 9.066406 3.546876 17.769531 9.957032 24.175781 6.40625 6.410156 15.109375 9.996094 24.175781 9.957031h25.597656c4.714844 0 8.535157 3.820313 8.535157 8.535157v93.867187c0 4.710937-3.820313 8.53125-8.535157 8.53125h-25.597656c-18.851563 0-34.132813 15.28125-34.132813 34.132813.03125 13.589843-5.351562 26.632812-14.960937 36.242187s-22.652344 14.992187-36.242187 14.960937zm-315.730469-264.535156c-14.140625 0-25.601563 11.460938-25.601563 25.601563v196.265625c0 14.136718 11.460938 25.601562 25.601563 25.601562h315.730469c9.066406.035156 17.769531-3.550781 24.179687-9.957031 6.40625-6.410156 9.992187-15.113281 9.957031-24.179687.027344-28.265626 22.933594-51.171876 51.199219-51.199219h17.066406v-76.800781h-17.066406c-13.589844.035156-26.632813-5.347657-36.242187-14.957032-9.609376-9.609375-14.992188-22.652344-14.957032-36.242187 0-18.851563-15.285156-34.132813-34.136718-34.132813zm0 0"/><path d="m486.453125 200.59375c-1.886719.003906-3.761719-.203125-5.601563-.613281l-56.035156-12.453125c-3.90625-.867188-6.683594-4.328125-6.683594-8.328125v-76.800781c0-3.996094 2.777344-7.460938 6.683594-8.328126l56.035156-12.449218c7.578126-1.683594 15.511719.164062 21.566407 5.023437 6.054687 4.855469 9.582031 12.199219 9.582031 19.960938v68.386719c0 14.121093-11.429688 25.574218-25.546875 25.601562zm-51.253906-28.21875 49.347656 10.964844c2.535156.566406 5.1875-.0625 7.195313-1.707032 2.019531-1.621093 3.191406-4.070312 3.191406-6.65625v-68.371093c0-2.585938-1.175782-5.035157-3.195313-6.652344-2.019531-1.621094-4.664062-2.238281-7.191406-1.675781l-49.347656 10.949218zm0 0"/><path d="m281.601562 247.464844h-145.066406c-34.902344-.042969-64.164062-26.363282-67.894531-61.0625-10.414063-3.515625-17.429687-13.277344-17.441406-24.269532v-34.132812c0-9.425781 7.640625-17.066406 17.066406-17.066406h42.667969c9.425781 0 17.066406 7.640625 17.066406 17.066406v25.601562c0 9.425782 7.640625 17.066407 17.066406 17.066407h128c9.425782 0 17.066406-7.640625 17.066406-17.066407 0-4.714843 3.820313-8.535156 8.535157-8.535156h68.265625c3.449218 0 6.5625 2.078125 7.882812 5.269532 1.320313 3.1875.589844 6.855468-1.851562 9.296874l-2.394532 2.398438c-11.203124 11.679688-19.726562 25.65625-24.980468 40.960938-10.011719 26.683593-35.488282 44.394531-63.988282 44.472656zm-213.335937-119.464844v34.132812c0 4.714844 3.820313 8.535157 8.535156 8.535157 4.710938 0 8.53125 3.820312 8.53125 8.53125.03125 28.265625 22.9375 51.171875 51.203125 51.199219h145.066406c21.367188-.054688 40.472657-13.324219 47.988282-33.328126 4.46875-12.457031 10.675781-24.21875 18.433594-34.9375h-41.90625c-3.90625 15.0625-17.492188 25.582032-33.050782 25.601563h-128c-18.851562 0-34.132812-15.28125-34.132812-34.132813v-25.601562zm0 0"/><path d="m213.332031 187.734375c-4.710937 0-8.53125-3.820313-8.53125-8.535156v-34.132813c0-4.710937 3.820313-8.53125 8.53125-8.53125 4.714844 0 8.535157 3.820313 8.535157 8.53125v34.132813c0 4.714843-3.820313 8.535156-8.535157 8.535156zm0 0"/><path d="m213.332031 68.265625c-4.710937 0-8.53125-3.820313-8.53125-8.53125v-17.066406c0-4.714844 3.820313-8.535157 8.53125-8.535157 4.714844 0 8.535157 3.820313 8.535157 8.535157v17.066406c0 4.710937-3.820313 8.53125-8.535157 8.53125zm0 0"/><path d="m247.464844 153.601562h-68.265625c-2.917969-.003906-5.636719-1.496093-7.199219-3.960937-1.566406-2.464844-1.761719-5.558594-.523438-8.199219 11.667969-24.722656 11.667969-53.363281 0-78.082031-1.238281-2.640625-1.042968-5.734375.523438-8.199219 1.5625-2.464844 4.28125-3.960937 7.199219-3.960937h68.265625c3.289062.015625 6.277344 1.917969 7.683594 4.890625 5.523437 11.664062 8.886718 24.230468 9.921874 37.09375.394532 4.695312-3.09375 8.824218-7.789062 9.214844-2.261719.207031-4.511719-.507813-6.242188-1.980469-1.726562-1.472657-2.792968-3.578125-2.949218-5.84375-.722656-9.03125-2.8125-17.902344-6.203125-26.308594h-50.109375c7.355468 22.164063 7.355468 46.105469 0 68.269531h51.953125c2.300781-1.445312 5.160156-1.691406 7.679687-.667968 2.074219.800781 3.738282 2.40625 4.609375 4.453124.871094 2.046876.875 4.359376.015625 6.410157l-.480468 1.058593c-1.40625 3.289063-4.523438 5.527344-8.089844 5.8125zm0 0"/><path d="m273.066406 187.734375h-34.132812c-2.914063-.003906-5.625-1.492187-7.191406-3.949219-1.566407-2.457031-1.769532-5.542968-.539063-8.1875 11.640625-24.734375 11.640625-53.371094 0-78.105468-1.242187-2.644532-1.046875-5.738282.523437-8.203126 1.566407-2.464843 4.285157-3.957031 7.207032-3.957031h68.265625c3.289062.015625 6.277343 1.917969 7.679687 4.890625 9.5625 20.191406 12.609375 42.855469 8.722656 64.855469-.804687 4.644531-5.226562 7.753906-9.871093 6.949219-4.644531-.804688-7.753907-5.226563-6.949219-9.871094 2.976562-16.738281 1.191406-33.980469-5.152344-49.757812h-50.132812c4.386718 13.378906 6.171875 27.476562 5.253906 41.523437-.621094 9.101563-2.390625 18.085937-5.253906 26.746094h21.570312c4.714844 0 8.535156 3.820312 8.535156 8.53125 0 4.714843-3.820312 8.535156-8.535156 8.535156zm0 0"/><path d="m212.308594 187.734375h-68.265625c-4.714844 0-8.535157-3.820313-8.535157-8.535156 0-1.28125.277344-2.546875.8125-3.710938 11.648438-24.695312 11.648438-53.300781 0-77.996093-1.242187-2.640626-1.042968-5.734376.519532-8.199219 1.566406-2.464844 4.28125-3.960938 7.203125-3.960938h44.289062c4.710938 0 8.53125 3.820313 8.53125 8.535157 0 4.710937-3.820312 8.53125-8.53125 8.53125h-31.710937c7.363281 22.160156 7.363281 46.109374 0 68.269531h51.113281c2.199219-1.875 5.195313-2.515625 7.972656-1.707031 2.160157.582031 3.992188 2.011718 5.089844 3.964843 1.09375 1.953125 1.355469 4.261719.726563 6.410157-.316407 1.003906-.710938 1.980468-1.183594 2.917968-1.492188 3.144532-4.5625 5.238282-8.03125 5.480469zm0 0"/><path d="m273.066406 213.332031c0 4.714844-3.820312 8.535157-8.53125 8.535157-4.714844 0-8.535156-3.820313-8.535156-8.535157 0-4.710937 3.820312-8.53125 8.535156-8.53125 4.710938 0 8.53125 3.820313 8.53125 8.53125zm0 0"/><path d="m238.933594 213.332031c0 4.714844-3.820313 8.535157-8.535156 8.535157-4.710938 0-8.53125-3.820313-8.53125-8.535157 0-4.710937 3.820312-8.53125 8.53125-8.53125 4.714843 0 8.535156 3.820313 8.535156 8.53125zm0 0"/><path d="m204.800781 213.332031c0 4.714844-3.820312 8.535157-8.535156 8.535157-4.710937 0-8.53125-3.820313-8.53125-8.535157 0-4.710937 3.820313-8.53125 8.53125-8.53125 4.714844 0 8.535156 3.820313 8.535156 8.53125zm0 0"/><path d="m170.667969 213.332031c0 4.714844-3.820313 8.535157-8.535157 8.535157-4.710937 0-8.53125-3.820313-8.53125-8.535157 0-4.710937 3.820313-8.53125 8.53125-8.53125 4.714844 0 8.535157 3.820313 8.535157 8.53125zm0 0"/><path d="m312.910156 375.464844h-199.152344c-13.195312.015625-25.214843-7.578125-30.875-19.5-5.65625-11.917969-3.933593-26.035156 4.421876-36.246094l42.597656-52.054688c1.625-1.988281 4.0625-3.136718 6.632812-3.128906h153.597656c2.558594 0 4.984376 1.148438 6.605469 3.128906l42.597657 52.054688c8.355468 10.207031 10.078124 24.316406 4.425781 36.234375-5.648438 11.921875-17.664063 19.515625-30.851563 19.511719zm-172.332031-93.863282-40.03125 48.921876c-4.175781 5.101562-5.039063 12.15625-2.214844 18.117187s8.828125 9.761719 15.425781 9.757813h199.152344c6.59375.003906 12.601563-3.796876 15.425782-9.757813 2.824218-5.960937 1.960937-13.015625-2.21875-18.117187l-40.027344-48.921876zm0 0"/><path d="m51.199219 51.199219h-8.53125c-4.714844 0-8.535157-3.820313-8.535157-8.53125 0-4.714844 3.820313-8.535157 8.535157-8.535157h8.53125c4.714843 0 8.535156 3.820313 8.535156 8.535157 0 4.710937-3.820313 8.53125-8.535156 8.53125zm0 0"/><path d="m128 51.199219h-42.667969c-4.710937 0-8.53125-3.820313-8.53125-8.53125 0-4.714844 3.820313-8.535157 8.53125-8.535157h42.667969c4.710938 0 8.535156 3.820313 8.535156 8.535157 0 4.710937-3.824218 8.53125-8.535156 8.53125zm0 0"/></svg>