<svg height="505pt" viewBox="0 -27 505.07913 505" width="505pt" xmlns="http://www.w3.org/2000/svg"><path d="m204.132812 275.179688 37.351563 34.582031s27.808594 16.492187 43.378906 6.175781c15.570313-10.316406-13.992187-97.128906-62.113281-94.25-48.117188 2.878906-37.089844 25.878906-18.617188 53.492188zm0 0" fill="#607d8b"/><path d="m496.308594 207.949219c-.398438 6.644531-4.675782 12.433593-10.910156 14.769531-48.148438 18.484375-93.160157 44.277344-133.457032 76.464844.789063-6.277344.273438-12.648438-1.507812-18.714844-6.210938-22.578125-27.449219-46.417969-53.214844-72.101562-32.398438-32.480469-62.699219-59.089844-90.734375-55.816407 19.777344-35.507812 34.632813-73.542969 44.148437-113.058593.75-3.214844 2.480469-6.121094 4.953126-8.308594 15.808593-12.96875 35.253906-20.710938 55.648437-22.160156 36.09375-3.609376 80.914063 7.636718 125.230469 42.386718 60.179687 47.253906 61.609375 127.078125 59.84375 156.539063zm0 0" fill="#ff9801"/><path d="m469.617188 207.949219c-.398438 6.644531-4.675782 12.433593-10.910157 14.769531-38.371093 14.632812-74.75 34.035156-108.273437 57.75-6.210938-22.578125-27.449219-46.417969-53.214844-72.101562-32.398438-32.480469-62.699219-59.089844-90.734375-55.816407 19.777344-35.507812 34.632813-73.542969 44.148437-113.058593.75-3.214844 2.480469-6.121094 4.953126-8.308594 15.808593-12.96875 35.253906-20.710938 55.648437-22.160156 36.222656 4.421874 70.417969 19.128906 98.539063 42.386718 60.179687 47.253906 61.609374 127.078125 59.84375 156.539063zm0 0" fill="#fec108"/><path d="m351.941406 299.183594c-.859375 9.09375-4.796875 17.621094-11.160156 24.175781-7.894531 7.46875-18.34375 11.640625-29.210938 11.664063 1.882813-1.203126 3.625-2.613282 5.203126-4.195313 21.90625-21.90625-13.765626-55.339844-52.792969-94.453125-39.03125-39.113281-66.730469-68.882812-88.636719-47-2.328125 2.277344-4.285156 4.914062-5.789062 7.804688-.863282-12.253907 3.390624-24.320313 11.75-33.324219 6.820312-6.589844 15.722656-10.597657 25.179687-11.328125 28.035156-3.273438 66.894531 13.765625 99.378906 46.246094 32.902344 32.929687 49.941407 72.292968 46.078125 100.410156zm0 0" fill="#f57c00"/><path d="m263.980469 267.457031c-5.625 8.730469-14.4375 24.761719-23.585938 41.546875-10.996093 19.976563-22.664062 41.128906-30.554687 52.964844-17.289063 25.933594-30.464844 49.773438-56.988282 67.3125-30.570312 19.335938-69.609374 19.039062-99.882812-.753906-7.820312-4.984375-14.816406-11.15625-20.730469-18.296875 1.257813.996093 2.574219 1.921875 3.941407 2.769531 30.273437 19.792969 69.316406 20.089844 99.882812.753906 26.523438-17.539062 39.703125-41.378906 56.992188-67.3125 7.890624-11.835937 19.558593-32.988281 30.550781-52.964844 9.152343-16.785156 17.964843-32.816406 23.585937-41.546874-2.761718-4.234376-5.847656-8.246094-9.230468-12.003907 4.882812 3.523438 9.40625 7.515625 13.511718 11.921875.671875.667969 1.257813 1.257813 1.847656 1.929688 3.925782 4.253906 7.492188 8.832031 10.660157 13.679687zm0 0" fill="#607d8b"/><path d="m247.191406 251.929688c-5.621094 8.730468-14.433594 24.761718-23.585937 41.546874-10.992188 19.976563-22.660157 41.128907-30.550781 52.964844-17.289063 25.933594-30.46875 49.773438-56.992188 67.3125-30.566406 19.335938-69.609375 19.039063-99.882812-.753906-1.367188-.847656-2.683594-1.773438-3.941407-2.769531-16.875-21.535157-25.320312-48.480469-23.753906-75.792969 1.800781-52.023438 27.273437-100.371094 69.160156-131.273438 3.628907-2.683593 7.410157-5.152343 11.332031-7.386718 6.414063-3.832032 13.15625-7.089844 20.144532-9.734375 1.59375-.625 3.40625-.199219 4.5625 1.066406 1.152344 1.265625 1.40625 3.109375.640625 4.640625-10.296875 21.15625-17.722657 43.597656-22.074219 66.726562-4.867188 24.089844-10.910156 51.03125-6.96875 75.625.726562 4.734376 2.199219 9.324219 4.367188 13.597657 4.144531 10.601562 14.757812 17.222656 26.101562 16.28125 32.398438-4.195313 52.796875-40.539063 70.84375-63.871094 16.113281-20.816406 31.640625-41.96875 48.429688-62.28125 1.007812.671875 1.929687 1.34375 2.9375 2.097656 3.382812 3.757813 6.46875 7.769531 9.230468 12.003907zm0 0" fill="#cfd8dc"/><path d="m316.773438 330.828125c-1.578126 1.582031-3.320313 2.992187-5.203126 4.195313-20.394531 1.007812-45.746093-7.972657-70.085937-25.261719 11.917969 6.042969 22.746094 6.964843 28.875 1.425781 8.476563-7.722656 5.371094-25.601562-6.378906-43.730469-3.167969-4.847656-6.734375-9.425781-10.660157-13.679687-5.421874-6.050782-11.566406-11.40625-18.296874-15.949219-15.109376-10.238281-29.796876-13.34375-37.351563-6.460937-8.476563 7.71875-5.289063 25.683593 6.460937 43.8125-21.90625-26.1875-34.160156-54.808594-34.578124-77.890626v-.085937c1.503906-2.890625 3.460937-5.523437 5.789062-7.804687 21.90625-21.90625 71.429688-8.058594 110.457031 30.972656 39.03125 39.027344 52.878907 88.550781 30.972657 110.457031zm0 0" fill="#ffeb3a"/><path d="m351.949219 307.613281c-3.574219.003907-6.757813-2.257812-7.933594-5.632812s-.085937-7.125 2.714844-9.34375c41.007812-32.71875 86.789062-58.960938 135.746093-77.804688 3.125-1.140625 5.261719-4.042969 5.414063-7.363281 1.8125-30.140625-.074219-105.042969-56.605469-149.402344-66.835937-52.476562-136.242187-50.066406-170.242187-20.554687-1.136719 1.054687-1.917969 2.429687-2.242188 3.945312-9.761719 40.347657-24.945312 79.1875-45.140625 115.457031-1.523437 2.625-4.34375 4.222657-7.378906 4.179688-3.035156-.046875-5.808594-1.722656-7.253906-4.390625-1.449219-2.667969-1.34375-5.90625.273437-8.472656 19.328125-34.820313 33.871094-72.085938 43.226563-110.796875 1.148437-4.878906 3.789062-9.277344 7.550781-12.589844 39.148437-34.027344 117.558594-38.089844 191.566406 19.996094 62.78125 49.257812 64.972657 130.835937 63 163.621094-.578125 9.964843-7 18.640624-16.359375 22.105468-47.300781 18.222656-91.523437 43.597656-131.128906 75.230469-1.480469 1.175781-3.316406 1.8125-5.207031 1.816406zm0 0"/><path d="m311.578125 343.441406c-3.726563 0-7.007813-2.464844-8.050781-6.042968-1.042969-3.582032.402344-7.417969 3.542968-9.425782 1.363282-.878906 2.625-1.902344 3.769532-3.054687 18.289062-18.289063 4.097656-63.4375-30.980469-98.589844-15.992187-16.714844-35.921875-29.15625-57.964844-36.183594-17.828125-5.035156-32.246093-3.136719-40.617187 5.222657-1.710938 1.691406-3.148438 3.644531-4.253906 5.78125-1.332032 2.730468-4.039063 4.527343-7.070313 4.699218-3.035156.167969-5.925781-1.3125-7.554687-3.878906-1.628907-2.5625-1.746094-5.808594-.308594-8.484375 1.902344-3.6875 4.371094-7.058594 7.3125-9.988281 12.839844-12.839844 33.09375-16.214844 57.015625-9.515625 24.820312 7.808593 47.28125 21.734375 65.320312 40.488281 42.9375 43.027344 56.535157 96.753906 30.96875 122.320312-2.007812 2.019532-4.234375 3.816407-6.636719 5.34375-1.339843.859376-2.898437 1.3125-4.492187 1.308594zm0 0"/><path d="m308.472656 343.527344c-26.09375-1.582032-51.121094-10.9375-71.855468-26.859375-.410157-.253907-.800782-.535157-1.175782-.839844-3.632812-2.78125-4.371094-7.960937-1.65625-11.644531 2.710938-3.683594 7.878906-4.515625 11.609375-1.867188l.070313.050782c.191406.117187.695312.46875.878906.59375 22.519531 16 46.164062 24.675781 64.808594 23.722656 8.789062.070312 17.269531-3.234375 23.691406-9.234375 21.078125-21.085938 5.089844-72.6875-34.914062-112.699219-40.003907-40.011719-91.617188-55.992188-112.691407-34.910156-6.753906 7.390625-10.121093 17.257812-9.292969 27.230468.386719 21.636719 12.589844 48.800782 32.625 72.753907 1.320313 1.589843 2.066407 3.574219 2.125 5.640625 0 3.4375-2.09375 6.527344-5.285156 7.800781-3.191406 1.269531-6.839844.46875-9.203125-2.027344-.40625-.40625-.769531-.851562-1.089843-1.332031-22.394532-27.019531-35.488282-57.019531-35.949219-82.425781-.914063-14.546875 4.226562-28.824219 14.210937-39.449219 28.453125-28.460938 88.390625-13.125 136.425782 34.910156 48.035156 48.035156 63.386718 107.921875 34.910156 136.382813-9.382813 8.949219-21.820313 13.992187-34.785156 14.109375-1.140626.058594-2.289063.09375-3.457032.09375zm0 0"/><path d="m259.605469 323.28125c-7.671875-.273438-15.179688-2.328125-21.921875-6-4.136719-2.097656-5.792969-7.152344-3.695313-11.289062 2.097657-4.136719 7.152344-5.792969 11.289063-3.695313 9.929687 5.039063 16.90625 4.988281 19.449218 2.695313 1.367188-1.585938 2.09375-3.628907 2.03125-5.722657-1.640624-15.171875-8.597656-29.277343-19.640624-39.8125-18.464844-20.285156-38.550782-26.582031-43.8125-21.820312-4.132813 3.757812-2.25 17.550781 8.023437 33.246093 1.636719 2.511719 1.8125 5.710938.453125 8.386719s-4.042969 4.425781-7.039062 4.589844c-2.996094.160156-5.851563-1.289063-7.492188-3.804687-14.855469-22.703126-16.917969-44.242188-5.261719-54.867188 14.613281-13.203125 43.648438-3.355469 67.515625 22.972656 15.519532 17.007813 24.710938 36.933594 24 51.914063-.0625 6.574219-2.789062 12.839843-7.554687 17.367187-4.515625 3.9375-10.351563 6.023438-16.34375 5.839844zm0 0"/><path d="m104.261719 452.070312c-19.789063-.058593-39.144531-5.78125-55.785157-16.492187-31.835937-20.363281-49.519531-57.300781-48.429687-101.332031 1.636719-67.542969 46.230469-133.179688 106.042969-156.070313 4.84375-1.855469 10.332031-.554687 13.820312 3.28125 3.492188 3.835938 4.273438 9.421875 1.96875 14.070313-9.964844 20.484375-17.171875 42.199218-21.429687 64.578125l-.964844 4.824219c-4.589844 22.78125-9.339844 46.339843-5.925781 67.828124 1.605468 10.074219 8.554687 24.460938 21.136718 22.871094 23.375-3.027344 40.632813-26.855468 55.847657-47.917968 3.242187-4.472657 6.363281-8.785157 9.417969-12.738282 4.886718-6.3125 9.738281-12.648437 14.5625-19.011718 10.910156-14.371094 22.257812-29.234376 34.027343-43.453126 2.953125-3.574218 8.242188-4.078124 11.816407-1.125 3.574218 2.953126 4.078124 8.242188 1.125 11.816407-11.507813 13.984375-22.769532 28.707031-33.613282 42.976562-4.859375 6.378907-9.738281 12.75-14.640625 19.109375-2.953125 3.820313-5.964843 7.992188-9.097656 12.316406-16.359375 22.609376-36.722656 50.753907-67.28125 54.714844-21.90625 2.847656-36.621094-16.410156-39.878906-36.878906-3.894531-24.476562 1.386719-50.671875 6.042969-73.78125l.96875-4.800781c3.902343-20.136719 9.972656-39.792969 18.101562-58.628907-50.867188 26.851563-83.417969 78.929688-85.257812 136.421876-.546876 22.351562 4.027343 63.34375 40.699218 86.796874 27.410156 18.171876 62.953125 18.5 90.699219.835938 21.503906-14.265625 33.707031-32.933594 47.84375-54.554688 2.238281-3.398437 4.5-6.839843 6.789063-10.324218 7.839843-11.75 19.707031-33.324219 30.214843-52.351563 9.292969-17.054687 18.140625-33.121093 23.878907-42.050781 2.511718-3.898438 7.707031-5.023438 11.605468-2.511719 3.898438 2.507813 5.023438 7.703125 2.515625 11.601563-5.441406 8.453125-14.121093 24.222656-23.277343 41.027344-10.652344 19.304687-22.710938 41.253906-30.9375 53.59375-2.292969 3.441406-4.507813 6.839843-6.714844 10.1875-14.511719 22.242187-28.226563 43.246093-52.625 59.402343-15.820313 10.382813-34.347656 15.867188-53.265625 15.769531zm0 0"/><path d="m377.710938 68.230469c-1.660157 0-3.28125-.496094-4.660157-1.417969-15.605469-11.441406-34.804687-16.898438-54.09375-15.367188-4.636719 0-8.394531-3.757812-8.394531-8.394531s3.757812-8.394531 8.394531-8.394531c22.617188-1.550781 45.058594 4.882812 63.421875 18.179688 3.09375 2.046874 4.476563 5.886718 3.398438 9.4375-1.074219 3.550781-4.355469 5.972656-8.066406 5.957031zm0 0"/><path d="m293.777344 51.445312c0 4.632813-3.757813 8.390626-8.394532 8.390626-4.636718 0-8.394531-3.757813-8.394531-8.390626 0-4.636718 3.757813-8.394531 8.394531-8.394531 4.636719 0 8.394532 3.757813 8.394532 8.394531zm0 0"/></svg>