<svg height="512pt" viewBox="-19 0 512 512.00027" width="512pt" xmlns="http://www.w3.org/2000/svg"><path d="m321.121094 119.464844c-4.46875-.023438-8.863282 1.15625-12.714844 3.414062 7.96875 4.546875 12.886719 13.015625 12.886719 22.1875 0 9.175782-4.917969 17.644532-12.886719 22.1875 3.851562 2.257813 8.246094 3.4375 12.714844 3.414063 14.136718 0 25.597656-11.460938 25.597656-25.601563 0-14.136718-11.460938-25.601562-25.597656-25.601562zm-69.378906 271.875-5.203126-203.265625-.683593-25.941407h-25.429688l.683594 25.941407 5.203125 203.265625c.105469 5.046875 2.441406 9.789062 6.375 12.949218 3.9375 3.160157 9.070312 4.417969 14.019531 3.433594 4.4375-.9375 8.621094-1.878906 12.460938-2.730468-4.523438-3.09375-7.285157-8.175782-7.425781-13.652344zm18.175781-331.605469c0-28.277344-22.921875-51.199219-51.199219-51.199219-4.289062.011719-8.558594.554688-12.714844 1.621094 20.152344 5.148438 35.179688 21.992188 38.011719 42.597656 2.828125 20.609375-7.105469 40.878906-25.125 51.265625l.597656 23.980469h25.429688l-.597657-23.980469c15.84375-9.117187 25.605469-26.007812 25.597657-44.285156zm118.273437 306.601563-34.988281-1.195313c-.25.265625-.480469.550781-.679687.855469l10.238281.339844 9.558593 32.851562c-35.585937 38.230469-72.191406 55.46875-131.925781 62.296875-.257812 0-.425781.082031-.683593.082031-7.765626.855469-15.871094 1.539063-24.488282 2.136719-3.074218.253906-6.144531 7.421875-9.21875 15.699219 4.183594 11.09375 8.449219 24.0625 12.714844 24.0625 7.167969 0 14.335938-36.863282 21.25-39.59375.214844-.097656.445312-.152344.679688-.167969 75.09375-4.867187 116.738281-21.164063 157.101562-64.515625zm0 0" fill="#283593"/><path d="m362.761719 366.335938-10.238281-.339844c-21.675782 25.34375-36.097657 32.425781-80.386719 41.726562-4.515625.914063-9.207031-.070312-12.96875-2.730468-3.839844.851562-8.023438 1.792968-12.460938 2.730468-4.949219.984375-10.082031-.273437-14.019531-3.433594-3.933594-3.160156-6.269531-7.902343-6.375-12.949218l-5.203125-203.265625-.683594-25.941407h81.664063c1.78125 2.070313 3.921875 3.804688 6.316406 5.121094 7.96875-4.542968 12.886719-13.011718 12.886719-22.1875 0-9.171875-4.917969-17.640625-12.886719-22.1875-2.394531 1.316406-4.535156 3.050782-6.316406 5.121094h-82.601563l-.597656-23.980469c18.019531-10.386719 27.953125-30.65625 25.125-51.265625-2.832031-20.605468-17.859375-37.449218-38.011719-42.597656-22.640625 5.804688-38.476562 26.203125-38.484375 49.578125-.011719 5.332031.824219 10.628906 2.472657 15.699219 1.867187 5.875 4.820312 11.34375 8.707031 16.128906l.085937.171875c3.96875 4.953125 8.828125 9.121094 14.335938 12.285156l-.597656 23.980469h-57.175782c-4.804687-5.472656-11.746094-8.585938-19.027344-8.535156-4.464843.019531-8.84375 1.195312-12.714843 3.414062-7.96875 4.546875-12.890625 13.015625-12.890625 22.1875 0 9.175782 4.921875 17.644532 12.890625 22.1875 3.871093 2.21875 8.25 3.394532 12.714843 3.414063 7.28125.050781 14.222657-3.0625 19.027344-8.535157h56.234375l-.253906 9.730469-.085937 3.15625-.425782 17.152344-5.121094 199.167969c-.105468 5.046875-2.4375 9.789062-6.375 12.949218-3.933593 3.160157-9.066406 4.417969-14.019531 3.433594-4.4375-.9375-8.617187-1.878906-12.457031-2.730468-35.246094-8.277344-48.8125-16.382813-68.609375-39.851563l-37.207031-3.070313-.425782 2.046876-6.910156 35.070312c35.582032 38.230469 72.191406 55.46875 131.925782 62.296875.253906 0 .425781.082031.679687.082031 7.765625.855469 15.875 1.539063 24.492187 2.136719 3.070313.253906 6.144532 7.421875 9.214844 15.699219 3.074219-8.277344 6.144532-15.445313 9.21875-15.699219 8.617188-.597656 16.722656-1.28125 24.488282-2.136719.257812 0 .425781-.082031.683593-.082031 59.734375-6.828125 96.339844-24.066406 131.925781-62.296875zm-156.757813-295.339844c-5.800781-6.386719-5.800781-16.140625 0-22.527344 3.191406-3.695312 7.832032-5.816406 12.714844-5.800781 9.425781 0 17.066406 7.640625 17.066406 17.066406s-7.640625 17.066406-17.066406 17.066406c-4.882812.011719-9.523438-2.105469-12.714844-5.804687zm0 0" fill="#3f51b5"/><path d="m428.894531 320-4.265625 90.625c-.195312 3.613281-2.652344 6.707031-6.121094 7.722656-3.472656 1.019532-7.210937-.265625-9.324218-3.199218l-6.742188-9.472657-20.050781-28.074219c-.410156-.527343-.867187-1.011718-1.367187-1.453124l.085937-.085938c-1.453125-.851562-2.476563-1.449219-2.730469-1.535156l-44.203125-16.554688c-3.367187-1.242187-5.597656-4.460937-5.578125-8.050781.015625-3.589844 2.28125-6.785156 5.664063-7.992187l71.253906-25.941407 11.945313-4.351562c2.671874-.96875 5.652343-.542969 7.945312 1.136719 2.292969 1.675781 3.601562 4.386718 3.488281 7.226562zm0 0" fill="#0377bc"/><path d="m406.453125 320-4.011719 85.675781-20.050781-28.074219c-.410156-.527343-.867187-1.011718-1.367187-1.453124l.085937-.085938c-1.453125-.851562-2.476563-1.449219-2.730469-1.535156l-44.203125-16.554688c-3.367187-1.242187-5.597656-4.460937-5.578125-8.050781.015625-3.589844 2.28125-6.785156 5.664063-7.992187l71.253906-25.941407c.695313 1.21875 1.023437 2.613281.9375 4.011719zm0 0" fill="#02a9f4"/><path d="m103.261719 357.972656-44.199219 16.554688c-.734375.265625-1.425781.640625-2.050781 1.109375-.757813.542969-1.417969 1.207031-1.960938 1.964843l-26.796875 37.546876c-2.113281 2.933593-5.847656 4.21875-9.320312 3.199218-3.472656-1.015625-5.925782-4.109375-6.125-7.722656l-4.265625-90.625c-.113281-2.839844 1.195312-5.550781 3.488281-7.226562 2.296875-1.679688 5.273438-2.105469 7.945312-1.136719l83.203126 30.292969c3.378906 1.207031 5.644531 4.402343 5.664062 7.992187s-2.210938 6.808594-5.582031 8.050781zm0 0" fill="#02a9f4"/><path d="m218.71875 512c-9.710938 0-13.703125-10.785156-19.234375-25.71875-1.671875-4.863281-3.636719-9.617188-5.886719-14.242188-77.03125-5.308593-119.152344-22.996093-160.152344-67.039062-3.023437-3.472656-2.742187-8.714844.628907-11.847656 3.371093-3.136719 8.617187-3.03125 11.863281.234375 38.039062 40.867187 77.652344 57.035156 151.40625 61.816406 9.070312.648437 12.875 10.929687 18.148438 25.164063 1.753906 5.21875 3.898437 10.300781 6.417968 15.199218 3.773438 1.535156 5.933594 5.527344 5.15625 9.527344s-4.273437 6.890625-8.347656 6.90625zm-50.039062-95.402344c-1.71875 0-3.433594-.171875-5.121094-.519531-47.402344-9.890625-62.597656-18-85.835938-45.425781-2.164062-2.292969-2.886718-5.597656-1.878906-8.589844 1.011719-2.988281 3.589844-5.175781 6.707031-5.6875 3.113281-.507812 6.257813.742188 8.167969 3.253906 20.539062 24.285156 32.667969 30.601563 76.296875 39.738282 2.417969.476562 4.917969-.148438 6.828125-1.707032 2.007812-1.589844 3.210938-3.988281 3.277344-6.550781l5.707031-220.441406h-43.9375c-13.722656 12.101562-34.546875 11.230469-47.210937-1.976563-12.667969-13.203125-12.667969-34.046875 0-47.25 12.664062-13.207031 33.488281-14.078125 47.210937-1.976562h45.3125l.261719-10.84375c-21.3125-14.964844-30.476563-42.015625-22.644532-66.851563 7.832032-24.839843 30.855469-41.738281 56.898438-41.769531 4.714844 0 8.535156 3.820312 8.535156 8.535156 0 4.710938-3.820312 8.53125-8.535156 8.53125-19.269531.046875-36.113281 13.003906-41.105469 31.617188-4.992187 18.609375 3.113281 38.257812 19.773438 47.9375 2.710937 1.566406 4.347656 4.484375 4.265625 7.613281l-.597656 23.980469c-.113282 4.628906-3.902344 8.320312-8.53125 8.320312h-57.175782c-2.464844 0-4.8125-1.070312-6.433594-2.929687-3.1875-3.601563-7.78125-5.648438-12.59375-5.605469-9.425781 0-17.066406 7.640625-17.066406 17.066406 0 9.425782 7.640625 17.066406 17.066406 17.066406 4.8125.042969 9.40625-2.003906 12.59375-5.605468 1.621094-1.859375 3.96875-2.925782 6.433594-2.925782h56.234375c2.304688-.003906 4.507813.925782 6.113281 2.574219 1.609376 1.648438 2.480469 3.878907 2.421876 6.179688l-5.886719 229.203125c-.347657 13.878906-11.660157 24.96875-25.542969 25.039062zm50.039062-331.265625c-14.136719 0-25.597656-11.460937-25.597656-25.597656 0-14.140625 11.460937-25.601563 25.597656-25.601563 4.714844 0 8.535156 3.820313 8.535156 8.535157 0 4.710937-3.820312 8.53125-8.535156 8.53125-4.710938 0-8.53125 3.820312-8.53125 8.535156 0 4.710937 3.820312 8.53125 8.53125 8.53125 4.714844 0 8.535156 3.820313 8.535156 8.535156 0 4.710938-3.820312 8.53125-8.535156 8.53125zm0 0"/><path d="m21.410156 427.289062c-1.671875-.003906-3.335937-.246093-4.9375-.726562-7.015625-2.003906-11.945312-8.285156-12.230468-15.570312l-4.2226568-90.582032c-.2656252-5.703125 2.3398438-11.164062 6.9414068-14.546875 4.601562-3.382812 10.585937-4.238281 15.953124-2.28125l83.199219 30.363281c6.707031 2.449219 11.179688 8.8125 11.210938 15.953126.035156 7.136718-4.382813 13.542968-11.066407 16.054687l-44.234374 16.597656-6.949219-4.96875 6.949219 4.957031-26.839844 37.546876c-3.144532 4.503906-8.28125 7.191406-13.773438 7.203124zm-4.34375-107.671874 4.269532 90.582031 26.835937-37.546875c1.96875-2.757813 4.714844-4.863282 7.886719-6.050782l44.234375-16.589843zm0 0"/><path d="m218.71875 85.332031c-14.136719 0-25.597656-11.460937-25.597656-25.597656 0-14.140625 11.460937-25.601563 25.597656-25.601563 4.714844 0 8.535156 3.820313 8.535156 8.535157 0 4.710937-3.820312 8.53125-8.535156 8.53125-4.710938 0-8.53125 3.820312-8.53125 8.535156 0 4.710937 3.820312 8.53125 8.53125 8.53125 4.714844 0 8.535156 3.820313 8.535156 8.535156 0 4.710938-3.820312 8.53125-8.535156 8.53125zm0 0"/><path d="m218.71875 512c-4.089844.003906-7.609375-2.890625-8.386719-6.910156-.78125-4.015625 1.398438-8.019532 5.195313-9.542969 2.519531-4.894531 4.664062-9.976563 6.417968-15.195313 5.273438-14.234374 9.078126-24.519531 18.097657-25.167968 73.789062-4.777344 113.417969-20.949219 151.460937-61.8125 3.210938-3.453125 8.609375-3.644532 12.058594-.433594 3.453125 3.214844 3.644531 8.613281.433594 12.0625-40.960938 44.03125-83.097656 61.722656-160.15625 67.039062-2.246094 4.625-4.214844 9.378907-5.886719 14.242188-5.527344 14.933594-9.523437 25.71875-19.234375 25.71875zm50.039062-95.402344c-13.886718-.070312-25.203124-11.171875-25.539062-25.054687l-5.886719-229.1875c-.0625-2.300781.8125-4.53125 2.417969-6.179688 1.605469-1.648437 3.8125-2.578125 6.113281-2.574219h56.234375c2.46875 0 4.8125 1.066407 6.433594 2.925782 3.1875 3.601562 7.777344 5.644531 12.589844 5.605468 9.425781 0 17.066406-7.640624 17.066406-17.066406 0-9.425781-7.640625-17.066406-17.066406-17.066406-4.8125-.042969-9.40625 2.003906-12.597656 5.605469-1.621094 1.859375-3.964844 2.929687-6.433594 2.929687h-57.171875c-4.632813 0-8.417969-3.691406-8.535157-8.320312l-.597656-23.980469c-.078125-3.128906 1.558594-6.046875 4.269532-7.613281 16.660156-9.679688 24.761718-29.328125 19.769531-47.9375-4.988281-18.613282-21.835938-31.570313-41.105469-31.617188-4.710938 0-8.53125-3.820312-8.53125-8.53125 0-4.714844 3.820312-8.535156 8.53125-8.535156 26.039062.0429688 49.050781 16.945312 56.875 41.78125 7.828125 24.835938-1.335938 51.878906-22.648438 66.839844l.292969 10.84375h45.308594c13.722656-12.101563 34.550781-11.230469 47.214844 1.976562 12.664062 13.203125 12.664062 34.046875 0 47.25-12.664063 13.207032-33.492188 14.078125-47.214844 1.976563h-43.9375l5.667969 220.449219c.0625 2.566406 1.261718 4.976562 3.277344 6.570312 1.898437 1.570312 4.410156 2.199219 6.824218 1.707031 43.605469-9.132812 55.734375-15.445312 76.273438-39.730469 3.042968-3.597656 8.429687-4.046874 12.027344-1.003906 3.597656 3.042969 4.046874 8.429688 1 12.027344-23.191407 27.425781-38.398438 35.492188-85.828126 45.421875-1.675781.335937-3.382812.496094-5.09375.488281zm-50.039062-331.265625c-4.710938 0-8.53125-3.820312-8.53125-8.53125 0-4.714843 3.820312-8.535156 8.53125-8.535156 4.714844 0 8.535156-3.820313 8.535156-8.53125 0-4.714844-3.820312-8.535156-8.535156-8.535156-4.710938 0-8.53125-3.820313-8.53125-8.53125 0-4.714844 3.820312-8.535157 8.53125-8.535157 14.140625 0 25.601562 11.460938 25.601562 25.601563 0 14.136719-11.460937 25.597656-25.601562 25.597656zm0 0"/><path d="m416.027344 427.289062c-5.484375-.007812-10.625-2.683593-13.773438-7.175781l-26.828125-37.546875-44.238281-16.605468c-6.6875-2.503907-11.113281-8.914063-11.082031-16.054688.03125-7.144531 4.507812-13.515625 11.21875-15.960938l83.191406-30.363281c5.367187-1.960937 11.359375-1.105469 15.960937 2.277344 4.605469 3.382813 7.210938 8.84375 6.945313 14.550781l-4.226563 90.582032c-.285156 7.289062-5.21875 13.570312-12.234374 15.570312-1.601563.476562-3.261719.722656-4.933594.726562zm4.34375-107.671874-83.191406 30.359374 44.226562 16.589844c3.175781 1.1875 5.921875 3.292969 7.894531 6.050782l26.835938 37.546874zm0 0"/><path d="m218.71875 85.332031c-4.710938 0-8.53125-3.820312-8.53125-8.53125 0-4.714843 3.820312-8.535156 8.53125-8.535156 4.714844 0 8.535156-3.820313 8.535156-8.53125 0-4.714844-3.820312-8.535156-8.535156-8.535156-4.710938 0-8.53125-3.820313-8.53125-8.53125 0-4.714844 3.820312-8.535157 8.53125-8.535157 14.140625 0 25.601562 11.460938 25.601562 25.601563 0 14.136719-11.460937 25.597656-25.601562 25.597656zm0 0"/><path d="m250.796875 362.070312c-4.40625-.011718-8.078125-3.371093-8.476563-7.757812-.398437-4.386719 2.601563-8.355469 6.929688-9.164062 17.664062-2.492188 32.957031-13.554688 40.851562-29.550782 7.988282-19.414062 6.765626-41.402344-3.328124-59.8125-7.46875-14.148437-20.128907-24.882812-41.082032-34.824218l-3.949218-1.84375c-19.15625-8.410157-37.605469-18.359376-55.160157-29.746094-.5625-.324219-1.101562-.683594-1.636719-1.066406-8.613281-5.757813-16.265624-12.84375-22.664062-20.992188-4.226562-5.515625-7.582031-11.644531-9.960938-18.175781-2.480468-6.96875-3.484374-14.378907-2.953124-21.757813 1.554687-13.390625 5.609374-26.371094 11.949218-38.265625 1.390625-3.046875 2.78125-6.09375 4.085938-9.164062 1.136718-2.886719 3.753906-4.929688 6.828125-5.335938 3.078125-.402343 6.132812.894531 7.976562 3.390625s2.1875 5.796875.898438 8.617188c-1.359375 3.199218-2.808594 6.382812-4.269531 9.558594-5.410157 10.039062-8.949219 20.980468-10.433594 32.289062-.398438 5.074219.285156 10.175781 2.003906 14.96875 1.785156 4.871094 4.304688 9.441406 7.46875 13.550781 5.121094 6.515625 11.226562 12.1875 18.097656 16.820313l.8125.554687c.390625.210938.765625.449219 1.125.714844 16.898438 10.953125 34.660156 20.519531 53.101563 28.605469l3.816406 1.773437c20.570313 8.335938 37.808594 23.230469 49.039063 42.375 12.820312 23.226563 14.109374 51.09375 3.492187 75.402344-10.304687 20.769531-30.082031 35.210937-53 38.699219-.515625.089844-1.039063.136718-1.5625.136718zm0 0"/><path d="m379.574219 512c-3.96875.015625-7.90625-.671875-11.632813-2.03125-21.878906-8.0625-27.613281-31.027344-29.5-38.5625-2.773437-11.09375-4.992187-22.1875-7.398437-34.472656l-1.160157-6.128906c-1.574218-12.738282-5.386718-25.097657-11.253906-36.511719-4.625-8.007813-13.089844-13.027344-22.332031-13.246094-5.027344.519531-7.289063 4.558594-11.246094 13.652344-.777343 1.792969-1.554687 3.570312-2.367187 5.257812-6.582032 13.613281-17.5 24.660157-31.035156 31.402344-23.324219 10.308594-50.296876 8.03125-71.558594-6.050781-9.960938-6.015625-19.132813-13.246094-27.308594-21.527344-7.839844-7.742188-24.164062-23.894531-17.167969-42.351562 2.515625-6.34375 7.308594-11.515626 13.441407-14.507813 11.398437-4.546875 23.867187-5.714844 35.914062-3.363281l2.5625.265625c4.6875.472656 8.109375 4.65625 7.636719 9.34375-.472657 4.691406-4.65625 8.109375-9.34375 7.636719l-2.664063-.269532c-8.785156-1.808594-17.894531-1.257812-26.402344 1.59375-2.324218 1.070313-4.179687 2.953125-5.222656 5.289063-2.695312 7.136719 4.746094 15.839843 13.195313 24.175781 7.175781 7.289062 15.226562 13.660156 23.96875 18.96875 11.304687 6.65625 33.542969 16.214844 55.363281 5.445312 10.148438-5.03125 18.34375-13.289062 23.296875-23.472656.71875-1.488281 1.390625-3.046875 2.082031-4.625 4.078125-9.386718 9.667969-22.1875 25.113282-23.800781 15.816406-.433594 30.625 7.730469 38.699218 21.332031 7.019532 13.140625 11.574219 27.453125 13.441406 42.230469l1.132813 5.976563c2.355469 12.054687 4.53125 22.910156 7.203125 33.601562 3.761719 15.046875 9.574219 23.273438 18.839844 26.695312 7.960937 1.871094 16.34375.261719 23.042968-4.429687 20.410157-12.894531 38.09375-29.667969 52.050782-49.367187 3.558594-4.496094 7.023437-9.070313 10.300781-13.78125 2.691406-3.867188 8.007813-4.824219 11.878906-2.132813 3.867188 2.691406 4.824219 8.007813 2.132813 11.878906-3.464844 4.992188-7.152344 9.839844-10.914063 14.609375-15.328125 21.535156-34.78125 39.808594-57.234375 53.757813-7.75 4.621093-16.539062 7.207031-25.554687 7.519531zm0 0"/></svg>