<svg height="511pt" viewBox="0 -7 511.84572 511" width="511pt" xmlns="http://www.w3.org/2000/svg"><path d="m480.496094 233.335938c-5.96875 13.601562-13.59375 26.410156-22.699219 38.144531-.253906.34375-.511719.597656-.765625.941406l-22.101562-.941406-3.585938-.167969-58.707031-2.5625 24.488281-64.425781c.339844-.347657.652344-.71875.941406-1.109375 8.429688-10.855469 15.722656-22.550782 21.757813-34.902344l14.933593-47.53125c1.953126-12.769531 2.152344-25.746094.597657-38.570312-1.097657-12.03125-4.273438-23.78125-9.386719-34.730469-2.894531-5.25-6.609375-10.003907-11.007812-14.078125-3.839844-3.753906-10.667969-7.765625-11.347657-13.484375-.269531-1.515625-.121093-3.082031.425781-4.519531.785157-2.238282 2.542969-3.996094 4.777344-4.78125 5.855469-1.824219 12.078125-2.148438 18.089844-.9375 46.082031 6.996093 68.355469 52.648437 74.414062 94.464843 5.421876 44.167969-1.796874 88.964844-20.824218 129.191407zm0 0" fill="#2e7d32"/><path d="m457.628906 233.335938c-5.972656 13.601562-13.597656 26.410156-22.699218 38.144531l-3.585938-.167969-58.707031-2.5625 24.488281-64.425781c.339844-.347657.652344-.71875.941406-1.109375 8.429688-10.855469 15.722656-22.550782 21.757813-34.902344l14.933593-47.53125c1.953126-12.769531 2.152344-25.746094.597657-38.570312-1.097657-12.03125-4.273438-23.78125-9.386719-34.730469-2.894531-5.25-6.609375-10.003907-11.007812-14.078125-3.839844-3.753906-10.667969-7.765625-11.347657-13.484375-.269531-1.515625-.121093-3.082031.425781-4.519531.785157-2.238282 2.542969-3.996094 4.777344-4.78125 42.839844 9.300781 63.746094 53.164062 69.632813 93.527343 5.421875 44.167969-1.796875 88.964844-20.820313 129.191407zm0 0" fill="#4caf50"/><path d="m142.492188 357.753906v99.242188l-86.699219-21.589844c-7.980469-10.824219-15.277344-22.140625-21.84375-33.875-3.910157-6.929688-7.003907-14.289062-9.21875-21.933594-3.929688-13.546875-5.714844-27.625-5.289063-41.726562.683594-28.074219 9.472656-60.160156 34.132813-76.542969 8.023437-5.378906 19.371093-7.851563 23.980469-17.066406 2.507812-7.339844 3.835937-15.03125 3.925781-22.785157.253906-1.792968 1.363281-11.179687 4.949219-7.679687 4.84375 5.570313 8.605468 11.992187 11.089843 18.945313 7.167969 15.886718 6.210938 34.257812-2.558593 49.320312-17.066407 25.601562-18.347657 42.667969-1.28125 59.734375 10.15625 10.152344 32.429687 14.25 48.8125 15.957031zm0 0" fill="#8bc34a"/><path d="m504.050781 377.039062v79.617188l-50.261719 3.328125-5.804687.339844h-22.1875l5.804687-.339844 50.261719-3.328125v-79.617188c.089844-20.566406-4.863281-40.839843-14.421875-59.050781-19.113281-36.097656-48.554687-68.097656-86.785156-82.175781l-172.628906-29.695312c7.339844-.425782 13.484375-.683594 17.492187-.769532l177.324219 30.464844c38.230469 14.078125 67.667969 46.078125 86.785156 82.175781 9.558594 18.210938 14.511719 38.484375 14.421875 59.050781zm0 0" fill="#558b30"/><path d="m481.863281 377.039062v79.617188l-50.261719 3.328125-5.804687.339844h-42.324219c-12.371094-72.105469-104.53125-169.128907-104.53125-169.128907l-42.410156-28.671874c-4.183594-1.707032-9.21875-3.839844-15.191406-6.144532-10.136719-3.894531-20.511719-7.144531-31.0625-9.730468-6.847656-2.3125-14.285156-2.222657-21.074219.257812-1.382813.714844-2.601563 1.699219-3.585937 2.902344-1.84375 2.570312-2.691407 5.722656-2.390626 8.875.085938 4.863281 1.453126 10.066406 1.453126 14.078125.554687 4.601562-2.296876 8.929687-6.742188 10.238281-3.316406.636719-6.738281-.277344-9.300781-2.472656-2.34375-1.757813-4.4375-3.824219-6.230469-6.144532-2.578125-3.363281-4.675781-7.066406-6.230469-11.007812-1.953125-4.742188-3.023437-9.804688-3.15625-14.933594-.167969-4.976562.949219-9.914062 3.242188-14.335937 5.746093-9.722657 14.902343-16.960938 25.6875-20.308594 6.746093-2.238281 13.6875-3.839844 20.734375-4.777344 8.703125-1.367187 17.664062-2.304687 25.34375-2.902343l172.628906 29.695312c38.230469 14.078125 67.671875 46.078125 86.785156 82.175781 9.558594 18.210938 14.511719 38.484375 14.421875 59.050781zm0 0" fill="#8bc34a"/><path d="m447.984375 460.324219-63.828125 4.179687c-.171875-1.363281-.425781-2.730468-.683594-4.179687zm0 0" fill="#46b29d"/><path d="m453.789062 459.984375v.339844h-5.804687zm0 0" fill="#14a085"/><path d="m375.28125 350.328125c-15.621094 25.503906-26.734375 53.503906-32.851562 82.773437l-33.621094 5.804688-169.132813 29.269531-24.832031-50.089843c4.964844-20.585938 13.671875-40.082032 25.6875-57.515626.59375-.9375 1.277344-1.878906 1.960938-2.816406 9.878906-13.308594 22.289062-24.53125 36.523437-33.023437 2.644531-1.535157 5.117187-3.074219 7.507813-4.609375 37.207031-23.210938 52.222656-40.703125 52.222656-80.722656-.832032-18.828126-10.71875-36.089844-26.535156-46.339844-17.410157-12.117188-38.914063-11.261719-59.050782-11.089844-32.121094 1.46875-63.9375-6.765625-91.308594-23.640625-3.242187-2.132813-6.398437-4.351563-9.472656-6.824219-10.113281-7.09375-18.722656-16.109375-25.34375-26.539062-3.753906-7.082032-1.621094-10.496094 6.484375-8.535156 3.097657.863281 6.101563 2.035156 8.960938 3.5 25.089843 11.605468 51.882812 5.289062 75.949219-5.460938 34.632812-16.789062 72.800781-24.988281 111.273437-23.894531 37.980469 1.761719 74.792969 13.699219 106.582031 34.5625l3.839844 2.558593 1.023438.769532c85.332031 59.730468 68.265624 162.132812 34.132812 221.863281zm0 0" fill="#cddc39"/><g fill="#2e7d32"><path d="m255.015625 330.753906c-12.089844-11.222656-34.886719-6.320312-50.917969 10.949219s-19.226562 40.367187-7.136718 51.589844c12.089843 11.222656 34.886718 6.320312 50.917968-10.949219 16.03125-17.273438 19.226563-40.371094 7.136719-51.589844zm0 0"/><path d="m293.015625 222.953125c-11.605469-2.386719-24.160156 10.953125-28.039063 29.800781-3.878906 18.847656 2.382813 36.0625 13.984376 38.453125 11.605468 2.386719 24.160156-10.953125 28.039062-29.800781 3.882812-18.847656-2.378906-36.0625-13.984375-38.453125zm0 0"/><path d="m444.0625 119.667969c-9.585938-2.6875-20.898438 7.765625-25.265625 23.34375s-.132813 30.386719 9.453125 33.074219c9.589844 2.6875 20.902344-7.765626 25.269531-23.34375 4.367188-15.578126.132813-30.386719-9.457031-33.074219zm0 0"/><path d="m249.925781 155.894531c-9.605469-6.773437-21.152343-6.929687-25.792969-.351562-4.636718 6.578125-.609374 17.402343 8.996094 24.175781 9.609375 6.773438 21.15625 6.929688 25.792969.351562 4.636719-6.582031.609375-17.402343-8.996094-24.175781zm0 0"/><path d="m364.394531 370.894531c.816407 5.378907 4.230469 10.007813 9.128907 12.375 9.558593 4.179688 21.84375-2.902343 27.5625-15.789062 5.71875-12.882813 2.644531-26.878907-6.828126-31.058594-3.730468-1.570313-7.933593-1.601563-11.6875-.085937zm0 0"/><path d="m106.257812 404.429688c2.953126-3.066407 4.578126-7.175782 4.523438-11.433594 0-9.425782-7.640625-17.066406-17.066406-17.066406-9.425782 0-17.066406 7.640624-17.066406 17.066406 0 9.425781 7.640624 17.066406 17.066406 17.066406.570312.015625 1.140625-.011719 1.707031-.085938"/></g><path d="m504.050781 423.460938v58.113281c-.03125 9.414062-7.652343 17.035156-17.066406 17.066406h-25.515625c9.414062-.03125 17.039062-7.652344 17.066406-17.066406v-49.410157c6.871094-2.597656 13.121094-6.609374 18.347656-11.777343 1.234376-1.144531 3.03125-1.457031 4.582032-.792969 1.550781.664062 2.5625 2.179688 2.585937 3.867188zm0 0" fill="#283593"/><path d="m478.535156 432.164062v49.410157c-.027344 9.414062-7.652344 17.035156-17.066406 17.066406h-436.054688c-9.414062-.03125-17.039062-7.652344-17.066406-17.066406v-57.175781c-.027344-1.707032.984375-3.265626 2.554688-3.9375 1.570312-.671876 3.394531-.332032 4.613281.867187 6.351563 6.203125 14.246094 10.59375 22.871094 12.714844 4.117187 1.105469 8.363281 1.648437 12.628906 1.621093 14.738281.042969 28.761719-6.34375 38.398437-17.496093 3.6875-4.078125 6.660157-8.75 8.789063-13.820313.648437-1.652344 2.238281-2.734375 4.011719-2.734375 1.769531 0 3.363281 1.082031 4.011718 2.734375 6.242188 14.691406 18.941407 25.660156 34.386719 29.695313 4.183594 1.0625 8.484375 1.605469 12.800781 1.621093 14.738282.042969 28.761719-6.34375 38.402344-17.496093 3.6875-4.078125 6.65625-8.75 8.789063-13.820313.648437-1.652344 2.238281-2.734375 4.007812-2.734375 1.773438 0 3.363281 1.082031 4.011719 2.734375 6.242188 14.691406 18.945312 25.660156 34.390625 29.695313 4.183594 1.0625 8.480469 1.605469 12.800781 1.621093 14.734375.042969 28.757813-6.34375 38.398438-17.496093 3.6875-4.078125 6.660156-8.75 8.789062-13.820313.648438-1.652344 2.238282-2.734375 4.011719-2.734375 1.769531 0 3.363281 1.082031 4.007813 2.734375 6.246093 14.691406 18.945312 25.660156 34.390624 29.695313 4.183594 1.0625 8.484376 1.605469 12.800782 1.621093 14.738281.042969 28.761718-6.34375 38.398437-17.496093 3.6875-4.078125 6.660157-8.75 8.789063-13.820313.648437-1.652344 2.242187-2.734375 4.011718-2.734375 1.773438 0 3.363282 1.082031 4.011719 2.734375 6.195313 14.609375 18.792969 25.539063 34.132813 29.609375 4.257812 1.132813 8.648437 1.707031 13.054687 1.707031 6.144531.011719 12.234375-1.179687 17.921875-3.5zm0 0" fill="#3f51b5"/><path d="m504.050781 453.328125v28.246094c-.03125 9.414062-7.652343 17.035156-17.066406 17.066406h-25.515625c9.414062-.03125 17.039062-7.652344 17.066406-17.066406v-19.542969c6.871094-2.597656 13.121094-6.609375 18.347656-11.777344 1.234376-1.144531 3.03125-1.457031 4.582032-.792968 1.550781.664062 2.5625 2.179687 2.585937 3.867187zm0 0" fill="#1566c0"/><path d="m478.535156 462.03125v19.542969c-.027344 9.414062-7.652344 17.035156-17.066406 17.066406h-436.054688c-9.414062-.03125-17.039062-7.652344-17.066406-17.066406v-27.308594c-.027344-1.710937.984375-3.265625 2.554688-3.9375 1.570312-.675781 3.394531-.332031 4.613281.867187 6.351563 6.203126 14.246094 10.59375 22.871094 12.714844 4.117187 1.105469 8.363281 1.648438 12.628906 1.621094 14.738281.042969 28.761719-6.34375 38.398437-17.496094 3.6875-4.078125 6.660157-8.753906 8.789063-13.824218.648437-1.648438 2.238281-2.730469 4.011719-2.730469 1.769531 0 3.363281 1.082031 4.011718 2.730469 6.242188 14.695312 18.941407 25.660156 34.386719 29.699218 4.183594 1.0625 8.484375 1.605469 12.800781 1.621094 14.738282.042969 28.761719-6.34375 38.402344-17.496094 3.6875-4.078125 6.65625-8.753906 8.789063-13.824218.648437-1.648438 2.238281-2.730469 4.007812-2.730469 1.773438 0 3.363281 1.082031 4.011719 2.730469 6.242188 14.695312 18.945312 25.660156 34.390625 29.699218 4.183594 1.0625 8.480469 1.605469 12.800781 1.621094 14.734375.042969 28.757813-6.34375 38.398438-17.496094 3.6875-4.078125 6.660156-8.753906 8.789062-13.824218.648438-1.648438 2.238282-2.730469 4.011719-2.730469 1.769531 0 3.363281 1.082031 4.007813 2.730469 6.246093 14.695312 18.945312 25.660156 34.390624 29.699218 4.183594 1.0625 8.484376 1.605469 12.800782 1.621094 14.738281.042969 28.761718-6.34375 38.398437-17.496094 3.6875-4.078125 6.660157-8.753906 8.789063-13.824218.648437-1.648438 2.242187-2.730469 4.011718-2.730469 1.773438 0 3.363282 1.082031 4.011719 2.730469 6.195313 14.613281 18.792969 25.542968 34.132813 29.613281 4.257812 1.132812 8.648437 1.707031 13.054687 1.707031 6.144531.007812 12.234375-1.179688 17.921875-3.5zm0 0" fill="#2296f3"/><path d="m460.648438 444.195312c-20.96875.015626-40.410157-10.980468-51.199219-28.960937-10.800781 17.972656-30.234375 28.964844-51.199219 28.964844-20.96875 0-40.402344-10.992188-51.203125-28.964844-10.796875 17.972656-30.230469 28.964844-51.199219 28.964844-20.964844 0-40.398437-10.992188-51.199218-28.964844-10.800782 17.972656-30.230469 28.964844-51.199219 28.964844s-40.402344-10.992188-51.199219-28.964844c-10.570312 17.5625-29.40625 28.480469-49.898438 28.921875-20.492187.445312-39.78125-9.652344-51.09375-26.746094-2.402343-3.925781-1.26171825-9.046875 2.582032-11.582031 3.839844-2.53125 9-1.5625 11.660156 2.195313 8.691406 13.09375 23.875 20.347656 39.519531 18.882812 15.648438-1.464844 29.222657-11.410156 35.332031-25.886719 1.953126-4.847656 6.652344-8.023437 11.875-8.023437 5.226563 0 9.925782 3.175781 11.875 8.023437 6.660157 15.824219 22.15625 26.113281 39.324219 26.113281 17.171875 0 32.667969-10.289062 39.328125-26.113281 1.949219-4.847656 6.648438-8.023437 11.875-8.023437 5.222656 0 9.921875 3.175781 11.871094 8.023437 6.660156 15.824219 22.160156 26.113281 39.328125 26.113281s32.664063-10.289062 39.324219-26.113281c1.953125-4.847656 6.652344-8.023437 11.875-8.023437s9.921875 3.175781 11.875 8.023437c6.660156 15.824219 22.15625 26.113281 39.324218 26.113281 17.171876 0 32.667969-10.289062 39.328126-26.113281 1.949218-4.847656 6.648437-8.023437 11.871093-8.023437 5.226563 0 9.925781 3.175781 11.875 8.023437 6.121094 14.472657 19.703125 24.410157 35.351563 25.867188 15.648437 1.453125 30.828125-5.8125 39.511718-18.914063 2.660157-3.757812 7.820313-4.726562 11.660157-2.195312 3.84375 2.535156 4.984375 7.65625 2.582031 11.582031-11.003906 16.757813-29.710938 26.84375-49.757812 26.835937zm0 0"/><path d="m342.46875 441.636719c-.480469.003906-.964844-.039063-1.441406-.121094-2.230469-.378906-4.21875-1.628906-5.527344-3.476563-1.3125-1.847656-1.832031-4.136718-1.453125-6.371093 6.289063-30.265625 17.738281-59.222657 33.851563-85.605469 60.742187-106.289062 8.714843-182.417969-31.570313-210.644531l3.804687-7.75-4.847656 7.023437c-1.222656-.847656-2.453125-1.675781-3.6875-2.492187-30.523437-20.003907-65.855468-31.457031-102.3125-33.167969-37.128906-.980469-73.945312 6.976562-107.359375 23.195312-32.203125 14.4375-59.246093 16.273438-82.628906 5.613282 5.511719 6.261718 11.660156 11.933594 18.339844 16.929687 24.746093 19.628907 55.894531 28.945313 95.460937 28.679688h3.132813c19.761719-.195313 42.121093-.425781 60.835937 12.671875 18.125 11.804687 29.398438 31.664062 30.25 53.277344 0 46.480468-19.703125 66.148437-63.882812 92.644531-13.261719 7.933593-24.835938 18.402343-34.054688 30.804687-12.4375 17.21875-21.359375 36.722656-26.25 57.394532-1.191406 4.5625-5.855468 7.289062-10.414062 6.097656s-7.289063-5.855469-6.097656-10.414063c5.433593-22.808593 15.320312-44.320312 29.089843-63.300781 10.546875-14.179688 23.78125-26.140625 38.945313-35.207031 41.710937-25.03125 55.597656-39.808594 55.597656-78.019531-.859375-16.050782-9.421875-30.695313-22.988281-39.316407-14.234375-9.957031-32.828125-9.761719-50.878907-9.589843h-3.15625c-43.519531.230468-78.25-10.238282-106.207031-32.367188-11.007812-7.773438-20.355469-17.667969-27.492187-29.097656-3.765625-5.019532-3.933594-11.871094-.417969-17.066406 4.089844-4.648438 10.683594-6.1875 16.410156-3.832032 3.636719.992188 7.167969 2.332032 10.546875 4.011719 18.96875 8.777344 40.855469 7.011719 68.847656-5.539063 35.878907-17.269531 75.371094-25.695312 115.171876-24.585937 39.507812 1.867187 77.789062 14.292969 110.867187 35.976563 1.347656.855468 2.667969 1.785156 3.992187 2.6875l1.125.792968c83.355469 58.34375 77.433594 161.726563 36.695313 233.089844-15.125 24.632812-25.898437 51.6875-31.847656 79.972656-.699219 4.117188-4.273438 7.117188-8.449219 7.101563zm0 0"/><path d="m55.835938 443.941406c-2.6875 0-5.214844-1.265625-6.828126-3.414062-8.191406-11.105469-15.679687-22.714844-22.425781-34.757813-4.246093-7.492187-7.617187-15.449219-10.042969-23.710937-4.179687-14.390625-6.074218-29.347656-5.621093-44.324219.851562-37.625 14.734375-68.070313 37.972656-83.523437 2.882813-1.835938 5.878906-3.480469 8.976563-4.925782 4.8125-1.652344 9.003906-4.738281 12.007812-8.847656 1.617188-4.300781 2.484375-8.847656 2.558594-13.441406.1875-2.277344.375-4.519532.65625-6.664063.582031-4.316406 1.707031-12.953125 8.746094-15.359375 3.785156-1.234375 7.9375-.15625 10.640624 2.765625 11 11.007813 29.382813 49.363281 9.601563 79.035157-17.238281 25.855468-14.105469 37.152343-2.296875 48.964843 6.453125 6.441407 21.949219 11.238281 43.65625 13.5 4.691406.488281 8.097656 4.683594 7.609375 9.375-.488281 4.6875-4.683594 8.09375-9.375 7.605469-26.332031-2.746094-44.484375-8.941406-53.957031-18.414062-24.746094-24.746094-13.8125-49.492188.164062-70.503907 7.335938-13.351562 7.714844-29.4375 1.015625-43.117187-.425781 4.789062-1.679687 9.46875-3.703125 13.832031-4.53125 7.605469-11.515625 13.445313-19.804687 16.554687-2.429688 1.132813-4.789063 2.410157-7.066407 3.824219-26.328124 17.515625-30.011718 54.613281-30.371093 69.714844-.40625 13.203125 1.253906 26.386719 4.921875 39.074219 2.0625 7.011718 4.925781 13.761718 8.535156 20.113281 6.398438 11.4375 13.503906 22.460937 21.273438 33.015625 1.9375 2.585938 2.25 6.046875.804687 8.9375s-4.398437 4.714844-7.632813 4.714844zm0 0"/><path d="m503.316406 358.863281c-3.644531.003907-6.886718-2.308593-8.074218-5.75-18.328126-53.128906-53.929688-94.023437-95.324219-109.296875-4.375-1.664062-6.59375-6.542968-4.972657-10.933594 1.625-4.390624 6.480469-6.652343 10.886719-5.074218 46.828125 17.28125 85.332031 60.917968 105.546875 119.738281.898438 2.609375.484375 5.488281-1.117187 7.734375-1.601563 2.246094-4.1875 3.582031-6.945313 3.582031zm0 0"/><path d="m155.847656 291.792969c-4.46875-.109375-8.789062-1.648438-12.316406-4.394531-6.859375-5.453126-12.144531-12.636719-15.296875-20.816407-5.210937-11.636719-5.023437-24.976562.519531-36.460937 6.730469-11.699219 17.636719-20.425782 30.53125-24.421875 21.554688-5.792969 43.765625-8.777344 66.082032-8.882813 4.714843-.105468 8.617187 3.632813 8.722656 8.34375.101562 4.714844-3.632813 8.617188-8.347656 8.722656-20.605469.132813-41.117188 2.824219-61.0625 8.011719-8.757813 2.613281-16.210938 8.421875-20.882813 16.273438-3.074219 7.046875-2.976563 15.070312.265625 22.042969 1.957031 5.257812 5.273438 9.902343 9.609375 13.464843.667969.472657 1.410156.824219 2.199219 1.039063.195312-.632813.28125-1.292969.265625-1.953125-.078125-1.832031-.28125-3.65625-.605469-5.460938-2.214844-7.800781-.910156-16.179687 3.574219-22.9375 9.703125-11.675781 26.292969-7.636719 36.214843-5.230469l2.5625.605469c9.226563 2.230469 18.269532 5.171875 27.042969 8.796875 5.835938 2.320313 10.828125 4.386719 14.964844 6.109375 2.816406 1.175781 4.789063 3.761719 5.179687 6.785157.390626 3.023437-.863281 6.027343-3.285156 7.875-2.425781 1.851562-5.652344 2.265624-8.464844 1.09375-4.054687-1.707032-8.960937-3.722657-14.710937-5.972657-7.972656-3.300781-16.183594-5.984375-24.566406-8.03125l-2.707031-.640625c-6.050782-1.476562-16.210938-3.933594-19.078126-.433594-1.027343 1.238282-.230468 6.621094.195313 9.515626.457031 2.625.722656 5.277343.792969 7.941406.585937 8.519531-4.914063 16.265625-13.148438 18.519531-1.390625.339844-2.820312.507813-4.25.496094zm0 0"/><path d="m213.609375 407.9375c-8.285156.1875-16.324219-2.816406-22.460937-8.386719-8.105469-8.105469-11.703126-19.679687-9.625-30.949219 4.488281-24.988281 23.125-45.066406 47.710937-51.398437 11.082031-2.90625 22.886719-.179687 31.574219 7.296875 15.777344 14.652344 12.839844 42.605469-6.691406 63.648438-10.234376 11.855468-24.871094 19.003906-40.507813 19.789062zm24.847656-74.675781c-1.894531.015625-3.785156.222656-5.640625.625-8.679687 2.214843-16.5 6.96875-22.46875 13.652343-6.222656 6.449219-10.382812 14.605469-11.945312 23.433594-1.1875 5.746094.417968 11.714844 4.328125 16.09375 8.53125 7.867188 26.28125 3.054688 38.859375-10.496094 12.578125-13.550781 16.058594-31.667968 7.585937-39.535156-2.964843-2.574218-6.796875-3.921875-10.71875-3.773437zm0 0"/><path d="m281.679688 299.984375c-1.492188 0-2.984376-.152344-4.445313-.453125-9.171875-2.382812-16.417969-9.402344-19.089844-18.492188-3.230469-9.6875-3.757812-20.070312-1.527343-30.039062 1.894531-10.023438 6.480468-19.347656 13.269531-26.964844 5.734375-7.722656 15.429687-11.421875 24.855469-9.484375 9.425781 1.941407 16.871093 9.167969 19.089843 18.53125 3.230469 9.6875 3.757813 20.070313 1.527344 30.039063-4.46875 21.691406-18.746094 36.863281-33.679687 36.863281zm-8.347657-45.542969c-1.566406 6.871094-1.273437 14.039063.855469 20.761719 1.570312 4.316406 3.941406 7.082031 6.5 7.609375 5.839844 1.246094 14.96875-8.644531 17.921875-23.15625 1.570313-6.875 1.273437-14.042969-.851563-20.761719-1.5625-4.320312-3.9375-7.085937-6.503906-7.613281-3.539062-.09375-6.894531 1.558594-8.976562 4.421875-4.613282 5.34375-7.710938 11.824219-8.976563 18.773437zm0 0"/><path d="m431.292969 185.03125c-1.808594 0-3.609375-.246094-5.347657-.734375-8.011718-2.65625-14.035156-9.332031-15.863281-17.570313-2.207031-8.554687-2.039062-17.550781.484375-26.019531 5.726563-20.417969 21.445313-33.277343 35.839844-29.25 8.011719 2.65625 14.035156 9.328125 15.863281 17.570313 2.203125 8.554687 2.03125 17.550781-.496093 26.015625-5.058594 17.90625-17.765626 29.988281-30.480469 29.988281zm9.652343-57.25c-3.882812 0-10.8125 6.347656-13.945312 17.535156-1.652344 5.425782-1.828125 11.199219-.511719 16.71875.855469 3.148438 2.460938 5.375 4.0625 5.828125 3.652344 1.066407 11.375-5.410156 14.746094-17.425781 1.660156-5.425781 1.839844-11.199219.519531-16.71875-.902344-3.148438-2.457031-5.382812-4.058594-5.828125-.265624-.074219-.539062-.113281-.8125-.109375zm0 0"/><path d="m248.152344 193.4375h-.375c-7.046875-.246094-13.859375-2.59375-19.558594-6.742188-13.652344-9.636718-18.527344-25.480468-11.09375-36.0625 7.433594-10.582031 24.003906-11.347656 37.683594-1.707031 13.679687 9.644531 18.515625 25.480469 11.050781 36.070313-4.160156 5.546875-10.777344 8.703125-17.707031 8.441406zm-10.105469-20.695312c2.894531 2.15625 6.355469 3.417968 9.960937 3.628906 1.421876.140625 2.84375-.296875 3.941407-1.214844 1.21875-1.707031-.476563-7.722656-6.945313-12.277344-6.46875-4.558594-12.671875-4.148437-13.894531-2.414062-1.21875 1.730468.480469 7.722656 6.9375 12.277344zm0 0"/><path d="m379.421875 392.996094c-3.207031.007812-6.382813-.652344-9.320313-1.9375-7.433593-3.460938-12.691406-10.355469-14.0625-18.441406-.625-2.984376.390626-6.074219 2.664063-8.105469s5.457031-2.699219 8.355469-1.746094c2.898437.953125 5.066406 3.378906 5.6875 6.363281.359375 2.605469 1.878906 4.90625 4.132812 6.261719 4.546875 2 12.335938-2.226563 16.40625-11.398437 4.070313-9.171876 1.964844-17.835938-2.472656-19.789063-1.71875-.710937-3.660156-.664063-5.34375.128906-4.429688 1.601563-9.324219-.691406-10.925781-5.125-1.601563-4.433593.691406-9.324219 5.125-10.925781 5.820312-2.265625 12.300781-2.152344 18.039062.3125 14.011719 6.179688 18.917969 24.75 11.1875 42.308594-4.6875 12.472656-16.1875 21.09375-29.472656 22.09375zm0 0"/><path d="m93.714844 418.597656c-14.136719 0-25.597656-11.460937-25.597656-25.601562 0-14.136719 11.460937-25.597656 25.597656-25.597656 14.140625 0 25.601562 11.460937 25.601562 25.597656.050782 6.480468-2.441406 12.71875-6.9375 17.382812-2.316406 2.382813-5.800781 3.203125-8.933594 2.109375-.882812 3.09375-3.480468 5.402344-6.65625 5.910157-1.019531.148437-2.046874.214843-3.074218.199218zm1.375-17.179687c1.023437 0 2.042968.183593 3.003906.539062.386719-1.308593 1.089844-2.5 2.046875-3.472656 1.402344-1.476563 2.160156-3.453125 2.109375-5.488281 0-4.710938-3.820312-8.53125-8.535156-8.53125-4.710938 0-8.53125 3.820312-8.53125 8.53125 0 4.714844 3.820312 8.535156 8.53125 8.535156.453125-.074219.914062-.113281 1.375-.113281zm0 0"/><path d="m358.25 324.730469c-2.867188 0-5.546875-1.4375-7.125-3.832031-1.582031-2.390626-1.855469-5.417969-.726562-8.054688.246093-.5625 23.988281-57.054688 8.457031-95.871094-1.136719-2.832031-.671875-6.054687 1.210937-8.449218 1.886719-2.398438 4.90625-3.609376 7.925782-3.175782 3.015624.433594 5.574218 2.445313 6.707031 5.273438 18.167969 45.433594-7.507813 106.367187-8.609375 108.9375-1.34375 3.136718-4.429688 5.171875-7.839844 5.171875zm0 0"/><path d="m349.714844 196.730469c-3.660156 0-6.917969-2.332031-8.089844-5.804688-5.085938-13.21875-15.53125-23.667969-28.746094-28.765625-2.898437-.964844-5.058594-3.402344-5.671875-6.390625-.613281-2.992187.417969-6.082031 2.699219-8.105469 2.285156-2.027343 5.476562-2.679687 8.371094-1.714843 18.332031 6.75 32.78125 21.203125 39.527344 39.535156.875 2.601563.441406 5.464844-1.164063 7.695313-1.601563 2.230468-4.179687 3.550781-6.925781 3.550781zm0 0"/><path d="m397.160156 212.859375c-3.433594-.003906-6.535156-2.0625-7.867187-5.230469-1.328125-3.167968-.628907-6.824218 1.773437-9.277344 8.1875-10.496093 15.265625-21.8125 21.113282-33.765624 2.0625-4.242188 7.171874-6.007813 11.414062-3.949219 4.242188 2.0625 6.007812 7.171875 3.945312 11.414062-6.292968 12.878907-13.894531 25.074219-22.679687 36.394531-.511719.675782-1.066406 1.316407-1.65625 1.921876-1.605469 1.597656-3.777344 2.496093-6.042969 2.492187zm0 0"/><path d="m457.097656 280.628906c-3.15625-.011718-6.042968-1.785156-7.480468-4.597656s-1.183594-6.191406.65625-8.757812c.101562-.136719.597656-.730469.699218-.851563 8.765625-11.25 16.089844-23.550781 21.8125-36.617187 18.339844-38.738282 25.320313-81.886719 20.136719-124.433594-2.679687-18.472656-15.4375-79.359375-67.242187-87.242188-4.582032-1.203125-9.417969-1.027344-13.902344.5 1.5625 2.039063 3.398437 3.851563 5.453125 5.386719 1.359375 1.125 2.65625 2.226563 3.746093 3.292969 5.082032 4.710937 9.359376 10.222656 12.65625 16.316406 5.53125 11.839844 8.996094 24.539062 10.238282 37.546875 1.640625 13.585937 1.433594 27.328125-.621094 40.855469-.761719 4.597656-5.066406 7.734375-9.675781 7.050781-4.605469-.6875-7.8125-4.941406-7.203125-9.558594 1.824218-12.007812 2.015625-24.207031.570312-36.265625-1.03125-11.042968-3.917968-21.835937-8.53125-31.921875-2.472656-4.429687-5.644531-8.429687-9.386718-11.847656-.785157-.773437-1.75-1.550781-2.742188-2.378906-5.667969-3.753907-9.648438-9.570313-11.089844-16.214844-.84375-5.304687.898438-10.699219 4.691406-14.503906 5.582032-5.445313 15.121094-7.1875 28.375-5.121094 42.777344 6.492187 73.273438 44.5 81.550782 101.664063 5.652344 45.792968-1.804688 92.25-21.503906 133.976562-6.242188 14.242188-14.234376 27.65625-23.789063 39.925781l-.5625.683594c-1.722656 1.984375-4.226563 3.121094-6.855469 3.113281zm0 0"/></svg>