<svg height="511pt" viewBox="0 -76 511.56443 511" width="511pt" xmlns="http://www.w3.org/2000/svg"><path d="m255.5625 298.949219c-1 15.054687-3.34375 29.988281-6.996094 44.628906-.90625 3.839844-4.328125 6.558594-8.277344 6.570313h-27.390624c-4.714844 0-8.535157-3.820313-8.535157-8.53125v-9.644532c.003907-1.507812-.789062-2.90625-2.085937-3.679687-1.296875-.769531-2.902344-.800781-4.226563-.074219-12.546875 7.082031-40.449219 21.929688-53.417969 21.929688h-134.230468c-3.636719-11.246094-2.84375-23.453126 2.21875-34.132813h114.773437c11.320313 0 22.464844-2.816406 32.425781-8.191406l87.464844-47.105469c1.625 28.074219 8.277344 23.125 8.277344 38.230469zm0 0" fill="#795548"/><path d="m247.03125 247.75c0 4.949219.085938 9.300781.253906 12.96875l-42.921875 23.125-44.542969 23.980469c-9.960937 5.375-21.105468 8.191406-32.425781 8.191406h-114.773437c4.761718-10.875 12.980468-19.875 23.378906-25.601563 17.070312-8.53125 83.03125-25.597656 100.097656-59.730468 2.523438-5.417969 4.277344-11.164063 5.207032-17.066406 1.726562-11.296876 2.523437-22.710938 2.386718-34.136719 0-11.347657-.597656-23.125-1.535156-34.132813-1.023438-13.054687-2.390625-25.085937-3.582031-34.132812l65.789062-56.832032 29.867188-25.855468 21.332031 82.6875s-8.53125 93.867187-8.53125 136.535156zm0 0" fill="#fec108"/><path d="m207.898438 98.832031 9.386718-32.988281c.519532-1.835938 2.195313-3.101562 4.101563-3.101562 1.910156 0 3.585937 1.265624 4.105469 3.101562l9.386718 32.988281c2.101563 7.359375 8.84375 12.421875 16.496094 12.382813h12.722656c9.414063-.027344 17.039063-7.652344 17.066406-17.066406v-68.265626c-.027343-9.414062-7.652343-17.039062-17.066406-17.066406h-136.535156c-9.410156.027344-17.035156 7.652344-17.066406 17.066406v68.265626c.03125 9.414062 7.65625 17.039062 17.066406 17.066406h63.925781c7.621094 0 14.316407-5.054688 16.410157-12.382813zm0 0" fill="#795548"/><path d="m349.429688 8.816406h136.535156c9.425781 0 17.066406 7.640625 17.066406 17.066406v59.734376c0 9.425781-7.640625 17.066406-17.066406 17.066406h-136.535156c-9.425782 0-17.066407-7.640625-17.066407-17.066406v-59.734376c0-9.425781 7.640625-17.066406 17.066407-17.066406zm0 0" fill="#4e342e"/><path d="m453.707031 149.617188-16.042969 155.816406h-39.933593l-16.042969-155.816406zm0 0" fill="#ff9801"/><path d="m429.984375 149.617188-16.042969 155.816406h-16.210937l-16.042969-155.816406zm0 0" fill="#fec108"/><path d="m441.847656 350.148438h-48.300781c-2.75.007812-5.339844-1.3125-6.945313-3.546876-1.609374-2.234374-2.039062-5.109374-1.160156-7.714843l9.386719-28.246094c1.703125-5.070313 5.679687-9.050781 10.753906-10.753906 1.753907-.613281 3.601563-.929688 5.460938-.9375h13.3125c7.351562.015625 13.875 4.71875 16.210937 11.691406l9.386719 28.246094c.882813 2.605469.449219 5.480469-1.15625 7.714843-1.609375 2.234376-4.195313 3.554688-6.949219 3.546876zm0 0" fill="#4e342e"/><path d="m417.699219 350.148438h-24.152344c-2.75.007812-5.339844-1.3125-6.945313-3.546876-1.609374-2.234374-2.039062-5.109374-1.160156-7.714843l9.386719-28.246094c1.703125-5.070313 5.679687-9.050781 10.753906-10.753906 5.101563 1.648437 9.101563 5.648437 10.75 10.753906l9.472657 28.246094c.851562 2.605469.410156 5.460937-1.191407 7.6875-1.605469 2.226562-4.171875 3.554687-6.914062 3.574219zm0 0" fill="#795548"/><path d="m485.964844 102.683594c-.042969 28.257812-22.941406 51.15625-51.199219 51.199218h-34.132813c-28.277343 0-51.203124-22.921874-51.203124-51.199218zm0 0" fill="#4e342e"/><path d="m349.429688 8.816406h110.933593c9.425781 0 17.066407 7.640625 17.066407 17.066406v59.734376c0 9.425781-7.640626 17.066406-17.066407 17.066406h-110.933593c-9.425782 0-17.066407-7.640625-17.066407-17.066406v-59.734376c0-9.425781 7.640625-17.066406 17.066407-17.066406zm0 0" fill="#795548"/><path d="m460.363281 102.683594c-.042969 28.257812-22.9375 51.15625-51.199219 51.199218h-8.53125c-28.277343 0-51.203124-22.921874-51.203124-51.199218zm0 0" fill="#795548"/><path d="m264.097656 119.75h-25.601562c-4.710938 0-8.53125-3.820312-8.53125-8.535156 0-4.710938 3.820312-8.53125 8.53125-8.53125h25.601562c4.714844 0 8.535156-3.820313 8.535156-8.535156v-68.265626c0-4.714843-3.820312-8.535156-8.535156-8.535156h-136.535156c-4.710938 0-8.53125 3.820313-8.53125 8.535156v68.265626c0 4.714843 3.820312 8.535156 8.53125 8.535156h76.800781c4.714844 0 8.535157 3.820312 8.535157 8.53125 0 4.714844-3.820313 8.535156-8.535157 8.535156h-76.800781c-14.136719 0-25.597656-11.460938-25.597656-25.601562v-68.265626c0-14.140624 11.460937-25.601562 25.597656-25.601562h136.535156c14.136719 0 25.601563 11.460938 25.601563 25.601562v68.265626c0 14.140624-11.464844 25.601562-25.601563 25.601562zm0 0"/><path d="m240.289062 358.683594h-27.390624c-9.425782 0-17.066407-7.640625-17.066407-17.066406v-2.417969c-17.671875 9.601562-38.863281 19.484375-51.199219 19.484375h-134.265624c-3.675782 0-6.9375-2.351563-8.097657-5.839844-7.710937-27.46875 4.710938-56.605469 29.867188-70.066406 4.105469-2.046875 10.171875-4.316406 17.851562-7.203125 24.910157-9.386719 66.558594-24.984375 78.457031-48.707031 2.160157-4.6875 3.652344-9.652344 4.433594-14.753907 1.660156-10.796875 2.421875-21.710937 2.28125-32.632812 0-10.238281-.523437-21.835938-1.511718-33.40625-1.109376-14.175781-2.558594-26.164063-3.53125-33.742188-.480469-4.59375 2.785156-8.738281 7.367187-9.34375s8.8125 2.546875 9.542969 7.109375c1.035156 7.773438 2.5 20.097656 3.636718 34.585938 1.03125 12.160156 1.5625 23.894531 1.5625 34.796875.144532 11.90625-.695312 23.800781-2.507812 35.570312-1.074219 6.730469-3.082031 13.273438-5.976562 19.445313-14.863282 29.722656-60.484376 46.839844-87.738282 57.054687-6.929687 2.558594-12.902344 4.847657-16.214844 6.503907-15.566406 8.703124-24.496093 25.808593-22.738281 43.5625h127.582031c7.601563 0 26.453126-7.980469 49.21875-20.824219 3.914063-2.246094 8.730469-2.246094 12.644532 0 3.976562 2.320312 6.414062 6.578125 6.402344 11.179687v9.644532h27.390624c3.5625-13.984376 5.820313-28.269532 6.742188-42.667969.179688-3.195313-.535156-6.378907-2.066406-9.191407-3.539063-7.664062-6.46875-16.101562-6.46875-42.007812 0-42.566406 8.21875-133.460938 8.535156-137.300781.273438-3.050781 2.152344-5.722657 4.929688-7.007813 2.78125-1.285156 6.03125-.992187 8.535156.769532 2.503906 1.761718 3.875 4.722656 3.601562 7.773437-.085937.9375-8.535156 93.976563-8.535156 135.765625 0 24.257812 2.714844 30.128906 4.898438 34.839844 2.578124 5.058594 3.828124 10.6875 3.636718 16.359375-.941406 15.703125-3.355468 31.28125-7.210937 46.53125-1.796875 7.722656-8.671875 13.191406-16.597657 13.203125zm-37.988281-23.042969h-.0625zm0 0"/><path d="m178.765625 153.882812h-36.609375c-4.710938 0-8.53125-3.820312-8.53125-8.535156 0-4.710937 3.820312-8.53125 8.53125-8.53125h36.609375c4.710937 0 8.53125 3.820313 8.53125 8.53125 0 4.714844-3.820313 8.535156-8.53125 8.535156zm0 0"/><path d="m178.765625 188.015625h-35.074219c-4.710937 0-8.53125-3.820313-8.53125-8.535156 0-4.710938 3.820313-8.53125 8.53125-8.53125h35.074219c4.710937 0 8.53125 3.820312 8.53125 8.53125 0 4.714843-3.820313 8.535156-8.53125 8.535156zm0 0"/><path d="m178.765625 222.148438h-37.460937c-4.714844 0-8.535157-3.820313-8.535157-8.53125 0-4.714844 3.820313-8.535157 8.535157-8.535157h37.460937c4.710937 0 8.53125 3.820313 8.53125 8.535157 0 4.710937-3.820313 8.53125-8.53125 8.53125zm0 0"/><path d="m127.394531 324.550781h-114.808593c-4.710938 0-8.53125-3.824219-8.53125-8.535156 0-4.714844 3.820312-8.535156 8.53125-8.535156h114.808593c9.90625-.015625 19.65625-2.476563 28.382813-7.167969l87.464844-47.101562c2.699218-1.636719 6.082031-1.652344 8.792968-.035157 2.710938 1.613281 4.3125 4.59375 4.15625 7.746094-.152344 3.15625-2.035156 5.964844-4.894531 7.308594l-87.464844 47.101562c-11.199219 6.03125-23.71875 9.195313-36.4375 9.21875zm0 0"/><path d="m238.496094 119.75c-3.804688-.003906-7.152344-2.527344-8.199219-6.1875l-8.867187-31.019531-8.863282 31.019531c-.769531 3.011719-3.113281 5.367188-6.121094 6.152344-3.007812.78125-6.203124-.132813-8.34375-2.386719-2.136718-2.257813-2.878906-5.496094-1.9375-8.460937l12.960938-45.371094c1.574219-5.488282 6.59375-9.273438 12.304688-9.273438 5.714843 0 10.734374 3.785156 12.304687 9.273438l12.964844 45.371094c1.292969 4.53125-1.328125 9.25-5.855469 10.550781-.761719.21875-1.550781.332031-2.347656.332031zm0 0"/><path d="m485.964844 111.214844h-136.535156c-14.136719 0-25.597657-11.460938-25.597657-25.597656v-59.734376c0-14.140624 11.460938-25.601562 25.597657-25.601562h136.535156c14.136718 0 25.597656 11.460938 25.597656 25.601562v59.734376c0 14.136718-11.460938 25.597656-25.597656 25.597656zm-136.535156-93.867188c-4.710938 0-8.53125 3.820313-8.53125 8.535156v59.734376c0 4.710937 3.820312 8.53125 8.53125 8.53125h136.535156c4.710937 0 8.53125-3.820313 8.53125-8.53125v-59.734376c0-4.714843-3.820313-8.535156-8.53125-8.535156zm0 0"/><path d="m437.683594 313.96875c-.304688 0-.609375-.019531-.914063-.050781-2.25-.238281-4.3125-1.363281-5.738281-3.125-1.421875-1.757813-2.085938-4.011719-1.847656-6.261719l15.042968-142.117188h-53.058593l15.042969 142.117188c.324218 3.03125-.996094 6.003906-3.460938 7.796875-2.464844 1.796875-5.703125 2.140625-8.488281.902344-2.785157-1.238281-4.699219-3.867188-5.023438-6.898438l-16.042969-151.554687c-.253906-2.402344.527344-4.804688 2.144532-6.601563 1.617187-1.796875 3.921875-2.824219 6.339844-2.828125h72.039062c2.417969.003906 4.722656 1.03125 6.339844 2.828125 1.617187 1.796875 2.394531 4.199219 2.140625 6.601563l-16.042969 151.554687c-.457031 4.335938-4.113281 7.628907-8.472656 7.636719zm0 0"/><path d="m441.871094 358.683594h-48.347656c-5.488282.003906-10.648438-2.628906-13.859376-7.078125-3.214843-4.449219-4.089843-10.175781-2.355468-15.382813l9.4375-28.304687c3.488281-10.457031 13.28125-17.511719 24.304687-17.503907h13.292969c11.019531 0 20.800781 7.050782 24.289062 17.503907l9.4375 28.296875c1.734376 5.203125.863282 10.929687-2.347656 15.378906-3.207031 4.453125-8.363281 7.089844-13.851562 7.089844zm-30.820313-51.203125c-3.675781 0-6.9375 2.351562-8.097656 5.839843l-9.429687 28.296876h48.347656l-9.386719-28.296876c-1.164063-3.503906-4.449219-5.855468-8.140625-5.839843zm0 0"/><path d="m434.765625 162.414062h-34.132813c-32.976562-.035156-59.699218-26.757812-59.734374-59.730468 0-4.714844 3.820312-8.535156 8.53125-8.535156h136.535156c4.710937 0 8.53125 3.820312 8.53125 8.535156-.035156 32.972656-26.757813 59.695312-59.730469 59.730468zm-75.949219-51.199218c4.082032 19.855468 21.546875 34.113281 41.816406 34.132812h34.132813c20.265625-.019531 37.734375-14.277344 41.8125-34.132812zm0 0"/><path d="m375.03125 51.480469h-8.535156c-4.710938 0-8.53125-3.820313-8.53125-8.53125 0-4.714844 3.820312-8.535157 8.53125-8.535157h8.535156c4.710938 0 8.53125 3.820313 8.53125 8.535157 0 4.710937-3.820312 8.53125-8.53125 8.53125zm0 0"/><path d="m434.765625 51.480469h-25.601563c-4.710937 0-8.53125-3.820313-8.53125-8.53125 0-4.714844 3.820313-8.535157 8.53125-8.535157h25.601563c4.710937 0 8.53125 3.820313 8.53125 8.535157 0 4.710937-3.820313 8.53125-8.53125 8.53125zm0 0"/></svg>