<svg height="510pt" viewBox="-101 0 510 510.98465" width="510pt" xmlns="http://www.w3.org/2000/svg"><path d="m299.167969 240.554688v220.246093c-.425781 14.832031-10.863281 27.484375-25.34375 30.71875-39.496094 7.253907-79.566407 10.910157-119.722657 10.921875-4.269531 0-8.535156 0-12.800781-.167968 35.871094-.6875 71.632813-4.28125 106.921875-10.753907 14.480469-3.234375 24.921875-15.886719 25.34375-30.71875v-220.246093c.203125-10.9375-2.695312-21.707032-8.363281-31.0625-3.976563-6.496094-7.457031-13.285157-10.410156-20.308594-.171875-.425782-.339844-.851563-.511719-1.363282-5.605469-13.984374-9.613281-28.554687-11.945312-43.4375-.769532-4.949218-1.367188-9.8125-1.792969-14.761718-.070313-.535156-.097657-1.078125-.085938-1.621094-1.84375-19.6875-.925781-39.535156 2.730469-58.964844.019531-.207031.074219-.410156.171875-.597656 2.207031-12.152344 6.054687-23.953125 11.433594-35.070312 2.675781-5.308594 2.40625-11.621094-.707031-16.679688-3.113282-5.0625-8.625-8.148438-14.566407-8.152344h25.597657c5.941406.003906 11.457031 3.089844 14.570312 8.152344 3.113281 5.058594 3.378906 11.371094.707031 16.679688-5.382812 11.117187-9.226562 22.917968-11.433593 35.070312-.097657.1875-.15625.390625-.171876.597656-3.65625 19.429688-4.574218 39.277344-2.730468 58.964844-.015625.542969.011718 1.085938.085937 1.621094.425781 4.949218 1.023438 9.8125 1.789063 14.761718 2.335937 14.882813 6.34375 29.453126 11.949218 43.4375.167969.511719.339844.9375.511719 1.363282 2.949219 7.023437 6.429688 13.8125 10.410157 20.308594 5.664062 9.355468 8.566406 20.125 8.363281 31.0625zm0 0" fill="#607d8b"/><path d="m273.566406 240.554688v220.246093c-.421875 14.832031-10.863281 27.484375-25.34375 30.71875-35.289062 6.472657-71.050781 10.066407-106.921875 10.753907-35.875-.6875-71.632812-4.28125-106.921875-10.753907-14.484375-3.234375-24.921875-15.886719-25.34375-30.71875v-220.246093c-.203125-10.9375 2.695313-21.707032 8.359375-31.0625 3.980469-6.496094 7.460938-13.285157 10.414063-20.308594.167968-.425782.339844-.851563.511718-1.363282 5.605469-13.984374 9.613282-28.554687 11.945313-43.4375.769531-4.949218 1.367187-9.8125 1.792969-14.761718.070312-.535156.097656-1.078125.085937-1.621094 1.84375-19.6875.925781-39.535156-2.730469-58.964844-.019531-.207031-.078124-.410156-.171874-.597656-2.207032-12.152344-6.054688-23.953125-11.433594-35.070312-2.675782-5.308594-2.40625-11.621094.707031-16.679688 3.113281-5.0625 8.625-8.148438 14.566406-8.152344h26.453125c4.851563.097656 9.445313 2.214844 12.667969 5.84375s4.789063 8.4375 4.3125 13.269532c-.425781 5.121093-.683594 10.496093-.683594 15.871093-.027343 8.277344.515625 16.546875 1.621094 24.746094v.171875c.015625.488281.074219.972656.171875 1.449219 2.546875 20.675781 9.535156 40.558593 20.480469 58.285156h.085937c.683594 1.195313 1.449219 2.386719 2.21875 3.496094 7.375 11.332031 18.207032 19.980469 30.890625 24.664062 4.117188 1.425781 8.441407 2.144531 12.800781 2.132813 16.554688 0 31.914063-10.15625 43.6875-26.796875.769532-1.109375 1.539063-2.300781 2.21875-3.496094h.085938c10.949219-17.726563 17.933594-37.609375 20.480469-58.285156.101562-.476563.15625-.960938.171875-1.449219v-.171875c1.109375-8.199219 1.648437-16.46875 1.621094-24.746094 0-5.375-.257813-10.75-.683594-15.871093-.472656-4.832032 1.089844-9.640626 4.3125-13.269532 3.226562-3.628906 7.816406-5.746094 12.667968-5.84375h.855469c5.941407.003906 11.453125 3.089844 14.566407 8.152344 3.113281 5.058594 3.382812 11.371094.707031 16.679688-5.378907 11.117187-9.226563 22.917968-11.433594 35.070312-.097656.1875-.152344.390625-.171875.597656-3.65625 19.429688-4.574219 39.277344-2.730469 58.964844-.011719.542969.015625 1.085938.085938 1.621094.425781 4.949218 1.023437 9.8125 1.792969 14.761718 2.332031 14.882813 6.339843 29.453126 11.945312 43.4375.171875.511719.339844.9375.511719 1.363282 2.953125 7.023437 6.433593 13.8125 10.410156 20.308594 5.667969 9.355468 8.566406 20.125 8.363281 31.0625zm0 0" fill="#f4f4f4"/><path d="m299.167969 426.667969v34.132812c-.425781 14.832031-10.863281 27.484375-25.34375 30.71875-39.496094 7.253907-79.566407 10.910157-119.722657 10.921875-4.269531 0-8.535156 0-12.800781-.167968-35.875-.6875-71.632812-4.28125-106.921875-10.753907-14.484375-3.234375-24.921875-15.886719-25.34375-30.71875v-34.132812c43.925782 4.867187 88.070313 7.515625 132.265625 7.933593 4.265625.085938 8.53125.085938 12.800781.085938 39.847657 0 79.785157-1.875 119.464844-5.460938 8.535156-.769531 17.066406-1.621093 25.601563-2.558593zm0 0" fill="#283593"/><path d="m299.167969 307.199219v59.734375c-48.171875 5.320312-96.601563 8-145.066407 8.019531-4.269531 0-8.535156 0-12.800781-.082031-44.195312-.421875-88.339843-3.070313-132.265625-7.9375v-59.734375c43.925782 4.867187 88.070313 7.515625 132.265625 7.9375 4.265625.085937 8.53125.085937 12.800781.085937 39.847657 0 79.785157-1.878906 119.464844-5.460937 8.535156-.769531 17.066406-1.621094 25.601563-2.5625zm0 0" fill="#283593"/><path d="m299.167969 240.554688v6.910156c-48.171875 5.324218-96.601563 8-145.066407 8.023437-4.269531 0-8.535156 0-12.800781-.085937-44.195312-.417969-88.339843-3.070313-132.265625-7.9375v-6.910156c-.203125-10.9375 2.695313-21.707032 8.359375-31.0625 3.773438-6.1875 7.109375-12.632813 9.984375-19.285157.171875-.339843.257813-.679687.429688-1.023437.167968-.339844.339844-.851563.511718-1.363282 36.4375 4.007813 73.214844 6.3125 109.992188 6.824219h5.972656c3.246094.085938 6.574219.085938 9.816406.085938 33.789063 0 67.582032-1.449219 101.117188-4.523438 8.277344-.679687 16.472656-1.449219 24.664062-2.386719.167969.511719.339844.9375.511719 1.363282 2.949219 7.023437 6.429688 13.8125 10.410157 20.308594 5.664062 9.355468 8.566406 20.125 8.363281 31.0625zm0 0" fill="#283593"/><path d="m108.105469 128.171875c-21.929688 2.289063-44.042969 2.230469-65.960938-.171875 1.84375-19.6875.925781-39.535156-2.730469-58.964844-.019531-.207031-.078124-.410156-.171874-.597656 16.03125 1.621094 32.183593 1.621094 48.210937 0 .015625.488281.074219.972656.171875 1.449219 2.546875 20.675781 9.535156 40.558593 20.480469 58.285156zm0 0" fill="#3f51b5"/><path d="m268.789062 69.035156c-3.65625 19.429688-4.574218 39.277344-2.730468 58.964844-15.554688 1.691406-31.214844 2.234375-46.847656 1.621094-6.402344-.339844-12.800782-.769532-19.117188-1.449219 10.949219-17.726563 17.933594-37.609375 20.480469-58.285156v-.253907c.097656-.390624.15625-.792968.171875-1.195312 3.753906.339844 7.507812.683594 11.347656.851562 3.671875.257813 7.339844.34375 11.007812.34375 8.636719.070313 17.265626-.328124 25.859376-1.195312-.097657.1875-.15625.390625-.171876.597656zm0 0" fill="#283593"/><g fill="#3f51b5"><path d="m273.566406 426.667969v34.132812c-.421875 14.832031-10.863281 27.484375-25.34375 30.71875-35.289062 6.472657-71.050781 10.066407-106.921875 10.753907-35.875-.6875-71.632812-4.28125-106.921875-10.753907-14.484375-3.234375-24.921875-15.886719-25.34375-30.71875v-31.574219c39.679688 3.585938 79.613282 5.460938 119.464844 5.460938 4.265625 0 8.535156 0 12.800781-.085938 44.195313-.417968 88.339844-3.066406 132.265625-7.933593zm0 0"/><path d="m273.566406 307.199219v59.734375c-43.925781 4.867187-88.070312 7.515625-132.265625 7.9375-44.195312-.421875-88.339843-3.070313-132.265625-7.9375v-57.171875c39.679688 3.582031 79.613282 5.460937 119.464844 5.460937 4.265625 0 8.535156 0 12.800781-.085937 44.195313-.421875 88.339844-3.070313 132.265625-7.9375zm0 0"/><path d="m273.566406 240.554688v6.910156c-43.925781 4.867187-88.070312 7.519531-132.265625 7.9375-44.195312-.417969-88.339843-3.070313-132.265625-7.9375v-6.910156c-.203125-10.9375 2.695313-21.707032 8.359375-31.0625 3.773438-6.1875 7.109375-12.632813 9.984375-19.285157 33.539063 3.074219 67.328125 4.523438 101.121094 4.523438 3.242188 0 6.570312 0 9.8125-.085938h5.972656c36.78125-.511719 73.558594-2.816406 109.996094-6.824219.171875.511719.339844.9375.511719 1.363282.171875.425781.257812.683594.425781 1.023437 2.878906 6.652344 6.214844 13.097657 9.984375 19.285157 5.667969 9.355468 8.566406 20.125 8.363281 31.0625zm0 0"/><path d="m243.359375 68.4375c-.097656.1875-.152344.390625-.171875.597656 0 .171875-.085938.425782-.085938.597656-3.582031 19.238282-4.472656 38.882813-2.644531 58.367188-6.996093.769531-14.164062 1.28125-21.246093 1.621094-6.402344-.339844-12.800782-.769532-19.117188-1.449219 10.949219-17.726563 17.933594-37.609375 20.480469-58.285156v-.253907c3.839843 0 7.679687-.085937 11.519531-.34375 3.839844-.253906 7.511719-.511718 11.265625-.851562zm0 0"/></g><path d="m154.101562 510.984375c-40.664062-.007813-81.246093-3.703125-121.242187-11.035156-18.492187-4.078125-31.832031-20.21875-32.359375-39.148438v-220.246093c-.195312-12.539063 3.140625-24.878907 9.625-35.609376 3.800781-6.078124 7.089844-12.460937 9.839844-19.082031 5.621094-13.753906 9.613281-28.117187 11.886718-42.800781.734376-4.753906 1.304688-9.472656 1.707032-14.191406 1.945312-19.421875 1.082031-39.023438-2.558594-58.199219-2.09375-11.597656-5.753906-22.859375-10.871094-33.476563-3.988281-7.957031-3.570312-17.410156 1.101563-24.988281 4.671875-7.574219 12.933593-12.1953122 21.835937-12.207031h26.453125c7.027344-.0234375 13.742188 2.921875 18.488281 8.105469 5.023438 5.460937 7.550782 12.761719 6.972657 20.15625-.410157 5.300781-.613281 10.429687-.613281 15.308593-.015626 8.394532.554687 16.777344 1.707031 25.089844 2.53125 20.730469 9.835937 40.589844 21.332031 58.027344 10.609375 14.984375 23.636719 23.226562 36.695312 23.226562 13.070313 0 26.101563-8.242187 36.691407-23.21875 11.5-17.433593 18.804687-37.296874 21.335937-58.027343 1.152344-8.320313 1.722656-16.707031 1.703125-25.105469 0-4.828125-.230469-9.957031-.664062-15.230469-.585938-7.421875 1.941406-14.75 6.980469-20.226562 4.753906-5.183594 11.46875-8.1250002 18.5-8.105469h26.453124c8.90625 0 17.179688 4.613281 21.859376 12.191406 4.679687 7.578125 5.101562 17.042969 1.113281 25.003906-5.109375 10.601563-8.757813 21.847657-10.847657 33.425782-3.644531 19.171875-4.503906 38.765625-2.558593 58.179687.410156 4.796875.988281 9.515625 1.707031 14.304688 2.289062 14.6875 6.296875 29.058593 11.945312 42.808593 2.734376 6.585938 6.003907 12.933594 9.78125 18.980469 6.480469 10.75 9.804688 23.109375 9.597657 35.660157v220.246093c-.523438 18.921875-13.863281 35.0625-32.347657 39.140625-40 7.339844-80.582031 11.035156-121.25 11.042969zm-111.019531-493.917969c-2.980469-.023437-5.753906 1.53125-7.289062 4.085938-1.601563 2.554687-1.734375 5.761718-.355469 8.441406 5.792969 11.992188 9.9375 24.714844 12.320312 37.820312 3.953126 20.769532 4.902344 41.996094 2.816407 63.035157-.453125 5.027343-1.058594 10.121093-1.867188 15.28125-2.492187 16.039062-6.855469 31.726562-13.007812 46.746093-3.113281 7.492188-6.839844 14.714844-11.144531 21.589844-4.753907 8.003906-7.175782 17.179688-6.988282 26.488282v220.246093c.492188 10.703125 7.972656 19.808594 18.382813 22.363281 78.117187 14.351563 158.195312 14.351563 236.3125 0 10.40625-2.554687 17.882812-11.660156 18.371093-22.363281v-220.246093c.1875-9.332032-2.246093-18.527344-7.023437-26.546876-4.277344-6.847656-7.988281-14.035156-11.09375-21.488281-6.15625-15.023437-10.523437-30.71875-13.011719-46.761719-.808594-5.207031-1.433594-10.300781-1.878906-15.359374-2.082031-21.027344-1.132812-42.246094 2.828125-63.003907 2.382813-13.082031 6.523437-25.785156 12.3125-37.757812 1.382813-2.683594 1.25-5.898438-.359375-8.457031-1.539062-2.570313-4.320312-4.132813-7.3125-4.113282h-26.453125c-2.273437.003906-4.445313.960938-5.972656 2.644532-1.789063 1.980468-2.683594 4.613281-2.46875 7.273437.480469 5.671875.699219 11.269531.699219 16.535156.019531 9.195313-.601563 18.378907-1.859376 27.488281-2.839843 23.453126-11.175781 45.910157-24.335937 65.535157-13.859375 19.617187-31.828125 30.453125-50.601563 30.453125-18.773437 0-36.695312-10.800782-50.628906-30.429688-13.074218-19.65625-21.40625-42.082031-24.328125-65.507812-1.257812-9.125-1.875-18.328125-1.84375-27.539063 0-5.351562.253907-10.949219.726563-16.640625.203125-2.636718-.6875-5.242187-2.46875-7.199218-1.53125-1.683594-3.699219-2.644532-5.972656-2.648438h-26.453126zm0 0"/><path d="m63.433594 78.121094c-8.339844.003906-16.671875-.453125-24.960938-1.371094-4.683594-.519531-8.0625-4.738281-7.542968-9.421875.519531-4.683594 4.738281-8.0625 9.421874-7.542969 15.339844 1.699219 30.824219 1.699219 46.164063 0 4.683594-.519531 8.902344 2.859375 9.421875 7.542969s-2.859375 8.902344-7.542969 9.421875c-8.289062.917969-16.621093 1.375-24.960937 1.371094zm0 0"/><path d="m244.765625 78.121094c-8.335937.003906-16.671875-.453125-24.957031-1.371094-4.6875-.519531-8.0625-4.738281-7.546875-9.421875.519531-4.683594 4.738281-8.0625 9.421875-7.542969 15.34375 1.699219 30.824218 1.699219 46.167968 0 4.683594-.519531 8.902344 2.859375 9.417969 7.542969.519531 4.683594-2.859375 8.902344-7.542969 9.421875-8.289062.917969-16.621093 1.375-24.960937 1.371094zm0 0"/><path d="m76.070312 138.386719c-11.644531 0-23.28125-.636719-34.859374-1.90625-4.628907-.570313-7.945313-4.753907-7.4375-9.394531.507812-4.636719 4.644531-8.011719 9.292968-7.566407 21.339844 2.34375 42.875 2.398438 64.230469.160157 4.6875-.496094 8.890625 2.90625 9.386719 7.59375.492187 4.691406-2.90625 8.894531-7.597656 9.386718-10.964844 1.148438-21.988282 1.726563-33.015626 1.726563zm0 0"/><path d="m232.128906 138.386719c-11.027344.003906-22.046875-.566407-33.015625-1.707031-3.03125-.320313-5.664062-2.234376-6.90625-5.023438-1.238281-2.785156-.894531-6.023438.898438-8.488281 1.792969-2.46875 4.765625-3.789063 7.800781-3.472657 21.355469 2.238282 42.886719 2.183594 64.230469-.160156 4.644531-.441406 8.785156 2.929688 9.289062 7.570313.507813 4.636719-2.804687 8.824219-7.4375 9.394531-11.578125 1.261719-23.214843 1.890625-34.859375 1.886719zm0 0"/><path d="m154.101562 203.238281c-42.480468.003907-84.925781-2.339843-127.148437-7.023437-3.03125-.335938-5.652344-2.261719-6.875-5.054688-1.226563-2.789062-.867187-6.023437.9375-8.480468 1.804687-2.457032 4.785156-3.765626 7.816406-3.429688 83.257813 9.226562 167.28125 9.226562 250.539063 0 4.683594-.515625 8.902344 2.859375 9.417968 7.542969.519532 4.6875-2.859374 8.902343-7.542968 9.421875-42.21875 4.683594-84.667969 7.027344-127.144532 7.023437zm0 0"/><path d="m154.101562 264.011719c-48.78125.007812-97.523437-2.683594-146.007812-8.0625-3.027344-.335938-5.648438-2.261719-6.875-5.054688-1.2265625-2.792969-.867188-6.023437.9375-8.480469 1.804688-2.457031 4.785156-3.765624 7.816406-3.429687 95.792969 10.617187 192.464844 10.617187 288.253906 0 4.6875-.519531 8.902344 2.859375 9.421876 7.542969.519531 4.683594-2.859376 8.902344-7.542969 9.421875-48.480469 5.378906-97.226563 8.070312-146.003907 8.0625zm0 0"/><path d="m154.101562 323.746094c-48.78125.007812-97.523437-2.683594-146.007812-8.0625-3.027344-.335938-5.648438-2.261719-6.875-5.054688-1.2265625-2.792968-.867188-6.027344.9375-8.484375s4.785156-3.761719 7.816406-3.425781c95.792969 10.613281 192.464844 10.613281 288.253906 0 4.6875-.519531 8.902344 2.859375 9.421876 7.542969.519531 4.683593-2.859376 8.902343-7.542969 9.421875-48.480469 5.378906-97.226563 8.070312-146.003907 8.0625zm0 0"/><path d="m154.101562 383.480469c-48.78125.007812-97.523437-2.683594-146.007812-8.066407-3.027344-.332031-5.648438-2.261718-6.875-5.050781-1.2265625-2.792969-.867188-6.027343.9375-8.484375 1.804688-2.457031 4.785156-3.761718 7.816406-3.425781 95.792969 10.613281 192.464844 10.613281 288.253906 0 3.03125-.335937 6.011719.96875 7.816407 3.425781 1.804687 2.457032 2.164062 5.691406.9375 8.484375-1.222657 2.789063-3.84375 4.71875-6.875 5.050781-48.480469 5.382813-97.226563 8.074219-146.003907 8.066407zm0 0"/><path d="m154.101562 443.214844c-48.78125.003906-97.523437-2.6875-146.007812-8.066406-3.027344-.335938-5.648438-2.261719-6.875-5.054688-1.2265625-2.789062-.867188-6.023438.9375-8.480469s4.785156-3.765625 7.816406-3.429687c95.792969 10.617187 192.464844 10.617187 288.253906 0 4.6875-.515625 8.902344 2.859375 9.421876 7.542968.519531 4.6875-2.859376 8.902344-7.542969 9.421876-48.480469 5.378906-97.226563 8.070312-146.003907 8.066406zm0 0"/></svg>