<svg height="512pt" viewBox="0 0 512 512.00711" width="512pt" xmlns="http://www.w3.org/2000/svg"><path d="m398.765625 82.78125c-15.011719 7.929688-30.757813 14.390625-47.019531 19.285156h-.082032c.679688-1.367187-3.234374-8.738281-2.722656-10.1875 2.898438-7.765625-5.976562-16.703125-5.078125-24.808594.597657-6.058593 9.148438-6.125 8.804688-12.527343-.085938-1.363281 4.175781-7.039063 4.003906-8.40625 14.304687 8.308593 27.097656 18.984375 37.828125 31.574219l.425781.425781c1.367188 1.488281 2.644531 3.109375 3.839844 4.644531zm0 0" fill="#607d8b"/><path d="m409.605469 53.851562v28.929688c.011719 2.023438-1.265625 3.832031-3.183594 4.488281-1.914063.660157-4.035156.019531-5.265625-1.585937-.769531-.941406-1.535156-1.964844-2.390625-2.902344-1.195313-1.535156-2.472656-3.15625-3.839844-4.609375l-.425781-.425781c-3.242188-3.640625-6.75-7.035156-10.496094-10.15625-7.71875-6.542969-16.199218-12.128906-25.257812-16.640625-.855469-8.191407-11.09375-9.300781-14.847656-16.382813-.257813-.597656 7.765624-8.363281 7.421874-8.960937h30.039063c7.492187-.003907 14.679687 2.972656 19.976563 8.269531 5.296874 5.296875 8.273437 12.484375 8.269531 19.976562zm0 0" fill="#37474f"/><path d="m384.003906 53.851562v13.738282c-7.71875-6.542969-16.199218-12.128906-25.257812-16.640625-.855469-8.191407-11.09375-9.300781-14.847656-16.382813-.257813-.597656 7.765624-8.363281 7.421874-8.960937h4.4375c7.492188-.003907 14.679688 2.972656 19.976563 8.269531 5.300781 5.296875 8.273437 12.484375 8.269531 19.976562zm0 0" fill="#607d8b"/><path d="m359.085938 54.960938c-.085938-1.363282-.171876-2.644532-.339844-4.011719-.652344-8.160157-2.855469-16.125-6.488282-23.464844-.277343-.640625-.589843-1.269531-.9375-1.878906l-.765624-1.277344c-.90625-1.527344-1.964844-2.957031-3.160157-4.269531-18.175781 5.464844-44.824219 4.96875-60.097656 16.574218-11.890625 11.53125-19.324219 26.894532-20.984375 43.375-.511719 13.738282 17.59375 18.472657 26.214844 28.160157 18.429687-10.582031 27.730468-4.609375 36.605468 12.800781 9.71875-3.046875 17.820313-9.832031 22.53125-18.859375.683594-1.355469 1.28125-2.753906 1.789063-4.183594 2.742187-7.769531 4.492187-15.855469 5.207031-24.0625.617188-6.28125.757813-12.597656.425782-18.902343zm0 0" fill="#cfd8dc"/><path d="m275.972656 75.015625c-.511718 13.738281 7.933594 23.464844 16.554688 33.109375-11.777344 6.742188 1.773437 61.585938-19.816406 83.175781-20.222657 20.222657-72.257813 8.898438-94.273438 40.8125 3.636719-57.675781 21.363281-113.582031 51.625-162.816406 1.195312-1.707031 2.304688-3.414063 3.5-5.117187 2.386719-3.328126 4.777344-6.65625 7.335938-9.816407 14.324218-19.382812 34.027343-34.132812 56.664062-42.410156 16.636719-5.289063 37.886719-5.800781 49.832031 8.105469-18.558593 4.695312-36.128906 12.671875-51.882812 23.554687-11.003907 6.898438-18.210938 18.484375-19.539063 31.402344zm0 0" fill="#fec108"/><path d="m503.46875 337.074219c.015625 2.9375-.59375 5.847656-1.789062 8.53125-1.035157 2.460937-2.542969 4.695312-4.4375 6.574219-4.011719 3.996093-9.445313 6.238281-15.105469 6.226562h-452.265625c-8.484375.015625-16.167969-5.015625-19.542969-12.800781-1.195313-2.683594-1.808594-5.59375-1.792969-8.53125-.015625-5.664063 2.226563-11.101563 6.230469-15.105469s9.441406-6.246094 15.105469-6.226562h452.265625c11.78125 0 21.332031 9.550781 21.332031 21.332031zm0 0" fill="#ff9801"/><path d="m477.871094 337.074219c.015625 2.9375-.597656 5.847656-1.792969 8.53125-1.03125 2.460937-2.539063 4.695312-4.4375 6.574219-4.007813 3.996093-9.441406 6.238281-15.105469 6.226562h-426.664062c-8.484375.015625-16.167969-5.015625-19.542969-12.800781-1.195313-2.683594-1.808594-5.59375-1.792969-8.53125-.015625-5.664063 2.226563-11.101563 6.230469-15.105469s9.441406-6.246094 15.105469-6.226562h426.664062c11.785156 0 21.335938 9.550781 21.335938 21.332031zm0 0" fill="#fec108"/><path d="m196.457031 334.761719c-6.03125 16.109375-10.742187 47.667969.09375 107.203125 18.84375 103.621094 28.253907 47.097656 28.253907 37.675781 0-9.039063 8.765624-114.261719 43.050781-189.347656h-51.308594zm0 0" fill="#3f51b5"/><path d="m253.101562 300.636719c-49.789062 32.738281-103.046874 59.871093-158.804687 80.894531-1.667969.65625-3.570313.175781-4.726563-1.195312-1.160156-1.371094-1.316406-3.324219-.394531-4.863282.683594-1.277344 1.535157-2.644531 2.390625-4.179687 15.105469-26.453125 49.75-85.417969 86.871094-139.179688 19.382812-29.175781 41.191406-56.664062 65.191406-82.175781 14.449219-15.636719 30.65625-29.554688 48.300782-41.472656.207031-.09375.410156-.207032.597656-.339844 18.429687-10.582031 27.730468-4.609375 36.605468 12.800781 2.902344 5.460938 5.632813 12.03125 8.707032 19.625 18.855468 47.105469 0 103.59375-84.738282 160.085938zm0 0" fill="#0377bc"/><path d="m224.34375 300.636719c-41.972656 27.617187-86.421875 51.269531-132.777344 70.65625 15.105469-26.453125 49.75-85.417969 86.871094-139.179688 19.382812-29.175781 41.191406-56.664062 65.191406-82.175781 14.449219-15.636719 30.65625-29.554688 48.300782-41.472656 3.445312 3.691406 6.292968 7.894531 8.445312 12.460937 2.902344 5.460938 5.632812 12.03125 8.707031 19.625 18.859375 47.105469 0 103.59375-84.738281 160.085938zm0 0" fill="#02a9f4"/><path d="m92.761719 390.382812c-4.558594-.023437-8.757813-2.46875-11.027344-6.417968-2.273437-3.949219-2.277344-8.808594-.007813-12.757813 22.1875-38.964843 99.0625-170.511719 155.894532-227.335937 40.109375-40.105469 59.25-52.523438 75.804687-49.101563 15.503907 3.183594 23.183594 19.625 32.355469 42.539063 30.722656 76.800781-41.949219 139.726562-87.976562 170.417968-50.34375 33.078126-104.175782 60.519532-160.519532 81.828126-1.449218.542968-2.980468.824218-4.523437.828124zm215.566406-279.023437c-12.386719 0-37.671875 23.644531-58.640625 44.613281-51.070312 51.0625-119.644531 165.664063-147.140625 213.28125 51.050781-20.191406 99.898437-45.558594 145.777344-75.699218 73.105469-48.742188 101.316406-100.566407 81.585937-149.878907-6.441406-16.113281-12.800781-30.722656-19.933594-32.164062-.542968-.101563-1.09375-.15625-1.648437-.152344zm0 0"/><path d="m216.230469 512.007812c-10.359375 0-17.765625-11.828124-28.074219-68.539062-11.230469-61.644531-6.027344-94.78125.304688-111.710938 1.019531-2.921874 3.539062-5.058593 6.585937-5.59375 3.046875-.53125 6.144531.625 8.09375 3.027344 1.949219 2.398438 2.449219 5.667969 1.304687 8.539063-5.582031 14.933593-10.027343 44.859375.496094 102.683593 2.511719 15.496094 6.058594 30.804688 10.613282 45.832032.410156-2.1875.652343-4.402344.726562-6.621094 0-11.511719 9.25-117.207031 43.816406-192.855469 1.996094-4.222656 7.015625-6.054687 11.261719-4.113281 4.25 1.9375 6.148437 6.933594 4.261719 11.203125-33.074219 72.425781-42.273438 176.300781-42.273438 185.796875 0 .308594-.425781 30.941406-15.769531 32.324219-.453125.027343-.90625.027343-1.347656.027343zm0 0"/><path d="m178.46875 240.648438h-.605469c-4.699219-.332032-8.242187-4.414063-7.910156-9.113282 3.671875-59.097656 21.839844-116.378906 52.90625-166.785156 1.273437-1.910156 2.457031-3.695312 3.753906-5.480469 2.375-3.410156 4.925781-6.824219 7.585938-10.238281 15.425781-20.648438 36.523437-36.359375 60.726562-45.226562 21.449219-6.828126 49.269531-6.136719 62.890625 16.121093.816406 1.292969 1.542969 2.644531 2.175782 4.042969 4.644531 9.523438 7.210937 19.925781 7.523437 30.515625.382813 6.714844.253906 13.449219-.390625 20.148437-.804688 8.917969-2.707031 17.703126-5.667969 26.152344-4.679687 13.816406-15.746093 24.515625-29.710937 28.730469-2.933594.828125-6.089844.027344-8.273438-2.097656-2.183594-2.128907-3.066406-5.257813-2.316406-8.214844.75-2.953125 3.019531-5.285156 5.957031-6.113281 8.710938-2.703125 15.554688-9.496094 18.320313-18.191406 2.46875-7.097657 4.050781-14.472657 4.710937-21.957032.550781-5.800781.664063-11.632812.339844-17.449218-.242187-8.339844-2.226563-16.53125-5.828125-24.058594-.386719-.859375-.835938-1.691406-1.339844-2.488282-10.992187-17.988281-37.972656-10.550781-43.246094-8.867187-20.949218 7.851563-39.183593 21.589844-52.507812 39.558594-2.449219 3.074219-4.777344 6.222656-7.03125 9.457031-1.246094 1.707031-2.320312 3.335938-3.410156 4.941406-29.480469 47.96875-46.703125 102.453125-50.152344 158.648438-.300781 4.476562-4.015625 7.957031-8.5 7.964844zm0 0"/><path d="m328.425781 324.273438h-65.9375c-4.710937 0-8.53125-3.820313-8.53125-8.53125 0-4.714844 3.820313-8.535157 8.53125-8.535157h51.542969c-8.242188-10.167969-18.992188-18.011719-31.191406-22.757812-2.894532-.964844-5.058594-3.402344-5.667969-6.394531-.613281-2.988282.414063-6.078126 2.699219-8.105469 2.285156-2.023438 5.476562-2.679688 8.371094-1.714844 15.574218 5.1875 40.839843 22.519531 48.265624 44.785156.875 2.601563.445313 5.46875-1.15625 7.699219-1.601562 2.230469-4.179687 3.554688-6.925781 3.554688zm0 0"/><path d="m404.875 96.058594c-4.121094 0-8.003906-1.925782-10.503906-5.207032l-1.074219-1.347656c-1.503906-1.886718-2.988281-3.761718-4.617187-5.527344-9.304688-10.597656-20.613282-19.242187-33.28125-25.4375-2.742188-1.339843-4.566407-4.039062-4.777344-7.082031-.214844-3.046875 1.210937-5.972656 3.742187-7.679687 2.527344-1.707032 5.777344-1.9375 8.519531-.601563 14.441407 7.035157 27.351563 16.851563 37.984376 28.894531l.203124.207032v-18.425782c-.007812-10.882812-8.828124-19.703124-19.710937-19.710937h-30.039063c-4.710937 0-8.53125-3.820313-8.53125-8.535156 0-4.710938 3.820313-8.53125 8.53125-8.53125h30.039063c20.300781.027343 36.75 16.476562 36.777344 36.777343v28.929688c-.003907 7.324219-5.9375 13.261719-13.261719 13.277344zm2.867188-15.839844.070312.085938zm0 0"/><path d="m351.746094 110.597656c-4.464844.058594-8.222656-3.339844-8.609375-7.792968-.386719-4.449219 2.722656-8.445313 7.132812-9.160157 15.476563-4.671875 30.449219-10.871093 44.699219-18.5 2.730469-1.359375 5.976562-1.15625 8.519531.527344 2.539063 1.683594 3.988281 4.597656 3.800781 7.640625s-1.988281 5.753906-4.71875 7.113281c-15.546874 8.355469-31.9375 15.042969-48.894531 19.953125-.632812.144532-1.277343.21875-1.929687.21875zm0 0"/><path d="m332.804688 68.273438c0 4.714843-3.820313 8.535156-8.535157 8.535156-4.710937 0-8.53125-3.820313-8.53125-8.535156 0-4.710938 3.820313-8.53125 8.53125-8.53125 4.714844 0 8.535157 3.820312 8.535157 8.53125zm0 0"/><path d="m171.523438 356.273438h-.085938c-4.703125-.023438-8.5-3.851563-8.488281-8.554688s3.828125-8.511719 8.53125-8.511719 8.523437 3.808594 8.535156 8.511719-3.789063 8.53125-8.492187 8.554688zm0 0"/><path d="m482.136719 366.941406h-237.566407c-4.714843 0-8.535156-3.820312-8.535156-8.535156 0-4.710938 3.820313-8.53125 8.535156-8.53125h237.566407c7.070312 0 12.800781-5.730469 12.800781-12.800781 0-7.070313-5.730469-12.800781-12.800781-12.800781h-224.511719c-4.714844 0-8.535156-3.820313-8.535156-8.53125 0-4.714844 3.820312-8.535157 8.535156-8.535157h224.511719c16.496093 0 29.867187 13.371094 29.867187 29.867188 0 16.496093-13.371094 29.867187-29.867187 29.867187zm0 0"/><path d="m98.988281 366.941406h-69.117187c-16.496094 0-29.86718775-13.371094-29.86718775-29.867187 0-16.496094 13.37109375-29.867188 29.86718775-29.867188h94.546875c4.714843 0 8.535156 3.820313 8.535156 8.535157 0 4.710937-3.820313 8.53125-8.535156 8.53125h-94.546875c-7.070313 0-12.800782 5.730468-12.800782 12.800781 0 7.070312 5.730469 12.800781 12.800782 12.800781h69.117187c4.714844 0 8.535157 3.820312 8.535157 8.53125 0 4.714844-3.820313 8.535156-8.535157 8.535156zm0 0"/><path d="m292.527344 116.65625c-2.429688 0-4.742188-1.039062-6.359375-2.847656-8.625-9.636719-19.34375-21.640625-18.722657-39.136719 1.226563-15.535156 9.707032-29.585937 22.886719-37.902344 16.574219-11.488281 35.070313-19.914062 54.613281-24.882812 4.515626-1.359375 9.277344 1.195312 10.636719 5.710937s-1.195312 9.277344-5.710937 10.636719c-17.589844 4.414063-34.257813 11.902344-49.238282 22.121094-8.976562 5.316406-14.949218 14.53125-16.136718 24.898437-.332032 9.914063 5.46875 17.203125 14.386718 27.152344 2.246094 2.507812 2.808594 6.101562 1.433594 9.175781-1.375 3.070313-4.425781 5.050781-7.789062 5.050781zm0 0"/></svg>