<svg height="512pt" viewBox="0 -47 512.00543 512" width="512pt" xmlns="http://www.w3.org/2000/svg"><path d="m358.40625 59.734375 12.800781 173.398437-12.800781 176.46875-141.996094-35.5c-1.339844-.300781-2.4375-1.265624-2.902344-2.558593l-6.65625-16.46875c-.464843-1.246094-1.496093-2.195313-2.769531-2.566407-1.277343-.367187-2.652343-.113281-3.714843.6875l-15.273438 11.519532c-1.027344.765625-2.347656 1.019531-3.585938.683594l-27.902343-6.996094-12.800781-171.011719 12.800781-178.855469 107.859375 26.964844c1.480468.382812 2.648437 1.519531 3.074218 2.984375l6.230469 21.847656c.449219 1.523438 1.710938 2.667969 3.269531 2.972657 1.5625.304687 3.160157-.28125 4.152344-1.523438l13.058594-16.296875c1.035156-1.300781 2.742188-1.871094 4.351562-1.453125zm0 0" fill="#ff9801"/><path d="m153.605469 263.339844v95.0625l-133.71875 47.1875c-2.601563.910156-5.488281.503906-7.738281-1.085938-2.253907-1.59375-3.597657-4.175781-3.609376-6.933594v-34.902343c-.03125-1.351563.609376-2.628907 1.707032-3.414063l18.347656-13.738281c1.195312-.878906 1.855469-2.3125 1.730469-3.792969-.121094-1.480468-1.003907-2.792968-2.328125-3.460937l-17.066406-8.535157c-1.449219-.734374-2.371094-2.214843-2.390626-3.839843v-260.09375c.011719-3.636719 2.296876-6.875 5.71875-8.105469l86.355469-30.464844c1.554688-.503906 3.257813-.109375 4.4375 1.023438l8.789063 8.789062c1.109375 1.09375 2.722656 1.496094 4.214844 1.054688 1.492187-.445313 2.625-1.667969 2.953124-3.1875l2.730469-13.570313c.316407-1.476562 1.386719-2.675781 2.816407-3.15625l27.050781-9.640625v237.3125c-4.4375.9375-3.070313 18.257813 0 17.492188zm0 0" fill="#fec108"/><path d="m503.472656 20.566406v331.773438c-.015625 3.636718-2.296875 6.875-5.71875 8.109375l-27.304687 9.640625c-1.722657.617187-3.644531.066406-4.78125-1.363282l-3.753907-4.695312-12.03125-15.015625c-1.078124-1.300781-2.824218-1.84375-4.449218-1.382813-1.625.460938-2.824219 1.839844-3.058594 3.515626l-2.476562 17.320312v.085938l-1.535157 10.410156c-.203125 1.585937-1.296875 2.914062-2.816406 3.414062l-77.140625 27.222656v-349.867187l118.953125-41.984375 14.761719-5.207031c2.605468-.910157 5.488281-.503907 7.742187 1.089843 2.253907 1.589844 3.597657 4.175782 3.609375 6.933594zm0 0" fill="#ff9801"/><path d="m477.871094 20.566406v331.773438c-.011719 3.636718-2.296875 6.875-5.714844 8.109375l-10.242188 3.582031-12.03125-15.015625c-1.078124-1.300781-2.824218-1.84375-4.449218-1.382813-1.625.460938-2.824219 1.839844-3.058594 3.515626l-2.476562 17.320312-15.617188-19.453125c-1.078125-1.300781-2.824219-1.84375-4.449219-1.382813-1.625.460938-2.824219 1.839844-3.058593 3.515626l-4.011719 27.816406c-.203125 1.585937-1.296875 2.914062-2.816407 3.414062l-51.539062 18.175782v-340.820313l118.953125-41.984375c.351563.898438.523437 1.851562.511719 2.816406zm0 0" fill="#fec108"/><path d="m214.277344 382.125c-3.488282-.003906-6.625-2.128906-7.917969-5.371094l-5.335937-13.363281-12.429688 9.335937c-3.773438 2.828126-9.121094 2.066407-11.949219-1.707031-2.828125-3.769531-2.0625-9.117187 1.707031-11.945312l21.332032-16.042969c2.125-1.597656 4.871094-2.117188 7.433594-1.398438 2.558593.714844 4.636718 2.582032 5.625 5.050782l9.472656 23.722656c1.050781 2.628906.726562 5.609375-.863282 7.953125-1.585937 2.34375-4.234374 3.746094-7.066406 3.746094zm0 0"/><path d="m438.03125 390.058594c-.40625 0-.8125-.027344-1.214844-.085938-4.664062-.664062-7.90625-4.984375-7.242187-9.648437l5.714843-40.195313c.480469-3.367187 2.917969-6.132812 6.199219-7.03125 3.285157-.894531 6.789063.246094 8.914063 2.902344l23.808594 29.789062c2.90625 3.683594 2.296874 9.023438-1.367188 11.953126-3.664062 2.929687-9.007812 2.351562-11.960938-1.292969l-11.476562-14.363281-2.9375 20.644531c-.597656 4.199219-4.195312 7.324219-8.4375 7.328125zm0 0"/><path d="m119.472656 51.199219c-2.261718 0-4.433594-.898438-6.035156-2.5l-16.296875-16.273438c-2.160156-2.160156-3.003906-5.308593-2.214844-8.257812.792969-2.949219 3.097657-5.253907 6.046875-6.046875 2.953125-.789063 6.097656.054687 8.257813 2.214844l5.042969 5.042968 1.632812-8.117187c.925781-4.621094 5.425781-7.613281 10.046875-6.683594s7.613281 5.425781 6.6875 10.046875l-4.78125 23.722656c-.621094 3.082032-2.886719 5.574219-5.894531 6.484375-.808594.246094-1.648438.371094-2.492188.367188zm0 0"/><path d="m17.070312 414.601562c-9.425781 0-17.06640575-7.640624-17.06640575-17.066406v-37c0-4.714844 3.82031275-8.535156 8.53515575-8.535156 4.710938 0 8.53125 3.820312 8.53125 8.535156v37l128-45.175781v-331.742187l-17.96875 6.375c-2.882812 1.058593-6.117187.488281-8.460937-1.5-2.34375-1.984376-3.441406-5.078126-2.867187-8.097657.570312-3.015625 2.71875-5.496093 5.628906-6.488281l29.351562-10.410156c2.613282-.925782 5.511719-.527344 7.773438 1.070312 2.261718 1.601563 3.609375 4.195313 3.613281 6.96875v349.867188c0 3.617187-2.28125 6.839844-5.695313 8.046875l-133.691406 47.1875c-1.824218.640625-3.746094.96875-5.683594.964843zm0 0"/><path d="m8.539062 337.066406c-4.714843 0-8.53515575-3.820312-8.53515575-8.53125v-262.761718c0-7.242188 4.57031275-13.695313 11.40234375-16.101563l88.925781-31.351563c4.445313-1.566406 9.320313.761719 10.886719 5.207032 1.570312 4.445312-.757812 9.320312-5.203125 10.886718l-88.945313 31.359376v262.761718c0 4.710938-3.820312 8.53125-8.53125 8.53125zm0 0"/><path d="m358.40625 418.132812c-4.714844 0-8.535156-3.820312-8.535156-8.53125v-349.867187c0-3.617187 2.28125-6.84375 5.691406-8.046875l133.691406-47.191406c5.226563-1.84375 11.023438-1.039063 15.542969 2.164062 4.523437 3.199219 7.210937 8.398438 7.207031 13.941406v331.765626c.003906 7.234374-4.554687 13.683593-11.375 16.09375l-30.230468 10.699218c-4.445313 1.574219-9.324219-.75-10.898438-5.195312-1.574219-4.445313.753906-9.324219 5.195312-10.898438l30.242188-10.699218v-331.765626l-128 45.171876v331.769531l68.269531-24.0625c2.875-1.015625 6.070313-.421875 8.386719 1.5625 2.316406 1.980469 3.402344 5.046875 2.84375 8.046875-.558594 2.996094-2.675781 5.46875-5.550781 6.484375l-79.613281 28.074219c-.921876.324218-1.890626.488281-2.867188.484374zm0 0"/><path d="m358.40625 418.132812c-.695312 0-1.390625-.085937-2.066406-.253906l-144.128906-36.011718c-4.496094-1.207032-7.195313-5.792969-6.066407-10.3125 1.128907-4.515626 5.671875-7.292969 10.207031-6.242188l133.519532 33.355469v-332.269531l-58.988282-14.769532c-2.976562-.726562-5.339843-2.988281-6.1875-5.929687-.847656-2.945313-.054687-6.117188 2.082032-8.3125 2.136718-2.195313 5.285156-3.078125 8.25-2.3125l65.453125 16.382812c3.796875.949219 6.457031 4.363281 6.457031 8.277344v349.867187c0 4.710938-3.820312 8.53125-8.53125 8.53125zm0 0"/><path d="m183.472656 374.441406c-.707031 0-1.40625-.085937-2.089844-.253906l-29.867187-7.507812c-3.789063-.960938-6.445313-4.371094-6.445313-8.277344v-349.867188c.003907-2.628906 1.210938-5.109375 3.28125-6.722656 2.070313-1.617188 4.769532-2.191406 7.320313-1.554688l110.25 27.5625c3.019531.679688 5.433594 2.941407 6.3125 5.910157.875 2.96875.074219 6.179687-2.09375 8.390625-2.167969 2.207031-5.363281 3.070312-8.347656 2.253906l-99.652344-24.910156v332.28125l23.414063 5.886718c4.179687 1.046876 6.921874 5.046876 6.394531 9.320313-.527344 4.277344-4.160157 7.488281-8.46875 7.488281zm0 0"/><path d="m8.539062 369.066406c-3.671874 0-6.933593-2.351562-8.097656-5.835937-1.160156-3.484375.039063-7.320313 2.976563-9.523438l14.550781-10.914062-13.246094-6.578125c-4.214844-2.109375-5.929687-7.234375-3.820312-11.453125 2.105468-4.21875 7.234375-5.929688 11.449218-3.824219l25.601563 12.800781c2.628906 1.328125 4.386719 3.917969 4.652344 6.847657.265625 2.933593-1 5.796874-3.347657 7.574218l-25.597656 19.199219c-1.476562 1.113281-3.273437 1.710937-5.121094 1.707031zm0 0"/><path d="m54.277344 242.910156c-2.429688 0-4.746094-1.035156-6.367188-2.851562-3.820312-4.265625-7.550781-8.4375-11.269531-12.160156-3.234375-3.347657-3.1875-8.667969.101563-11.960938 3.292968-3.292969 8.613281-3.335938 11.964843-.101562 3.933594 3.933593 7.882813 8.328124 11.945313 12.859374 2.238281 2.507813 2.796875 6.097657 1.421875 9.167969-1.375 3.070313-4.425781 5.046875-7.789063 5.046875zm0 0"/><path d="m318.878906 339.628906c-5.878906-.035156-11.738281-.71875-17.46875-2.042968-2.972656-.667969-5.363281-2.875-6.269531-5.785157-.90625-2.910156-.191406-6.085937 1.878906-8.324219 2.066407-2.242187 5.171875-3.207031 8.144531-2.539062 4.5 1.046875 9.097657 1.589844 13.714844 1.621094h.851563c5.253906-.070313 10.484375-.640625 15.625-1.703125 4.617187-.96875 9.140625 1.988281 10.105469 6.601562.964843 4.617188-1.992188 9.140625-6.605469 10.105469-6.203125 1.277344-12.515625 1.96875-18.851563 2.066406zm-46.660156-15.363281c-1.710938.003906-3.382812-.515625-4.796875-1.484375-9.945313-6.96875-18.90625-15.25-26.640625-24.617188-3.0625-3.589843-2.636719-8.980468.953125-12.046874 3.585937-3.0625 8.980469-2.636719 12.042969.953124 6.753906 8.203126 14.578125 15.460938 23.261718 21.582032 3.128907 2.097656 4.507813 6 3.394532 9.597656-1.109375 3.601562-4.449219 6.042969-8.214844 6.015625zm95.445312-.996094c-3.613281.003907-6.839843-2.269531-8.050781-5.671875-1.210937-3.40625-.148437-7.203125 2.65625-9.484375 8.707031-7.082031 17.136719-14.507812 25.0625-22.09375 2.203125-2.105469 5.363281-2.878906 8.292969-2.027343 2.925781.855468 5.175781 3.203124 5.898438 6.167968.726562 2.960938-.1875 6.082032-2.386719 8.191406-8.261719 7.902344-17.066407 15.632813-26.097657 22.996094-1.519531 1.257813-3.433593 1.945313-5.410156 1.9375zm-259.207031-41.386719c-.398437 0-.792969-.027343-1.1875-.085937l-1.707031-.257813c-12.21875-2.332031-23.570312-7.957031-32.828125-16.261718-2.542969-1.882813-3.839844-5.019532-3.363281-8.148438.480468-3.128906 2.648437-5.738281 5.636718-6.773437 2.992188-1.039063 6.3125-.335938 8.625 1.820312 6.933594 6.324219 15.449219 10.65625 24.644532 12.539063l1.347656.195312c4.457031.601563 7.679688 4.554688 7.371094 9.042969-.308594 4.484375-4.042969 7.960937-8.539063 7.945313zm33.722657-3.132812c-4.285157-.011719-7.898438-3.199219-8.441407-7.449219s2.148438-8.242187 6.289063-9.335937c12.035156-3.148438 23.042968-5.683594 33.785156-7.738282 3.011719-.617187 6.121094.433594 8.140625 2.75 2.019531 2.316407 2.636719 5.539063 1.617187 8.4375-1.015624 2.898438-3.515624 5.027344-6.539062 5.570313-10.328125 1.988281-21.011719 4.429687-32.683594 7.484375-.71875.199219-1.457031.296875-2.203125.296875zm274.652343-2.621094c-3.351562.003906-6.398437-1.960937-7.78125-5.015625-1.378906-3.058593-.84375-6.640625 1.375-9.15625 1.398438-1.585937 2.78125-3.1875 4.144531-4.804687 5.898438-6.945313 11.691407-13.789063 16.710938-20.949219 2.703125-3.863281 8.023438-4.800781 11.886719-2.097656 3.859375 2.703125 4.800781 8.023437 2.097656 11.886719-5.476563 7.816406-11.535156 14.957031-17.390625 21.871093-1.707031 2.019531-3.164062 3.703125-4.632812 5.367188-1.625 1.859375-3.972657 2.921875-6.441407 2.917969zm-200.257812-11.007812c-2.152344.296875-4.277344.582031-6.375.855468-4.433594.570313-8.554688-2.375-9.449219-6.753906-.894531-4.375 1.734375-8.703125 6.035156-9.921875l18.210938-2.765625c5.121094-.902344 10.300781-2.003906 15.359375-3.410156 2.960937-.902344 6.179687-.128906 8.40625 2.023438 2.230469 2.148437 3.117187 5.335937 2.324219 8.328124-.796876 2.992188-3.148438 5.320313-6.148438 6.082032-3.34375.9375-6.707031 1.707031-10.0625 2.457031zm55.652343-21.332032c-3.53125.003907-6.699218-2.171874-7.96875-5.464843-1.269531-3.296875-.375-7.03125 2.242188-9.398438 7.722656-7.160156 14.335938-15.425781 19.628906-24.527343 1.515625-2.695313 4.371094-4.355469 7.464844-4.347657 3.089844.011719 5.9375 1.695313 7.433594 4.398438 1.5 2.707031 1.417968 6.011719-.214844 8.636719-6.175781 10.582031-13.886719 20.1875-22.886719 28.5-1.570312 1.402343-3.601562 2.175781-5.707031 2.167968zm180.300782-24.832031c-.574219.003907-1.144532-.054687-1.707032-.171875-2.21875-.445312-4.167968-1.757812-5.421874-3.644531-1.25-1.886719-1.699219-4.195313-1.25-6.414063.609374-2.988281.917968-6.03125.921874-9.082031v-1.484375c-.222656-6.261718-1.449218-12.445312-3.636718-18.320312-1.132813-2.878906-.617188-6.148438 1.347656-8.542969 1.964844-2.390625 5.070312-3.53125 8.117188-2.976563 3.046874.550782 5.554687 2.710938 6.554687 5.640626 2.828125 7.628906 4.410156 15.667968 4.683594 23.800781v1.882812c-.007813 4.191407-.425781 8.371094-1.253907 12.476563-.808593 3.976562-4.300781 6.832031-8.355468 6.835937zm-256.765625-5.554687c-3.679688 0-6.941407-2.355469-8.101563-5.84375-3.351562-10.019532-5.753906-20.335938-7.167968-30.808594-.195313-1.382812-.355469-2.898438-.476563-4.460938-.371094-4.699218 3.140625-8.808593 7.839844-9.179687 4.695312-.367187 8.804687 3.140625 9.175781 7.839844.09375 1.195312.214844 2.371093.375 3.5 1.261719 9.425781 3.425781 18.710937 6.460938 27.722656.867187 2.605469.429687 5.464844-1.175782 7.691406-1.609375 2.226563-4.1875 3.542969-6.929687 3.539063zm110.429687-27.664063c-.523437 0-1.046875-.046875-1.5625-.136719-4.632812-.863281-7.6875-5.320312-6.828125-9.949218.480469-2.566406.722657-5.171875.726563-7.785156-.035156-6.929688-1.714844-13.753907-4.898438-19.90625-1.566406-2.738282-1.496094-6.121094.1875-8.789063s4.699219-4.191406 7.847656-3.960937c3.144532.234374 5.90625 2.183593 7.179688 5.070312 6.160156 11.832031 8.183594 25.386719 5.742188 38.5-.757813 4.039062-4.289063 6.960938-8.394532 6.957031zm-113.820312-39.253906c-.964844-.003906-1.921875-.167969-2.832032-.488281-2.136718-.75-3.886718-2.320313-4.863281-4.363282-.976562-2.042968-1.105469-4.390624-.351562-6.523437 2.808593-8.660156 7.867187-16.414063 14.660156-22.46875 3.371094-2.890625 7.054687-5.402344 10.976563-7.484375 2.695312-1.5 5.996093-1.421875 8.621093.199219 2.628907 1.617187 4.175781 4.53125 4.046875 7.617187-.128906 3.082032-1.914062 5.855469-4.664062 7.253906-2.820313 1.5-5.464844 3.304688-7.886719 5.382813-4.503906 4.125-7.835937 9.363281-9.660156 15.191406-1.199219 3.417969-4.421875 5.707031-8.046875 5.707031zm86.246094-18.902344c-1.695313.003907-3.355469-.507812-4.761719-1.457031-8.3125-5.6875-17.855469-9.324219-27.84375-10.617188-4.679688-.570312-8.011719-4.828124-7.441407-9.507812.570313-4.679688 4.828126-8.011719 9.507813-7.441406 12.667969 1.628906 24.773437 6.230468 35.328125 13.425781 3.105469 2.101563 4.472656 5.984375 3.371094 9.566406-1.097656 3.585938-4.410156 6.03125-8.160156 6.03125zm0 0"/><path d="m430.9375 156.398438c-2.332031 0-4.566406-.953126-6.175781-2.644532-3.621094-3.785156-7.546875-7.261718-11.742188-10.394531-3.769531-2.828125-4.535156-8.175781-1.707031-11.945313 2.828125-3.769531 8.175781-4.535156 11.945312-1.707031 4.941407 3.703125 9.570313 7.804688 13.832032 12.269531 2.359375 2.472657 3.011718 6.109376 1.667968 9.25-1.34375 3.136719-4.429687 5.171876-7.84375 5.171876zm0 0"/><path d="m76.804688 170.667969c-2.957032-.003907-5.699219-1.535157-7.253907-4.050781-1.554687-2.511719-1.695312-5.652344-.375-8.296876l34.132813-68.269531c2.109375-4.214843 7.234375-5.925781 11.453125-3.820312s5.929687 7.234375 3.824219 11.449219l-34.132813 68.269531c-1.449219 2.894531-4.410156 4.722656-7.648437 4.71875zm0 0"/><path d="m119.472656 162.132812c-2.261718 0-4.433594-.898437-6.035156-2.5l-51.199219-51.199218c-2.21875-2.144532-3.105469-5.316406-2.328125-8.296875.78125-2.984375 3.113282-5.316407 6.097656-6.097657 2.980469-.78125 6.15625.109376 8.296876 2.328126l51.199218 51.199218c2.441406 2.441406 3.171875 6.109375 1.851563 9.300782-1.320313 3.1875-4.433594 5.265624-7.882813 5.265624zm0 0"/><path d="m273.070312 76.800781c-.570312.003907-1.144531-.054687-1.703124-.171875-3.121094-.617187-5.636719-2.921875-6.53125-5.972656l-9.214844-32.171875c-.941406-2.960937-.199219-6.199219 1.941406-8.457031 2.136719-2.253906 5.332031-3.167969 8.339844-2.386719 3.007812.785156 5.351562 3.140625 6.121094 6.152344l4.667968 16.265625 9.566406-11.949219c1.78125-2.667969 4.910157-4.113281 8.097657-3.738281 3.1875.378906 5.894531 2.511718 7.003906 5.523437 1.113281 3.007813.4375 6.390625-1.738281 8.746094l-19.882813 24.917969c-1.613281 2.039062-4.066406 3.234375-6.667969 3.242187zm0 0"/></svg>