<svg height="512pt" viewBox="-94 0 512 512.00005" width="512pt" xmlns="http://www.w3.org/2000/svg"><path d="m267.1875 30.121094-10.410156 38.230468c-.25-.070312-.511719-.097656-.769532-.085937l-91.902343 13.824219-10.328125-1.535156-85.503906-12.289063c-.257813-.011719-.515626.015625-.765626.085937l-10.410156-38.230468c-1.414062-5.136719-.34375-10.636719 2.886719-14.871094 3.230469-4.238281 8.253906-6.71875 13.582031-6.714844h177.152344c5.324219-.003906 10.351562 2.476563 13.582031 6.714844 3.230469 4.234375 4.296875 9.734375 2.886719 14.871094zm0 0" fill="#fec108"/><path d="m238.351562 30.121094-9.949218 38.230468c-.238282-.070312-.484375-.097656-.734375-.085937l-78.25 12.289063-81.671875-12.289063c-.25-.011719-.496094.015625-.734375.085937l-9.941407-38.230468c-1.449218-5.015625-.5-10.421875 2.578126-14.644532 3.074218-4.222656 7.929687-6.785156 13.148437-6.941406h149.820313c5.222656.15625 10.074218 2.71875 13.152343 6.941406 3.074219 4.222657 4.03125 9.628907 2.582031 14.644532zm0 0" fill="#ffeb3a"/><path d="m315.742188 153.601562v134.484376c-21.164063 15.097656-47.273438 21.59375-73.046876 18.175781-.597656-.085938-1.109374-.085938-1.707031-.171875-.511719-1.792969-5.460937-3.582032-6.144531-5.375l-154.28125-37.207032c-12.125-2.007812-24.453125-2.464843-36.691406-1.363281-12.492188.890625-24.597656 4.722657-35.328125 11.179688v-119.722657c0-14.140624 11.460937-25.601562 25.597656-25.601562 14.140625 0 25.601563-11.460938 25.601563-25.601562v-25.597657c-.007813-4.410156 3.371093-8.085937 7.765624-8.449219l9.300782 34.046876h170.667968l9.300782-34.046876c4.390625.363282 7.769531 4.039063 7.765625 8.449219v25.597657c0 14.140624 11.460937 25.601562 25.597656 25.601562 14.140625 0 25.601563 11.460938 25.601563 25.601562zm0 0" fill="#00838f"/><path d="m290.140625 153.601562v134.484376c-13.933594 10.136718-30.304687 16.40625-47.445313 18.175781-.597656-.085938-1.109374-.085938-1.707031-.171875-.511719-1.792969-5.460937-3.582032-6.144531-5.375l-154.28125-37.207032c-12.125-2.007812-24.453125-2.464843-36.691406-1.363281-11.785156-1.203125-23.683594-.714843-35.328125 1.449219v-109.992188c0-14.140624 11.460937-25.601562 25.597656-25.601562 14.140625 0 25.601563-11.460938 25.601563-25.601562h179.199218c0 14.140624 11.460938 25.601562 25.601563 25.601562 14.136719 0 25.597656 11.460938 25.597656 25.601562zm0 0" fill="#00bcd4"/><path d="m290.140625 301.398438c-15.265625 5.082031-31.464844 6.742187-47.445313 4.863281-.597656-.085938-1.109374-.085938-1.707031-.171875 0 .085937.085938.171875.085938.257812 8.148437 27.371094 6.519531 56.726563-4.605469 83.027344-.085938.171875-.171875.425781-.257812.597656-6.558594-4.855468-13.769532-8.765625-21.417969-11.605468-5.972657-1.980469-12.226563-2.960938-18.519531-2.902344-4.460938.058594-8.910157.457031-13.3125 1.195312-4.042969-.820312-8.160157-1.21875-12.285157-1.195312-15.8125 1.089844-31.402343 4.335937-46.335937 9.644531-31.234375-25.769531-53.589844-60.757813-47.53125-103.507813.84375-6.109374 2.097656-12.152343 3.753906-18.09375-12.125-2.007812-24.453125-2.464843-36.691406-1.363281-12.492188.890625-24.597656 4.722657-35.328125 11.179688v204.542969c0 14.136718 11.460937 25.597656 25.597656 25.597656h256c14.140625 0 25.601563-11.460938 25.601563-25.597656v-189.78125c-7.851563 5.644531-16.472657 10.128906-25.601563 13.3125zm0 0" fill="#795548"/><path d="m290.140625 301.398438v176.46875c0 14.136718-11.460937 25.597656-25.597656 25.597656h25.597656c14.140625 0 25.601563-11.460938 25.601563-25.597656v-189.78125c-7.851563 5.644531-16.472657 10.128906-25.601563 13.3125zm-49.066406 4.949218c.597656 0 1.109375-.085937 1.621093-.085937-.597656-.085938-1.109374-.085938-1.707031-.171875 0 .085937.085938.171875.085938.257812zm0 0" fill="#4e342e"/><path d="m256.777344 68.351562-9.300782 34.046876h-170.667968l-9.300782-34.046876c.25-.070312.507813-.097656.765626-.085937h187.734374c.257813-.011719.519532.015625.769532.085937zm0 0" fill="#ff9801"/><path d="m230.40625 68.351562-8.003906 34.046876h-146.890625l-8.003907-34.046876c.210938-.070312.433594-.097656.65625-.085937h161.585938c.222656-.011719.445312.015625.65625.085937zm0 0" fill="#fec108"/><path d="m146.269531 186.453125c-3.15625 3.328125-2.558593 16.699219-5.800781 19.953125-6.742188 6.730469-20.054688 1.976562-29.527344 9.828125v-33.109375c0-6.996094-.425781-14.421875 6.570313-18.347656 5.644531-3.394532 12.457031-4.261719 18.773437-2.386719 2.046875.9375 3.753906 8.53125 4.609375 10.664063 1.875 4.4375 3.582031 8.960937 5.375 13.398437zm0 0" fill="#ad1457"/><path d="m217.609375 375.464844c-3.542969.0625-7.078125.347656-10.582031.855468h-.34375c1.027344.171876 2.050781.425782 3.074218.683594 6.910157 1.671875 13.488282 4.5 19.457032 8.363282 2.386718 1.535156 4.691406 3.070312 6.996094 4.605468.9375-2.386718 1.878906-4.691406 2.644531-7.167968.40625-.972657.75-1.96875 1.023437-2.984376-7.039062-2.984374-14.625-4.464843-22.269531-4.355468zm0 0" fill="#fb7b76"/><path d="m217.609375 375.464844c-3.542969.0625-7.078125.347656-10.582031.855468.941406.070313 1.863281.304688 2.730468.683594 5.421876 3.058594 11.003907 5.820313 16.726563 8.277344 1.023437 0 1.875 0 2.730469.085938 5.546875.253906 7.847656 1.109374 9.640625-2.5625.40625-.972657.75-1.96875 1.023437-2.984376-7.039062-2.984374-14.625-4.464843-22.269531-4.355468zm0 0" fill="#df4d60"/><path d="m246.28125 340.222656c-.015625 13.457032-2.175781 26.820313-6.402344 39.597656-7.039062-2.984374-14.625-4.464843-22.269531-4.355468-3.542969.0625-7.078125.347656-10.582031.855468h-.34375c-3.441406-.5625-6.921875-.847656-10.410156-.855468-16.875 1.25-33.5 4.8125-49.40625 10.582031-5.035157 1.621094-10.070313 3.328125-14.933594 5.035156-35.070313-26.195312-61.695313-63.316406-55.125-109.480469.84375-6.109374 2.097656-12.152343 3.753906-18.09375 4.671875-18.660156 15.34375-35.269531 30.378906-47.273437 9.472656-7.851563 18.859375-13.226563 25.601563-19.96875 3.242187-3.242187 6.570312-6.484375 9.726562-9.8125 4.351563-4.351563 8.617188-8.875 12.628907-13.480469 3.523437-4.03125 6.585937-8.4375 9.132812-13.144531 2.300781-4.09375 4.265625-9.472656 9.46875-11.007813 4.445312-1.164062 8.988281-1.910156 13.570312-2.21875 5.289063-.621093 10.644532-.421874 15.871094.597657 3.667969.941406 6.398438 2.816406 6.398438 6.402343 0 8.53125-42.664063 51.199219-42.664063 51.199219s11.945313-1.964843 25.257813-4.011719c14.25-2.21875 30.039062-4.523437 34.472656-4.523437 1.347656.066406 2.550781.847656 3.160156 2.050781 3.457032 7.453125 5.203125 15.589844 5.117188 23.804688.21875 4.429687-2.953125 8.300781-7.335938 8.960937-3.289062.398438-6.542968 1.054688-9.730468 1.964844 3.167968 6.5625 5.683593 13.421875 7.511718 20.476563.710938 3.472656.652344 7.054687-.171875 10.496093-.9375 3.246094-3.414062 5.976563-3.582031 9.386719-.085938 4.695312 4.351562 8.960938 6.570312 12.800781 2.742188 4.652344 5.140626 9.5 7.167969 14.507813.679688 1.792968 1.363281 3.582031 1.875 5.375 3.554688 11.027344 5.339844 22.546875 5.292969 34.132812zm0 0" fill="#e91e63"/><path d="m290.140625 512h-256c-18.851563 0-34.1328125-15.28125-34.1328125-34.132812v-324.265626c0-18.851562 15.2812495-34.136718 34.1328125-34.136718 9.425781 0 17.066406-7.640625 17.066406-17.066406v-25.597657c0-9.425781 7.640625-17.066406 17.066407-17.066406h187.734374c9.425782 0 17.066407 7.640625 17.066407 17.066406v25.597657c0 9.425781 7.640625 17.066406 17.066406 17.066406 18.851563 0 34.132813 15.285156 34.132813 34.136718v324.265626c0 18.851562-15.28125 34.132812-34.132813 34.132812zm-221.867187-435.199219v25.597657c0 18.851562-15.28125 34.136718-34.132813 34.136718-9.425781 0-17.066406 7.640625-17.066406 17.066406v324.265626c0 9.425781 7.640625 17.066406 17.066406 17.066406h256c9.425781 0 17.066406-7.640625 17.066406-17.066406v-324.265626c0-9.425781-7.640625-17.066406-17.066406-17.066406-18.851563 0-34.132813-15.285156-34.132813-34.136718v-25.597657zm0 0"/><path d="m247.476562 110.933594h-170.667968c-3.851563 0-7.222656-2.574219-8.234375-6.289063l-19.722657-72.304687c-2.101562-7.699219-.492187-15.9375 4.355469-22.28125 4.84375-6.339844 12.367188-10.06250025 20.351563-10.058594h177.167968c7.988282-.015625 15.527344 3.699219 20.378907 10.042969 4.855469 6.34375 6.472656 14.589843 4.367187 22.296875l-19.71875 72.304687c-1.019531 3.730469-4.414062 6.308594-8.277344 6.289063zm-164.148437-17.066406h157.628906l18.003907-66.023438c.699218-2.566406.164062-5.3125-1.453126-7.425781-1.613281-2.113281-4.121093-3.351563-6.78125-3.351563h-177.167968c-2.660156 0-5.167969 1.238282-6.785156 3.351563-1.613282 2.113281-2.152344 4.859375-1.453126 7.425781zm0 0"/><path d="m187.742188 273.066406c-.699219.003906-1.398438-.082031-2.074219-.253906-4.570313-1.144531-7.351563-5.773438-6.210938-10.34375 5.066407-19.09375 20.503907-33.675781 39.859375-37.640625 2.964844-.917969 6.199219-.148437 8.4375 2.003906 2.238282 2.15625 3.128906 5.355469 2.324219 8.355469s-3.175781 5.328125-6.191406 6.074219c-13.375 2.414062-24.203125 12.25-27.886719 25.335937-.945312 3.792969-4.347656 6.460938-8.257812 6.46875zm0 0"/><path d="m131.925781 399.617188c-1.847656.003906-3.644531-.59375-5.121093-1.707032-31-23.160156-66.3125-62.355468-58.460938-117.523437 7.082031-49.585938 31.4375-67.105469 49.21875-79.894531 4.566406-3.074219 8.890625-6.5 12.929688-10.242188l1.707031-1.707031c6.824219-6.824219 13.925781-13.917969 20.300781-21.210938 3.113281-3.558593 5.820312-7.453125 8.0625-11.617187l1.03125-1.925782c2.417969-6.121093 7.339844-10.917968 13.519531-13.175781 4.964844-1.34375 10.046875-2.199219 15.179688-2.5625 9.984375-.808593 20.726562-.808593 27.058593 5.035157 2.929688 2.707031 4.574219 6.527343 4.523438 10.515624 0 2.558594 0 9.386719-27.238281 38.707032 14.652343-2.261719 30.796875-4.574219 35.769531-4.574219 4.226562 0 17.070312 0 17.070312 42.664063 0 4.714843-3.824218 8.535156-8.535156 8.535156-1.796875.046875-3.59375.1875-5.375.425781 1.777344 4.066406 3.105469 8.3125 3.957032 12.664063.941406 4.65625.839843 9.460937-.289063 14.070312-.578125 1.9375-1.355469 3.808594-2.320313 5.582031-.402343.71875-.742187 1.46875-1.023437 2.246094.160156.382813 1.757813 2.609375 2.710937 3.941406.980469 1.3125 1.890626 2.671875 2.734376 4.078125 2.933593 4.992188 5.503906 10.191406 7.679687 15.554688 11.0625 30.914062 10.117187 64.855468-2.648437 95.105468l-.484376 1.117188c-2.066406 4.242188-7.179687 6.003906-11.421874 3.9375-4.242188-2.066406-6.003907-7.179688-3.9375-11.421875 11.15625-26.167969 12.09375-55.570313 2.628906-82.394531-1.859375-4.582032-4.054688-9.019532-6.5625-13.28125-.574219-.941406-1.191406-1.855469-1.851563-2.738282-3.53125-4.070312-5.609375-9.195312-5.914062-14.574218.242187-3.308594 1.230469-6.515625 2.890625-9.386719.414062-.710937.757812-1.460937 1.035156-2.234375.453125-2.140625.453125-4.355469 0-6.496094-1.023438-4.484375-2.550781-8.839844-4.558594-12.976562-.851562-2.007813-1.707031-4.003906-2.558594-5.976563-.882812-2.25-.769531-4.765625.308594-6.929687 1.082032-2.160156 3.027344-3.765625 5.355469-4.410156 3.554687-.972657 7.171875-1.71875 10.820313-2.226563-.21875-5.949219-1.097657-11.859375-2.628907-17.613281-10.042969.949218-38.109375 5.34375-55.464843 8.234375-3.660157.609375-7.292969-1.210938-8.988282-4.507813-1.699218-3.296875-1.074218-7.316406 1.546875-9.9375 14.019531-13.566406 27.007813-28.15625 38.851563-43.65625-3.84375-.425781-7.71875-.425781-11.5625 0-4.058594.269532-8.082032.910156-12.023438 1.910156-.851562.265626-2.226562 2.832032-3.207031 4.71875l-1.230469 2.285157c-2.84375 5.238281-6.261718 10.144531-10.1875 14.628906-6.707031 7.679687-13.996094 14.964844-21.050781 22.007813l-1.65625 1.652343c-4.679687 4.414063-9.703125 8.445313-15.027344 12.050781-16.980469 12.21875-36.234375 26.070313-42.292969 68.464844-6.671874 46.871094 24.476563 81.066406 51.789063 101.433594 2.9375 2.203125 4.136719 6.042969 2.976563 9.527344-1.160157 3.484375-4.421876 5.832031-8.097657 5.832031zm0 0"/><path d="m110.941406 224.769531c-4.710937 0-8.535156-3.820312-8.535156-8.535156v-34.21875c-1.539062-9.660156 2.742188-19.328125 10.933594-24.679687 8.0625-4.820313 17.863281-5.777344 26.707031-2.609376 4.824219 2.21875 6.539063 7.894532 8.210937 13.371094.222657.75.410157 1.398438.5625 1.816406 1.152344 2.699219 2.304688 5.617188 3.414063 8.535157l1.910156 4.8125c1.652344 4.339843-.472656 9.207031-4.777343 10.945312-4.308594 1.738281-9.214844-.285156-11.042969-4.554687l-1.96875-4.949219c-1.09375-2.78125-2.1875-5.570313-3.355469-8.320313-.339844-.851562-.707031-1.988281-1.109375-3.328124-.230469-.742188-.640625-2.097657-1.039063-3.242188-3.171874.046875-6.285156.851562-9.082031 2.339844-1.960937 1.101562-2.355469 2.832031-2.328125 9.804687v34.277344c0 4.699219-3.800781 8.515625-8.5 8.535156zm21.71875-54.65625h.058594zm0 0"/><path d="m256.09375 315.425781c-5.332031-.011719-10.660156-.296875-15.964844-.851562-4.691406-.472657-8.109375-4.65625-7.636718-9.34375.46875-4.691407 4.652343-8.109375 9.34375-7.640625 24.257812 3.59375 48.964843-2.316406 68.972656-16.492188 3.851562-2.714844 9.175781-1.792968 11.890625 2.058594 2.714843 3.855469 1.792969 9.179688-2.058594 11.890625-18.738281 13.613281-41.390625 20.765625-64.546875 20.378906zm0 0"/><path d="m8.542969 281.855469c-3.78125.003906-7.117188-2.480469-8.191407-6.109375-1.074218-3.625.367188-7.523438 3.539063-9.582032 10.734375-6.972656 35.167969-17.664062 77.960937-11.09375 3.101563.355469 5.765626 2.375 6.9375 5.269532 1.175782 2.898437.671876 6.203125-1.308593 8.617187-1.976563 2.414063-5.121094 3.558594-8.1875 2.976563-38.605469-5.976563-59.070313 3.984375-66.082031 8.53125-1.386719.910156-3.011719 1.394531-4.667969 1.390625zm0 0"/><path d="m85.339844 418.132812c-4.03125 0-7.511719-2.820312-8.347656-6.761718-.835938-3.945313 1.199218-7.933594 4.882812-9.570313 3.203125-1.425781 78.859375-34.867187 114.398438-34.867187 16.027343.253906 31.527343 5.738281 44.144531 15.625 6.78125 5.796875 15.226562 9.289062 24.125 9.976562 4.710937 0 8.53125 3.820313 8.53125 8.53125 0 4.714844-3.820313 8.535156-8.53125 8.535156-12.308594-.566406-24.101563-5.082031-33.640625-12.878906-9.796875-7.988281-21.988282-12.464844-34.628906-12.722656-31.957032 0-106.714844 33.066406-107.46875 33.398438-1.089844.488281-2.269532.738281-3.464844.734374zm0 0"/><path d="m119.476562 332.800781c-2.855468.003907-5.523437-1.421875-7.109374-3.796875-19.585938-29.390625-1.324219-66.714844-.539063-68.269531 2.105469-4.214844 7.230469-5.929687 11.449219-3.824219 4.21875 2.101563 5.929687 7.226563 3.828125 11.445313-.300781.625-14.507813 30.226562-.539063 51.199219 1.730469 2.617187 1.886719 5.972656.40625 8.738281-1.480468 2.769531-4.359375 4.5-7.496094 4.507812zm0 0"/><path d="m145.074219 238.933594c0 4.710937-3.820313 8.53125-8.53125 8.53125-4.714844 0-8.535157-3.820313-8.535157-8.53125 0-4.714844 3.820313-8.535156 8.535157-8.535156 4.710937 0 8.53125 3.820312 8.53125 8.535156zm0 0"/><path d="m281.609375 452.265625c0 4.714844-3.820313 8.535156-8.535156 8.535156-4.710938 0-8.53125-3.820312-8.53125-8.535156 0-4.710937 3.820312-8.53125 8.53125-8.53125 4.714843 0 8.535156 3.820313 8.535156 8.53125zm0 0"/><path d="m221.875 418.132812c0 4.714844-3.820312 8.535157-8.535156 8.535157-4.710938 0-8.53125-3.820313-8.53125-8.535157 0-4.710937 3.820312-8.53125 8.53125-8.53125 4.714844 0 8.535156 3.820313 8.535156 8.53125zm0 0"/><path d="m85.339844 460.800781c0 4.710938-3.820313 8.53125-8.53125 8.53125-4.714844 0-8.535156-3.820312-8.535156-8.53125 0-4.714843 3.820312-8.535156 8.535156-8.535156 4.710937 0 8.53125 3.820313 8.53125 8.535156zm0 0"/><path d="m51.207031 375.464844c0 4.714844-3.820312 8.535156-8.53125 8.535156-4.714843 0-8.535156-3.820312-8.535156-8.535156 0-4.710938 3.820313-8.53125 8.535156-8.53125 4.710938 0 8.53125 3.820312 8.53125 8.53125zm0 0"/></svg>