<svg height="512pt" viewBox="-1 0 512 512.00055" width="512pt" xmlns="http://www.w3.org/2000/svg"><path d="m467.261719 140.800781c0 14.699219-5.796875 28.800781-16.199219 39.199219-10.398438 10.398438-24.5 16.199219-39.199219 16.199219-4.101562 0-8.101562-.398438-12-1.398438-10-2.199219-19.199219-7.101562-26.5-14.300781 9-7.800781-2.601562-40.898438 3.101563-50.5l13.796875-20.699219c.402343-3 12.800781-.101562 12.800781-3.199219 0-7.902343 2.699219-11.800781 1.199219-18.5-.097657-.601562-.296875-1.300781-.398438-1.902343 2.699219-.398438 5.398438-.597657 8.101563-.597657 30.5.199219 55.296875 25.097657 55.296875 55.699219zm0 0" fill="#d84315"/><g fill="#ff5722"><path d="m442.964844 140.800781c0 25.898438-17.902344 48.300781-43.203125 54.097657-10-2.199219-19.199219-7.097657-26.5-14.296876 9-7.800781-2.597657-40.902343 3.101562-50.5l13.800781-20.703124c.398438-3 12.800782-.097657 12.800782-3.199219 0-7.898438 2.699218-11.800781 1.199218-18.5 23.097657 7.402343 38.800782 28.902343 38.800782 53.101562zm0 0"/><path d="m192.464844 349.5c-6.800782-4.699219-14.800782 4.898438-23 4.601562-5-.203124-10.101563-12-15.101563-10.203124h-.101562l-4.5-13.097657c-1.898438-5.902343-5.597657-11.199219-10.5-15-7.796875-5.800781-17.898438-7.5-27.199219-4.5-8 3-16.597656 4.398438-25.199219 4.097657-25.898437-1.699219-48.300781-18.597657-57-43.097657l-20.398437-53.300781c-3.101563-8.898438 1.597656-18.601562 10.5-21.800781 1.796875-.597657 3.699218-.898438 5.5-.898438 7.296875 0 13.796875 4.597657 16.199218 11.398438l19.898438 52.199219c1.902344 6 5.601562 11.203124 10.601562 15 7.800782 5.902343 17.898438 7.703124 27.199219 4.601562 8-3 16.601563-4.398438 25.199219-4 25.902344 1.601562 48.402344 18.601562 57 43.101562zm0 0"/><path d="m181.464844 145.101562c5.597656 9.597657-4.703125 27.796876 4.398437 35.597657-18 17.402343-45.300781 20.601562-66.800781 7.902343-21.5-12.703124-31.800781-38.300781-25.199219-62.402343 6.601563-24.097657 28.5-40.800781 53.5-40.800781 2.699219 0 5.398438.203124 8.101563.601562-2.5 7.898438 10.398437 7.101562 10.398437 15.800781 0 3.097657 9.898438 10.5 10.300781 13.5"/></g><path d="m403.761719 85.898438c-14-44.5-64.296875-77.398438-124.199219-77.398438-4.097656 0-8.199219.199219-12.199219.398438-54.398437 4.203124-98.898437 35.601562-112 77-2.5 8.101562-3.800781 16.5-3.800781 25 0 3.101562.199219 6.101562.601562 9.101562.5 5 1.5 9.898438 2.898438 14.699219 2.101562 6.902343 5 13.5 8.601562 19.699219 5.898438 9.902343 13.398438 18.800781 22.199219 26.203124 4 3.5 8.300781 6.699219 12.699219 9.597657-8.199219 11.800781-12.699219 25.800781-12.898438 40.199219 0 32.203124 11.898438 60.203124 41.199219 74.703124 12.699219 6 26.398438 9.5 40.398438 10.199219 3.902343.300781 7.902343.398438 12.203125.398438 18.097656.601562 36.199218-3.097657 52.699218-10.699219 29.300782-14.5 41.199219-42.5 41.199219-74.699219-.199219-14.402343-4.699219-28.402343-12.898437-40.199219 4.398437-2.902343 8.699218-6.101562 12.699218-9.601562 8.800782-7.398438 16.300782-16.300781 22.199219-26.199219 6.300781-10.5 10.199219-22.199219 11.5-34.402343.398438-3 .601563-6.097657.601563-9.097657.097656-8.300781-1.203125-16.800781-3.703125-24.902343zm0 0" fill="#d84315"/><path d="m379.261719 85.898438c-13.097657-41.398438-57.398438-72.796876-111.898438-77-54.398437 4.203124-98.898437 35.601562-112 77-2.5 8.101562-3.800781 16.5-3.800781 25 0 3.101562.199219 6.101562.601562 9.101562.5 5 1.5 9.898438 2.898438 14.699219 2.101562 6.902343 5 13.5 8.601562 19.699219 5.898438 9.902343 13.398438 18.800781 22.199219 26.203124 4 3.5 8.300781 6.699219 12.699219 9.597657-8.199219 11.800781-12.699219 25.800781-12.898438 40.199219 0 32.203124 11.898438 60.203124 41.199219 74.703124 12.699219 6 26.398438 9.5 40.398438 10.199219 14-.800781 27.703125-4.199219 40.402343-10.199219 29.300782-14.5 41.199219-42.5 41.199219-74.703124-.199219-14.398438-4.699219-28.398438-12.898437-40.199219 4.398437-2.898438 8.699218-6.097657 12.699218-9.597657 8.800782-7.402343 16.300782-16.300781 22.199219-26.203124 6.300781-10.5 10.199219-22.199219 11.5-34.398438.398438-3 .601563-6.101562.601563-9.101562.097656-8.398438-1.203125-16.898438-3.703125-25zm0 0" fill="#ff5722"/><path d="m369.964844 127.699219c-2.703125 10.601562-9.101563 19.902343-18 26.300781-2.101563 1.898438-4.300782 3.601562-6.703125 5.300781-1.097657.898438-2.199219 1.597657-3.398438 2.398438-7.601562 5-12.898437 12.800781-14.800781 21.699219-1.898438 8.902343 0 18.203124 5 25.800781 4.5 6.199219 7 13.601562 7.199219 21.199219 0 45.402343-31.898438 51.203124-59.699219 51.203124s-59.699219-5.800781-59.699219-51.203124c.199219-7.597657 2.699219-15 7.199219-21.199219 5-7.597657 6.800781-16.898438 5-25.800781-1.800781-8.898438-7.097656-16.699219-14.800781-21.699219-.699219-.398438-1.296875-.898438-2-1.398438 0-.101562-2.796875-1.902343-5.097657-3.5 14.597657 4.097657 30.199219 1.5 42.699219-7.101562 12.5-8.597657 20.5-22.300781 22-37.300781 3.601563 2.402343 8.398438 1.703124 11.199219-1.597657 10.402344-11.300781 25.199219-17.402343 40.402344-16.800781 3.398437 0 6.898437.300781 10.199218.800781 3.199219.597657 6.300782 1.398438 9.398438 2.398438 2.902344.902343 5.699219 2.101562 8.402344 3.601562 10.398437 4.699219 16.5 15.5 15.5 26.898438zm0 0" fill="#ffecb3"/><path d="m274.863281 112.300781c-1.398437 15.097657-9.5 28.800781-22 37.300781-12.5 8.597657-28.101562 11.199219-42.699219 7.097657 0 0 0 0 0-.097657 0 0 0 0-.101562 0-12.898438-3.601562-23.800781-12.300781-30.097656-24.101562-1.601563-2.898438-2.902344-6.101562-3.800782-9.300781l2.398438-1.300781 12.5-6.699219 39.300781-21.199219 23-12.5 10.199219-5.5c2.199219 2.601562 4.101562 5.300781 5.601562 8.300781 4.5 8.597657 6.597657 18.300781 5.699219 28zm0 0" fill="#607d8b"/><path d="m480.0625 460.601562h-21.300781c-7.398438.097657-13.898438-4.601562-16.199219-11.601562-3.300781-12.300781-5.199219-24.898438-5.699219-37.601562-1.199219-16.398438-3.398437-42-14.101562-55.097657-.199219-.300781-.5-.601562-.796875-.902343-3.5-4.097657-7.703125-7.398438-12.5-9.796876-8.902344-4.402343-19.101563-5.402343-28.703125-2.800781h-.097657c-10.601562 2.898438-19.800781 9.597657-25.902343 18.699219.203125 3-10.296875 19.898438-10.5 23l3.203125 57.898438 1.796875 31.703124c7.101562-10.902343 14.300781-23.101562 21.203125-35.203124 5.097656-9 10-17.796876 14.398437-25.898438.398438-.800781 1.699219-2.398438 1.699219-3.199219 2.601562 14.898438 4.902344 30 7.402344 44.898438 1 7.800781 2.597656 15.402343 4.898437 23 3 8.902343 9.101563 16.300781 17.199219 21 4.101562 2.300781 8.601562 4 13.300781 4.800781h50.699219c11.800781 0 21.300781-9.601562 21.300781-21.300781.101563-12-9.5-21.597657-21.300781-21.597657zm0 0" fill="#fec108"/><path d="m458.761719 460.601562h-21c-7.398438.097657-13.898438-4.601562-16.199219-11.601562-3.300781-12.300781-5.199219-24.898438-5.699219-37.601562-1.199219-16.398438-3.398437-42-14.101562-55.097657-.199219-.300781-.5-.601562-.796875-.902343-3.5-4.097657-7.703125-7.398438-12.5-9.796876-2.402344-1.203124-5-2.203124-7.703125-2.800781 9.601562-2.5 19.800781-1.5 28.703125 2.800781 4.796875 2.398438 9.097656 5.699219 12.5 9.796876.296875.300781.5.601562.796875.902343 10.703125 13.097657 12.902343 38.699219 14.101562 55.097657.5 12.703124 2.5 25.300781 5.699219 37.601562 2.300781 7 8.800781 11.699219 16.199219 11.601562zm0 0" fill="#ff9801"/><path d="m501.464844 482c0 5.699219-2.203125 11.101562-6.203125 15.101562s-9.398438 6.199219-15.097657 6.199219h-21c11.800782 0 21.300782-9.601562 21.300782-21.300781 0-11.800781-9.601563-21.300781-21.300782-21.300781h21c11.699219-.097657 21.300782 9.5 21.300782 21.300781zm0 0" fill="#ff9801"/><path d="m163.664062 154.5c-6.300781 7.601562-17.101562 9.898438-25.902343 5.398438-8.898438-4.398438-13.5-14.398438-11.199219-24 2.300781-9.597657 10.902344-16.398438 20.800781-16.398438 1.601563 0 3.300781.199219 4.898438.601562 1.203125 12.097657 5.101562 23.898438 11.402343 34.398438zm0 0" fill="#ffecb3"/><path d="m433.164062 140.800781c0 9-5.601562 17-14.101562 20-8.398438 3.097657-17.898438.5-23.597656-6.402343 6.296875-10.5 10.199218-22.199219 11.5-34.398438 1.597656-.398438 3.199218-.601562 4.898437-.601562 5.699219 0 11.101563 2.203124 15.101563 6.203124 3.898437 4.097657 6.199218 9.5 6.199218 15.199219zm0 0" fill="#ffecb3"/><path d="m255.0625 396.300781c-4.699219 0-8.5-3.800781-8.5-8.5v-29.402343c0-4.699219 3.800781-8.5 8.5-8.5s8.5 3.800781 8.5 8.5v29.402343c0 4.699219-3.800781 8.5-8.5 8.5zm0 0"/><path d="m209.761719 474.398438c-12.296875-19.097657-25.296875-42.199219-35.597657-61.296876-.300781-.800781-1.699218-2.402343-1.699218-3.203124-2.601563 14.902343-4.902344 30-7.402344 44.902343-1 7.800781-2.597656 15.398438-4.898438 23-3 8.898438-9.101562 16.300781-17.199218 21-4.101563 2.300781-8.601563 4-13.300782 4.800781h-50.601562c-11.800781 0-21.300781-9.601562-21.300781-21.300781s9.601562-21.300781 21.300781-21.300781h21.402344c7.296875.101562 13.898437-4.601562 16.097656-11.601562 3.300781-12.296876 5.199219-24.898438 5.699219-37.597657 1.203125-16.402343 3.402343-41.902343 14.101562-55.101562.300781-.300781.5-.597657.800781-.898438 3.5-4.101562 7.699219-7.402343 12.5-9.699219 1.5-.703124 3-1.300781 4.5-1.902343h.097657c12.902343-4.5 27.101562-2.398438 38.101562 5.601562 4.699219 3.199219 8.699219 7.300781 11.898438 12-.199219 2.898438 17.5 12.699219 17.703125 15.699219zm0 0" fill="#fec108"/><path d="m315.664062 500.101562c-11.800781 2.699219-23.902343 4.097657-36.101562 4.097657-12 0-23.898438-1.300781-35.597656-4 6.5-3.898438-3.5-15.097657-3.5-23v-31.699219c7.097656 6.5 33.398437 3.898438 43 3.898438 9.597656 0 25.097656 5.800781 32.097656-.699219l12.300781 28.800781c.101563 7.800781-18 18.601562-12.199219 22.601562zm0 0" fill="#ff5722"/><path d="m306.261719 387.800781 12.800781 34.597657-12.800781 36.601562c-14.296875 13.800781-36.898438 13.800781-51.199219 0l-17.097656-33.199219 17.097656-38c16.300781-7.402343 34.902344-7.402343 51.199219 0zm0 0" fill="#ff5722"/><path d="m354.863281 361.398438c.199219 3 .199219 6 0 9l-5.5 103.5v.101562l-.398437 8.699219c-.601563 11.601562-10.203125 20.699219-21.800782 20.699219-4.101562 0-8-1.199219-11.402343-3.398438-6-4.199219-9.5-11.199219-9.398438-18.5v-93.800781c-2.699219-1.300781-5.398437-2.300781-8.300781-3.097657-1.300781-.402343-2.597656-.800781-3.898438-1-.101562-.101562-.300781-.101562-.402343-.101562-1.5-.300781-2.898438-.601562-4.398438-.800781-1.398437-.199219-2.699219-.300781-4.199219-.398438-1.5-.101562-2.902343-.199219-4.402343-.199219s-2.898438.097657-4.398438.199219c-1.5.097657-2.800781.300781-4.199219.398438-1.5.199219-3 .402343-4.402343.800781-.097657 0-.296875 0-.398438.101562-1.300781.296876-2.601562.597657-3.898437 1-2.800782.796876-5.601563 1.796876-8.300782 3.097657v93.800781c-.199218 7.699219-4.402343 14.800781-11.101562 18.601562-3.597656 2.199219-7.699219 3.296876-11.898438 3.296876-11.601562 0-21.199218-9.097657-21.800781-20.699219l-.398437-8.398438-5.5-103.902343c-.203125-3-.203125-5.898438 0-8.898438.296875-6.699219 1.296875-13.300781 3.199218-19.699219 2.097657-6.699219 5.199219-13.101562 9-19 4-5.601562 7.5-11.601562 10.5-17.699219 16.5 7.597657 34.5 11.296876 52.699219 10.699219 18.101563.597657 36.199219-3.101562 52.699219-10.699219 3 6.199219 6.5 12.097657 10.5 17.699219 3.800781 5.898438 6.800781 12.300781 9 19 1.402344 6.398438 2.402344 13 2.800781 19.597657zm0 0" fill="#fec108"/><path d="m279.5625 324.199219c-65.097656 0-102.398438-34.199219-102.398438-93.800781v-.097657c.199219-13.300781 3.597657-26.199219 9.898438-37.699219-28.097656-21-44.097656-50.300781-44.097656-81.601562 0-30 14.5-58.101562 40.699218-79.101562 25.800782-20.597657 59.800782-31.898438 95.898438-31.898438 36.101562 0 70.101562 11.300781 95.800781 31.800781 26.199219 21 40.699219 49.097657 40.699219 79.097657 0 31.300781-16 60.703124-44.097656 81.601562 6.296875 11.5 9.796875 24.398438 9.898437 37.699219v.101562c.101563 59.699219-37.300781 93.898438-102.300781 93.898438zm-85.398438-93.699219c0 35 14.898438 76.800781 85.398438 76.800781s85.402344-41.699219 85.402344-76.800781c-.203125-12.699219-4.101563-25-11.402344-35.398438-1.300781-1.902343-1.800781-4.203124-1.398438-6.5.398438-2.300781 1.800782-4.203124 3.699219-5.5 27.398438-18 43.199219-44.300781 43.199219-72.203124 0-51.699219-53.597656-93.898438-119.5-93.898438-65.898438 0-119.5 42.199219-119.5 93.898438 0 27.902343 15.699219 54.203124 43.199219 72.203124 1.902343 1.296876 3.203125 3.199219 3.703125 5.5.5 2.296876-.101563 4.597657-1.402344 6.5-7.300781 10.398438-11.199219 22.597657-11.398438 35.398438zm0 0"/><path d="m279.5625 290.101562c-16.898438 0-68.300781 0-68.300781-59.703124.203125-9.296876 3.203125-18.398438 8.601562-26 3.800781-5.699219 5.101563-12.699219 3.699219-19.296876-1.398438-6.703124-5.398438-12.601562-11.097656-16.300781-.300782-.199219-.902344-.601562-1.402344-.902343-.398438-.296876-.800781-.5-1.097656-.898438l-1.402344-1c-1-.699219-2.300781-1.601562-3.5-2.398438-3.898438-2.703124-4.800781-8-2.097656-11.902343 2.699218-3.898438 8-4.800781 11.898437-2.097657l3.199219 2.199219c.601562.398438 1.101562.800781 1.699219 1.199219.601562.398438.902343.601562 1.402343 1 12.398438 7.898438 19.898438 21.601562 19.898438 36.300781 0 8.398438-2.5 16.597657-7.097656 23.597657-3.5 4.800781-5.5 10.601562-5.800782 16.5 0 35.402343 20.5 42.703124 51.199219 42.703124s51.199219-7.300781 51.199219-42.703124c-.199219-5.898438-2.199219-11.699219-5.699219-16.5-6.300781-9.5-8.601562-21.097657-6.300781-32.296876 2.300781-11.203124 8.902344-21 18.402344-27.203124 1.097656-.699219 2-1.296876 2.898437-2 2.199219-1.5 4.199219-3.199219 6.199219-4.898438 7.199219-5.101562 12.601562-12.5 15.199219-20.898438.601562-7.902343-3.796875-15.300781-11-18.5-2.199219-1.203124-4.597657-2.203124-7-2.902343-2.699219-.898438-5.5-1.597657-8.398438-2.097657-2.898437-.402343-5.800781-.601562-8.699219-.601562-12.699218-.5-25.101562 4.398438-33.800781 13.699219-5.601562 6.800781-15.398437 8.199219-22.699219 3.199219-2.5-1.699219-3.902343-4.597657-3.699218-7.699219.199218-3 2-5.699219 4.796875-7.097657 2.703125-1.300781 6-1.101562 8.5.597657 15-15.800781 37-23 58.5-19 3.703125.699219 7.300781 1.601562 10.800781 2.699219 3.402344 1.101562 6.601562 2.5 9.699219 4.101562 13.402343 6.601562 21.300781 20.800781 19.800781 35.601562-2.800781 12.699219-10.199219 23.898438-20.800781 31.597657-2.398438 2.101562-4.796875 4.101562-7.398438 5.902343-1 .796876-2.300781 1.699219-3.699219 2.597657-5.699218 3.800781-9.601562 9.601562-11 16.300781-1.402343 6.699219 0 13.601562 3.800782 19.300781 5.398437 7.597657 8.398437 16.699219 8.597656 26 .300781 59.800781-51.097656 59.800781-68 59.800781zm0 0"/><path d="m270.964844 179.199219c0 4.695312-3.808594 8.5-8.5 8.5-4.695313 0-8.5-3.804688-8.5-8.5 0-4.695313 3.804687-8.5 8.5-8.5 4.691406 0 8.5 3.804687 8.5 8.5zm0 0"/><path d="m305.164062 179.199219c0 4.695312-3.804687 8.5-8.5 8.5-4.695312 0-8.5-3.804688-8.5-8.5 0-4.695313 3.804688-8.5 8.5-8.5 4.695313 0 8.5 3.804687 8.5 8.5zm0 0"/><path d="m330.761719 136.5c0 4.695312-3.804688 8.5-8.5 8.5-4.691407 0-8.5-3.804688-8.5-8.5s3.808593-8.5 8.5-8.5c4.695312 0 8.5 3.804688 8.5 8.5zm0 0"/><path d="m147.261719 204.800781c-35.296875 0-64-28.699219-64-64s28.703125-64 64-64c3.203125 0 6.300781.199219 9.5.699219 3.101562.398438 5.703125 2.5 6.800781 5.398438 1.101562 2.902343.601562 6.203124-1.398438 8.5-2 2.402343-5.101562 3.5-8.101562 3-2.199219-.296876-4.5-.5-6.699219-.5-21.101562 0-39.699219 14.203124-45.199219 34.601562s3.199219 42 21.398438 52.800781 41.402344 8 56.5-6.699219c2.199219-2.203124 5.402344-3.101562 8.402344-2.203124 3 .902343 5.296875 3.203124 6 6.203124.699218 3-.203125 6.199219-2.5 8.296876-12.101563 11.5-28.101563 17.902343-44.703125 17.902343zm0 0"/><path d="m147.261719 170.699219c-16.5 0-29.898438-13.398438-29.898438-29.898438s13.398438-29.902343 29.898438-29.902343c2.402343 0 4.800781.300781 7.203125.902343 4.5 1.300781 7.199218 6 5.898437 10.5s-6 7.199219-10.5 5.898438c-.800781-.199219-1.699219-.300781-2.601562-.300781-5.898438 0-11.097657 4.101562-12.5 9.902343-1.398438 5.800781 1.402343 11.699219 6.800781 14.398438 5.300781 2.601562 11.800781 1.300781 15.601562-3.300781 3-3.597657 8.398438-4.097657 12-1.097657 3.597657 3 4.097657 8.398438 1.097657 12-5.699219 6.898438-14.097657 10.898438-23 10.898438zm0 0"/><path d="m411.863281 204.800781c-16.601562 0-32.601562-6.402343-44.5-18-2.300781-2.101562-3.300781-5.300781-2.5-8.300781.699219-3 3-5.398438 6-6.199219s6.199219 0 8.398438 2.199219c15.203125 14.699219 38.402343 17.398438 56.601562 6.699219s26.898438-32.398438 21.398438-52.800781c-5.597657-20.398438-24.097657-34.5-45.296875-34.5-2.300782 0-4.5.101562-6.800782.5-3.101562.601562-6.199218-.5-8.199218-2.898438s-2.5-5.699219-1.402344-8.601562c1.101562-2.898438 3.800781-4.898438 6.800781-5.296876 3.101563-.5 6.300781-.703124 9.5-.703124 35.300781 0 64 28.703124 64 64 0 35.300781-28.699219 63.902343-64 63.902343zm0 0"/><path d="m411.863281 170.699219c-8.898437 0-17.300781-3.898438-22.898437-10.699219-2-2.300781-2.601563-5.601562-1.601563-8.5s3.601563-5 6.601563-5.5 6.097656.699219 8.097656 3.101562c3.800781 4.597657 10.199219 5.898438 15.601562 3.296876 5.300782-2.597657 8.097657-8.597657 6.800782-14.398438-1.402344-5.800781-6.5-9.898438-12.5-9.898438-.902344 0-1.703125.097657-2.601563.296876-4.5 1.300781-9.199219-1.398438-10.5-5.898438s1.398438-9.199219 5.898438-10.5c2.300781-.601562 4.703125-.898438 7.101562-.898438 10.699219 0 20.5 5.699219 25.898438 14.898438 5.300781 9.199219 5.300781 20.601562 0 29.898438-5.398438 9.101562-15.296875 14.800781-25.898438 14.800781zm0 0"/><path d="m288.0625 247.5h-17c-4.699219 0-8.5-3.800781-8.5-8.5s3.800781-8.5 8.5-8.5h17c4.699219 0 8.5 3.800781 8.5 8.5.101562 4.601562-3.800781 8.5-8.5 8.5zm0 0"/><path d="m224.0625 167.199219c-21.5.101562-41.300781-11.597657-51.597656-30.5-1.902344-3.5-3.5-7.199219-4.601563-11-1.300781-4.5 1.300781-9.300781 5.898438-10.597657 4.601562-1.300781 9.300781 1.296876 10.601562 5.898438.800781 2.601562 1.800781 5.199219 3.199219 7.601562 11.300781 20 36.601562 27.199219 56.800781 16.199219 20.199219-10.902343 27.898438-36 17.398438-56.402343-1.296875-2.398438-2.796875-4.699219-4.597657-6.796876-2.101562-2.300781-2.699218-5.5-1.800781-8.402343 1-2.898438 3.5-5.097657 6.5-5.699219s6.101563.5 8.101563 2.898438c2.597656 3 4.796875 6.300781 6.699218 9.800781 9.699219 18.402343 9 40.5-1.699218 58.300781-10.800782 17.800781-30.101563 28.699219-50.902344 28.699219zm0 0"/><path d="m155.0625 143.300781c-3.898438 0-7.300781-2.601562-8.300781-6.402343-1-3.796876.800781-7.699219 4.203125-9.597657l21-11.402343c.296875-.097657.5-.296876.796875-.398438l91.902343-49.898438c10.398438-5.601562 20.398438-12 29.898438-19 13.101562-9.800781 25.199219-20.800781 36.199219-32.902343 2-2.300781 5.101562-3.300781 8.101562-2.597657 3 .597657 5.398438 2.796876 6.300781 5.699219.898438 2.898438.300782 6.097657-1.800781 8.300781-11.699219 12.898438-24.699219 24.699219-38.699219 35.199219-10.199218 7.398438-20.800781 14.199219-31.902343 20.199219l-38.5 20.898438-54.199219 29.402343c-.199219.097657-.5.199219-.699219.300781l-20.300781 11.097657c-1.199219.699219-2.597656 1.101562-4 1.101562zm0 0"/><path d="m279.5625 512c-9.300781 0-18.597656-1.101562-27.597656-3.199219-3-.601562-5.5-2.902343-6.402344-5.902343-.898438-3-.097656-6.199219 2.101562-8.398438 2.199219-2.199219 5.398438-3.101562 8.398438-2.300781 7.699219 1.902343 15.601562 2.800781 23.601562 2.699219 4.699219 0 8.5 3.800781 8.5 8.5-.101562 4.800781-3.902343 8.601562-8.601562 8.601562zm0 0"/><path d="m143.0625 507.199219c-3.800781 0-7.199219-2.597657-8.199219-6.300781-1-3.699219.601563-7.597657 3.898438-9.597657 6.300781-3.601562 11.101562-9.402343 13.402343-16.300781 1.898438-6.300781 3.300782-12.699219 4.097657-19.199219l2.203125-13.699219c1.796875-11.300781 3.699218-22.5 5.597656-33.703124.699219-3.898438 3.902344-6.796876 7.800781-7.097657 3.898438-.300781 7.5 2.097657 8.699219 5.898438.402344.601562.800781 1.199219 1.101562 1.800781 3 5.5 5.898438 11 8.800782 16.5 8 15.800781 16.699218 31.300781 26.296875 46.199219 1.800781 2.5 2.101562 5.800781.703125 8.601562-1.402344 2.800781-4.101563 4.597657-7.203125 4.800781-3.097657.199219-6.097657-1.402343-7.699219-4-9.398438-14.601562-18-29.601562-25.800781-45.101562-.5 2.898438-1 5.898438-1.398438 8.800781l-2.199219 13.597657c-1 7.402343-2.601562 14.800781-4.800781 21.902343-3.601562 10.800781-11.101562 19.898438-20.898437 25.699219-1.402344.800781-2.902344 1.199219-4.402344 1.199219zm0 0"/><path d="m232.0625 512c-16.199219 0-29.5-12.699219-30.398438-28.800781-5.902343-112.5-5.902343-112.5-5.902343-112.800781-.5-10.398438.703125-20.796876 3.5-30.898438 2.300781-7.398438 5.601562-14.5 9.800781-21.101562 1.101562-1.898438 2.402344-3.699219 3.601562-5.597657 2.5-3.402343 4.597657-7.101562 6.300782-10.902343 1.097656-2.796876 3.699218-4.898438 6.699218-5.296876 3-.402343 6 .796876 7.898438 3.097657 1.902344 2.402343 2.402344 5.601562 1.199219 8.402343-2.097657 5-4.796875 9.699219-7.898438 14.097657-1.101562 1.699219-2.199219 3.300781-3.199219 5-3.402343 5.300781-6.101562 11-8 16.902343-2.402343 8.398438-3.402343 17.097657-2.902343 25.699219l5.902343 112.300781c.398438 7.097657 6.199219 12.699219 13.300782 12.699219 7.597656.097657 14-5.800781 14.5-13.402343v-123c0-4.699219 3.796875-8.5 8.5-8.5 4.699218 0 8.5 3.800781 8.5 8.5v123.203124c-.402344 17-14.402344 30.5-31.402344 30.398438zm0 0"/><path d="m129.761719 512h-50.699219c-16.5 0-29.898438-13.398438-29.898438-29.898438s13.398438-29.902343 29.898438-29.902343h21.402344c3.597656.101562 6.796875-2.097657 8-5.5 3.097656-11.699219 4.898437-23.699219 5.398437-35.800781 1.101563-15.398438 3.300781-44.199219 16-59.898438l.898438-1.101562c4.203125-5 9.402343-9 15.300781-11.898438 23.402344-11 51.300781-3 65.402344 18.699219 1.898437 2.5 2.199218 5.800781.898437 8.699219-1.300781 2.800781-4.101562 4.703124-7.199219 4.902343-3.101562.199219-6.101562-1.300781-7.800781-4-9.199219-14.800781-28.101562-20.402343-43.800781-12.902343-3.699219 1.800781-7.097656 4.402343-9.699219 7.601562l-.699219.800781c-9.402343 11.5-11.300781 37.800781-12.199218 50.300781-.601563 13.296876-2.601563 26.597657-6 39.398438-3.402344 10.601562-13.203125 17.800781-24.402344 17.699219h-21.5c-7.097656 0-12.800781 5.699219-12.800781 12.800781s5.703125 12.800781 12.800781 12.800781h49.902344c3.5-.699219 6.796875-1.902343 9.898437-3.601562 4.101563-2.398438 9.300781-1 11.699219 3.101562 2.402344 4.097657 1 9.300781-3.097656 11.699219-5 2.800781-10.402344 4.800781-16.101563 5.800781-.601562.199219-1.101562.199219-1.601562.199219zm0 0"/><path d="m129.664062 512c-4.402343 0-8.101562-3.398438-8.5-7.800781-.402343-4.398438 2.597657-8.398438 7-9.097657 3.699219-.601562 7.300782-1.902343 10.597657-3.800781 4.101562-2.402343 9.300781-1 11.703125 3.097657 2.398437 4.101562 1 9.300781-3.101563 11.703124-5 2.796876-10.398437 4.796876-16.101562 5.796876-.5.101562-1 .101562-1.597657.101562zm0 0"/><path d="m279.5625 512c-4.699219 0-8.5-3.800781-8.5-8.5s3.800781-8.5 8.5-8.5c7.902344 0 15.902344-.898438 23.601562-2.699219 3-.800781 6.199219 0 8.398438 2.300781 2.199219 2.199219 3 5.5 2.101562 8.398438-.902343 3-3.402343 5.199219-6.402343 5.898438-9.097657 2-18.398438 3.101562-27.699219 3.101562zm0 0"/><path d="m327.0625 512c-8-.101562-15.5-3.300781-21.097656-9.101562-5.5-5.699219-8.5-13.398438-8.300782-21.398438v-123.101562c0-4.699219 3.800782-8.5 8.5-8.5 4.699219 0 8.5 3.800781 8.5 8.5v123.203124c-.300781 3.398438.898438 6.796876 3.199219 9.296876s5.601563 4 9 4c7.101563 0 13-5.597657 13.300781-12.699219l5.898438-112.300781c.5-8.699219-.5-17.398438-2.898438-25.699219-1.902343-6-4.601562-11.699219-8-16.898438-1-1.699219-2.101562-3.300781-3.199218-5-3.101563-4.402343-5.800782-9.101562-7.902344-14.101562-1.699219-4.398438.402344-9.300781 4.800781-11.097657 4.398438-1.703124 9.300781.398438 11.101563 4.796876 1.699218 3.800781 3.796875 7.5 6.296875 10.902343 1.203125 1.898438 2.402343 3.699219 3.601562 5.597657 4.199219 6.601562 7.5 13.703124 9.800781 21.101562 2.898438 10.199219 4.097657 20.800781 3.5 31.300781 0 0-.199218 4.5-5.902343 112.300781-.699219 16.199219-14 28.898438-30.199219 28.898438zm0 0"/><path d="m192.464844 358.101562c-3.601563 0-6.800782-2.300781-8-5.703124l-10.800782-30.898438c-7.601562-21.300781-27.101562-36-49.699218-37.398438-7.402344-.300781-14.902344 1-21.800782 3.597657-11.902343 3.902343-25 1.699219-35-5.898438-6.300781-4.800781-11-11.5-13.5-19l-19.800781-52c-1.199219-3.601562-4.5-6-8.199219-6-1 0-2 .199219-3 .5-4.300781 1.699219-6.5 6.5-5 10.800781l20.199219 53.097657c7.601563 21.300781 27.199219 36.101562 49.800781 37.601562 7.398438.199219 14.800782-1.101562 21.800782-3.699219 11.898437-3.800781 24.796875-1.601562 34.898437 5.699219 6.300781 4.898438 11.101563 11.5 13.5 19.097657l4.300781 12.402343c1.199219 2.597657 1 5.699219-.601562 8.097657-1.597656 2.402343-4.199219 3.902343-7.097656 3.902343-3.703125 0-6.902344-2.300781-8.101563-5.699219l-4.601562-13c-1.398438-4.300781-4-8.101562-7.5-11-5.597657-4.101562-12.898438-5.300781-19.597657-3.203124-9.101562 3.300781-18.699218 4.902343-28.402343 4.5-29.296875-2-54.5-21.199219-64.398438-48.796876l-20.398437-53.101562c-4.703125-13.398438 2.296875-28 15.597656-32.800781 2.699219-.898438 5.5-1.398438 8.402344-1.398438 10.898437 0 20.597656 6.898438 24.296875 17.097657l19.800781 52.101562c1.402344 4.398438 4 8.300781 7.601562 11.199219 5.597657 4.300781 12.898438 5.601562 19.597657 3.402343 9.101562-3.402343 18.800781-4.902343 28.601562-4.402343 29.300781 1.902343 54.601563 21.101562 64.300781 48.800781l10.800782 30.800781c.898437 2.597657.5 5.5-1.101563 7.800781-1.601562 2.296876-4.199219 3.5-6.898437 3.5zm0 0"/><path d="m416.0625 507c-1.5 0-3-.398438-4.300781-1.199219-9.898438-5.699219-17.296875-14.800781-20.898438-25.699219-2.199219-7.101562-3.800781-14.402343-4.800781-21.800781l-2.300781-14c-.5-2.800781-.898438-5.699219-1.398438-8.5-7.800781 15.5-16.398437 30.5-25.800781 45.097657-1.699219 2.5-4.597656 4-7.597656 3.800781s-5.800782-2-7.101563-4.699219c-1.398437-2.699219-1.101562-6 .5-8.5 9.601563-14.898438 18.300781-30.398438 26.300781-46.199219 2.898438-5.5 5.800782-11.101562 8.800782-16.5.296875-.5.597656-1.101562 1-1.601562.097656-.097657.097656-.097657.097656-.097657 1.199219-3.800781 4.800781-6.203124 8.699219-6 3.902343.296876 7.203125 3.199219 7.902343 7.097657 1.898438 11.101562 3.800782 22.300781 5.597657 33.402343l2.300781 14.097657c.902344 6.5 2.199219 12.902343 4.101562 19.101562 2.300782 6.898438 7.097657 12.699219 13.398438 16.300781 3.300781 1.898438 4.902344 5.898438 3.902344 9.597657-1.101563 3.699219-4.5 6.300781-8.402344 6.300781zm0 0"/><path d="m480.0625 511.800781h-50.699219c-.5 0-1 0-1.5-.101562-5.601562-1-11.101562-2.898438-16.101562-5.800781-2.597657-1.5-4.296875-4.296876-4.296875-7.398438s1.597656-5.898438 4.296875-7.398438c2.601562-1.5 5.902343-1.5 8.5 0 3.101562 1.699219 6.402343 3 9.902343 3.699219h49.898438c7.101562 0 12.800781-5.699219 12.800781-12.800781s-5.699219-12.800781-12.800781-12.800781h-21.300781c-11.097657.101562-21-7.097657-24.398438-17.699219-3.5-12.898438-5.5-26.101562-6-39.398438-.898437-12.601562-2.898437-38.800781-12.199219-50.300781l-.699218-.800781c-2.703125-3.199219-6-5.800781-9.703125-7.601562-15.796875-7.398438-34.597657-1.898438-43.796875 12.902343-1.703125 2.5-4.601563 3.898438-7.703125 3.699219-3-.199219-5.699219-2.101562-7.097657-4.800781-1.300781-2.699219-1.101562-6 .597657-8.5 14.101562-21.699219 42-29.699219 65.402343-18.699219 5.898438 2.898438 11.097657 6.898438 15.398438 11.898438l.902344 1.101562c12.699218 15.699219 14.898437 44.5 16 59.898438.5 12.101562 2.296875 24.101562 5.398437 35.800781 1.199219 3.402343 4.398438 5.601562 8 5.5h21.199219c16.5 0 29.902344 13.402343 29.902344 29.902343s-13.402344 29.699219-29.902344 29.699219zm0 0"/><path d="m429.464844 511.800781c-.5 0-1 0-1.5-.101562-5.601563-1-11.101563-2.898438-16.101563-5.800781-2.601562-1.5-4.300781-4.296876-4.300781-7.398438s1.601562-5.898438 4.300781-7.398438c2.601563-1.5 5.898438-1.5 8.5 0 3.300781 1.898438 6.800781 3.097657 10.601563 3.796876 4.398437.800781 7.398437 4.703124 7 9.203124-.402344 4.5-4.101563 7.699219-8.5 7.699219zm0 0"/><path d="m280.664062 477.898438c-11.699218-.097657-22.902343-4.5-31.402343-12.597657-3.5-3.199219-3.699219-8.601562-.5-12.101562 3.203125-3.5 8.601562-3.699219 12.101562-.5 11.101563 10.601562 28.601563 10.601562 39.699219 0 2.199219-2.097657 5.402344-2.800781 8.300781-1.800781 2.898438.902343 5.101563 3.300781 5.800781 6.300781.699219 3-.300781 6.101562-2.601562 8.101562-8.5 8-19.699219 12.5-31.398438 12.597657zm0 0"/><path d="m306.261719 396.300781c-1.199219 0-2.5-.300781-3.597657-.800781-14-6.300781-30-6.300781-44 0-4.300781 1.898438-9.300781 0-11.199218-4.199219-2-4.199219-.203125-9.199219 4-11.300781 18.597656-8.398438 39.898437-8.398438 58.398437 0 3.601563 1.699219 5.601563 5.699219 4.699219 9.601562-.800781 3.898438-4.300781 6.699219-8.300781 6.699219zm0 0"/></svg>