<svg height="512pt" viewBox="0 -60 512 512" width="512pt" xmlns="http://www.w3.org/2000/svg"><path d="m256 327.898438h-39.117188c-196.191406-.339844-151.859374-135.5-149.640624-151.796876 45.46875 57.484376 115.042968 90.617188 188.332031 89.683594h.851562c72.476563.902344 141.359375-31.492187 186.882813-87.894531 2.132812 21.078125 2.730468 149.667969-187.308594 150.007813zm0 0" fill="#2296f3"/><path d="m483.753906 167.652344c-2.179687-5.527344-7.074218-9.523438-12.925781-10.550782-5.851563-1.027343-11.8125 1.0625-15.746094 5.515626-.414062.417968-.785156.875-1.109375 1.367187-3.070312 4.351563-6.65625 8.957031-10.664062 13.90625 2.132812 21.078125 2.300781 120.152344-187.734375 120.492187h-.941407c-3.839843 0-7.679687-.085937-11.347656-.171874h-2.304687c-182.1875-5.117188-175.871094-106.238282-173.738281-122.109376-3.5-4.269531-6.484376-8.363281-9.214844-12.117187-3.050782-4.210937-7.839844-6.8125-13.027344-7.078125-5.191406-.261719-10.222656 1.835938-13.683594 5.710938-1.316406 1.480468-2.355468 3.1875-3.070312 5.035156-18.261719 46.507812-41.558594 152.320312 21.84375 210.175781 1.453125 1.363281 2.988281 2.730469 4.609375 4.011719 2.527343 2.066406 6.03125 2.464844 8.960937 1.023437 15.871094-7.425781 72.703125-30.039062 179.539063-31.660156 106.839843 1.621094 163.671875 24.234375 179.542969 31.660156 2.929687 1.441407 6.429687 1.042969 8.960937-1.023437 1.621094-1.28125 3.15625-2.648438 4.605469-4.011719 5.292968 1.960937 9.300781 3.753906 12.03125 5.035156 2.929687 1.441407 6.433594 1.042969 8.960937-1.023437 69.121094-56.832032 45.140625-166.570313 26.453125-214.1875zm0 0" fill="#3f51b5"/><path d="m230.828125 351.117188c4.179687 0 8.359375 0 12.371094.085937-106.835938 1.621094-163.667969 24.234375-179.539063 31.660156-2.929687 1.441407-6.433594 1.042969-8.960937-1.023437-1.621094-1.28125-3.15625-2.648438-4.609375-4.011719 26.285156-10.070313 84.308594-26.710937 179.882812-26.710937zm0 0" fill="#3f51b5"/><path d="m457.300781 381.839844c-2.527343 2.066406-6.03125 2.464844-8.960937 1.023437-2.730469-1.28125-6.738282-3.074219-12.03125-5.035156 63.402344-57.855469 40.105468-163.667969 21.847656-210.175781-.71875-1.847656-1.757812-3.554688-3.074219-5.035156 3.933594-4.453126 9.894531-6.542969 15.746094-5.515626 5.851563 1.027344 10.746094 5.023438 12.925781 10.550782 18.6875 47.617187 42.667969 157.355468-26.453125 214.1875zm0 0" fill="#283593"/><path d="m436.308594 377.828125c-1.449219 1.363281-2.984375 2.730469-4.605469 4.011719-2.53125 2.066406-6.03125 2.464844-8.960937 1.023437-15.871094-7.425781-72.703126-30.039062-179.542969-31.660156 4.011719-.085937 8.191406-.085937 12.375-.085937h.851562c95.574219 0 153.601563 16.640624 179.882813 26.710937zm0 0" fill="#3f51b5"/><path d="m306.859375 33.679688c-11.179687-33.878907-29.78125-26.964844-41.214844-18.261719-3.707031 2.832031-7.082031 6.066406-10.070312 9.640625-1.664063-1.996094-3.460938-3.878906-5.375-5.628906-8.195313-7.765626-24.152344-18.773438-36.78125-3.5-4.152344 5.277343-7.25 11.300781-9.128907 17.75-12.203124 36.949218-68.269531 100.351562-99.160156 133.375 38.757813 41.839843 93.417969 65.308593 150.445313 64.597656 20.488281.09375 40.886719-2.722656 60.585937-8.363282 34.523438-10.195312 65.691406-29.433593 90.28125-55.722656-30.71875-32.851562-87.210937-96.683594-99.582031-133.886718zm0 0" fill="#3f51b5"/><path d="m406.441406 167.566406c-24.589844 26.289063-55.757812 45.527344-90.28125 55.722656 26.652344-11.078124 50.671875-27.652343 70.484375-48.640624-30.804687-32.9375-87.296875-96.765626-99.582031-133.972657-5.804688-17.578125-13.65625-24.148437-21.417969-25.257812 11.433594-8.703125 30.035157-15.617188 41.214844 18.261719 12.371094 37.203124 68.863281 101.035156 99.582031 133.886718zm0 0" fill="#283593"/><path d="m265.644531 15.417969c-3.707031 2.832031-7.082031 6.066406-10.070312 9.640625-1.664063-1.996094-3.460938-3.878906-5.375-5.628906 4.539062-3.0625 9.988281-4.476563 15.445312-4.011719zm0 0" fill="#3f51b5"/><path d="m298.324219 106.382812c-.003907 1.453126-.089844 2.90625-.253907 4.351563-.375 5.738281-1.320312 11.429687-2.816406 16.980469-6.402344 24.320312-21.761718 51.199218-39.679687 51.199218-17.921875 0-33.28125-26.878906-39.679688-51.199218-1.5-5.550782-2.441406-11.242188-2.816406-16.980469-.167969-1.445313-.25-2.898437-.257813-4.351563-1.085937-24.742187 18.019532-45.714843 42.753907-46.933593 24.746093 1.191406 43.867187 22.183593 42.75 46.933593zm0 0" fill="#cfd8dc"/><path d="m255.597656 240.167969c-59.347656.691406-116.230468-23.726563-156.609375-67.226563-3.085937-3.28125-3.085937-8.398437 0-11.679687 53.273438-57.132813 88.746094-104.621094 97.226563-130.269531 6.078125-18.347657 15.273437-28.742188 27.351562-30.882813 12.027344-.890625 23.808594 3.726563 32.03125 12.550781 8.234375-8.8125 20.015625-13.429687 32.042969-12.550781 12.074219 2.140625 21.273437 12.535156 27.308594 30.871094 12.226562 36.839843 72.464843 103.734375 97.738281 130.785156 3.085938 3.300781 3.0625 8.433594-.050781 11.707031-40.664063 43.289063-97.648438 67.492188-157.039063 66.695313zm-138.640625-73.25c36.796875 36.585937 86.757813 56.832031 138.640625 56.183593 51.921875.726563 101.980469-19.320312 139.042969-55.6875-32.914063-35.601562-83.78125-94.59375-95.855469-131.066406-3.839844-11.578125-8.847656-18.488281-14.113281-19.429687-7.59375-1.382813-18.398437 8.476562-22.398437 13.464843-1.621094 2.027344-4.074219 3.203126-6.664063 3.203126-2.601563 0-5.054687-1.1875-6.675781-3.21875-3.992188-4.972657-14.777344-14.847657-22.390625-13.449219-5.265625.941406-10.238281 7.851562-14.105469 19.429687-11.972656 36.113282-62.6875 95.003906-95.480469 130.570313zm0 0"/><path d="m60.023438 392.25c-3.921876.007812-7.730469-1.34375-10.769532-3.824219-32.308594-26.570312-48.878906-65.960937-49.253906-117.09375.335938-36.535156 7.226562-72.710937 20.34375-106.8125 3.457031-8.695312 11.382812-14.8125 20.671875-15.953125 9.289063-1.136718 18.457031 2.882813 23.914063 10.484375 43.40625 62.246094 114.785156 99.003907 190.667968 98.183594h.804688c75.882812.820313 147.261718-35.9375 190.667968-98.183594 5.457032-7.601562 14.628907-11.621093 23.917969-10.480469 9.289063 1.144532 17.214844 7.261719 20.667969 15.957032 13.117188 34.097656 20.007812 70.273437 20.34375 106.804687-.375 51.132813-16.945312 90.523438-49.246094 117.085938-5.097656 4.132812-12.105468 4.988281-18.046875 2.203125-15.515625-7.261719-74.941406-30.984375-188.304687-30.984375-114.167969 0-173.59375 23.722656-189.109375 30.992187-2.273438 1.066406-4.757813 1.621094-7.269531 1.621094zm-15.863282-226.832031c-.363281 0-.722656.023437-1.082031.066406-3.089844.339844-5.722656 2.378906-6.828125 5.28125-20.414062 51.882813-38.339844 153.328125 23.894531 204.46875 16.28125-7.679687 78.617188-32.667969 195.503907-32.667969 117.695312 0 180.054687 24.953125 196.355468 32.597656 62.15625-51.070312 44.226563-152.515624 23.816406-204.390624-1.105468-2.902344-3.738281-4.945313-6.828124-5.289063-3.097657-.417969-6.167969.925781-7.960938 3.480469-46.585938 66.804687-123.195312 106.238281-204.628906 105.335937h-.804688c-81.410156.878907-157.988281-38.550781-204.558594-105.335937-1.554687-2.257813-4.136718-3.589844-6.878906-3.546875zm0 0"/><path d="m255.597656 187.449219c-31.300781 0-51.265625-53.230469-51.265625-81.066407-1.078125-29.445312 21.828125-54.226562 51.265625-55.46875 29.4375 1.242188 52.347656 26.023438 51.269532 55.46875 0 27.835938-19.96875 81.066407-51.269532 81.066407zm0-119.464844c-20.003906 1.25-35.265625 18.382813-34.199218 38.398437 0 25.265626 18.34375 64 34.199218 64 15.855469 0 34.203125-38.734374 34.203125-64 1.0625-20.015624-14.199219-37.148437-34.203125-38.398437zm0 0"/><path d="m238.507812 127.714844h-24.320312c-4.714844 0-8.535156-3.820313-8.535156-8.53125 0-4.714844 3.820312-8.535156 8.535156-8.535156h24.320312c4.710938 0 8.53125 3.820312 8.53125 8.535156 0 4.710937-3.820312 8.53125-8.53125 8.53125zm0 0"/><path d="m297.054688 127.714844h-24.363282c-4.714844 0-8.535156-3.820313-8.535156-8.53125 0-4.714844 3.820312-8.535156 8.535156-8.535156h24.363282c4.710937 0 8.53125 3.820312 8.53125 8.535156 0 4.710937-3.820313 8.53125-8.53125 8.53125zm0 0"/><path d="m255.597656 306.914062c-86.492187 0-145.816406-19.148437-176.332031-56.90625-16.796875-20.3125-24.089844-46.839843-20.042969-72.882812 1.039063-4.542969 5.53125-7.410156 10.089844-6.441406s7.496094 5.417968 6.601562 9.988281c-3.027343 21.132813 3.109376 42.554687 16.859376 58.882813 26.828124 32.902343 83.132812 50.292968 162.824218 50.292968 4.714844 0 8.535156 3.820313 8.535156 8.535156 0 4.710938-3.820312 8.53125-8.535156 8.53125zm0 0"/><path d="m254.632812 306.914062c-4.710937 0-8.53125-3.820312-8.53125-8.53125 0-4.714843 3.820313-8.535156 8.53125-8.535156 79.941407 0 136.332032-17.484375 163.066407-50.566406 13.542969-16.3125 19.585937-37.574219 16.648437-58.574219-.640625-2.980469.359375-6.078125 2.621094-8.121093 2.261719-2.046876 5.441406-2.730469 8.34375-1.792969s5.085938 3.347656 5.726562 6.332031c4.042969 26.042969-3.253906 52.574219-20.054687 72.882812-30.53125 37.757813-89.855469 56.90625-176.351563 56.90625zm0 0"/><path d="m218.847656 145.550781c-1.199218-.011719-2.378906-.273437-3.464844-.769531l-40.167968-17.832031c-2.828125-1.210938-4.785156-3.847657-5.125-6.90625-.335938-3.054688.996094-6.058594 3.488281-7.859375 2.492187-1.800782 5.761719-2.117188 8.558594-.835938l40.171875 17.835938c3.6875 1.636718 5.722656 5.625 4.886718 9.570312-.835937 3.945313-4.316406 6.765625-8.347656 6.761719zm0 0"/><path d="m178.679688 187.449219c-4.039063.007812-7.527344-2.816407-8.363282-6.769531-.835937-3.949219 1.214844-7.941407 4.90625-9.570313l49.316406-21.847656c4.308594-1.90625 9.347657.039062 11.257813 4.347656 1.910156 4.3125-.039063 9.351563-4.347656 11.261719l-49.324219 21.84375c-1.082031.488281-2.257812.738281-3.445312.734375zm0 0"/><path d="m292.359375 145.550781c-4.03125.003907-7.519531-2.8125-8.355469-6.757812-.839844-3.945313 1.199219-7.9375 4.882813-9.574219l40.175781-17.835938c4.308594-1.914062 9.351562.027344 11.265625 4.335938 1.910156 4.308594-.027344 9.351562-4.335937 11.261719l-40.175782 17.800781c-1.085937.496094-2.261718.757812-3.457031.769531zm0 0"/><path d="m332.519531 187.449219c-1.179687-.003907-2.339843-.253907-3.414062-.734375l-49.316407-21.84375c-2.8125-1.21875-4.757812-3.851563-5.09375-6.898438-.335937-3.046875.988282-6.039062 3.46875-7.839844 2.480469-1.800781 5.738282-2.132812 8.53125-.871093l49.320313 21.847656c3.703125 1.628906 5.75 5.636719 4.902344 9.59375-.847657 3.957031-4.355469 6.773437-8.398438 6.746094zm0 0"/><path d="m76.101562 349.582031c-1.847656 0-3.644531-.597656-5.121093-1.707031-37.164063-27.835938-37.589844-81.355469-37.589844-83.625 0-4.714844 3.820313-8.535156 8.535156-8.535156 4.710938 0 8.53125 3.820312 8.53125 8.535156 0 .46875.496094 47.308594 30.773438 69.972656 2.9375 2.203125 4.136719 6.039063 2.972656 9.523438-1.160156 3.484375-4.421875 5.835937-8.09375 5.835937zm0 0"/><path d="m435.097656 349.582031c-3.671875 0-6.933594-2.351562-8.09375-5.835937-1.164062-3.484375.035156-7.320313 2.972656-9.523438 30.421876-22.785156 30.773438-69.503906 30.773438-69.972656 0-4.714844 3.820312-8.535156 8.53125-8.535156 4.714844 0 8.535156 3.820312 8.535156 8.535156 0 2.269531-.4375 55.789062-37.617187 83.625-1.46875 1.109375-3.261719 1.707031-5.101563 1.707031zm0 0"/></svg>