<svg height="512pt" viewBox="0 0 512 512.05608" width="512pt" xmlns="http://www.w3.org/2000/svg"><path d="m153.628906 22.429688v23.484374c.292969 4.011719 3.574219 7.152344 7.59375 7.269532l69.207032 6.589844v-51.203126l-69.207032 6.589844c-4.019531.117188-7.300781 3.257813-7.59375 7.269532zm0 0" fill="#f44335"/><path d="m93.894531 228.1875c-31.457031 27.535156-49.996093 66.953125-51.140625 108.746094-.019531 1.167968.425782 2.292968 1.242188 3.125.8125.832031 1.929687 1.308594 3.09375 1.3125h46.804687zm0 0" fill="#fec108"/><path d="m333 328.65625c-2.671875 8.542969-6.289062 16.761719-10.785156 24.5-1.136719 1.933594-3.566406 2.675781-5.589844 1.707031-14.226562-6.828125-71.679688-30.335937-167.210938-18.363281-1.777343.167969-3.46875-.785156-4.246093-2.390625-.777344-1.605469-.472657-3.523437.761719-4.8125 46.738281-49.492187 18.230468-99.769531 5.207031-117.65625-.96875-1.292969-1.125-3.023437-.402344-4.46875s2.199219-2.359375 3.816406-2.359375h154.050781c1.441407-.011719 2.785157.710938 3.566407 1.921875 3.230469 5.113281 6.167969 10.40625 8.800781 15.855469 11.007812 22.441406 25.34375 63.316406 12.03125 106.066406" fill="#ffeb3a"/><path d="m443.761719 375.503906h-79.703125c-5.804688 0-11.207032 2.960938-14.335938 7.851563l-17.578125 27.050781c-3.078125 4.84375-8.421875 7.777344-14.164062 7.765625h-87.210938c-7.21875-.160156-13.582031-4.785156-15.957031-11.605469-6.632812-12.953125-17.460938-23.273437-30.71875-29.269531-2.328125-1.183594-4.902344-1.796875-7.511719-1.792969h-96.085937c-2.121094.03125-3.917969 1.578125-4.265625 3.671875-7.695313 39.332031 8.613281 79.488281 41.558593 102.3125h.085938l18.6875 15.617188h245.84375l8.191406-17.664063c54.785156-38.058594 53.164063-103.9375 53.164063-103.9375zm0 0" fill="#3f51b5"/><path d="m390.597656 479.441406-8.191406 17.664063h-23.464844l8.191406-17.664063c54.785157-38.058594 53.164063-103.9375 53.164063-103.9375h23.464844s1.621093 65.878906-53.164063 103.9375zm0 0" fill="#283593"/><path d="m459.207031 337.445312c-.25 2.222657-2.117187 3.90625-4.351562 3.925782h-81.921875c-1.375-.027344-2.652344-.714844-3.429688-1.851563-.777344-1.132812-.960937-2.570312-.496094-3.863281 13.625-37.636719 13.773438-78.832031.429688-116.566406-.511719-1.292969-.347656-2.757813.441406-3.902344.785156-1.148438 2.09375-1.828125 3.484375-1.816406h46.589844c1.304687-.019532 2.542969.582031 3.328125 1.621094 26.445312 35.101562 39.214844 78.628906 35.925781 122.453124zm0 0" fill="#fec108"/><path d="m434.460938 337.445312c-.25 2.222657-2.117188 3.90625-4.351563 3.925782h-57.175781c-1.375-.027344-2.652344-.714844-3.429688-1.851563-.777344-1.132812-.960937-2.570312-.496094-3.863281 13.625-37.636719 13.773438-78.832031.429688-116.566406-.511719-1.292969-.347656-2.757813.441406-3.902344.785156-1.148438 2.09375-1.828125 3.484375-1.816406h21.84375c1.324219-.003906 2.582031.59375 3.414063 1.621094 26.367187 35.136718 39.101562 78.644531 35.839844 122.453124zm0 0" fill="#ffeb3a"/><path d="m187.335938 93.90625h85.597656c.878906 0 1.738281.269531 2.457031.777344 6.050781 4.265625 33.101563 25.921875 26.914063 72.292968-.308594 2.125-2.121094 3.707032-4.265626 3.730469h-131.390624c-1.695313-.015625-3.226563-1.035156-3.890626-2.597656-.667968-1.5625-.339843-3.375.828126-4.605469 16.363281-17.28125 23.613281-41.265625 19.566406-64.71875-.175782-1.21875.183594-2.453125.984375-3.390625.800781-.933593 1.964843-1.476562 3.199219-1.488281zm0 0" fill="#fec108"/><path d="m179.226562 435.238281c0 9.425781-7.640624 17.066407-17.066406 17.066407-9.425781 0-17.066406-7.640626-17.066406-17.066407s7.640625-17.066406 17.066406-17.066406c9.425782 0 17.066406 7.640625 17.066406 17.066406zm0 0" fill="#283593"/><path d="m494.363281 495.953125-15.792969-13.074219c-9.46875-7.832031-23.171874-7.832031-32.640624 0l-8.601563 7.117188c-9.46875 7.835937-23.171875 7.835937-32.640625 0l-8.601562-7.117188c-9.472657-7.839844-23.175782-7.839844-32.648438 0l-8.601562 7.117188c-9.46875 7.835937-23.171876 7.835937-32.640626 0l-8.601562-7.117188c-9.46875-7.832031-23.171875-7.832031-32.640625 0l-8.601563 7.117188c-9.46875 7.839844-23.175781 7.839844-32.648437 0l-8.601563-7.117188c-9.46875-7.832031-23.167968-7.832031-32.640624 0l-8.601563 7.117188c-9.46875 7.835937-23.167969 7.835937-32.636719 0l-8.601562-7.117188c-9.472656-7.839844-23.179688-7.839844-32.648438 0l-8.601562 7.117188c-9.472656 7.835937-23.171875 7.835937-32.640625 0l-8.601563-7.117188c-9.46875-7.832031-23.171875-7.832031-32.640625 0l-15.796875 13.074219c-1.382812 1.148437-1.898437 3.039063-1.292968 4.726563.609374 1.691406 2.210937 2.820312 4.007812 2.824218h471.246094c1.796875-.003906 3.398437-1.132812 4.003906-2.824218.609375-1.6875.09375-3.578126-1.292969-4.726563zm0 0" fill="#00bcd4"/><path d="m503.496094 102.4375c0 14.140625-11.460938 25.601562-25.601563 25.601562h-119.464843c-12.839844.058594-23.71875-9.433593-25.40625-22.160156-1.691407-12.726562 6.339843-24.722656 18.75-28.015625-3.203126-7.886719-2.265626-16.847656 2.492187-23.898437 4.761719-7.054688 12.71875-11.277344 21.230469-11.257813 3.683594.03125 7.320312.84375 10.664062 2.386719 5.15625-17.113281 18.820313-30.324219 36.097656-34.902344 4.242188-1.054687 8.597657-1.601562 12.96875-1.621094 28.277344 0 51.203126 22.925782 51.203126 51.203126-.035157 6.023437-1.105469 12-3.160157 17.664062 11.789063 2.53125 20.214844 12.945312 20.226563 25zm0 0" fill="#607d8b"/><path d="m477.894531 102.4375c0 14.140625-11.460937 25.601562-25.597656 25.601562h-93.867187c-12.839844.058594-23.71875-9.433593-25.40625-22.160156-1.691407-12.726562 6.339843-24.722656 18.75-28.015625-3.203126-7.886719-2.265626-16.847656 2.492187-23.898437 4.761719-7.054688 12.71875-11.277344 21.230469-11.257813 3.683594.03125 7.320312.84375 10.664062 2.386719 5.15625-17.113281 18.820313-30.324219 36.097656-34.902344 22.695313 5.742188 38.589844 26.171875 38.570313 49.582032-.035156 6.023437-1.101563 12-3.15625 17.664062 11.789063 2.53125 20.210937 12.945312 20.222656 25zm0 0" fill="#cfd8dc"/><path d="m320.105469 365.179688c-1.484375.003906-2.941407-.386719-4.222657-1.125-.609374-.332032-63.566406-34.917969-178.023437-17.324219-3.746094.574219-7.425781-1.394531-9.027344-4.828125-1.601562-3.4375-.742187-7.519532 2.105469-10.019532 20.25-17.730468 31.070312-37.402343 32.164062-58.460937-.089843-23.089844-8.488281-45.371094-23.664062-62.773437-2.3125-2.484376-2.929688-6.109376-1.574219-9.21875 1.359375-3.113282 4.433594-5.125 7.828125-5.125h165.207032c2.78125 0 5.390624 1.355468 6.988281 3.636718 4.03125 6.03125 7.621093 12.347656 10.742187 18.902344 10.847656 22.109375 26.914063 66.132812 12.519532 112.347656-3.300782 10.539063-7.9375 20.609375-13.796876 29.96875-1.558593 2.5-4.300781 4.019532-7.246093 4.019532zm-118.296875-40.585938c39.332031-1.007812 78.449218 6.105469 114.910156 20.890625 3.316406-6.183594 6.039062-12.671875 8.132812-19.371094 12.636719-40.566406-1.8125-79.921875-11.546874-99.761719-2.773438-5.691406-5.324219-10.128906-7.066407-12.980468h-143.597656c11.933594 18.039062 18.042969 39.308594 17.5 60.929687-1.179687 19.25-8.441406 37.628907-20.734375 52.488281 14.085938-1.445312 28.238281-2.179687 42.402344-2.195312zm0 0"/><path d="m230.429688 68.304688c-.265626 0-.539063 0-.8125 0l-69.160157-6.628907c-8.4375-.480469-15.105469-7.328125-15.363281-15.769531v-23.46875c.253906-8.425781 6.894531-15.265625 15.308594-15.769531l69.214844-6.6289065c2.402343-.2304685 4.785156.5664065 6.566406 2.1914065 1.78125 1.628906 2.789062 3.929687 2.777344 6.339843v51.203126c0 4.710937-3.820313 8.53125-8.53125 8.53125zm-68.269532-23.671876 59.734375 5.753907v-32.429688l-59.734375 5.691407zm0 0"/><path d="m117.875 490.023438h-.085938c-1.828124-.011719-3.605468-.609376-5.070312-1.707032-36.664062-25.542968-54.179688-70.769531-44.289062-114.347656.742187-4.054688 4.277343-7 8.398437-6.996094h99.753906c3.976563-.011718 7.898438.929688 11.4375 2.746094 15.144531 6.914062 27.421875 18.875 34.730469 33.835938 1.15625 3.492187 4.34375 5.910156 8.019531 6.082031h87.210938c2.808593.003906 5.425781-1.425781 6.945312-3.785157l17.648438-27.144531c4.707031-7.304687 12.796875-11.722656 21.484375-11.734375h79.703125c4.632812-.003906 8.421875 3.695313 8.535156 8.328125.066406 2.867188 1.066406 70.9375-56.832031 111.144531-2.5 1.859376-5.816406 2.210938-8.648438.914063-2.832031-1.296875-4.730468-4.035156-4.957031-7.140625-.226563-3.109375 1.261719-6.089844 3.875-7.785156 28.390625-20.960938 46.285156-53.214844 49.050781-88.394532h-70.726562c-2.875-.003906-5.558594 1.453126-7.113282 3.875l-17.648437 27.144532c-4.625 7.292968-12.679687 11.695312-21.316406 11.648437h-87.210938c-10.703125-.160156-20.199219-6.894531-23.894531-16.941406-5.867188-10.976563-15.207031-19.703125-26.554688-24.824219-1.15625-.59375-2.4375-.902344-3.738281-.902344h-92.441406c-5.8125 35.019532 9.15625 70.242188 38.402344 90.367188 3.105469 2.085938 4.488281 5.953125 3.414062 9.535156-1.074219 3.582032-4.359375 6.046875-8.101562 6.082032zm0 0"/><path d="m93.894531 349.90625h-51.199219c-4.714843 0-8.535156-3.820312-8.535156-8.535156-.222656-46.019532 19.6875-89.832032 54.503906-119.925782 2.574219-1.996093 6.058594-2.355468 8.984376-.921874 2.925781 1.433593 4.78125 4.40625 4.78125 7.664062v113.183594c0 2.265625-.898438 4.433594-2.5 6.035156-1.601563 1.601562-3.769532 2.5-6.035157 2.5zm-42.417969-17.066406h33.886719v-83.953125c-20.054687 23.597656-31.941406 53.046875-33.886719 83.953125zm0 0"/><path d="m458.738281 349.90625h-91.777343c-2.796876 0-5.421876-1.371094-7.015626-3.671875-1.597656-2.300781-1.960937-5.234375-.980468-7.859375 15.738281-38.832031 15.871094-82.242188.367187-121.171875-1.328125-2.644531-1.191406-5.792969.363281-8.3125 1.554688-2.519531 4.304688-4.054687 7.265626-4.050781h55.066406c2.519531 0 4.90625 1.109375 6.527344 3.035156 29.738281 38.199219 43.582031 86.398438 38.648437 134.554688-.535156 4.269531-4.164063 7.472656-8.464844 7.476562zm-79.828125-17.066406h72.105469c1.929687-39.683594-9.78125-78.828125-33.179687-110.933594h-38.347657c11.363281 36.136719 11.160157 74.917969-.578125 110.933594zm0 0"/><path d="m301.75 179.238281h-146.839844c-3.835937-.003906-7.199218-2.5625-8.222656-6.261719-1.019531-3.699218.550781-7.621093 3.84375-9.59375 1.246094-.765624 31.574219-20.019531 23.492188-68.070312-.414063-2.472656.28125-5.003906 1.902343-6.921875 1.621094-1.914063 4.003907-3.019531 6.511719-3.019531h91.777344c1.542968 0 3.058594.417968 4.382812 1.210937 1.707032 1.015625 41.59375 25.601563 31.574219 85.53125-.6875 4.113281-4.25 7.128907-8.421875 7.125zm-125.679688-17.066406h118.195313c3.542969-22.527344-5.089844-45.246094-22.699219-59.734375h-79.460937c2.429687 21.226562-3.300781 42.582031-16.035157 59.734375zm0 0"/><path d="m230.429688 423.976562c-4.714844 0-8.535157-3.824218-8.535157-8.535156v-80.894531c0-4.714844 3.820313-8.535156 8.535157-8.535156 4.710937 0 8.53125 3.820312 8.53125 8.535156v80.894531c0 4.710938-3.820313 8.535156-8.53125 8.535156zm0 0"/><path d="m230.429688 102.4375c-4.714844 0-8.535157-3.820312-8.535157-8.53125v-34.132812c0-4.714844 3.820313-8.535157 8.535157-8.535157 4.710937 0 8.53125 3.820313 8.53125 8.535157v34.132812c0 4.710938-3.820313 8.53125-8.53125 8.53125zm0 0"/><path d="m230.429688 213.371094c-4.714844 0-8.535157-3.820313-8.535157-8.53125v-34.132813c0-4.714843 3.820313-8.535156 8.535157-8.535156 4.710937 0 8.53125 3.820313 8.53125 8.535156v34.132813c0 4.710937-3.820313 8.53125-8.53125 8.53125zm0 0"/><path d="m396.265625 384.039062c-4.714844 0-8.535156-3.820312-8.535156-8.535156v-34.132812c0-4.710938 3.820312-8.53125 8.535156-8.53125 4.710937 0 8.53125 3.820312 8.53125 8.53125v34.132812c0 4.714844-3.820313 8.535156-8.53125 8.535156zm0 0"/><path d="m396.265625 221.90625c-4.714844 0-8.535156-3.820312-8.535156-8.535156v-25.597656c0-4.714844 3.820312-8.535157 8.535156-8.535157 4.710937 0 8.53125 3.820313 8.53125 8.535157v25.597656c0 4.714844-3.820313 8.535156-8.53125 8.535156zm0 0"/><path d="m93.894531 384.039062c-4.710937 0-8.53125-3.820312-8.53125-8.535156v-162.132812c0-4.710938 3.820313-8.53125 8.53125-8.53125 4.714844 0 8.535157 3.820312 8.535157 8.53125v162.132812c0 4.714844-3.820313 8.535156-8.535157 8.535156zm0 0"/><path d="m162.160156 460.839844c-14.136718 0-25.597656-11.460938-25.597656-25.601563 0-14.136719 11.460938-25.601562 25.597656-25.601562 14.140625 0 25.601563 11.464843 25.601563 25.601562 0 14.140625-11.460938 25.601563-25.601563 25.601563zm0-34.132813c-4.710937 0-8.53125 3.820313-8.53125 8.53125 0 4.714844 3.820313 8.535157 8.53125 8.535157 4.714844 0 8.535156-3.820313 8.535156-8.535157 0-4.710937-3.820312-8.53125-8.535156-8.53125zm0 0"/><path d="m486.429688 384.039062h-68.269532c-4.710937 0-8.53125-3.820312-8.53125-8.535156 0-4.710937 3.820313-8.53125 8.53125-8.53125h68.269532c4.710937 0 8.53125 3.820313 8.53125 8.53125 0 4.714844-3.820313 8.535156-8.53125 8.535156zm0 0"/><path d="m503.496094 512.039062c-1.988282 0-3.914063-.6875-5.445313-1.953124l-24.917969-20.625c-6.3125-5.226563-15.445312-5.226563-21.757812 0l-8.601562 7.117187c-12.632813 10.425781-30.886719 10.425781-43.523438 0l-8.601562-7.117187c-6.3125-5.226563-15.445313-5.226563-21.757813 0l-8.601563 7.117187c-12.632812 10.425781-30.886718 10.425781-43.519531 0l-8.601562-7.117187c-6.3125-5.226563-15.449219-5.226563-21.761719 0l-8.601562 7.117187c-12.632813 10.425781-30.886719 10.425781-43.519532 0l-8.601562-7.117187c-6.3125-5.226563-15.445313-5.226563-21.757813 0l-8.601562 7.117187c-12.636719 10.425781-30.890625 10.425781-43.523438 0l-8.601562-7.117187c-6.3125-5.226563-15.445313-5.226563-21.757813 0l-8.601562 7.117187c-12.632813 10.425781-30.886719 10.425781-43.519532 0l-8.601562-7.117187c-6.3125-5.226563-15.449219-5.226563-21.761719 0l-24.917969 20.625c-3.632812 3.015624-9.023437 2.515624-12.039062-1.121094-3.015625-3.632813-2.515625-9.023438 1.117188-12.039063l24.925781-20.625c12.632812-10.421875 30.886719-10.421875 43.519531 0l8.601562 7.117188c6.3125 5.222656 15.449219 5.222656 21.761719 0l8.601563-7.117188c12.632812-10.425781 30.886718-10.425781 43.519531 0l8.601563 7.117188c6.3125 5.222656 15.445312 5.222656 21.757812 0l8.601562-7.117188c12.636719-10.425781 30.890626-10.425781 43.523438 0l8.601562 7.117188c6.3125 5.222656 15.445313 5.222656 21.757813 0l8.601563-7.117188c12.632812-10.425781 30.886718-10.425781 43.519531 0l8.601562 7.117188c6.3125 5.222656 15.449219 5.222656 21.761719 0l8.601562-7.117188c12.632813-10.425781 30.886719-10.425781 43.519532 0l8.601562 7.117188c6.3125 5.222656 15.445313 5.222656 21.761719 0l8.601563-7.117188c12.632812-10.425781 30.886718-10.425781 43.519531 0l24.925781 20.625c2.769531 2.289063 3.808594 6.070313 2.597656 9.457031-1.210937 3.382813-4.414062 5.644532-8.007812 5.65625zm0 0"/><path d="m477.894531 136.570312h-119.464843c-15.503907.03125-29.074219-10.410156-33.015626-25.402343-3.941406-14.996094 2.738282-30.761719 16.253907-38.355469-.203125-1.496094-.304688-3-.304688-4.507812 0-18.851563 15.28125-34.132813 34.132813-34.132813 1.863281.003906 3.722656.160156 5.5625.46875 11.808594-25.40625 39.683594-39.191406 67.039062-33.15625 27.355469 6.035156 46.84375 30.273437 46.863282 58.289063 0 4.171874-.445313 8.328124-1.332032 12.40625 13.925782 7.269531 21.09375 23.101562 17.363282 38.363281-3.726563 15.257812-17.390626 26-33.097657 26.027343zm-102.398437-85.332031c-5.675782-.023437-10.984375 2.78125-14.160156 7.484375-3.171876 4.703125-3.789063 10.679688-1.644532 15.929688.90625 2.261718.800782 4.804687-.285156 6.984375-1.089844 2.179687-3.054688 3.789062-5.40625 4.425781-8.265625 2.199219-13.609375 10.191406-12.488281 18.667969 1.125 8.476562 8.367187 14.804687 16.917969 14.773437h119.464843c8.703125-.035156 15.984375-6.617187 16.902344-15.269531.914063-8.65625-4.832031-16.613281-13.335937-18.46875-2.417969-.515625-4.496094-2.058594-5.691407-4.222656-1.195312-2.167969-1.390625-4.746094-.535156-7.066407 5.683594-14.671874 2.828125-31.28125-7.421875-43.21875-10.253906-11.933593-26.246094-17.257812-41.605469-13.851562-15.363281 3.410156-27.601562 14.996094-31.84375 30.144531-.707031 2.371094-2.410156 4.320313-4.664062 5.335938-2.253907 1.019531-4.839844 1.007812-7.085938-.027344-2.226562-1.050781-4.65625-1.605469-7.117187-1.621094zm0 0"/></svg>