<svg height="512pt" viewBox="0 0 512 512.12535" width="512pt" xmlns="http://www.w3.org/2000/svg"><path d="m98.648438 232.230469c-17.355469 11.953125-35.421876 22.839843-54.101563 32.597656-1.582031.871094-3.539063.667969-4.910156-.511719-1.367188-1.179687-1.859375-3.082031-1.234375-4.777344 11.949218-31.0625 21.417968-59.222656 21.417968-59.222656-28.671874 0-34.898437-7.933594-48.46875-13.3125-1.726562-.660156-2.832031-2.359375-2.734374-4.207031.097656-1.847656 1.375-3.421875 3.160156-3.898437 10.839844-3.15625 28.503906-8.105469 49.410156-13.3125 12.761719-3.214844 25.945312-4.453126 39.082031-3.667969" fill="#f44335"/><path d="m287.320312 465.449219c-15.1875 1.195312-30.464843 1.621093-45.738281 1.363281-8.449219-.253906-16.894531-.683594-25.257812-1.363281-34.390625-2.730469-56.152344-31.832031-49.324219-59.136719.425781-1.621094.769531-3.242188 1.109375-4.777344 1.191406-4.886718 5.191406-8.585937 10.15625-9.386718h4.519531l116.3125.253906h20.5625c.429688-.085938.855469-.171875 1.195313-.253906 6.601562-1.230469 13.023437 2.875 14.679687 9.386718.339844 1.535156.679688 3.15625 1.109375 4.777344 6.824219 27.304688-14.933593 56.40625-49.324219 59.136719zm0 0" fill="#607d8b"/><path d="m266.753906 465.449219c-8.445312.679687-16.808594 1.109375-25.171875 1.363281-8.449219-.253906-16.894531-.683594-25.257812-1.363281-34.390625-2.730469-56.152344-31.832031-49.324219-59.136719.425781-1.621094.769531-3.242188 1.109375-4.777344 1.191406-4.886718 5.191406-8.585937 10.15625-9.386718h4.519531l116.3125.253906h.167969l1.027344-.253906c1.785156-.34375 3.628906-.257813 5.375.253906h.085937c4.5625 1.035156 8.136719 4.578125 9.214844 9.132812.339844 1.535156.683594 3.15625 1.023438 4.777344 6.914062 27.304688-14.933594 56.40625-49.238282 59.136719zm0 0" fill="#cfd8dc"/><path d="m500.738281 435.070312c-3.824219-6.996093-10.777343-11.726562-18.6875-12.714843-1.902343-.171875-3.816406-.171875-5.71875 0-8.460937.824219-16.851562-2.179688-22.867187-8.191407l-32.339844-31.660156-13.570312-13.738281-296.53125-300.117187-7.339844-7.167969-5.546875-5.632813-.171875-.171875c-4.886719-5.613281-7.257813-12.984375-6.570313-20.394531 1.183594-9.910156-4.015625-19.488281-12.96875-23.890625-6.953125-3.621094-15.234375-3.621094-22.1875 0-6.097656 3.011719-10.59375 8.507813-12.34375 15.082031-1.75 6.570313-.578125 13.574219 3.210938 19.21875.929687 1.304688 1.953125 2.53125 3.074219 3.671875-1.132813-1.140625-2.390626-2.140625-3.753907-2.988281-5.753906-3.746094-12.8125-4.910156-19.464843-3.207031-6.648438 1.703125-12.28125 6.117187-15.523438 12.167969-2.261719 4.015624-3.1875 8.648437-2.644531 13.226562.289062 3.023438 1.191406 5.953125 2.644531 8.617188 4.800781 8.800781 14.445312 13.824218 24.40625 12.714843 8.464844-.824219 16.851562 2.183594 22.867188 8.195313l7.511718 7.335937 294.65625 298.242188 8.105469 7.933593 13.226563 13.398438 11.347656 11.09375 18.773437 18.429688c6.089844 5.804687 9.203125 14.066406 8.449219 22.445312-.210938 1.699219-.210938 3.417969 0 5.121094 1.054688 9.894531 8.085938 18.125 17.695312 20.71875 9.609376 2.589844 19.824219-.992188 25.714844-9.019532 5.886719-8.023437 6.234375-18.84375.878906-27.230468-.925781-1.304688-1.953124-2.53125-3.074218-3.671875 1.132812 1.140625 2.394531 2.140625 3.757812 2.988281 5.75 3.746094 12.808594 4.910156 19.460938 3.207031 6.648437-1.703125 12.28125-6.117187 15.523437-12.167969 3.757813-6.796874 3.757813-15.046874 0-21.84375zm0 0" fill="#607d8b"/><path d="m391 433.191406c.921875.90625 1.777344 1.875 2.558594 2.902344l-11.347656-11.09375-13.226563-13.398438zm0 0" fill="#607d8b"/><path d="m111.023438 68.648438 296.53125 300.117187-7.765626-7.59375-296.105468-299.691406zm0 0" fill="#607d8b"/><path d="m500.738281 456.914062c-3.242187 6.050782-8.875 10.464844-15.523437 12.167969-6.652344 1.703125-13.710938.539063-19.460938-3.207031-1.363281-.847656-2.625-1.847656-3.757812-2.988281 1.121094 1.140625 2.148437 2.367187 3.074218 3.671875 5.296876 8.378906 4.917969 19.152344-.960937 27.140625-5.875 7.984375-16.050781 11.554687-25.628906 8.988281-9.578125-2.570312-16.601563-10.742188-17.699219-20.597656 4.761719.621094 9.601562-.273438 13.824219-2.5625 6.097656-3.011719 10.59375-8.511719 12.34375-15.082032 1.75-6.570312.578125-13.578124-3.210938-19.222656-.929687-1.300781-1.957031-2.527344-3.074219-3.667968 1.132813 1.136718 2.390626 2.140624 3.753907 2.988281 5.753906 3.746093 12.8125 4.90625 19.460937 3.203125 6.652344-1.703125 12.285156-6.113282 15.527344-12.164063 2.261719-4.015625 3.1875-8.648437 2.644531-13.226562 7.910157.988281 14.863281 5.71875 18.6875 12.714843 3.757813 6.796876 3.757813 15.046876 0 21.84375zm0 0" fill="#37474f"/><g fill="#607d8b"><path d="m99.84375 57.726562c-.613281-.585937-1.183594-1.214843-1.707031-1.878906l5.546875 5.632813zm0 0"/><path d="m368.984375 411.601562-8.105469-7.933593-294.65625-298.242188 7.421875 7.253907zm0 0"/><path d="m500.738281 55.335938c-3.242187-6.050782-8.875-10.464844-15.523437-12.167969-6.652344-1.703125-13.710938-.539063-19.460938 3.207031-1.363281.847656-2.625 1.847656-3.757812 2.988281 1.121094-1.140625 2.148437-2.367187 3.074218-3.671875 5.296876-8.378906 4.917969-19.152344-.960937-27.140625-5.875-7.984375-16.050781-11.554687-25.628906-8.984375-9.578125 2.566406-16.601563 10.742188-17.699219 20.597656-.210938 1.699219-.210938 3.417969 0 5.117188.753906 8.378906-2.359375 16.640625-8.449219 22.445312l-11.175781 10.921876-8.277344 8.363281c0 .046875-.039062.085937-.085937.085937l-5.972657 5.972656-7 6.910157-304.042968 307.457031-17.066406 16.726562c-6.015626 6.011719-14.402344 9.015626-22.867188 8.191407-9.960938-1.109375-19.605469 3.914062-24.40625 12.714843-1.453125 2.664063-2.355469 5.59375-2.644531 8.617188-.542969 4.578125.382812 9.210938 2.644531 13.226562 3.242188 6.050782 8.875 10.464844 15.523438 12.167969 6.652343 1.703125 13.710937.539063 19.464843-3.207031 1.363281-.847656 2.621094-1.847656 3.753907-2.988281-1.121094 1.140625-2.144532 2.367187-3.074219 3.671875-3.789063 5.644531-4.960938 12.648437-3.210938 19.222656 1.75 6.570312 6.246094 12.066406 12.34375 15.078125 6.953125 3.625 15.234375 3.625 22.1875 0 8.953125-4.402344 14.152344-13.980469 12.96875-23.890625-.675781-6.96875 1.40625-13.921875 5.804688-19.371094l9.386719-9.214844 13.566406-13.738281 7.765625-7.597656 296.617187-300.285156 13.996094-14.082031 14.933594-14.589844c6.015625-6.011719 14.40625-9.019532 22.867187-8.195313 1.902344.171875 3.816407.171875 5.71875 0 7.910157-.988281 14.863281-5.71875 18.6875-12.714843 3.757813-6.796876 3.757813-15.046876 0-21.84375zm0 0"/><path d="m391 79.058594-4.179688 4.011718 5.972657-5.972656c-.550781.691406-1.152344 1.347656-1.792969 1.960938zm0 0"/><path d="m417.199219 134.011719 7.335937-7.25-296.617187 300.285156-7.765625 7.597656zm0 0"/></g><path d="m500.738281 77.179688c-3.824219 6.996093-10.777343 11.726562-18.6875 12.714843.542969-4.578125-.382812-9.207031-2.644531-13.226562-3.242188-6.046875-8.875-10.460938-15.527344-12.164063-6.648437-1.703125-13.707031-.539062-19.460937 3.207032-1.363281.84375-2.621094 1.847656-3.753907 2.984374 1.117188-1.140624 2.144532-2.367187 3.074219-3.667968 3.789063-5.644532 4.960938-12.652344 3.210938-19.222656-1.75-6.570313-6.246094-12.066407-12.34375-15.082032-4.222657-2.289062-9.0625-3.183594-13.824219-2.558594 1.054688-9.898437 8.085938-18.128906 17.695312-20.722656 9.609376-2.589844 19.824219.992188 25.714844 9.019532 5.886719 8.023437 6.234375 18.84375.878906 27.230468-.925781 1.304688-1.953124 2.53125-3.074218 3.671875 1.132812-1.140625 2.394531-2.140625 3.757812-2.988281 5.75-3.746094 12.808594-4.910156 19.460938-3.207031 6.648437 1.703125 12.28125 6.117187 15.523437 12.167969 3.757813 6.796874 3.757813 15.046874 0 21.84375zm0 0" fill="#37474f"/><path d="m99.84375 454.523438 20.308594-19.878907-13.566406 13.738281-9.386719 9.214844c.789062-1.101562 1.671875-2.128906 2.644531-3.074218zm0 0" fill="#607d8b"/><path d="m386.820312 83.070312-303.53125 307.027344-7.511718 7.339844 304.042968-307.457031zm0 0" fill="#607d8b"/><path d="m377.433594 298.792969c9.640625 38.058593-9.730469 38.058593-38.828125 38.058593-1.195313 0-2.304688.085938-3.414063.167969-1.109375.085938-1.960937.171875-2.898437.34375-22.785157 3.839844-22.101563 29.523438-13.144531 47.101563.972656 1.566406 1.128906 3.503906.429687 5.207031-5.632813 13.824219-68.355469 13.824219-68.355469 13.824219s-4.605468 0-11.433594-.339844h-.085937c-.21875.085938-.460937.085938-.679687 0-18.605469-.769531-52.140626-3.585938-56.152344-13.484375-.699219-1.703125-.542969-3.640625.429687-5.207031 9.726563-19.027344 9.726563-47.613282-19.371093-47.613282-6.777344.140626-13.558594-.085937-20.3125-.683593-16.980469-1.878907-25.769532-9.128907-18.515626-37.375 7.851563-30.890625-22.527343-36.695313-29.097656-78.335938 10.582032-7.425781 52.136719-74.921875 166.398438-79.445312 47.441406-.828125 94.6875 6.296875 139.777344 21.078125 1.949218 7.402344 3.402343 14.929687 4.351562 22.527344 9.640625 76.117187-38.828125 76.117187-29.097656 114.175781zm0 0" fill="#607d8b"/><path d="m353.710938 298.792969c7.167968 28.246093-1.707032 35.496093-18.605469 37.375l-2.898438.257812c-5.207031.425781-11.007812.425781-17.324219.425781-29.183593 0-29.183593 28.585938-19.457031 47.613282.972657 1.566406 1.128907 3.503906.429688 5.207031-4.011719 9.898437-37.464844 12.714844-56.066407 13.484375h-.085937c-.21875.085938-.460937.085938-.679687 0-18.605469-.769531-52.140626-3.585938-56.152344-13.484375-.699219-1.703125-.542969-3.640625.429687-5.207031 9.726563-19.027344 9.726563-47.613282-19.371093-47.613282-6.777344.140626-13.558594-.085937-20.3125-.683593-16.980469-1.878907-25.769532-9.128907-18.515626-37.375 7.851563-30.890625-22.527343-36.695313-29.097656-78.335938 10.582032-7.425781 52.136719-74.921875 166.398438-79.445312 39.4375 1.941406 78.453125 9.023437 116.054687 21.078125 1.949219 7.402344 3.402344 14.929687 4.351563 22.527344 9.640625 76.117187-38.828125 76.117187-29.097656 114.175781zm0 0" fill="#cfd8dc"/><path d="m218.175781 236.082031c5.351563 2.570313 9.449219 7.179688 11.375 12.796875 4.4375 13.886719-7.332031 29.800782-26.128906 35.585938-18.800781 5.785156-37.804687-.855469-42.242187-14.753906-4.042969-12.535157 5.207031-26.8125 21.121093-33.65625 9.125 6.003906 20.691407 6.902343 30.632813 2.382812zm0 0" fill="#37474f"/><path d="m342.460938 269.777344c-4.433594 13.886718-23.335938 20.539062-42.144532 14.753906s-30.660156-21.699219-26.222656-35.582031c1.929688-5.644531 6.070312-10.265625 11.46875-12.800781l7.371094 3.15625c9.367187 4.027343 20.15625 2.828124 28.410156-3.15625 15.914062 6.777343 25.199219 21.050781 21.117188 33.628906zm0 0" fill="#37474f"/><path d="m270.644531 321.722656c-.21875 10.558594-8.84375 19.003906-19.40625 19.003906s-19.1875-8.445312-19.410156-19.003906c0-10.515625 8.6875-28.554687 19.40625-28.554687 10.714844 0 19.410156 18.039062 19.410156 28.554687zm0 0" fill="#37474f"/><path d="m402.179688 162.089844c-9.046876-.34375-17.921876-.597656-26.539063-.683594-7.9375-.085938-15.785156-.085938-23.382813.085938-167.335937 2.132812-243.453124 49.917968-256.253906 58.964843-.816406-4.734375-1.214844-9.53125-1.195312-14.335937-.199219-7.191406.199218-14.382813 1.195312-21.503906 9.128906-72.363282 62.207032-142.847657 142.25-149.761719 4.3125-.414063 8.640625-.613281 12.96875-.597657 60.929688 0 107.777344 36.097657 133.71875 83.882813 1.707032 3.074219 3.242188 6.230469 4.777344 9.472656 1.195312 2.558594 2.390625 5.121094 3.5 7.765625 3.648438 8.667969 6.644531 17.59375 8.960938 26.710938zm0 0" fill="#c52828"/><path d="m375.8125 162.089844c-8.023438-.34375-15.875-.515625-23.554688-.597656-137.554687-2.050782-218.964843 26.023437-257.449218 44.628906-.199219-7.191406.199218-14.382813 1.195312-21.503906 9.128906-72.363282 62.207032-142.847657 142.25-149.761719 54.441406 4.863281 96.339844 39.082031 120.320313 83.285156 1.707031 3.074219 3.242187 6.230469 4.777343 9.472656 1.195313 2.558594 2.390626 5.121094 3.5 7.765625 3.550782 8.453125 6.488282 17.152344 8.789063 26.027344.085937.253906.085937.425781.171875.683594zm0 0" fill="#f44335"/><path d="m251.234375 412.019531c-24.183594 0-66.117187-2.207031-75.1875-17.003906-2.714844-4.398437-2.84375-9.917969-.34375-14.441406 5.339844-8.769531 6.261719-19.53125 2.492187-29.082031-.921874-1.507813-3.738281-6.101563-14.300781-6.101563-19.054687 0-35.515625 0-44.375-11.425781-6.261719-8.0625-7.117187-19.90625-2.6875-37.28125 3.210938-12.59375-1.492187-19.191406-9.285156-30.128906-10.953125-15.363282-25.964844-36.457032-20.027344-83.054688 13.183594-103.578125 92.339844-157.773438 163.714844-157.773438 71.371094 0 150.535156 54.195313 163.746094 157.773438 5.972656 46.597656-9.074219 67.667969-20.027344 83.054688-7.792969 10.9375-12.496094 17.535156-9.285156 30.128906 4.429687 17.375 3.574219 29.21875-2.6875 37.28125-8.882813 11.425781-25.34375 11.425781-44.375 11.425781-10.5625 0-13.378907 4.59375-14.300781 6.101563-3.777344 9.550781-2.851563 20.316406 2.492187 29.082031 2.5 4.523437 2.371094 10.042969-.34375 14.441406-9.09375 14.796875-51.027344 17.003906-75.21875 17.003906zm-59.625-25.121093c6.664063 4.386718 33.1875 8.054687 59.625 8.054687 26.433594 0 52.972656-3.675781 59.628906-8.054687-5.871093-12.347657-9.453125-30.71875-1.132812-44.320313 6.25-9.707031 17.339843-15.1875 28.851562-14.253906 13.96875 0 27.160157 0 30.921875-4.828125 1.84375-2.382813 3.285156-8.234375-.375-22.597656-5.121094-20.257813 3.523438-32.425782 11.945313-44.242188 10.351562-14.507812 22.085937-31.019531 17-71-11.988281-93.796875-82.933594-142.863281-146.839844-142.863281s-134.828125 49.066406-146.773437 142.863281c-5.121094 39.980469 6.628906 56.457031 16.988281 71 8.398437 11.792969 17.066406 23.984375 11.945312 44.242188-3.660156 14.363281-2.226562 20.214843-.375 22.597656 3.765625 4.828125 16.957031 4.828125 30.925781 4.828125 11.507813-.933594 22.597657 4.546875 28.851563 14.253906 8.277344 13.59375 4.667969 32.015625-1.1875 44.320313zm0 0"/><path d="m189.929688 295.070312c-15.917969 1.21875-30.808594-7.960937-36.871094-22.730468-5.410156-16.753906 5.460937-35.3125 25.871094-44.09375 2.636718-1.132813 5.667968-.867188 8.0625.710937 6.671874 4.402344 15.140624 5.046875 22.402343 1.703125l5.246094-2.378906c2.363281-1.078125 5.085937-1.019531 7.398437.152344 7.46875 3.484375 13.140626 9.933594 15.644532 17.785156s1.613281 16.394531-2.460938 23.558594c-6.363281 11.195312-16.890625 19.421875-29.292968 22.886718-5.183594 1.589844-10.578126 2.402344-16 2.40625zm-7.910157-49.339843c-9.539062 5.417969-15.003906 14.292969-12.714843 21.335937 2.988281 9.34375 17.449218 13.558594 31.617187 9.222656 8.027344-2.175781 14.902344-7.375 19.179687-14.507812 1.800782-3.136719 2.277344-6.859375 1.324219-10.347656-.75-2.246094-2.121093-4.230469-3.949219-5.726563l-1.015624.453125c-10.960938 5.054688-23.613282 4.898438-34.441407-.429687zm0 0"/><path d="m313.789062 295.078125c-5.414062-.007813-10.800781-.828125-15.972656-2.4375-12.433594-3.4375-23-11.65625-29.390625-22.863281-4.074219-7.175782-4.953125-15.734375-2.417969-23.589844 2.535157-7.851562 8.246094-14.285156 15.75-17.726562 2.246094-1.121094 4.871094-1.195313 7.175782-.207032l7.363281 3.167969c6.609375 2.820313 14.210937 1.972656 20.035156-2.238281 2.4375-1.761719 5.621094-2.117188 8.382813-.929688 20.410156 8.78125 31.28125 27.308594 25.863281 44.117188-6.046875 14.742187-20.902344 23.910156-36.789063 22.707031zm-27.476562-49.398437c-1.910156 1.519531-3.335938 3.5625-4.105469 5.878906-.941406 3.46875-.460937 7.171875 1.339844 10.285156 4.308594 7.144531 11.214844 12.34375 19.269531 14.503906 14.105469 4.328125 28.535156.128906 31.515625-9.1875 2.277344-7.050781-3.117187-15.855468-12.5625-21.292968-10.007812 5.222656-21.828125 5.6875-32.214843 1.265624zm0 0"/><path d="m251.234375 349.285156c-15.320313.089844-27.820313-12.242187-27.941406-27.5625 0-13.082031 10.609375-37.097656 27.941406-37.097656 17.328125 0 27.945313 24.015625 27.945313 37.097656-.121094 15.320313-12.625 27.652344-27.945313 27.5625zm0-47.59375c-3.746094 0-10.871094 11.949219-10.871094 20.03125.164063 5.886719 4.984375 10.574219 10.875 10.574219s10.710938-4.6875 10.875-10.574219c0-8.058594-7.132812-20.03125-10.878906-20.03125zm0 0"/><path d="m67.355469 512.125c-15-.011719-28.097657-10.160156-31.84375-24.6875-.746094-2.972656-1.058594-6.039062-.929688-9.105469-12.707031.613281-24.625-6.148437-30.621093-17.363281-5.191407-9.339844-5.171876-20.707031.054687-30.03125 6.433594-11.816406 19.378906-18.5625 32.75-17.066406 5.921875.53125 11.773437-1.589844 15.980469-5.792969l24.550781-24.082031c3.378906-3.21875 8.714844-3.125 11.980469.207031 3.265625 3.328125 3.25 8.667969-.03125 11.980469l-24.550782 24.082031c-7.886718 7.796875-18.835937 11.671875-29.867187 10.570313-6.53125-.753907-12.859375 2.574218-15.933594 8.390624-2.351562 4.175782-2.363281 9.273438-.03125 13.464844 2.058594 3.996094 5.71875 6.9375 10.066407 8.085938 4.347656 1.152344 8.980468.410156 12.75-2.046875.902343-.539063 1.742187-1.183594 2.5-1.910157 2.144531-2.28125 5.367187-3.207031 8.394531-2.410156 3.027343.800782 5.375 3.191406 6.117187 6.230469.738282 3.042969-.242187 6.246094-2.566406 8.347656-.851562.878907-1.640625 1.816407-2.371094 2.800781-2.101562 3.445313-2.714844 7.59375-1.707031 11.503907 1.152344 4.367187 4.121094 8.03125 8.160156 10.058593 4.457031 2.285157 9.742188 2.285157 14.199219 0 5.816406-2.789062 9.234375-8.949218 8.53125-15.359374-1.074219-11.007813 2.960938-21.898438 10.949219-29.542969l28.039062-27.503907c3.378907-3.21875 8.714844-3.125 11.980469.207032 3.265625 3.328125 3.253906 8.667968-.03125 11.980468l-28.050781 27.503907c-4.238281 3.933593-6.4375 9.59375-5.972657 15.359375.941407 9.207031-2.050781 18.382812-8.242187 25.265625-6.1875 6.882812-14.996094 10.828125-24.253906 10.863281zm0 0"/><path d="m47.105469 475.109375c-2.230469 0-4.375-.871094-5.972657-2.433594l-.671874-.65625c-3.375-3.300781-3.4375-8.710937-.136719-12.085937 3.296875-3.371094 8.707031-3.433594 12.082031-.132813l.683594.671875c2.488281 2.425782 3.253906 6.117188 1.941406 9.332032-1.308594 3.21875-4.441406 5.316406-7.914062 5.3125zm0 0"/><path d="m444.8125 512.125c-9.269531-.015625-18.09375-3.949219-24.300781-10.832031-6.203125-6.882813-9.207031-16.070313-8.261719-25.289063.460938-5.765625-1.738281-11.421875-5.976562-15.359375l-30.078126-29.507812c-2.285156-2.109375-3.242187-5.296875-2.496093-8.316407.746093-3.019531 3.074219-5.394531 6.082031-6.199218 3.003906-.800782 6.207031.09375 8.359375 2.335937l30.089844 29.5c8 7.640625 12.050781 18.527344 10.992187 29.535157-.710937 6.414062 2.710938 12.574218 8.53125 15.359374 4.246094 2.167969 9.242188 2.292969 13.59375.34375 4.347656-1.949218 7.578125-5.761718 8.789063-10.371093 1.03125-4.121094.269531-8.484375-2.089844-12.015625-.621094-.789063-1.28125-1.546875-1.980469-2.269532-3.367187-3.296874-3.425781-8.703124-.128906-12.074218 3.300781-3.367188 8.707031-3.425782 12.078125-.128906.71875.699218 1.515625 1.3125 2.371094 1.835937 3.757812 2.480469 8.386719 3.273437 12.757812 2.175781 4.351563-1.105468 8.027344-4.003906 10.121094-7.976562 2.390625-4.195313 2.410156-9.335938.058594-13.550782-3.070313-5.84375-9.410157-9.199218-15.964844-8.449218-11.023437 1.09375-21.957031-2.78125-29.824219-10.574219l-32.316406-31.691406c-2.230469-2.125-3.140625-5.28125-2.386719-8.265625.75-2.984375 3.050781-5.332032 6.019531-6.144532s6.144532.039063 8.3125 2.222657l32.316407 31.695312c4.195312 4.210938 10.046875 6.335938 15.964843 5.792969 13.398438-1.503906 26.371094 5.273438 32.792969 17.125 5.222657 9.371094 5.199219 20.777344-.058593 30.125-4.359376 8.113281-11.949219 14.003906-20.890626 16.210938-3.152343.792968-6.410156 1.117187-9.660156.964843.144532 3.0625-.164062 6.125-.910156 9.097657-3.738281 14.558593-16.875 24.730468-31.90625 24.695312zm0 0"/><path d="m465.070312 475.109375c-3.46875-.003906-6.589843-2.101563-7.898437-5.308594-1.3125-3.210937-.550781-6.890625 1.925781-9.320312l.679688-.664063c3.394531-3.074218 8.609375-2.921875 11.820312.347656 3.207032 3.265626 3.261719 8.484376.128906 11.820313l-.691406.675781c-1.59375 1.5625-3.734375 2.441406-5.964844 2.449219zm0 0"/><path d="m73.636719 121.238281c-2.234375 0-4.378907-.875-5.972657-2.441406l-14.917968-14.625c-4.199219-4.203125-10.046875-6.324219-15.964844-5.792969-13.390625 1.480469-26.351562-5.285156-32.792969-17.117187-5.21875-9.367188-5.199219-20.773438.050781-30.125 4.363282-8.113281 11.957032-14.003907 20.898438-16.210938 3.152344-.804687 6.40625-1.144531 9.660156-1.007812-.140625-3.0625.167969-6.132813.914063-9.105469 4.191406-16.699219 20.585937-27.3125 37.535156-24.304688 16.953125 3.011719 28.691406 18.617188 26.882813 35.738282-.464844 5.765625 1.734374 11.425781 5.972656 15.359375l11.09375 10.964843c2.226562 2.125 3.140625 5.285157 2.386718 8.265626-.753906 2.984374-3.054687 5.332031-6.023437 6.144531s-6.144531-.035157-8.3125-2.222657l-11.152344-10.941406c-7.992187-7.648437-12.027343-18.546875-10.949219-29.558594.714844-6.414062-2.710937-12.574218-8.53125-15.359374-4.246093-2.148438-9.238281-2.261719-13.578124-.308594-4.339844 1.953125-7.5625 5.765625-8.769532 10.371094-1.027344 4.121093-.265625 8.484374 2.097656 12.011718.625.800782 1.289063 1.5625 1.996094 2.289063 2.320313 2.101562 3.304688 5.304687 2.5625 8.347656-.738281 3.039063-3.089844 5.433594-6.117187 6.230469-3.027344.796875-6.246094-.128906-8.390625-2.410156-.714844-.691407-1.507813-1.300782-2.355469-1.816407-3.761719-2.472656-8.386719-3.261719-12.757813-2.175781-4.351562 1.105469-8.035156 4.003906-10.128906 7.976562-2.382812 4.203126-2.402344 9.339844-.050781 13.558594 3.074219 5.835938 9.414063 9.183594 15.964844 8.441406 11.035156-1.105468 21.988281 2.769532 29.867187 10.574219l14.917969 14.625c2.472656 2.425781 3.234375 6.109375 1.921875 9.320313-1.308594 3.207031-4.429688 5.304687-7.898438 5.304687zm0 0"/><path d="m438.539062 121.238281c-3.464843 0-6.585937-2.097656-7.898437-5.304687-1.308594-3.210938-.550781-6.894532 1.925781-9.320313l14.917969-14.625c7.875-7.808593 18.828125-11.6875 29.863281-10.574219 6.53125.757813 12.855469-2.574218 15.925782-8.386718 2.359374-4.171875 2.375-9.273438.042968-13.457032-2.0625-4-5.71875-6.941406-10.066406-8.09375-4.347656-1.15625-8.980469-.414062-12.753906 2.042969-.921875.546875-1.78125 1.191407-2.558594 1.925781-3.371094 3.300782-8.777344 3.242188-12.074219-.125-3.300781-3.371093-3.242187-8.777343.128907-12.074218.835937-.871094 1.617187-1.796875 2.335937-2.765625 2.109375-3.449219 2.726563-7.609375 1.707031-11.519531-1.210937-4.582032-4.425781-8.375-8.742187-10.328126-4.320313-1.953124-9.289063-1.855468-13.53125.265626-5.8125 2.792968-9.230469 8.949218-8.53125 15.359374 1.074219 11.003907-2.957031 21.894532-10.941407 29.542969l-11.160156 10.957031c-3.378906 3.21875-8.714844 3.128907-11.980468-.203124-3.265626-3.332032-3.25-8.667969.035156-11.984376l11.144531-10.9375c4.234375-3.9375 6.4375-9.597656 5.972656-15.359374-1.492187-13.402344 5.484375-26.324219 17.507813-32.425782 8.886718-4.59375 19.378906-4.886718 28.503906-.796875 9.128906 4.089844 15.894531 12.117188 18.378906 21.804688.746094 2.972656 1.058594 6.035156.929688 9.097656 12.699218-.601563 24.605468 6.160156 30.59375 17.371094 5.195312 9.34375 5.171875 20.714843-.058594 30.039062-6.429688 11.824219-19.378906 18.570313-32.753906 17.066407-5.921875-.558594-11.785156 1.570312-15.972656 5.792968l-14.917969 14.625c-1.597657 1.550782-3.746094 2.410156-5.972657 2.390625zm0 0"/><path d="m206.59375 408.625c-2.625.003906-5.109375-1.203125-6.730469-3.273438-1.617187-2.066406-2.195312-4.765624-1.5625-7.316406l6.828125-27.476562c.734375-2.960938 2.992188-5.304688 5.921875-6.148438 2.929688-.84375 6.089844-.058594 8.285157 2.054688 2.199218 2.117187 3.097656 5.246094 2.363281 8.207031l-6.828125 27.476563c-.941406 3.804687-4.355469 6.472656-8.277344 6.476562zm0 0"/><path d="m297.046875 408.367188c-3.910156-.003907-7.316406-2.664063-8.265625-6.457032l-6.828125-27.222656c-1.105469-4.554688 1.667969-9.152344 6.21875-10.292969 4.546875-1.136719 9.164063 1.605469 10.335937 6.144531l6.828126 27.222657c1.144531 4.570312-1.632813 9.207031-6.207032 10.351562-.679687.167969-1.378906.253907-2.082031.253907zm0 0"/><path d="m232.972656 411.355469c-.574218.003906-1.144531-.054688-1.707031-.171875-4.617187-.929688-7.609375-5.425782-6.683594-10.042969l6.058594-30.207031c.527344-3.0625 2.675781-5.59375 5.609375-6.613282 2.933594-1.023437 6.191406-.367187 8.5 1.707032 2.3125 2.074218 3.316406 5.242187 2.617188 8.265625l-6.050782 30.210937c-.796875 3.976563-4.289062 6.839844-8.34375 6.851563zm0 0"/><path d="m270.671875 411.355469c-4.054687 0-7.550781-2.851563-8.363281-6.828125l-6.050782-30.207032c-.695312-3.027343.304688-6.191406 2.617188-8.265624 2.3125-2.074219 5.566406-2.730469 8.5-1.710938s5.082031 3.554688 5.609375 6.613281l6.058594 30.210938c.925781 4.617187-2.0625 9.113281-6.679688 10.042969-.558593.105468-1.125.152343-1.691406.144531zm0 0"/><path d="m213.421875 434.222656c-3.921875 0-7.335937-2.675781-8.277344-6.484375l-6.578125-26.546875c-1.011718-4.523437 1.777344-9.027344 6.277344-10.140625 4.503906-1.113281 9.070312 1.570313 10.285156 6.046875l6.570313 26.546875c.628906 2.542969.054687 5.238281-1.5625 7.304688-1.617188 2.066406-4.09375 3.273437-6.714844 3.273437zm0 0"/><path d="m290.222656 433.96875c-.703125 0-1.402344-.085938-2.082031-.257812-4.558594-1.148438-7.332031-5.769532-6.195313-10.332032l6.75-26.726562c.851563-2.941406 3.214844-5.203125 6.191407-5.921875 2.980469-.71875 6.113281.210937 8.214843 2.441406 2.101563 2.230469 2.84375 5.414063 1.949219 8.34375l-.253906.855469-6.296875 25.15625c-.957031 3.789062-4.371094 6.441406-8.277344 6.441406zm0 0"/><path d="m239.023438 432.347656c-3.828126 0-7.1875-2.546875-8.21875-6.230468l-5.886719-20.992188 8.128906-2.644531 8.269531-2.117188 5.921875 21.148438c.722657 2.570312.199219 5.328125-1.414062 7.457031-1.617188 2.128906-4.132813 3.378906-6.800781 3.378906zm0 0"/><path d="m264.621094 432.347656c-2.667969 0-5.1875-1.25-6.800782-3.378906-1.613281-2.128906-2.136718-4.886719-1.417968-7.457031l5.890625-20.992188c1.261719-4.535156 5.902343-7.246093 10.46875-6.113281 2.164062.539062 4.023437 1.917969 5.167969 3.828125 1.144531 1.914063 1.480468 4.203125.933593 6.363281l-.085937.339844-5.972656 21.179688c-1.027344 3.671874-4.371094 6.214843-8.183594 6.230468zm0 0"/><path d="m251.820312 475.433594c-12.105468 0-24.207031-.488282-36.222656-1.460938-19.09375-1.214844-36.679687-10.777344-48.078125-26.144531-9.195312-12.527344-12.402343-28.46875-8.761719-43.574219l1.03125-4.613281c2.582032-11.03125 13.425782-18.042969 24.542969-15.863281 4.632813.871094 7.679688 5.332031 6.808594 9.964844-.871094 4.632812-5.332031 7.679687-9.964844 6.808593-2.097656-.460937-4.1875.804688-4.746093 2.875l-1.074219 4.789063c-2.535157 10.296875-.316407 21.183594 6.039062 29.671875 8.476563 11.28125 21.488281 18.257812 35.578125 19.078125 23.195313 1.871094 46.503906 1.871094 69.699219 0 14.085937-.816406 27.101563-7.796875 35.574219-19.078125 6.332031-8.410157 8.566406-19.210938 6.09375-29.441407l-1.132813-5.050781c-.574219-2.058593-2.65625-3.304687-4.738281-2.835937l-1.175781.222656c-3.011719.601562-6.109375-.460938-8.121094-2.777344-2.007813-2.320312-2.617187-5.539062-1.597656-8.433594 1.023437-2.894531 3.523437-5.015624 6.542969-5.554687l1.1875-.230469c11.109374-2.210937 21.96875 4.789063 24.539062 15.820313l1.09375 4.878906c3.570312 15.042969.347656 30.890625-8.816406 43.34375-11.394532 15.367187-28.980469 24.9375-48.074219 26.152344-12.015625.957031-24.125 1.453125-36.226563 1.453125zm0 0"/><path d="m96.011719 228.988281c-3.734375.015625-7.039063-2.398437-8.167969-5.957031-1.125-3.558594.191406-7.4375 3.253906-9.574219 16.144532-11.339843 107.050782-67.566406 310.382813-59.730469 4.710937.179688 8.386719 4.148438 8.203125 8.859376-.179688 4.714843-4.148438 8.386718-8.859375 8.207031-197.855469-7.679688-284.5625 45.855469-299.914063 56.644531-1.433594 1.011719-3.144531 1.554688-4.898437 1.550781zm0 0"/><path d="m389.730469 136.148438c-.515625 0-1.03125-.046876-1.539063-.136719-77.175781-12.660157-155.664062-15.328125-233.523437-7.9375-3.027344.351562-6.011719-.941407-7.832031-3.390625-1.816407-2.445313-2.191407-5.679688-.980469-8.476563 1.210937-2.796875 3.824219-4.738281 6.851562-5.089843 79.53125-7.5625 159.707031-4.839844 238.539063 8.097656 4.347656.789062 7.375 4.761718 6.980468 9.160156-.394531 4.398438-4.082031 7.769531-8.496093 7.773438zm0 0"/><path d="m42.4375 273.890625c-3.183594-.003906-6.257812-1.195313-8.617188-3.335937-3.996093-3.535157-5.335937-9.203126-3.34375-14.15625 7.304688-19.003907 13.730469-37.078126 17.5625-48.050782-11.050781-.832031-21.785156-4.066406-31.457031-9.472656-2.652343-1.355469-5.304687-2.722656-8.371093-3.933594-5.140626-2.003906-8.417969-7.078125-8.1289068-12.589844.2851568-5.511718 4.0703128-10.21875 9.3945308-11.679687 8.855469-2.558594 27.246094-7.800781 49.609376-13.363281 13.597656-3.421875 27.640624-4.742188 41.636718-3.917969 3.046875.175781 5.773438 1.960937 7.144532 4.691406 1.375 2.726563 1.191406 5.976563-.484376 8.53125-1.675781 2.554688-4.585937 4.019531-7.632812 3.847657-12.265625-.734376-24.570312.417968-36.488281 3.410156-15.234375 3.796875-28.585938 7.417968-38.316407 10.148437 10.660157 5.832031 22.75 8.523438 34.875 7.765625 2.75 0 5.328126 1.320313 6.933594 3.550782 1.601563 2.230468 2.035156 5.097656 1.15625 7.703124-.085937.246094-7.566406 22.460938-17.5 48.921876 14.898438-8.125 29.351563-17.035157 43.304688-26.691407 3.847656-2.679687 9.132812-1.757812 11.84375 2.066407 2.707031 3.828124 1.824218 9.121093-1.976563 11.859374-17.660156 12.164063-36.046875 23.230469-55.058593 33.144532-1.871094 1.007812-3.960938 1.539062-6.085938 1.550781zm3.960938-11.367187v.078124zm-32.136719-75.457032h-.09375zm.101562-8.046875.128907.050781zm0 0"/></svg>