<svg height="512pt" viewBox="0 0 512.0083 512" width="512pt" xmlns="http://www.w3.org/2000/svg"><g fill-rule="evenodd"><path d="m499.203125 499.183594-67.496094-18.433594-116.054687-116.050781c8.621094-7.726563 16.769531-15.960938 24.40625-24.664063 7.785156-8.75 14.78125-18.171875 20.90625-28.160156l119.808594 119.808594zm0 0" fill="#607d8b"/><path d="m480.773438 431.683594-55.210938-6.144532-85.503906-85.503906c7.785156-8.75 14.78125-18.171875 20.90625-28.160156zm0 0" fill="#cfd8dc"/><path d="m499.203125 499.183594-23.039063-6.316406-44.457031-12.117188-5.890625-52.820312-.253906-2.390626 55.210938 6.144532zm0 0" fill="#cfd8dc"/><path d="m476.164062 492.867188-44.457031-12.117188-5.890625-52.820312 33.621094 3.753906zm0 0" fill="#f5f5f5"/><path d="m196.355469 364.699219-116.050781 116.050781-67.5 18.433594 18.429687-67.5 119.808594-119.808594c6.125 9.988281 13.121093 19.410156 20.90625 28.160156 7.636719 8.703125 15.785156 16.9375 24.40625 24.664063zm0 0" fill="#607d8b"/><path d="m86.445312 425.539062-6.140624 55.210938-67.5 18.433594 18.429687-67.5zm0 0" fill="#f5f5f5"/><path d="m171.949219 340.035156-85.503907 85.503906-55.210937 6.144532 119.808594-119.808594c6.125 9.988281 13.121093 19.410156 20.90625 28.160156zm0 0" fill="#cfd8dc"/><path d="m413.53125 147.523438-31.574219 31.574218c-2.898437-5.425781-6.609375-10.375-11.007812-14.675781-3.957031-3.941406-8.46875-7.277344-13.398438-9.898437-12.125-6.832032-25.953125-10.058594-39.851562-9.304688l46.761719-46.761719 24.492187 24.578125zm0 0" fill="#cfd8dc"/><path d="m194.308594 145.21875c-13.859375-.742188-27.648438 2.453125-39.765625 9.21875-4.945313 2.671875-9.484375 6.035156-13.484375 9.984375-4.398438 4.300781-8.109375 9.25-11.007813 14.675781l-31.570312-31.574218 24.574219-24.488282 24.492187-24.578125zm0 0" fill="#cfd8dc"/><path d="m381.957031 179.097656c-2.898437-5.425781-6.609375-10.375-11.007812-14.675781-3.957031-3.941406-8.46875-7.277344-13.398438-9.898437-12.125-6.832032-25.953125-10.058594-39.851562-9.304688-3.121094.089844-6.234375.433594-9.300781 1.027344-21.832032 3.734375-40.957032 16.785156-52.394532 35.753906-3.589844-5.777344-7.890625-11.082031-12.800781-15.789062-17.289063-16.636719-41.464844-24.050782-65.109375-19.964844-8.277344 1.289062-16.257812 4.066406-23.550781 8.191406-4.945313 2.671875-9.484375 6.035156-13.484375 9.984375-4.398438 4.300781-8.109375 9.25-11.007813 14.675781-17.066406 30.632813-13.394531 78.421875 11.007813 126.292969 1.707031 3.585937 3.585937 7.167969 5.71875 10.753906 6.125 9.984375 13.121094 19.40625 20.90625 28.160157 7.632812 8.699218 15.785156 16.933593 24.40625 24.660156 16.15625 14.621094 33.261718 28.164062 51.199218 40.53125 4.265626 3.074218 8.535157 5.890625 12.714844 8.621094 22.570313-14.671876 43.941406-31.109376 63.914063-49.152344 8.621093-7.726563 16.773437-15.960938 24.40625-24.660156 7.789062-8.753907 14.785156-18.175782 20.90625-28.160157 2.132812-3.585937 4.011719-7.167969 5.71875-10.753906 24.402343-47.871094 28.074219-95.660156 11.007812-126.292969zm0 0" fill="#e91e63"/><path d="m370.949219 305.390625c-1.707031 3.585937-3.585938 7.167969-5.71875 10.753906-6.121094 9.984375-13.117188 19.40625-20.90625 28.160157-7.632813 8.699218-15.785157 16.933593-24.40625 24.660156-19.972657 18.042968-41.34375 34.480468-63.914063 49.152344-4.179687-2.730469-8.449218-5.546876-12.714844-8.621094 17.910157-12.371094 34.988282-25.910156 51.113282-40.53125 8.625-7.726563 16.773437-15.960938 24.40625-24.660156 7.789062-8.753907 14.785156-18.175782 20.90625-28.160157 2.132812-3.585937 4.011718-7.167969 5.71875-10.753906 24.40625-47.871094 28.074218-95.660156 11.007812-126.292969-2.898437-5.425781-6.609375-10.375-11.007812-14.675781-3.953125-3.941406-8.46875-7.277344-13.398438-9.898437-7.320312-4.15625-15.324218-6.957032-23.636718-8.277344 3.066406-.59375 6.179687-.9375 9.300781-1.027344 13.898437-.753906 27.726562 2.472656 39.851562 9.304688 4.929688 2.621093 9.441407 5.957031 13.398438 9.898437 4.398437 4.300781 8.109375 9.25 11.007812 14.675781 17.066407 30.632813 13.394531 78.421875-11.007812 126.292969zm0 0" fill="#ad1457"/><path d="m280.582031 280.558594-24.578125 24.492187-24.492187-24.492187 24.492187-24.574219zm0 0" fill="#673ab7"/><path d="m154.542969 154.4375c-4.945313 2.671875-9.484375 6.035156-13.484375 9.984375-4.398438 4.300781-8.109375 9.25-11.007813 14.675781l-31.570312-31.574218 24.574219-24.488282zm0 0" fill="#607d8b"/><path d="m256.003906 255.984375-24.492187 24.574219-24.574219-24.574219 24.574219-24.492187zm0 0" fill="#9d27b0"/><path d="m413.53125 147.523438-31.574219 31.574218c-2.898437-5.425781-6.609375-10.375-11.007812-14.675781-3.957031-3.941406-8.46875-7.277344-13.398438-9.898437l31.402344-31.488282zm0 0" fill="#607d8b"/><path d="m305.070312 255.984375-24.488281 24.574219-24.578125-24.574219 24.578125-24.492187zm0 0" fill="#9d27b0"/></g><path d="m56.472656 81 24.546875-24.546875 43.875 43.875-24.546875 24.546875zm0 0" fill="#ff9801"/><path d="m82.230469 47.496094c0 19.171875-15.539063 34.714844-34.710938 34.714844s-34.714843-15.542969-34.714843-34.714844 15.542968-34.714844 34.714843-34.714844 34.710938 15.542969 34.710938 34.714844zm0 0" fill="#fec108"/><path d="m182.53125 72.003906-30.71875 30.71875-24.492188 24.578125-24.574218 24.488281-30.71875 30.722657c-12.234375 8.910156-29.128906 7.605469-39.851563-3.074219-11.261719-11.269531-11.90625-29.324219-1.476562-41.367188 10.429687-12.046874 28.390625-13.988281 41.15625-4.457031l61.78125-61.78125c-9.246094-12.59375-7.4375-30.148437 4.183593-40.597656 11.617188-10.445313 29.265626-10.386719 40.8125.144531 11.546876 10.527344 13.234376 28.09375 3.898438 40.625zm0 0" fill="#fec108" fill-rule="evenodd"/><path d="m391.324219 96.121094 39.660156-39.660156 24.546875 24.542968-39.660156 39.664063zm0 0" fill="#ff9801"/><path d="m494.425781 66.628906c-13.582031 13.359375-35.394531 13.269532-48.867187-.199218-13.472656-13.472657-13.5625-35.285157-.199219-48.867188 3.324219-3.398438 7.339844-6.046875 11.777344-7.765625 15.300781-6.035156 32.734375-.503906 41.761719 13.246094 9.023437 13.753906 7.15625 31.953125-4.472657 43.585937zm0 0" fill="#ff9801" fill-rule="evenodd"/><path d="m468.824219 66.628906c-3.335938 3.324219-7.3125 5.9375-11.6875 7.679688-4.414063-1.71875-8.425781-4.335938-11.777344-7.679688-6.515625-6.503906-10.175781-15.328125-10.175781-24.535156 0-9.203125 3.660156-18.03125 10.175781-24.53125 3.324219-3.398438 7.339844-6.046875 11.777344-7.765625 4.394531 1.742187 8.378906 4.386719 11.6875 7.765625 6.515625 6.5 10.175781 15.328125 10.175781 24.53125 0 9.207031-3.660156 18.03125-10.175781 24.535156zm0 0" fill="#fec108" fill-rule="evenodd"/><path d="m479.832031 136.429688c-10.722656-10.589844-27.566406-11.785157-39.679687-2.816407l-61.78125-61.78125c8.992187-12.105469 7.796875-28.964843-2.816406-39.679687-3.511719-3.519532-7.855469-6.101563-12.628907-7.507813-10.734375-3.339843-22.433593-.449219-30.378906 7.507813-10.675781 10.722656-11.980469 27.617187-3.070313 39.851562l30.71875 30.71875 24.492188 24.578125 24.574219 24.488281 30.722656 30.722657c12.230469 8.910156 29.125 7.605469 39.847656-3.074219 11.863281-11.882812 11.863281-31.125 0-43.007812zm0 0" fill="#fec108" fill-rule="evenodd"/><path d="m479.832031 179.4375c-10.722656 10.679688-27.617187 11.984375-39.847656 3.074219l-15.191406-15.191407c11.863281 5.988282 26.226562 3.71875 35.667969-5.628906 8.597656-8.59375 11.246093-21.480468 6.742187-32.769531 10.234375 3.070313 18.089844 11.304687 20.679687 21.667969 2.59375 10.363281-.464843 21.324218-8.050781 28.847656zm0 0" fill="#ff9801" fill-rule="evenodd"/><path d="m256.003906 426.648438c-1.65625 0-3.28125-.484376-4.667968-1.390626-27.375-17.917968-93.652344-65.039062-118.015626-116.238281-30.25-59.34375-29.59375-119.988281 1.707032-150.71875 17.613281-16.53125 41.699218-24.308593 65.65625-21.203125 21.691406 2.496094 41.546875 13.375 55.320312 30.316406 13.769532-16.933593 33.613282-27.816406 55.296875-30.316406 23.953125-3.101562 48.039063 4.679688 65.65625 21.203125 31.324219 30.722657 31.980469 91.375 1.621094 150.921875-24.261719 51.003906-90.539063 98.132813-117.90625 116.054688-1.390625.898437-3.011719 1.378906-4.667969 1.371094zm-65.382812-273.066407c-16.179688-.242187-31.824219 5.820313-43.613282 16.90625-25.976562 25.480469-25.328124 78.121094 1.621094 130.996094 21.351563 44.867187 79.011719 87.414063 107.375 106.390625 28.363282-18.984375 86.007813-61.515625 107.265625-106.203125 27.058594-53.078125 27.707031-105.722656 1.707031-131.203125-13.90625-12.9375-32.875-18.964844-51.695312-16.425781-20.800781 2.507812-39.277344 14.476562-50.074219 32.425781-1.664062 2.34375-4.355469 3.734375-7.226562 3.734375-2.875 0-5.566407-1.390625-7.230469-3.734375-10.796875-17.949219-29.273438-29.917969-50.074219-32.425781-2.671875-.308594-5.363281-.460938-8.054687-.460938zm0 0"/><path d="m43.242188 86.453125c-20.617188-.019531-38.355469-14.597656-42.363282-34.820313-4.007812-20.226562 6.828125-40.464843 25.882813-48.34375 19.050781-7.878906 41.019531-1.203124 52.464843 15.945313 11.445313 17.152344 9.183594 39.996094-5.402343 54.570313-8.105469 8.113281-19.113281 12.664062-30.582031 12.648437zm0-69.402344c-12.46875.003907-23.203126 8.8125-25.636719 21.042969-2.433594 12.230469 4.109375 24.476562 15.628906 29.253906 11.515625 4.777344 24.808594.753906 31.742187-9.609375 6.9375-10.363281 5.589844-24.179687-3.214843-33.007812-4.90625-4.921875-11.570313-7.683594-18.519531-7.679688zm0 0"/><path d="m49.769531 192.707031c-10.457031.011719-20.492187-4.132812-27.894531-11.519531-15.175781-15.199219-15.175781-39.820312 0-55.023438 11.722656-11.621093 29.476562-14.632812 44.375-7.523437l52.410156-52.4375c-8.128906-17.25-2.574218-37.847656 13.125-48.667969 15.699219-10.820312 36.925782-8.679687 50.148438 5.058594s14.550781 35.03125 3.140625 50.304688c-.242188.320312-.507813.621093-.792969.90625l-110.457031 110.5c-.28125.28125-.582031.542968-.902344.785156-6.683594 4.984375-14.8125 7.660156-23.152344 7.617187zm-.382812-60.824219c-8.828125-.007812-16.789063 5.304688-20.167969 13.457032-3.378906 8.15625-1.511719 17.542968 4.730469 23.78125 7.554687 7.601562 19.476562 8.679687 28.269531 2.5625l109.527344-109.476563c6.121094-8.800781 5.042968-20.726562-2.558594-28.285156-8.648438-8.234375-22.234375-8.234375-30.882812 0-7.628907 7.683594-8.492188 19.792969-2.03125 28.484375 2.550781 3.398438 2.214843 8.15625-.792969 11.160156l-61.902344 61.847656c-3.003906 3.007813-7.765625 3.339844-11.160156.785157-3.761719-2.8125-8.335938-4.328125-13.03125-4.316407zm0 0"/><path d="m86.191406 119.261719c-2.261718 0-4.433594-.898438-6.035156-2.5l-33.976562-34.003907c-2.269532-2.132812-3.199219-5.332031-2.425782-8.347656.777344-3.015625 3.132813-5.367187 6.148438-6.140625 3.015625-.773437 6.210937.15625 8.34375 2.429688l27.945312 27.953125 12.484375-12.484375-27.957031-27.945313c-2.269531-2.128906-3.199219-5.328125-2.429688-8.34375.773438-3.015625 3.128907-5.371094 6.144532-6.144531 3.015625-.777344 6.210937.152344 8.34375 2.421875l34.003906 34.039062c3.332031 3.332032 3.332031 8.734376 0 12.066407l-24.539062 24.542969c-1.613282 1.589843-3.789063 2.472656-6.050782 2.457031zm0 0"/><path d="m256.003906 313.582031c-2.261718 0-4.433594-.898437-6.03125-2.5l-49.066406-49.066406c-3.234375-3.347656-3.191406-8.671875.101562-11.960937 3.292969-3.292969 8.613282-3.339844 11.960938-.105469l49.070312 49.066406c2.4375 2.441406 3.167969 6.109375 1.847657 9.300781-1.320313 3.1875-4.433594 5.265625-7.882813 5.265625zm0 0"/><path d="m305.070312 264.515625c-2.261718 0-4.433593-.898437-6.03125-2.5l-24.492187-24.492187c-3.234375-3.347657-3.1875-8.667969.105469-11.960938 3.289062-3.289062 8.613281-3.335938 11.960937-.101562l24.492188 24.488281c2.4375 2.441406 3.167969 6.109375 1.847656 9.300781-1.320313 3.1875-4.429687 5.265625-7.882813 5.265625zm0 0"/><path d="m503.472656 511.984375c-.761718-.003906-1.519531-.105469-2.253906-.300781l-67.5-18.429688c-1.429688-.394531-2.730469-1.152344-3.78125-2.203125l-116.050781-116.054687c-3.332031-3.335938-3.328125-8.746094.011719-12.078125 3.339843-3.332031 8.746093-3.324219 12.078124.011719l114.425782 114.449218 50.898437 13.902344-13.898437-50.902344-118.203125-118.203125c-2.21875-2.140625-3.109375-5.316406-2.328125-8.296875.78125-2.984375 3.109375-5.316406 6.09375-6.097656 2.984375-.777344 6.15625.109375 8.300781 2.328125l119.804687 119.808594c1.050782 1.046875 1.808594 2.351562 2.203126 3.78125l18.433593 67.496093c.699219 2.570313.164063 5.316407-1.449219 7.433594-1.617187 2.113282-4.125 3.355469-6.785156 3.355469zm0 0"/><path d="m130.050781 187.632812c-2.261719-.003906-4.433593-.902343-6.03125-2.503906l-31.574219-31.570312c-1.601562-1.601563-2.503906-3.773438-2.503906-6.039063s.902344-4.4375 2.503906-6.035156l49.050782-49.050781c1.597656-1.605469 3.769531-2.507813 6.03125-2.507813 2.265625 0 4.433594.898438 6.035156 2.5l46.761719 46.761719c3.332031 3.335938 3.328125 8.738281-.003907 12.070312-3.335937 3.332032-8.738281 3.328126-12.070312-.003906l-40.714844-40.714844-37 36.992188 25.53125 25.535156c2.441406 2.4375 3.171875 6.109375 1.851563 9.296875-1.320313 3.1875-4.433594 5.265625-7.882813 5.269531zm0 0"/><path d="m153.707031 162.21875c-2.261719 0-4.433593-.898438-6.035156-2.5l-30.71875-30.71875c-3.234375-3.351562-3.1875-8.671875.105469-11.964844 3.289062-3.289062 8.613281-3.335937 11.960937-.101562l30.71875 30.71875c2.441407 2.441406 3.171875 6.109375 1.851563 9.296875-1.320313 3.191406-4.433594 5.269531-7.882813 5.269531zm0 0"/><path d="m435.964844 493.550781c-4.347656-.003906-7.996094-3.273437-8.476563-7.59375l-5.808593-52.234375-83.386719-83.386718c-3.234375-3.347657-3.191407-8.671876.101562-11.960938 3.292969-3.292969 8.613281-3.339844 11.960938-.105469l85.503906 85.503907c1.378906 1.378906 2.242187 3.183593 2.449219 5.121093l6.144531 55.203125c.5 4.671875-2.871094 8.867188-7.542969 9.386719-.3125.042969-.628906.066406-.945312.066406zm0 0"/><path d="m280.582031 289.09375c-2.265625 0-4.433593-.902344-6.035156-2.5l-49.066406-49.070312c-3.234375-3.347657-3.1875-8.667969.105469-11.960938 3.289062-3.289062 8.613281-3.335938 11.960937-.101562l49.066406 49.066406c2.441407 2.4375 3.167969 6.109375 1.847657 9.296875-1.320313 3.1875-4.429688 5.265625-7.878907 5.269531zm0 0"/><path d="m485.074219 444.484375c-.320313 0-.640625-.019531-.957031-.058594l-55.21875-6.128906c-4.683594-.519531-8.0625-4.734375-7.542969-9.421875.515625-4.683594 4.734375-8.058594 9.417969-7.542969l55.230468 6.136719c4.503906.496094 7.832032 4.425781 7.585938 8.949219-.246094 4.523437-3.984375 8.066406-8.515625 8.066406zm0 0"/><path d="m468.757812 86.453125c-20.609374-.023437-38.335937-14.59375-42.339843-34.808594-4.003907-20.21875 6.828125-40.449219 25.871093-48.324219 19.042969-7.875 41-1.203124 52.441407 15.9375 11.445312 17.140626 9.1875 39.976563-5.390625 54.546876-8.105469 8.117187-19.113282 12.667968-30.582032 12.648437zm0-69.386719c-12.464843 0-23.195312 8.804688-25.632812 21.03125-2.433594 12.226563 4.101562 24.472656 15.617188 29.25 11.515624 4.777344 24.800781.757813 31.734374-9.601562 6.9375-10.359375 5.59375-24.171875-3.210937-33-4.898437-4.925782-11.554687-7.695313-18.5-7.695313zm0 0"/><path d="m462.238281 192.707031c-8.347656.023438-16.472656-2.671875-23.152343-7.679687-.320313-.238282-.621094-.5-.902344-.785156l-110.457032-110.4375c-.285156-.285157-.550781-.585938-.792968-.90625-11.53125-15.308594-10.25-36.71875 3.023437-50.546876 13.273438-13.824218 34.617188-15.976562 50.382813-5.078124 15.765625 10.898437 21.292968 31.625 13.050781 48.929687l52.4375 52.4375c14.898437-7.117187 32.660156-4.101563 44.375 7.535156 15.175781 15.199219 15.175781 39.820313 0 55.019531-7.425781 7.398438-17.484375 11.539063-27.964844 11.511719zm-12.449219-20.980469c8.792969 6.121094 20.714844 5.039063 28.269532-2.5625 8.078125-8.089843 8.542968-21.039062 1.0625-29.6875-7.476563-8.648437-20.359375-10.058593-29.53125-3.234374-3.394532 2.554687-8.152344 2.222656-11.160156-.785157l-61.859376-61.890625c-3.007812-3.003906-3.34375-7.761718-.792968-11.160156 6.464844-8.6875 5.609375-20.796875-2.011719-28.484375-8.648437-8.234375-22.234375-8.234375-30.882813 0-7.601562 7.558594-8.679687 19.484375-2.5625 28.285156zm0 0"/><path d="m425.816406 119.261719c-2.261718 0-4.433594-.898438-6.03125-2.5l-24.542968-24.542969c-3.332032-3.332031-3.332032-8.734375 0-12.066406l33.988281-33.996094c3.347656-3.234375 8.671875-3.1875 11.960937.105469 3.292969 3.289062 3.339844 8.613281.105469 11.960937l-27.964844 27.945313 12.484375 12.484375 27.964844-27.953125c2.113281-2.332031 5.34375-3.3125 8.398438-2.546875 3.054687.765625 5.4375 3.152344 6.203124 6.207031.761719 3.054687-.21875 6.285156-2.550781 8.398437l-34 33.996094c-1.59375 1.597656-3.757812 2.5-6.015625 2.507813zm0 0"/><path d="m381.957031 187.632812c-3.453125-.003906-6.5625-2.082031-7.882812-5.269531-1.320313-3.1875-.589844-6.859375 1.847656-9.296875l25.53125-25.535156-37-36.992188-40.710937 40.714844c-3.332032 3.332032-8.738282 3.335938-12.070313.003906-3.335937-3.332031-3.335937-8.734374-.003906-12.070312l46.734375-46.761719c1.601562-1.601562 3.773437-2.5 6.035156-2.5 2.265625 0 4.433594.902344 6.03125 2.507813l49.050781 49.050781c1.601563 1.597656 2.503907 3.769531 2.503907 6.035156s-.902344 4.4375-2.503907 6.039063l-31.574219 31.570312c-1.589843 1.59375-3.742187 2.492188-5.988281 2.503906zm0 0"/><path d="m206.9375 264.515625c-3.453125 0-6.566406-2.082031-7.882812-5.273437-1.320313-3.191407-.585938-6.863282 1.859374-9.300782l24.574219-24.5c3.339844-3.328125 8.742188-3.316406 12.070313.023438 3.328125 3.335937 3.320312 8.742187-.019532 12.070312l-24.578124 24.488282c-1.597657 1.597656-3.765626 2.492187-6.023438 2.492187zm0 0"/><path d="m256.003906 313.582031c-3.453125 0-6.566406-2.082031-7.882812-5.273437-1.320313-3.191406-.585938-6.863282 1.859375-9.300782l49.046875-49.050781c3.34375-3.238281 8.667968-3.199219 11.964844.089844 3.296874 3.285156 3.351562 8.609375.121093 11.960937l-49.085937 49.082032c-1.597656 1.597656-3.765625 2.492187-6.023438 2.492187zm0 0"/><path d="m8.539062 511.984375c-2.664062 0-5.171874-1.242187-6.789062-3.355469-1.613281-2.117187-2.148438-4.863281-1.445312-7.433594l18.429687-67.496093c.394531-1.429688 1.152344-2.734375 2.203125-3.78125l119.808594-119.808594c2.140625-2.21875 5.3125-3.105469 8.296875-2.328125 2.984375.78125 5.3125 3.113281 6.09375 6.097656.78125 2.980469-.109375 6.15625-2.324219 8.296875l-118.207031 118.203125-13.898438 50.902344 50.898438-13.902344 114.425781-114.449218c3.347656-3.230469 8.671875-3.1875 11.960938.105468 3.292968 3.292969 3.339843 8.613282.105468 11.960938l-116.054687 116.054687c-1.046875 1.050781-2.351563 1.808594-3.78125 2.203125l-67.496094 18.429688c-.726563.195312-1.476563.296875-2.226563.300781zm0 0"/><path d="m358.300781 162.21875c-3.449219 0-6.5625-2.078125-7.882812-5.269531-1.320313-3.1875-.589844-6.855469 1.851562-9.296875l30.71875-30.71875c2.144531-2.21875 5.316407-3.109375 8.300781-2.328125 2.980469.78125 5.3125 3.109375 6.09375 6.09375s-.109374 6.15625-2.328124 8.300781l-30.71875 30.71875c-1.601563 1.601562-3.769532 2.5-6.035157 2.5zm0 0"/><path d="m76.042969 493.550781c-.316407 0-.632813-.019531-.945313-.058593-4.671875-.519532-8.042968-4.714844-7.542968-9.386719l6.144531-55.203125c.207031-1.9375 1.070312-3.742188 2.449219-5.121094l85.503906-85.503906c3.347656-3.234375 8.667968-3.1875 11.960937.105468 3.292969 3.292969 3.335938 8.613282.105469 11.960938l-83.390625 83.386719-5.84375 52.226562c-.476563 4.304688-4.105469 7.574219-8.441406 7.59375zm0 0"/><path d="m231.511719 289.09375c-3.445313-.003906-6.554688-2.078125-7.878907-5.265625-1.320312-3.183594-.59375-6.851563 1.839844-9.292969l49.082032-49.09375c3.339843-3.328125 8.742187-3.316406 12.070312.023438 3.328125 3.335937 3.320312 8.742187-.019531 12.070312l-49.050781 49.046875c-1.601563 1.605469-3.773438 2.511719-6.042969 2.511719zm0 0"/><path d="m26.933594 444.484375c-4.433594-.128906-8.027344-3.632813-8.269532-8.0625-.242187-4.429687 2.949219-8.304687 7.339844-8.917969l55.230469-6.136718c4.683594-.519532 8.902344 2.859374 9.417969 7.542968.519531 4.683594-2.859375 8.902344-7.542969 9.421875l-55.21875 6.125c-.316406.03125-.636719.039063-.957031.027344zm0 0"/></svg>